<svg width="122" height="149" viewBox="0 0 122 149" fill="none" xmlns="http://www.w3.org/2000/svg">
<path d="M89.4189 142.218C89.4189 142.218 88.0568 140.764 85.6863 138.693C84.3644 137.538 82.7306 136.192 80.8441 134.799C80.1644 134.299 79.4545 133.792 78.7115 133.286C77.3426 132.351 75.8704 131.419 74.3156 130.533C74.2152 130.476 74.1152 130.418 74.013 130.361C70.1736 128.201 65.8362 126.328 61.2655 125.373C56.3987 126.391 51.796 128.447 47.7768 130.785C45.8226 131.922 44.004 133.124 42.3617 134.307C38.3866 137.17 35.4356 139.911 34.0278 141.291C33.4294 141.877 33.1104 142.218 33.1104 142.218C33.3076 140.142 33.4842 138.03 33.6394 135.899V135.897C33.9046 132.275 34.1133 128.597 34.2753 124.947C35.3141 101.632 34.4679 79.3936 34.4679 79.3936L61.2655 97.9172L87.8702 79.5263L88.0611 79.3936C88.0611 79.3936 88.0561 79.5278 88.0464 79.7852C87.935 83.0599 87.2052 106.32 88.4705 129.339C88.5919 131.532 88.7311 133.725 88.8895 135.898C89.0451 138.029 89.2217 140.141 89.4189 142.218Z" fill="url(#paint0_linear_148_7529)"/>
<path d="M89.419 142.218C89.419 142.218 76.6651 128.592 61.2659 125.372C45.865 128.592 33.1111 142.218 33.1111 142.218C33.3083 140.142 33.4849 138.029 33.6402 135.899V135.897C33.6402 135.897 44.8054 122.761 61.7529 121.137C61.7529 121.137 74.7611 125.22 88.8899 135.897C89.0451 138.029 89.2217 140.141 89.419 142.218Z" fill="url(#paint1_linear_148_7529)"/>
<path opacity="0.5" d="M89.4189 142.218C89.4189 142.218 88.0568 140.764 85.6863 138.693C85.3677 132.253 84.9423 123.784 84.7981 121.509C84.5556 117.707 80.8441 114.704 80.8441 116.492V134.799C80.1644 134.299 79.4545 133.792 78.7115 133.286C78.7065 128.785 78.7001 123.459 78.7001 119.511C78.7001 111.203 78.26 104.846 76.6049 105.189C74.9497 105.532 73.9564 127.971 74.3156 130.532C70.4018 128.3 65.9558 126.353 61.2655 125.373C54.03 126.886 47.3805 130.694 42.3617 134.307C42.3617 134.307 41.76 120.215 41.0964 114.947C40.4317 109.679 39.48 106.683 38.7213 106.777C37.9626 106.872 34.3547 140.974 34.0278 141.29V141.291C33.4294 141.877 33.1104 142.218 33.1104 142.218C33.3076 140.142 33.4842 138.03 33.6394 135.899V135.897C35.5986 109.14 34.4675 79.3936 34.4675 79.3936L61.2652 97.9172L87.8699 79.5263L88.0461 79.7852C87.9233 83.3721 87.0606 110.936 88.8888 135.898C89.0451 138.029 89.2217 140.141 89.4189 142.218Z" fill="#8B216E"/>
<path opacity="0.5" d="M88.4708 129.338C88.4708 129.338 86.5764 124.421 84.8985 123.238C83.2205 122.057 80.9149 123.288 80.9149 123.288L80.8437 134.798C80.1641 134.298 79.4541 133.792 78.7111 133.286C78.7111 133.286 78.7015 124.421 78.7015 122.479C78.7001 120.538 74.4773 120.829 74.4609 121.164C74.4481 121.423 74.1469 127.597 74.0126 130.36C70.1733 128.2 65.8358 126.327 61.2652 125.372C56.3983 126.39 51.7956 128.446 47.7764 130.784C47.7764 130.784 47.4222 125.553 46.7475 124.33C46.0743 123.107 42.7305 120.861 41.096 120.53C39.7466 120.256 35.6616 123.727 34.2749 124.946C35.3138 101.631 34.4675 79.3926 34.4675 79.3926L61.2652 97.9162L87.8699 79.5254L88.0607 79.3926C88.0607 79.3926 88.0557 79.5268 88.0461 79.7842C87.9354 83.0593 87.2055 106.32 88.4708 129.338Z" fill="#883796"/>
<path d="M76.063 97.6074C74.3238 103.338 73.3127 114.23 72.6946 123.297C72.554 125.368 72.4326 127.345 72.329 129.142V129.144C72.036 134.197 71.8744 137.835 71.7547 138.206C71.4115 139.262 63.7769 147.878 61.3225 148.936V148.993C61.2983 148.984 61.2741 148.975 61.2499 148.965C61.2257 148.975 61.1997 148.984 61.1772 148.993V148.936C59.2618 148.111 54.1977 142.689 51.8967 139.842V139.84C51.248 139.036 50.8194 138.437 50.7432 138.206C50.6232 137.835 50.4616 134.198 50.1686 129.146C50.1686 129.144 50.1686 129.144 50.1686 129.144C50.0166 126.528 49.8304 123.533 49.5975 120.415C48.9681 112.02 47.9943 102.741 46.4346 97.6078L60.7611 99.5057L61.2495 99.5705L69.8828 98.4266L76.063 97.6074Z" fill="url(#paint2_linear_148_7529)"/>
<path d="M72.3296 129.144C72.0366 134.196 71.875 137.835 71.7553 138.205C71.4125 139.262 63.7775 147.877 61.3231 148.935V148.992C61.2989 148.984 61.2746 148.974 61.2501 148.965C61.2259 148.974 61.1999 148.984 61.1775 148.992V148.935C58.7216 147.877 51.0866 139.262 50.7434 138.205C50.6238 137.835 50.4618 134.198 50.1692 129.145C55.6473 139.5 61.2355 143.221 61.2355 143.221C61.2355 143.221 69.4365 136.584 72.3296 129.144Z" fill="url(#paint3_linear_148_7529)"/>
<path opacity="0.5" d="M76.0636 97.6074C73.9263 104.647 72.8892 119.48 72.3292 129.142V129.144C72.0362 134.196 71.8746 137.835 71.7549 138.206C71.4121 139.262 63.7772 147.877 61.3227 148.936C61.3227 148.936 60.3781 134.161 58.3168 125.505C57.4723 121.96 52.6446 117.863 52.5025 118.685C52.2704 120.028 51.0567 128.256 51.8969 139.84C51.2479 139.036 50.8192 138.437 50.7434 138.206C50.6238 137.835 50.4618 134.198 50.1692 129.145C50.1692 129.144 50.1692 129.144 50.1692 129.144C49.6109 119.482 48.5738 104.647 46.4348 97.6074L60.7613 99.5054C63.3581 102.065 64.2464 103.149 64.2464 113.067C64.2464 119.798 66.06 133.42 66.06 133.42C70.375 124.653 70.0076 102.916 69.883 98.4263L76.0636 97.6074Z" fill="#8B216E"/>
<path opacity="0.5" d="M76.063 97.6074C74.3238 103.338 73.3127 114.23 72.6946 123.297C72.6576 123.148 71.4489 118.37 70.0544 118.144C68.6356 117.914 66.618 123.227 64.8397 122.666C63.0617 122.104 55.3509 117.065 54.2408 117.082C53.1325 117.1 49.5975 120.415 49.5975 120.415C48.9681 112.02 47.9943 102.741 46.4346 97.6078L60.7611 99.5057L61.2495 99.5705L69.8828 98.4266L76.063 97.6074Z" fill="#595596"/>
<path d="M69.6241 15.8635C70.1518 15.772 70.5623 15.2867 70.5772 14.6911C70.5936 14.0225 70.1026 13.466 69.4785 13.4504C68.8544 13.4347 68.3367 13.9694 68.3243 14.6423C68.3136 15.2227 68.6796 15.7133 69.1784 15.8446C65.7566 18.1819 62.7393 21.3584 61.0258 25.1604C59.4393 21.3758 56.249 18.1278 52.8824 15.8496C53.3919 15.7271 53.7689 15.2298 53.7582 14.6409C53.7458 13.968 53.2285 13.4329 52.6044 13.4486C51.9799 13.4642 51.4889 14.0207 51.5053 14.6893C51.5195 15.275 51.9162 15.7549 52.4306 15.8582C50.9702 18.3464 50.0438 21.169 49.2502 23.9317C50.4216 30.4847 51.4337 37.0605 52.3978 43.6466C55.2742 43.8246 58.1452 43.9364 61.0265 43.9817C63.9082 43.9354 66.7791 43.8222 69.6551 43.6431C70.6182 37.0577 71.63 30.483 72.8013 23.931C72.0081 21.1704 71.0824 18.3507 69.6241 15.8635Z" fill="url(#paint4_linear_148_7529)"/>
<path d="M74.8524 41.1518C74.8784 41.2354 75.302 42.615 75.3786 43.4033C65.7958 44.2862 56.2582 44.2883 46.6755 43.4086C46.7552 42.5958 47.2031 41.1514 47.2031 41.1514C48.1416 40.6572 48.6076 40.4041 49.5354 39.8868C49.424 36.8748 49.0519 33.8515 48.5877 30.9043C47.8122 25.9794 46.7331 21.0057 45.2773 16.1855C45.2773 16.1855 52.6681 19.1879 54.8954 22.0403C55.3443 16.5992 56.5174 11.1944 59.4197 6.49733C59.4205 6.49733 59.4212 6.49733 59.4212 6.49733C59.8772 5.75965 60.2803 5.20532 60.5672 4.83576C60.8535 4.46728 61.0265 4.2793 61.0265 4.2793C61.0265 4.2793 61.1995 4.46692 61.4857 4.83576C61.9205 5.39615 62.6236 6.38376 63.3727 7.78045C65.7453 12.203 66.7386 17.0713 67.1551 22.04C69.4009 19.1255 76.7753 16.1869 76.7753 16.1869C75.2586 21.2371 74.1905 26.402 73.3539 31.6046C73.3539 31.6096 73.3539 31.6128 73.3524 31.6163C72.9694 34.3695 72.6756 37.1073 72.5158 39.8829C73.4422 40.3991 73.9082 40.6523 74.8453 41.145C74.8485 41.1464 74.8485 41.1464 74.8485 41.1464C74.8506 41.1489 74.8513 41.1496 74.8524 41.1518Z" fill="url(#paint5_linear_148_7529)"/>
<path opacity="0.5" d="M75.3777 43.4026C65.7949 44.2856 56.2573 44.2874 46.6746 43.408C46.7543 42.5952 47.2022 41.1508 47.2022 41.1508C56.3367 40.2102 65.6877 40.6936 74.8447 41.1447C74.8479 41.1462 74.8493 41.1462 74.8493 41.1462C74.85 41.1479 74.8504 41.149 74.8511 41.1508C74.8774 41.2362 75.3011 42.6162 75.3777 43.4026Z" fill="url(#paint6_linear_148_7529)"/>
<path opacity="0.5" d="M76.3717 17.5717C76.4006 17.5824 72.8011 30.3331 72.517 39.8831C64.8742 39.7104 57.1695 39.4178 49.5349 39.8867C49.4235 36.8747 49.0283 33.8826 48.5872 30.9041C48.5889 30.9041 48.5889 30.9041 48.5889 30.9041C49.2373 32.3987 52.2531 37.6352 53.6441 38.8132C55.3053 40.2202 62.4796 36.7803 62.4796 36.7803C61.2567 19.1115 61.4863 4.83633 61.4863 4.83633C61.6615 4.77865 66.6416 11.0931 67.1607 22.8274C67.1988 23.6142 67.3967 25.5463 67.5583 26.3552C67.7107 27.1189 76.3717 17.5717 76.3717 17.5717Z" fill="url(#paint7_linear_148_7529)"/>
<path d="M67.0029 20.1751C69.5777 17.6772 76.7747 16.1865 76.7747 16.1865C76.7772 16.2079 69.6175 19.1725 67.1546 22.0396C67.093 21.2941 67.0627 20.9213 67.0029 20.1751Z" fill="url(#paint8_linear_148_7529)"/>
<path d="M45.2769 16.1847C45.2747 16.1328 52.0399 17.8477 55.09 20.0893C55.0298 20.8366 54.9565 21.2926 54.8952 22.0396C51.9587 19.007 45.2769 16.1847 45.2769 16.1847Z" fill="url(#paint9_linear_148_7529)"/>
<path d="M63.4852 2.45871C63.4787 2.98527 63.3032 3.47018 63.0152 3.86608C62.6542 4.36238 62.1105 4.71769 61.4864 4.83625C61.3383 4.86437 61.1849 4.87968 61.0271 4.87968C60.8694 4.87968 60.716 4.86402 60.5678 4.83589C59.6443 4.66001 58.9003 3.95758 58.655 3.06289C58.6023 2.87063 58.5724 2.66627 58.5695 2.45764C58.5535 1.1108 59.6529 -0.00035594 61.0278 8.55318e-08C62.4021 0.000356111 63.5015 1.11187 63.4852 2.45871Z" fill="url(#paint10_radial_148_7529)"/>
<path opacity="0.5" d="M63.373 7.78152C63.0511 7.46359 61.2802 5.86005 59.4214 6.49805C59.8775 5.76037 60.2798 5.20604 60.5675 4.83648C59.6422 4.66167 58.8952 3.966 58.6545 3.06348C59.9206 3.9717 61.522 4.27218 63.0152 3.86631C62.6541 4.36332 62.1119 4.71899 61.4864 4.83648C61.9218 5.39722 62.6203 6.38412 63.373 7.78152Z" fill="#CB4D5F"/>
<path d="M46.3136 15.1948C46.3382 15.8492 45.8533 16.3949 45.2335 16.4149C44.6136 16.4348 44.091 15.9285 44.0625 15.282C44.034 14.6358 44.5139 14.0872 45.1377 14.0587C45.7611 14.0309 46.2891 14.5404 46.3136 15.1948Z" fill="url(#paint11_radial_148_7529)"/>
<path d="M77.9371 15.2827C77.909 15.9292 77.386 16.4355 76.7662 16.4155C76.1463 16.3952 75.6614 15.8498 75.686 15.1954C75.7105 14.5411 76.2385 14.0316 76.8619 14.0597C77.4861 14.0875 77.9656 14.6361 77.9371 15.2827Z" fill="url(#paint12_radial_148_7529)"/>
<path opacity="0.5" d="M54.895 22.0386C55.2247 22.3722 55.6142 27.0012 55.2368 27.0012C54.859 27.0012 47.3569 17.9642 46.4351 16.9937C45.5137 16.0228 52.4174 19.5322 54.895 22.0386Z" fill="url(#paint13_linear_148_7529)"/>
<path d="M38.6569 50.2457L32.4101 53.5496L27.8349 76.2409C26.2719 76.3541 22.0541 73.9951 18.3831 71.667C15.123 69.601 9.89723 63.5436 9.87622 62.9739C9.87622 62.9725 9.87622 62.9725 9.87622 62.9725C11.1593 61.6926 12.3033 61.0325 12.3033 61.0325C12.3033 61.0325 5.77837 52.5225 5.34616 51.4512C5.04354 50.6989 2.81091 46.5345 2.54211 45.512C2.54069 45.512 2.54068 45.5106 2.54068 45.5106C2.42746 45.0769 10.0379 44.9879 10.0379 44.9879C10.0379 44.9879 10.0361 44.9879 10.0361 44.9861C9.95347 44.9245 8.11747 42.8973 7.28722 41.6712C5.55444 39.1131 -0.219955 26.5811 0.00647714 26.5811C15.5156 26.5811 31.9423 39.8462 32.7013 41.0759C32.8826 41.3686 33.0734 41.7018 33.2742 42.066C34.6591 44.5828 36.5101 48.5371 38.6569 50.2457Z" fill="url(#paint14_radial_148_7529)"/>
<path opacity="0.5" d="M38.6571 50.2454L32.4106 53.5493L27.8353 76.2406C24.8842 76.4556 13.9884 69.8222 9.87633 62.9737C9.92155 63.2841 13.9873 65.5755 17.3995 64.8528C19.4317 64.4224 30.1883 56.5375 29.1982 55.8208C28.5883 55.379 19.3292 56.9401 12.303 61.0323C12.303 61.0323 5.77813 52.5222 5.34592 51.4513C5.0433 50.699 2.80993 46.5342 2.54148 45.5117C2.88291 46.0069 4.27534 48.0804 8.09621 50.6221C10.0743 51.9383 17.0929 54.1126 20.9772 54.8243C23.4896 55.285 32.3682 51.3242 31.6159 49.9218C31.2439 49.2279 27.3347 45.5107 10.0376 44.9873C10.0376 44.9873 10.0362 44.9873 10.0362 44.9855C9.95358 44.9239 8.11722 42.8967 7.28733 41.6706C5.55455 39.1125 -0.205258 26.6609 0.00693257 26.5801C0.00693257 26.5801 3.19303 33.7583 11.7715 38.9203C13.0104 39.6661 32.7364 42.221 32.7022 41.0753C34.1309 43.3919 36.1994 48.2894 38.6571 50.2454Z" fill="url(#paint15_linear_148_7529)"/>
<path opacity="0.5" d="M9.15996 37.8792C10.342 39.1773 14.6445 44.8377 14.4181 44.8733C12.7565 45.135 10.5078 44.6017 10.0902 44.2997C7.52043 42.4424 4.06202 35.9584 2.76146 32.8461C2.00633 31.0396 8.06518 36.6772 9.15996 37.8792Z" fill="url(#paint16_linear_148_7529)"/>
<path opacity="0.5" d="M9.56428 52.5684C10.0471 53.1252 13.2506 60.548 12.3028 60.1681C11.3551 59.7882 5.70995 52.9145 4.2944 48.7077C3.93944 47.6531 8.72869 51.6039 9.56428 52.5684Z" fill="url(#paint17_linear_148_7529)"/>
<path opacity="0.5" d="M11.1825 64.5367C11.2263 64.9222 14.036 68.0229 14.6801 68.601C15.6143 69.4395 18.5714 72.2524 18.2976 70.6578C17.4368 65.6421 11.0493 63.3618 11.1825 64.5367Z" fill="url(#paint18_linear_148_7529)"/>
<path opacity="0.5" d="M11.7714 38.9203C16.0451 40.149 30.9166 41.5926 32.1047 41.3199C33.1072 41.0899 4.45825 32.8654 6.29035 34.7922C7.47414 36.0372 10.9682 38.6896 11.7714 38.9203Z" fill="white"/>
<path opacity="0.5" d="M32.7836 42.7614C29.1065 41.0756 11.1272 39.0972 11.1803 39.486C11.3017 40.3757 14.7381 44.5857 15.2273 44.7954C16.0112 45.1315 21.3185 44.1788 36.6931 49.7605C37.2538 49.9642 34.4526 43.5269 32.7836 42.7614Z" fill="#FF9D94"/>
<path opacity="0.5" d="M38.657 50.2459L32.4102 53.5498L27.8349 76.2411C26.272 76.3543 22.0542 73.9952 18.3832 71.6672C18.3832 71.6672 17.5451 66.4354 17.3995 64.8532C17.2539 63.2725 19.0258 57.9876 19.0258 57.9876C19.0258 57.9876 16.0063 54.3391 16.1039 53.5683C16.4407 50.9002 23.7983 46.1035 23.7983 46.1035C23.7983 46.1035 36.5102 48.5373 38.657 50.2459Z" fill="#CB4D5F"/>
<path d="M83.3428 50.2457L89.5896 53.5496L94.1649 76.2409C95.7279 76.3541 99.9457 73.9951 103.617 71.667C106.877 69.601 112.103 63.5436 112.124 62.9739C112.124 62.9725 112.124 62.9725 112.124 62.9725C110.841 61.6926 109.697 61.0325 109.697 61.0325C109.697 61.0325 116.222 52.5225 116.654 51.4512C116.957 50.6989 119.189 46.5345 119.458 45.512C119.459 45.512 119.459 45.5106 119.459 45.5106C119.573 45.0769 111.962 44.9879 111.962 44.9879C111.962 44.9879 111.964 44.9879 111.964 44.9861C112.047 44.9245 113.883 42.8973 114.713 41.6712C116.446 39.1131 122.22 26.5811 121.994 26.5811C106.484 26.5811 90.0578 39.8462 89.2987 41.0759C89.1175 41.3686 88.9267 41.7018 88.7259 42.066C87.3406 44.5828 85.4896 48.5371 83.3428 50.2457Z" fill="url(#paint19_radial_148_7529)"/>
<path opacity="0.5" d="M83.3428 50.2454L89.5893 53.5493L94.1649 76.2406C97.116 76.4556 108.012 69.8222 112.124 62.9737C112.078 63.2841 108.013 65.5755 104.6 64.8528C102.568 64.4224 91.8116 56.5375 92.8017 55.8208C93.4116 55.379 102.671 56.9401 109.697 61.0323C109.697 61.0323 116.222 52.5222 116.654 51.4513C116.957 50.699 119.19 46.5342 119.458 45.5117C119.117 46.0069 117.725 48.0804 113.904 50.6221C111.926 51.9383 104.907 54.1126 101.023 54.8243C98.5102 55.285 89.6316 51.3242 90.3839 49.9218C90.756 49.2279 94.6651 45.5107 111.962 44.9873C111.962 44.9873 111.963 44.9873 111.963 44.9855C112.046 44.9239 113.882 42.8967 114.712 41.6706C116.445 39.1125 122.205 26.6609 121.993 26.5801C121.993 26.5801 118.806 33.7583 110.228 38.9203C108.989 39.6661 89.2632 42.221 89.2973 41.0753C87.869 43.3919 85.8004 48.2894 83.3428 50.2454Z" fill="url(#paint20_linear_148_7529)"/>
<path opacity="0.5" d="M112.84 37.8792C111.657 39.1773 107.355 44.8377 107.582 44.8733C109.243 45.135 111.492 44.6017 111.909 44.2997C114.479 42.4424 117.938 35.9584 119.238 32.8461C119.993 31.0396 113.935 36.6772 112.84 37.8792Z" fill="url(#paint21_linear_148_7529)"/>
<path opacity="0.5" d="M112.435 52.5684C111.953 53.1252 108.749 60.548 109.697 60.1681C110.645 59.7882 116.29 52.9145 117.706 48.7077C118.06 47.6531 113.271 51.6039 112.435 52.5684Z" fill="url(#paint22_linear_148_7529)"/>
<path opacity="0.5" d="M110.817 64.5367C110.774 64.9222 107.964 68.0229 107.32 68.601C106.386 69.4395 103.428 72.2524 103.702 70.6578C104.563 65.6421 110.95 63.3618 110.817 64.5367Z" fill="url(#paint23_linear_148_7529)"/>
<path opacity="0.5" d="M110.228 38.9203C105.954 40.149 91.0829 41.5926 89.8949 41.3199C88.892 41.0899 117.541 32.8654 115.709 34.7922C114.525 36.0372 111.032 38.6896 110.228 38.9203Z" fill="white"/>
<path opacity="0.5" d="M89.2161 42.7614C92.8931 41.0756 110.872 39.0972 110.819 39.486C110.698 40.3757 107.262 44.5857 106.773 44.7954C105.989 45.1315 100.682 44.1788 85.307 49.7605C84.7459 49.9642 87.5471 43.5269 89.2161 42.7614Z" fill="#FF9D94"/>
<path opacity="0.5" d="M83.3428 50.2459L89.5896 53.5498L94.1649 76.2411C95.7279 76.3543 99.9457 73.9952 103.617 71.6672C103.617 71.6672 104.455 66.4354 104.6 64.8532C104.746 63.2725 102.974 57.9876 102.974 57.9876C102.974 57.9876 105.993 54.3391 105.896 53.5683C105.559 50.9002 98.2019 46.1035 98.2019 46.1035C98.2019 46.1035 85.4896 48.5373 83.3428 50.2459Z" fill="#CB4D5F"/>
<path d="M69.1863 106.174L69.4672 105.166C71.06 105.217 75.7151 106.841 78.1375 107.828C76.8939 104.281 84.9276 101.413 88.0837 103.584C88.6965 104.005 86.8145 108.01 82.7697 108.872C81.8462 109.069 80.9112 109.045 80.0383 108.896C82.4891 110.316 84.8122 112.071 86.514 114.036C87.5554 113.569 89.4818 113.23 92.6045 114.504C97.4682 116.489 100.81 126.195 99.6919 126.891C97.7876 128.078 91.5934 128.078 87.3795 123.461C84.04 119.802 84.6947 116.571 85.2259 115.273C84.0247 113.974 82.4532 111.432 77.3151 108.998C76.959 108.83 76.545 108.795 76.2281 108.624C77.989 110.016 79.7873 112.069 80.6802 114.803C82.0178 118.897 81.2014 121.295 80.3765 121.72C77.2552 123.328 70.955 117.96 70.0664 115.824C68.8627 112.931 69.4397 107.322 71.3901 106.508C69.8054 106.039 69.1863 106.174 69.1863 106.174Z" fill="url(#paint24_radial_148_7529)"/>
<path opacity="0.5" d="M87.2645 114.681C90.7535 113.244 94.7211 115.112 97.2638 119.483C99.8785 123.977 99.8653 126.603 99.3647 126.674C98.4177 126.808 93.3746 127.073 89.4003 123.142C85.066 118.855 86.723 115.118 86.9569 115.183C87.1904 115.249 95.1205 122.961 94.0097 120.312C92.9331 117.744 86.9957 114.792 87.2645 114.681Z" fill="white"/>
<path opacity="0.5" d="M80.386 121.134C79.1285 121.282 74.0166 117.924 72.432 114.568C70.8477 111.213 71.7748 107.104 72.1678 107.214C72.5609 107.323 72.7919 112.128 76.1143 114.449C78.4022 116.047 73.2081 107.504 73.2081 107.504C73.2081 107.504 76.5334 108.136 79.2107 112.241C81.888 116.346 81.3408 121.023 80.386 121.134Z" fill="white"/>
<path opacity="0.5" d="M79.6901 106.303C81.2883 103.28 87.5743 102.744 87.7177 103.863C87.8609 104.983 86.7308 109.064 79.5865 108.484C79.5865 108.484 84.5053 107.251 85.0048 105.837C85.5047 104.422 79.3351 108.204 79.3351 108.204C79.3351 108.204 79.2493 107.136 79.6901 106.303Z" fill="white"/>
<path opacity="0.5" d="M94.3959 121.637C98.7362 123.87 99.3917 126.367 98.0783 126.505C96.7649 126.643 93.0601 125.905 90.3782 123.625C87.6963 121.345 86.9372 117.438 87.2687 117.153C87.6001 116.868 92.0825 120.447 94.3959 121.637Z" fill="white"/>
<path opacity="0.5" d="M84.9465 118.079C84.8931 117.177 85.9754 116.984 86.2211 117.265C86.4664 117.546 86.4212 123.662 95.4318 126.586C95.6155 126.646 94.902 127.131 93.8542 127.098C93.1671 127.077 89.9277 125.921 87.783 123.671C85.6383 121.423 85.0223 119.357 84.9465 118.079Z" fill="#CB4D5F"/>
<path opacity="0.5" d="M70.3555 115.793C70.2708 115.293 72.1936 114.822 72.3467 114.976C72.4994 115.131 75.2085 119.273 80.0077 121.338C80.2608 121.447 79.0977 121.724 78.4508 121.701C75.735 121.602 70.6944 117.79 70.3555 115.793Z" fill="#CB4D5F"/>
<path opacity="0.5" d="M79.2107 112.241C81.4828 115.982 80.7245 118.248 79.4182 118.682C79.0063 118.819 77.6132 115.464 76.884 113.861C76.1549 112.258 75.1413 110.787 75.4254 110.614C75.7095 110.441 77.8574 110.015 79.2107 112.241Z" fill="white"/>
<path opacity="0.5" d="M72.1401 114.511C71.9133 114.718 70.0968 115.224 69.9576 115.01C69.6945 114.607 69.3488 110.866 69.8943 109.31C70.4397 107.755 71.1863 107.632 71.4701 107.874C71.7538 108.116 71.2732 109.184 71.4291 110.935C71.5851 112.686 72.3405 114.328 72.1401 114.511Z" fill="url(#paint25_linear_148_7529)"/>
<path d="M52.8136 106.174L52.5328 105.166C50.9399 105.217 46.2849 106.841 43.8621 107.828C45.1057 104.281 37.0724 101.413 33.9158 103.584C33.3031 104.005 35.1851 108.01 39.2299 108.872C40.1534 109.069 41.0883 109.045 41.9613 108.896C39.5104 110.316 37.1874 112.071 35.4856 114.036C34.4442 113.569 32.5177 113.23 29.395 114.504C24.5317 116.489 21.1897 126.195 22.3076 126.891C24.212 128.078 30.4062 128.078 34.6201 123.461C37.9596 119.802 37.3045 116.571 36.7736 115.273C37.9749 113.974 39.5464 111.432 44.6846 108.998C45.0406 108.83 45.4546 108.795 45.7715 108.624C44.0106 110.016 42.2127 112.069 41.3194 114.803C39.9818 118.897 40.7982 121.295 41.6231 121.72C44.7444 123.328 51.0446 117.96 51.9332 115.824C53.1369 112.931 52.5598 107.322 50.6095 106.508C52.1945 106.039 52.8136 106.174 52.8136 106.174Z" fill="url(#paint26_radial_148_7529)"/>
<path opacity="0.5" d="M34.7356 114.681C31.2465 113.244 27.279 115.112 24.7366 119.483C22.122 123.977 22.1348 126.603 22.6357 126.674C23.5827 126.808 28.6262 127.073 32.6002 123.142C36.9344 118.855 35.2771 115.118 35.0435 115.183C34.81 115.249 26.8802 122.961 27.9907 120.312C29.067 117.744 35.0044 114.792 34.7356 114.681Z" fill="white"/>
<path opacity="0.5" d="M41.6144 121.134C42.8718 121.282 47.9836 117.924 49.5683 114.568C51.1526 111.213 50.2255 107.104 49.8325 107.214C49.4394 107.323 49.2083 112.128 45.8859 114.449C43.5981 116.047 48.7922 107.504 48.7922 107.504C48.7922 107.504 45.4669 108.136 42.7896 112.241C40.1123 116.346 40.6591 121.023 41.6144 121.134Z" fill="white"/>
<path opacity="0.5" d="M42.31 106.303C40.7118 103.28 34.4255 102.744 34.2823 103.863C34.1392 104.983 35.2696 109.064 42.4139 108.484C42.4139 108.484 37.4951 107.251 36.9952 105.837C36.4957 104.422 42.6649 108.204 42.6649 108.204C42.6649 108.204 42.7507 107.136 42.31 106.303Z" fill="white"/>
<path opacity="0.5" d="M27.604 121.637C23.264 123.87 22.6082 126.367 23.9216 126.505C25.235 126.643 28.9398 125.905 31.6217 123.625C34.3037 121.345 35.0627 117.438 34.7313 117.153C34.3998 116.868 29.9174 120.447 27.604 121.637Z" fill="white"/>
<path opacity="0.5" d="M37.0537 118.079C37.1074 117.177 36.0248 116.984 35.7791 117.265C35.5335 117.546 35.579 123.662 26.5684 126.586C26.3847 126.646 27.0981 127.131 28.1459 127.098C28.833 127.077 32.0726 125.921 34.2172 123.671C36.3619 121.423 36.9778 119.357 37.0537 118.079Z" fill="#CB4D5F"/>
<path opacity="0.5" d="M51.6444 115.793C51.7292 115.293 49.8063 114.822 49.6532 114.976C49.5004 115.131 46.7915 119.273 41.9923 121.338C41.7391 121.447 42.9019 121.724 43.5491 121.701C46.2649 121.602 51.3055 117.79 51.6444 115.793Z" fill="#CB4D5F"/>
<path opacity="0.5" d="M42.7891 112.241C40.5166 115.982 41.2753 118.248 42.5815 118.682C42.9934 118.819 44.3866 115.464 45.1157 113.861C45.8449 112.258 46.8585 110.787 46.5744 110.614C46.2906 110.441 44.1423 110.015 42.7891 112.241Z" fill="white"/>
<path opacity="0.5" d="M49.8598 114.511C50.0862 114.718 51.903 115.224 52.0422 115.01C52.3053 114.607 52.651 110.866 52.1056 109.31C51.5602 107.755 50.8136 107.632 50.5298 107.874C50.2461 108.116 50.7267 109.184 50.5708 110.935C50.4148 112.686 49.6593 114.328 49.8598 114.511Z" fill="url(#paint27_linear_148_7529)"/>
<path d="M60.9994 98.5009C75.7614 98.5009 87.7284 86.5339 87.7284 71.7719C87.7284 57.0099 75.7614 45.043 60.9994 45.043C46.2374 45.043 34.2705 57.0099 34.2705 71.7719C34.2705 86.5339 46.2374 98.5009 60.9994 98.5009Z" fill="url(#paint28_linear_148_7529)"/>
<path opacity="0.2" d="M45.4391 73.5741C48.7747 77.8521 49.8136 86.6335 45.4391 84.6899C41.0646 82.7464 37.6742 69.9063 40.4188 70.5329C43.1627 71.1599 44.4921 72.36 45.4391 73.5741Z" fill="#E45F60"/>
<path opacity="0.2" d="M53.7332 90.9872C56.7989 93.5534 71.9652 91.7754 68.6396 88.8126C65.314 85.8497 61.3856 83.929 58.803 84.9672C56.2204 86.0053 52.2564 89.7511 53.7332 90.9872Z" fill="#E45F60"/>
<path opacity="0.2" d="M72.4646 75.6685C71.9406 81.7796 74.7898 85.6105 78.0186 82.7381C81.2471 79.8657 82.8826 73.8325 81.2877 72.1467C79.6927 70.4609 72.6978 72.9481 72.4646 75.6685Z" fill="#E45F60"/>
<path d="M71.2949 66.8583L62.0044 59.8375L73.6596 53.8584L71.2949 66.8583Z" fill="url(#paint29_linear_148_7529)"/>
<path opacity="0.5" d="M62.0044 59.8375L73.6596 53.8584L66.6256 63.3297L62.0044 59.8375Z" fill="url(#paint30_linear_148_7529)"/>
<path d="M59.4121 59.9446L50.5246 67.4688L47.2471 54.7861L59.4121 59.9446Z" fill="url(#paint31_linear_148_7529)"/>
<path opacity="0.5" d="M50.5246 67.4688L47.2471 54.7861L54.9454 63.7259L50.5246 67.4688Z" fill="url(#paint32_linear_148_7529)"/>
<path d="M48.5323 69.543L52.686 80.4217L39.6338 79.3112L48.5323 69.543Z" fill="url(#paint33_linear_148_7529)"/>
<path opacity="0.5" d="M52.686 80.422L39.6338 79.3115L50.6196 75.0107L52.686 80.422Z" fill="url(#paint34_linear_148_7529)"/>
<path d="M54.5942 81.709L66.2359 81.9803L60.2693 93.6419L54.5942 81.709Z" fill="url(#paint35_linear_148_7529)"/>
<path opacity="0.5" d="M66.2359 81.9806L60.2693 93.6422L60.4455 81.8457L66.2359 81.9806Z" fill="url(#paint36_linear_148_7529)"/>
<path d="M68.3171 80.4128L72.8675 69.6943L81.5022 79.5452L68.3171 80.4128Z" fill="url(#paint37_linear_148_7529)"/>
<path opacity="0.5" d="M72.8675 69.6943L81.5022 79.5452L70.6042 75.0258L72.8675 69.6943Z" fill="url(#paint38_linear_148_7529)"/>
<path d="M80.8576 65.1981L73.5904 64.1422L71.6048 63.8534L66.8861 63.1681L60.6378 50.5078L54.39 63.1681L40.4185 65.1981L50.5281 75.0525L48.1417 88.9674L60.6378 82.3977L73.1343 88.9674L70.7475 75.0525L80.8576 65.1981Z" fill="url(#paint39_linear_148_7529)"/>
<path d="M40.3467 65.1982L60.9282 70.5788L50.4564 75.0527L40.3467 65.1982Z" fill="url(#paint40_linear_148_7529)"/>
<path d="M80.7859 65.1982L60.9282 70.5788L70.6758 75.0527L80.7859 65.1982Z" fill="url(#paint41_linear_148_7529)"/>
<path opacity="0.5" d="M60.5666 82.3981L60.9283 70.5791L48.0701 88.9678L60.5666 82.3981Z" fill="url(#paint42_linear_148_7529)"/>
<path opacity="0.5" d="M73.0628 88.9678L60.9284 70.5791L60.5667 82.3981L73.0628 88.9678Z" fill="url(#paint43_linear_148_7529)"/>
<path opacity="0.5" d="M60.6377 50.5078L60.9282 70.5787L66.886 63.1681L60.6377 50.5078Z" fill="url(#paint44_linear_148_7529)"/>
<path opacity="0.5" d="M80.7859 65.198L60.9282 70.5786L66.8144 63.168L80.7859 65.198Z" fill="url(#paint45_linear_148_7529)"/>
<path opacity="0.5" d="M80.7859 65.198L60.9282 70.5786L66.8144 63.168L80.7859 65.198Z" fill="url(#paint46_linear_148_7529)"/>
<path opacity="0.5" d="M54.3182 63.168L60.9282 70.5786L40.3467 65.198L54.3182 63.168Z" fill="url(#paint47_linear_148_7529)"/>
<path opacity="0.8" d="M66.8144 67.5714C65.7762 68.4497 66.6627 69.0247 66.6627 69.0247L72.0123 67.5753C72.0123 67.5753 69.2143 65.541 66.8144 67.5714Z" fill="white"/>
<path opacity="0.5" d="M40.3467 65.1982L60.9282 70.5788L49.363 81.8445L48.1415 76.0093L48.9091 75.7088L40.3467 65.1982Z" fill="url(#paint48_linear_148_7529)"/>
<path opacity="0.5" d="M80.7859 65.1982L60.9282 70.5788L67.9387 81.1403L76.7215 77.5456L72.012 75.5194L80.7859 65.1982Z" fill="url(#paint49_linear_148_7529)"/>
<path opacity="0.5" d="M48.1416 88.9678L60.9283 70.5791L73.1342 88.9678L60.6377 82.3981L48.1416 88.9678Z" fill="url(#paint50_linear_148_7529)"/>
<path opacity="0.4" d="M55.9857 60.9781C54.6566 64.6644 59.7201 67.2373 60.4018 66.1038C61.0836 64.9705 60.6507 58.6397 59.7955 57.7849C58.9407 56.9301 56.5301 59.4696 55.9857 60.9781Z" fill="white"/>
<path opacity="0.4" d="M51.8448 79.8606C54.536 80.2256 56.0424 77.1613 56.6092 75.0529C57.5224 71.656 46.9531 79.1974 51.8448 79.8606Z" fill="white"/>
<path opacity="0.5" d="M49.0221 61.654L41.5125 65.0124L45.1784 64.4962L54.3183 63.1682L59.0168 53.8574L55.7705 58.4003L52.686 61.1018L49.0221 61.654Z" fill="url(#paint51_linear_148_7529)"/>
<path opacity="0.5" d="M61.5164 52.4326L66.8859 63.1682L75.3843 64.3862L80.0635 65.0829L72.2594 61.5561L68.2605 61.1271L64.9264 58.3377L61.5164 52.4326Z" fill="url(#paint52_linear_148_7529)"/>
<path opacity="0.5" d="M60.5666 82.3984L49.6509 88.1372L56.269 85.2299L60.568 83.3173L64.5733 85.2299L68.548 86.5946L60.5666 82.3984Z" fill="url(#paint53_linear_148_7529)"/>
<path opacity="0.5" d="M40.4183 65.1982L48.9091 75.7088L39.4299 79.3068L44.1868 82.3978L47.7976 89.765L56.6651 89.8626L60.2691 94.7149L63.9195 89.8626L73.697 89.5504L75.8777 82.3978L81.7165 79.7732L74.5401 76.6573L80.412 65.1982L60.9282 70.5788L40.4183 65.1982Z" fill="url(#paint54_linear_148_7529)"/>
<path opacity="0.5" d="M56.0802 69.3486L53.3296 74.0389L57.3185 75.7546L60.5305 79.5826L64.5177 76.0184L68.7693 74.1774L65.8702 69.3486L60.8061 70.8774L56.0802 69.3486Z" fill="url(#paint55_linear_148_7529)"/>
<path d="M56.207 67.4821C54.0815 71.0588 56.5427 74.8568 59.8801 75.4486C63.2178 76.0403 67.0871 72.945 65.8125 68.62C64.538 64.2954 58.0736 64.3409 56.207 67.4821Z" fill="url(#paint56_linear_148_7529)"/>
<path d="M59.8797 75.4489C57.3612 75.0021 55.3418 72.7292 55.4155 70.1035C55.7744 73.1045 57.9593 75.722 62.3224 74.6906C62.855 74.5645 65.8122 73.1956 66.0571 70.0918C66.1839 73.6221 62.8255 75.9716 59.8797 75.4489Z" fill="url(#paint57_linear_148_7529)"/>
<path opacity="0.5" d="M65.6315 68.1151C65.4456 68.5594 63.1269 66.2993 63.4316 65.8262H63.4334C64.3851 66.2951 65.1808 67.0498 65.6315 68.1151Z" fill="url(#paint58_linear_148_7529)"/>
<path d="M56.4964 68.3981C55.0413 71.4036 59.6265 77.6034 63.7888 72.8943C68.3997 67.6782 59.6419 61.901 56.4964 68.3981Z" fill="url(#paint59_linear_148_7529)"/>
<path d="M57.6962 68.3769C56.7983 70.1805 57.4683 72.0129 59.1067 73.1348C60.9915 74.4254 63.3004 72.8991 64.0982 71.3187C65.2386 69.0604 63.0665 66.7188 61.7186 66.3354C60.371 65.9516 58.337 67.0891 57.6962 68.3769Z" fill="url(#paint60_linear_148_7529)"/>
<path opacity="0.4" d="M57.3779 69.9618C57.3124 70.2456 57.3778 71.8295 58.5819 72.6534C59.786 73.4768 60.6358 73.6171 60.7273 73.4811C60.8192 73.3451 60.8157 72.2518 60.7594 72.1955C60.7032 72.1393 59.7636 71.6807 59.3107 71.0566C58.8578 70.4325 58.7026 70.2142 58.5738 70.2021C58.4445 70.1897 57.4224 69.7685 57.3779 69.9618Z" fill="#540E01"/>
<path d="M58.8227 70.1296C58.6536 70.8605 60.7452 72.222 60.9364 72.1946C61.8365 72.066 62.9263 70.0758 62.9455 69.4289C62.9583 68.9921 61.2739 67.5819 60.736 67.7514C60.198 67.9201 58.9544 69.56 58.8227 70.1296Z" fill="white"/>
<path opacity="0.8" d="M60.9364 72.1943C60.6872 72.2986 60.7772 73.4315 60.8623 73.4415C61.8101 73.5547 62.7849 73.0253 63.7344 71.7892C64.5041 70.7866 64.4408 69.4344 64.1104 69.0204C63.9893 68.8683 62.9501 69.25 62.9455 69.4291C62.9163 70.5096 61.7556 71.8507 60.9364 72.1943Z" fill="#540E01"/>
<path opacity="0.75" d="M57.3084 69.7121C57.2977 69.882 58.5453 70.2907 58.6378 70.186C58.7895 70.0151 60.6707 67.7992 60.6789 67.6629C60.6917 67.4418 60.7462 66.3673 60.4279 66.3516C60.3214 66.3463 58.9614 66.7507 58.1419 67.7312C57.3219 68.7113 57.3219 69.4971 57.3084 69.7121Z" fill="white"/>
<path d="M57.696 68.3766C57.696 68.3766 58.2803 67.3858 59.3049 66.8193C59.3049 66.8193 59.8593 66.9881 59.4256 67.6873C58.9913 68.3862 57.696 68.3766 57.696 68.3766Z" fill="white"/>
<path d="M60.3051 71.8601C60.2666 71.9214 60.6675 72.7053 60.7779 72.6833C60.8882 72.6612 61.3098 72.0467 61.2578 72.0506C61.2055 72.0542 60.3887 71.7266 60.3051 71.8601Z" fill="white"/>
<path d="M62.7727 69.0719C62.611 69.2695 62.7534 69.9556 62.8453 69.9783C62.9371 70.0011 63.3526 69.2225 63.3013 69.1737C63.2504 69.1253 62.9215 68.89 62.7727 69.0719Z" fill="white"/>
<path d="M59.3652 74.3711C59.3652 74.3711 61.6352 75.0674 63.7888 72.8939C65.7648 70.8994 64.9537 68.6793 64.8662 68.46C64.8662 68.46 66.333 71.0824 63.765 73.4813C61.5576 75.5434 59.3652 74.3711 59.3652 74.3711Z" fill="#FFDAC8"/>
<path opacity="0.5" d="M58.5797 73.9619C57.3522 72.4039 56.3204 69.6614 58.4516 67.4566C60.5828 65.2521 63.2779 66.8734 64.2124 67.3003C64.2124 67.3003 62.2095 63.7916 58.0927 65.7288C56.5191 66.4693 55.2701 68.9351 55.8202 70.4194C56.6213 72.5812 58.5797 73.9619 58.5797 73.9619Z" fill="url(#paint61_linear_148_7529)"/>
<path d="M44.4918 62.1948C44.8983 61.8067 44.9247 59.8262 44.9247 59.8262C44.9247 59.8262 44.9831 61.9103 45.2415 62.1321C45.4929 62.3475 46.995 62.6359 46.995 62.6359C46.995 62.6359 45.5612 62.6915 45.2942 62.9318C45.1094 63.098 44.9243 65.1313 44.9243 65.1313C44.9243 65.1313 44.7776 63.3213 44.4992 63.061C44.2219 62.8022 42.9651 62.6359 42.9651 62.6359C42.9651 62.6359 44.1788 62.4935 44.4918 62.1948Z" fill="white"/>
<path d="M48.3581 71.6155C48.5589 71.4239 48.5717 70.4463 48.5717 70.4463C48.5717 70.4463 48.6005 71.4748 48.728 71.5845C48.8519 71.691 49.5935 71.8334 49.5935 71.8334C49.5935 71.8334 48.8857 71.8608 48.754 71.9793C48.6628 72.0616 48.5717 73.0652 48.5717 73.0652C48.5717 73.0652 48.4994 72.1716 48.362 72.0434C48.2249 71.9156 47.6047 71.8337 47.6047 71.8337C47.6047 71.8337 48.2036 71.7629 48.3581 71.6155Z" fill="white"/>
<path d="M33.9697 63.5498V66.5625C33.9697 66.5625 28.0643 65.0497 23.4531 59.6816C18.8422 54.3148 19.3242 46.9893 19.3242 46.9893C19.326 46.9989 19.326 47.0071 19.3274 47.0167C19.3794 47.3873 20.0053 51.4431 23.0486 55.9978C23.6603 56.9135 24.4386 57.7547 25.2976 58.517C26.7406 59.8015 28.4121 60.8614 29.8989 61.6721C32.1433 62.8929 33.9697 63.5498 33.9697 63.5498Z" fill="url(#paint62_linear_148_7529)"/>
<path d="M57.9365 26.5791C57.9365 26.5791 53.4655 30.1888 51.6049 37.0213C49.7443 43.8538 51.203 44.9863 51.203 44.9863H71.2625C71.2625 44.9863 71.4245 40.7357 70.13 36.4296C68.8358 32.1238 65.0438 27.6913 64.2662 26.8411L57.9365 26.5791Z" fill="url(#paint63_linear_148_7529)"/>
<path d="M19.3628 96.84C19.3628 96.84 27.77 100.966 38.5144 94.7373L40.8461 96.0314C40.8461 96.0314 35.7848 99.1865 30.1044 99.6718C24.4244 100.157 19.3628 96.84 19.3628 96.84Z" fill="url(#paint64_linear_148_7529)"/>
<path d="M102.675 46.9883C102.675 46.9883 103.156 54.3142 98.5451 59.682C93.9342 65.0498 88.0288 66.5618 88.0288 66.5618V63.5495C88.0288 63.5495 95.7556 60.7754 98.9499 55.9975C102.144 51.22 102.675 46.9883 102.675 46.9883Z" fill="url(#paint65_linear_148_7529)"/>
<path d="M102.636 96.84C102.636 96.84 94.229 100.966 83.4842 94.7373L81.1526 96.0314C81.1526 96.0314 86.2138 99.1865 91.8942 99.6718C97.5746 100.157 102.636 96.84 102.636 96.84Z" fill="url(#paint66_linear_148_7529)"/>
<path d="M50.6067 102.703C50.6067 102.703 50.5879 113.453 61.0967 119.708C61.0967 119.708 71.3651 114.531 71.3651 102.703H50.6067Z" fill="url(#paint67_linear_148_7529)"/>
<path d="M100.558 89.6024C100.251 89.0136 99.8965 88.4165 99.4907 87.8276C97.0024 84.2197 93.163 81.6004 92.6518 81.2608C92.5272 74.9883 92.5272 68.7173 92.6536 62.4463C93.0726 62.1646 95.2956 60.6359 97.4182 58.3869C98.1367 57.625 98.8438 56.7819 99.4665 55.8758C102.427 51.5658 102.608 46.9239 102.608 46.9239C102.608 46.9239 98.4293 44.8981 93.231 45.4792C89.4871 45.9 85.9147 47.5437 84.643 48.181C79.4849 45.3983 74.3094 42.6463 69.1466 39.8714C69.0366 38.4363 68.6062 34.547 67.0482 31.1349C64.8736 26.3784 60.9862 23.835 60.9862 23.835C60.9862 23.835 57.0998 26.3784 54.9256 31.1349C53.3658 34.547 52.9372 38.4366 52.8272 39.8714C47.6452 42.6545 42.4533 45.4161 37.2774 48.2102C36.9634 48.0532 36.5155 47.8396 35.9637 47.5986C34.2469 46.8495 31.5208 45.8416 28.6993 45.5294C23.501 44.9565 19.3252 46.9887 19.3252 46.9887C19.3252 46.9887 19.3704 48.0952 19.762 49.7312C20.1729 51.4447 20.964 53.734 22.4817 55.9374C23.0852 56.8129 23.7695 57.6299 24.4637 58.3691C24.7453 58.6685 25.0283 58.9547 25.31 59.2281C27.2012 61.0677 28.9859 62.2825 29.3209 62.5061C29.447 68.7771 29.447 75.0481 29.3209 81.3191C28.7577 81.6962 24.9689 84.3073 22.508 87.8892C22.1114 88.4667 21.764 89.0492 21.4613 89.627C19.5004 93.3596 19.3629 96.8411 19.3629 96.8411C19.3629 96.8411 23.5437 98.8666 28.742 98.2859C28.7873 98.2813 28.8342 98.2763 28.8795 98.2681C32.5732 97.8248 36.0744 96.2131 37.3315 95.584C42.4924 98.3703 47.6716 101.124 52.8393 103.9C52.8813 104.319 52.9607 104.945 53.1045 105.717C53.3876 107.249 53.923 109.356 54.9263 111.548C57.1009 116.305 60.9869 118.197 60.9869 118.197C60.9869 118.197 64.8747 116.304 67.049 111.548C68.0166 109.428 68.5489 107.392 68.8401 105.874C69.0018 105.029 69.0893 104.345 69.1345 103.9C74.32 101.114 79.5166 98.3507 84.6957 95.5548C85.9496 96.1793 89.3489 97.7341 92.9647 98.1987C93.0666 98.2115 93.1701 98.2247 93.272 98.2357C98.4703 98.8085 102.648 96.7746 102.648 96.7746C102.648 96.7746 102.506 93.3172 100.558 89.6024ZM69.3845 92.974C66.5822 94.532 63.7817 96.0917 60.9858 97.6611C58.1316 96.0593 55.2713 94.4675 52.411 92.8768C47.7741 90.2963 43.134 87.7205 38.5132 85.1126C38.5894 81.4074 38.6331 77.7026 38.646 73.9993C38.6623 68.8835 38.6186 63.7678 38.5132 58.6517C45.9847 54.4353 53.5032 50.3019 60.9862 46.1033C68.4673 50.3019 75.9873 54.4357 83.4588 58.6517C83.3538 63.7806 83.3101 68.9092 83.3279 74.0381C83.3407 77.7286 83.3844 81.4206 83.4588 85.1126C78.78 87.7532 74.0815 90.3611 69.3845 92.974Z" fill="url(#paint68_linear_148_7529)"/>
<path opacity="0.5" d="M19.9019 47.4077C21.1402 49.0981 30.4324 54.2747 34.8037 55.9954C35.5813 56.3016 36.9698 48.8788 36.2389 48.4366C28.5227 43.7691 19.255 46.5244 19.9019 47.4077Z" fill="white"/>
<path d="M60.9856 43.4404C52.7226 48.0524 44.4076 52.5703 36.1575 57.2047C36.4017 66.9908 36.4017 76.7733 36.1575 86.5597C44.408 91.1941 52.7226 95.712 60.9856 100.324C69.249 95.712 77.5646 91.1941 85.8155 86.5597C85.5713 76.7736 85.5713 66.9911 85.8155 57.2047C77.5646 52.5703 69.249 48.0524 60.9856 43.4404ZM83.4597 85.1121C75.9871 89.3289 68.4678 93.462 60.9856 97.6616C53.5041 93.462 45.9856 89.3292 38.5133 85.1121C38.6942 76.2912 38.6945 67.4732 38.5133 58.6523C45.9852 54.4356 53.5041 50.3025 60.9856 46.1028C68.4678 50.3025 75.9871 54.4356 83.4597 58.6523C83.2785 67.4732 83.2785 76.2909 83.4597 85.1121Z" fill="url(#paint69_linear_148_7529)"/>
<path opacity="0.5" d="M36.4753 55.9959C37.646 55.9931 56.7285 45.7769 58.6137 44.2378C59.6398 43.4001 52.949 41.103 52.1981 41.0774C50.7274 41.0265 49.9854 41.8553 44.691 44.6316C41.255 46.4334 41.1805 46.307 37.8211 48.2488C36.3422 49.104 35.8573 55.9977 36.4753 55.9959Z" fill="white"/>
<path opacity="0.5" d="M68.8624 103.144C69.5524 103.51 71.6551 102.14 76.5907 99.5365C81.4881 96.9528 82.8667 96.3423 83.4894 95.6067C84.2164 94.7476 86.2119 87.2141 84.6479 87.9589C80.2506 90.0527 76.6245 92.4367 72.6381 94.738C68.7215 96.9991 61.852 100.324 62.1756 100.717C62.9211 101.622 68.3277 102.86 68.8624 103.144Z" fill="url(#paint70_linear_148_7529)"/>
<path opacity="0.5" d="M53.5464 103.097C52.9764 103.386 50.9834 102.348 45.8192 99.6763C42.3918 97.9026 41.8638 97.5255 38.5146 95.6066C37.1998 94.8532 34.6147 86.6066 36.1428 87.1004C37.354 87.492 42.149 90.5873 46.3031 92.8726C50.1236 94.9743 59.2414 99.7884 59.3172 100.717C59.3617 101.264 53.9484 102.893 53.5464 103.097Z" fill="white"/>
<path opacity="0.5" d="M38.1982 58.8213C38.1081 58.1431 36.1492 56.9077 36.1649 57.4891C36.423 67.0491 36.2386 84.06 36.4124 86.2983C36.4188 86.382 38.0465 85.666 38.1996 84.8696C38.5132 83.2379 38.519 74.4793 38.5133 70.1996C38.5079 65.9233 38.5133 61.1935 38.1982 58.8213Z" fill="url(#paint71_linear_148_7529)"/>
<path opacity="0.5" d="M83.7324 58.6112C83.3604 67.1761 83.4593 82.6027 83.7342 85.2355C83.7602 85.4829 85.8166 86.6233 85.8059 86.2003C85.6834 81.3698 85.6506 75.9899 85.6325 71.1533C85.6154 66.4811 85.7301 58.7383 85.515 57.3929C85.4851 57.2035 83.7623 57.9284 83.7324 58.6112Z" fill="url(#paint72_linear_148_7529)"/>
<path opacity="0.5" d="M60.9863 43.7729C61.3751 43.6572 61.217 45.8646 60.7865 46.1021C56.6802 48.3667 44.6786 54.8517 43.9398 55.1387C42.526 55.6877 41.5327 54.4954 42.0856 54.1824C45.1435 52.4518 48.2228 50.6432 51.3106 48.9068C54.2453 47.2567 60.2166 44.0019 60.9863 43.7729Z" fill="url(#paint73_linear_148_7529)"/>
<path opacity="0.5" d="M29.8657 82.6038C30.1207 83.4565 35.3749 86.796 35.6814 85.6639C36.7068 81.88 36.009 76.0547 35.9833 71.2779C35.9598 66.9166 36.1368 58.6618 35.8021 58.0537C35.2702 57.0871 29.9939 61.7931 29.6443 62.9719C29.4966 63.4703 29.4367 62.9096 29.5208 68.5818C29.6069 74.4313 29.4157 81.0985 29.8657 82.6038Z" fill="url(#paint74_linear_148_7529)"/>
<path opacity="0.5" d="M86.3909 86.3176C86.5087 86.6138 91.1898 82.6032 91.8943 81.3628C92.2543 80.7291 92.2087 76.1281 92.2265 70.7714C92.2447 65.3352 92.3757 64.8482 92.1126 64.0329C91.7858 63.0197 86.6088 56.9665 86.2389 58.5665C85.4011 62.1905 86.0794 67.3194 86.0303 72.0499C85.9818 76.6601 85.8622 84.9885 86.3909 86.3176Z" fill="url(#paint75_linear_148_7529)"/>
<path d="M36.1575 86.5596L60.6296 100.716C60.6296 100.716 72.2737 95.1013 85.8155 86.5596C85.8155 86.5596 68.6473 96.0316 60.6303 100.125C60.6303 100.125 54.9763 96.9872 36.1575 86.5596Z" fill="#FFDAC8"/>
<path d="M46.5328 51.5558C45.1293 51.1475 44.0239 52.0083 43.4308 52.6816C42.838 53.3548 43.1887 53.7803 43.952 53.6678C44.7153 53.5556 47.1242 51.7278 46.5328 51.5558Z" fill="#AC3A45"/>
<path opacity="0.5" d="M46.5328 51.5568C45.5819 51.2082 44.4031 51.791 44.0367 52.1104C43.6704 52.4301 44.4291 53.396 44.9311 53.2112C45.4331 53.0261 46.9661 51.7155 46.5328 51.5568Z" fill="url(#paint76_linear_148_7529)"/>
<path d="M43.7723 52.334C43.7723 52.334 42.2261 53.3127 42.4155 53.8314C42.6045 54.3502 44.4651 53.4768 44.4651 53.4768C44.4651 53.4768 43.496 53.7656 43.2639 53.323C43.0314 52.8808 43.7723 52.334 43.7723 52.334Z" fill="#FFDAC8"/>
<path d="M85.4777 66.597C85.2427 67.0584 85.0868 69.2123 85.4346 69.3686C85.7821 69.5249 86.5532 68.8485 86.5069 68.4291C86.4603 68.0097 85.6315 66.2951 85.4777 66.597Z" fill="#AC3A45"/>
<path d="M84.1572 62.6283C84.3309 63.4126 85.3626 65.4195 85.8881 64.6986C86.6137 63.7031 86.0697 59.8356 85.5514 59.684C85.342 59.6231 83.9329 61.6154 84.1572 62.6283Z" fill="#AC3A45"/>
<path opacity="0.5" d="M85.2519 68.8577C85.4092 69.5741 86.3926 68.1795 86.2046 67.6964C86.017 67.2133 85.5727 66.304 85.4776 66.597C85.3826 66.89 85.1661 68.4672 85.2519 68.8577Z" fill="url(#paint77_linear_148_7529)"/>
<path d="M85.3535 69.2823C85.3535 69.2823 85.706 69.4282 86.1101 69.122C86.4273 68.8814 86.5476 68.5271 86.4878 68.332C86.4878 68.332 86.595 68.8597 86.2197 69.2086C85.6323 69.7551 85.3535 69.2823 85.3535 69.2823Z" fill="#FFDAC8"/>
<path opacity="0.5" d="M84.3212 62.0384C84.821 63.8861 86.1586 63.7989 86.2512 63.0474C86.3438 62.2961 86.0194 59.5843 85.5509 59.6843C85.0827 59.7847 84.2119 61.6346 84.3212 62.0384Z" fill="url(#paint78_linear_148_7529)"/>
<path d="M84.1572 62.6289C84.1572 62.6289 84.818 64.4845 85.4449 64.4368C86.0719 64.3891 86.2125 63.7369 86.2125 63.7369C86.2125 63.7369 86.3877 65.6131 85.7419 65.4248C84.6239 65.0997 84.1572 62.6289 84.1572 62.6289Z" fill="#FFDAC8"/>
<path d="M41.4917 46.8361C41.4722 47.3086 47.1219 46.7133 48.6147 45.9539C49.7811 45.3604 50.1001 42.8956 49.5522 42.9704C47.2327 43.2873 41.5096 46.4057 41.4917 46.8361Z" fill="#FFDAC8"/>
<path opacity="0.5" d="M42.5923 87.4043C44.486 89.0342 43.979 90.8941 43.979 90.8941L48.649 93.4788C48.649 93.4788 54.1396 94.1086 51.5659 92.4036L42.5923 87.4043Z" fill="white"/>
<path opacity="0.5" d="M33.4846 87.4045C33.0321 88.2508 19.5518 97.0838 19.8847 95.7084C20.2176 94.3331 20.5081 88.2508 27.9836 83.2504C29.0086 82.5651 34.2319 86.0064 33.4846 87.4045Z" fill="white"/>
<path opacity="0.5" d="M85.29 48.5362C83.9592 49.2817 84.5117 55.436 85.8059 55.2822C87.1 55.1284 102.65 47.3713 101.517 46.9882C100.385 46.6051 93.1172 44.1514 85.29 48.5362Z" fill="white"/>
<path opacity="0.5" d="M92.4972 82.0107C91.7548 82.0093 87.0421 86.6772 87.8464 87.4052C88.6507 88.1333 101.522 97.3398 101.868 95.9249C102.588 92.982 96.1112 82.0182 92.4972 82.0107Z" fill="white"/>
<path d="M24.8209 45.7734C24.3491 46.1945 27.5384 47.5759 28.1454 47.6567C28.7521 47.7376 31.0538 46.4099 30.7654 46.103C30.4763 45.7965 25.5219 45.1478 24.8209 45.7734Z" fill="#FFDAC8"/>
<path d="M92.7782 46.1924C92.3061 46.6136 95.4957 47.9949 96.1024 48.0761C96.7091 48.1569 99.0108 46.8289 98.7221 46.5224C98.4337 46.2152 93.4792 45.5668 92.7782 46.1924Z" fill="#FFDAC8"/>
<path opacity="0.5" d="M33.5568 57.3373C31.5553 55.0156 19.8695 47.4932 19.6494 48.5349C19.4294 49.5766 20.2176 53.4356 21.7279 56.7748C23.2378 60.1143 27.9298 63.4577 28.4692 63.1882C29.0082 62.9183 34.2219 58.1084 33.5568 57.3373Z" fill="url(#paint79_linear_148_7529)"/>
<path opacity="0.5" d="M86.5086 56.1421C86.2348 57.4032 92.4008 62.6898 93.4009 63.0266C94.0425 63.2427 100.061 58.4965 101.113 54.1822C102.316 49.2463 102.03 48.599 101.113 48.7211C100.196 48.8429 86.7667 54.9527 86.5086 56.1421Z" fill="url(#paint80_linear_148_7529)"/>
<path opacity="0.5" d="M33.9697 88.251C32.7727 88.5807 19.9052 96.6354 20.5411 97.2296C21.177 97.8235 26.7716 100.231 31.8125 99.1062C36.8535 97.9819 37.5638 96.8946 37.583 96.6254C37.6866 95.1988 34.7647 88.0321 33.9697 88.251Z" fill="url(#paint81_linear_148_7529)"/>
<path opacity="0.5" d="M84.4367 97.0179C85.4068 97.3715 89.7728 99.4784 94.4798 98.9974C99.1864 98.5164 100.897 97.056 100.574 96.6783C100.25 96.3009 88.763 87.6719 86.5091 88.2451C85.3822 88.5317 83.8015 96.7865 84.4367 97.0179Z" fill="url(#paint82_linear_148_7529)"/>
<path opacity="0.5" d="M59.5869 101.587C58.1959 101.806 51.6429 104.079 51.3357 104.985C51.0281 105.891 53.2511 113.92 59.1016 117.82C60.7198 118.899 60.9334 110.702 61.0978 108.545C61.262 106.387 61.388 101.305 59.5869 101.587Z" fill="white"/>
<path opacity="0.5" d="M61.9056 102.126C61.4196 103.727 60.7684 118.624 61.6361 118.737C62.5037 118.849 67.6454 114.384 69.2942 110.431C71.043 106.239 70.5367 104.546 69.1343 103.899C67.7323 103.252 62.1776 101.231 61.9056 102.126Z" fill="url(#paint83_linear_148_7529)"/>
<path opacity="0.5" d="M51.5693 39.5668C52.4031 40.5558 59.6945 43.1801 60.1801 42.4253C60.6654 41.6702 60.7195 25.4913 60.0722 25.5451C59.425 25.5988 55.488 29.482 53.1692 33.7963C50.8497 38.1106 51.0007 38.8924 51.5693 39.5668Z" fill="white"/>
<path opacity="0.5" d="M60.9864 42.5599C61.6362 43.6387 69.8874 40.0524 70.1569 39.4052C70.4264 38.7579 68.0265 28.3225 61.5279 25.0598C61.084 24.8366 60.3385 41.4836 60.9864 42.5599Z" fill="url(#paint84_linear_148_7529)"/>
<path opacity="0.5" d="M55.5642 102.398C55.5642 102.398 53.7634 105.619 51.1292 106.329C50.4061 104.487 50.6486 103.122 50.6066 102.703C45.4389 99.9269 42.4917 98.3711 37.3304 95.5848C36.0733 96.2143 32.5721 97.8256 28.8784 98.2689C29.2974 94.3921 28.0549 91.6902 28.0549 91.6902C25.9907 90.4235 22.9747 89.8475 21.4602 89.6274C21.7628 89.05 22.1107 88.4675 22.5069 87.8897C24.9678 84.3077 28.757 81.6963 29.3198 81.3196C29.4459 75.0486 29.4459 68.7775 29.3198 62.5065C28.9848 62.2833 27.2004 61.0682 25.3089 59.2286C25.0272 58.9551 24.7442 58.6685 24.4626 58.3695C26.0223 57.504 27.231 56.9247 27.6451 56.9408C29.234 57.0041 35.9935 67.0739 35.0714 71.0166C34.1767 74.8381 32.1139 77.4364 31.9861 77.5948C34.426 75.6809 36.7234 74.6017 38.6452 74.0001C38.6324 77.7034 38.5886 81.4086 38.5124 85.1134C43.1332 87.7213 47.7733 90.2971 52.4102 92.8776C52.8 93.5587 53.0881 94.1995 53.2031 94.7382C53.7934 97.4967 52.2518 99.6339 52.2518 99.6339L55.5642 102.398Z" fill="url(#paint85_linear_148_7529)"/>
<path opacity="0.5" d="M93.7958 91.6902C93.7958 91.6902 92.566 94.3597 92.9641 98.1991C89.3479 97.7348 85.949 96.1797 84.695 95.5552C79.5163 98.3511 76.5506 99.9165 71.3651 102.703C71.3199 103.148 71.1889 105.484 71.0269 106.329C68.0081 105.295 66.2864 102.397 66.2864 102.397L69.5981 99.6339C69.5981 99.6339 68.0562 97.4967 68.6468 94.7382C68.7568 94.2251 69.0221 93.6203 69.3845 92.9748C74.0812 90.3619 78.7797 87.7537 83.4586 85.1134C83.3841 81.4214 83.3403 77.7294 83.3275 74.0389C85.2237 74.6473 87.4741 75.7214 89.8638 77.5948C89.736 77.4364 87.6717 74.8381 86.7785 71.0166C85.8564 67.0736 92.6159 57.0038 94.2048 56.9407C94.6221 56.9247 95.8436 57.5118 97.4179 58.3873C95.2953 60.6363 93.0723 62.1651 92.6533 62.4467C92.5272 68.7177 92.5272 74.9887 92.6515 81.2612C93.1627 81.6008 97.0021 84.2205 99.4904 87.8281C99.8966 88.4169 100.251 89.014 100.558 89.6029C99.1087 89.8054 95.938 90.3751 93.7958 91.6902Z" fill="url(#paint86_linear_148_7529)"/>
<path opacity="0.5" d="M36.2111 62.5782L38.5445 63.9828C38.5445 63.9828 53.5684 54.7493 61.5611 54.7493C69.8266 54.7493 83.2698 62.2172 83.2698 62.2172L85.8713 58.3209L85.7584 57.1546L60.9285 43.3906L36.1003 57.1546L36.2111 62.5782Z" fill="url(#paint87_linear_148_7529)"/>
<path d="M99.1826 53.5606C93.2103 54.556 88.995 65.4903 89.4752 69.0926C90.1225 73.9462 93.0597 77.4246 94.2605 77.5866C95.4614 77.7482 100.372 76.4954 102.419 72.3285C105.735 65.5743 102.095 53.0753 99.1826 53.5606Z" fill="url(#paint88_linear_148_7529)"/>
<path opacity="0.5" d="M93.1155 74.4584C92.841 75.0551 96.2436 74.6054 98.4007 72.7327C99.8255 71.4959 101.96 68.5259 101.906 63.2948C101.852 58.0638 99.9106 53.9648 98.9401 53.9648C97.9692 53.9648 91.256 56.7742 89.9337 67.5013C89.6258 70.0009 91.282 73.9731 92.0371 74.1347C92.7919 74.2964 91.3899 69.1732 95.3805 62.5935C95.3805 62.5935 96.5875 66.9081 93.1155 74.4584Z" fill="white"/>
<path opacity="0.5" d="M92.3873 74.2271C92.765 74.3246 94.355 70.5298 94.9984 68.4452C95.9133 65.4792 95.5894 62.9354 95.3804 62.9721C95.1714 63.0087 93.262 66.5601 92.8928 68.609C92.524 70.6576 92.0665 74.1441 92.3873 74.2271Z" fill="url(#paint89_linear_148_7529)"/>
<path opacity="0.5" d="M95.4483 73.7034C95.8395 75.0784 100.666 71.6709 101.58 66.8115C102.442 62.2273 98.0405 57.6513 98.0405 62.971C98.0408 68.0946 94.974 72.0358 95.4483 73.7034Z" fill="white"/>
<path opacity="0.5" d="M91.0933 71.6005C91.5248 72.2933 93.0988 67.2096 93.9454 64.8862C96.0484 59.1146 99.8376 51.4217 94.3545 56.9393C91.7313 59.5793 88.2212 66.9896 91.0933 71.6005Z" fill="white"/>
<path opacity="0.5" d="M93.2614 75.4064C93.5658 76.2224 94.4908 77.3734 94.923 77.3545C95.8002 77.3157 98.2387 76.6695 100.841 74.2261C102.215 72.9359 102.378 71.316 102.257 70.8916C102.135 70.4672 101.488 69.0111 101.205 69.3753C100.922 69.7391 99.7895 72.4065 97.2411 73.6761C94.6927 74.9457 93.0837 74.9296 93.2614 75.4064Z" fill="url(#paint90_linear_148_7529)"/>
<path d="M104.765 81.5237C103.737 80.1216 95.3809 80.6165 92.9966 82.1396C92.4455 82.4917 91.7911 83.0354 91.1257 83.6712C92.5488 81.4343 94.2609 77.5864 94.2609 77.5864C93.4605 76.1844 93.008 76.7237 93.008 76.7237C92.4971 79.9828 89.7707 85.1099 85.3563 90.2064C86.3874 88.2294 87.286 85.441 87.2913 82.6021C87.3017 77.0609 83.6285 74.1216 82.5441 74.2294C81.4596 74.3373 77.7862 79.771 77.7862 84.3818C77.7862 88.9927 81.3162 92.3255 82.7015 92.9791C79.8864 95.6422 76.7508 97.8741 74.1177 99.5403C74.9344 97.9902 75.7401 95.2573 75.7878 93.9069C75.8576 91.9342 72.8716 87.815 71.5287 88.1529C70.614 88.3829 68.3373 93.5901 68.8685 95.7309C69.4947 98.2554 71.5304 99.6062 72.7584 100.379C70.086 101.986 68.2002 102.88 68.2002 102.88C67.445 104.498 69.1711 103.959 69.1711 103.959C69.1711 103.959 72.3828 102.372 76.4738 99.3929C77.1919 100.764 79.6898 103.532 83.3106 103.801C87.2173 104.092 92.0521 101.322 92.2119 100.409C92.3718 99.4972 90.1128 96.2001 85.4172 95.8601C83.532 95.7234 81.6387 96.0538 80.0697 96.5632C81.6942 95.1808 83.3498 93.6164 84.9188 91.8783C85.7615 90.9452 86.5519 90.0042 87.2917 89.0707C87.2917 90.069 93.0621 91.1773 98.1857 89.4267C101.509 88.291 105.464 82.4789 104.765 81.5237Z" fill="url(#paint91_radial_148_7529)"/>
<path opacity="0.5" d="M83.2461 91.662C82.1541 90.7317 79.1699 86.4028 79.6463 81.7118C80.0102 78.1252 81.7511 74.6792 82.7608 74.7052C83.7705 74.7312 87.0021 77.5014 86.927 81.8329C86.8519 86.1646 84.7428 90.3671 84.5811 90.6099C84.4195 90.8524 85.3092 87.2932 84.9856 84.6237C84.662 81.9543 83.287 79.77 83.287 79.77C83.287 79.77 83.6103 83.3698 83.6911 86.7271C83.7719 90.0844 83.8196 92.1508 83.2461 91.662Z" fill="white"/>
<path opacity="0.5" d="M88.2212 88.2649C88.6256 87.0921 91.2951 83.4112 94.0458 81.955C96.7964 80.4989 104.037 80.8631 104.522 81.6314C105.007 82.4001 100.436 86.6065 97.2817 87.5774C94.1269 88.5483 88.9963 88.1032 89.4381 87.8604C89.8799 87.6176 95.9267 86.3032 98.2928 83.937C98.7781 83.4518 93.3825 84.1303 90.9313 85.919C88.48 87.7077 88.2212 88.2649 88.2212 88.2649Z" fill="white"/>
<path opacity="0.5" d="M77.4858 98.7156C78.2053 99.6993 81.6851 102.5 85.6893 102.392C88.7507 102.31 91.7802 101.052 91.8218 100.195C91.8635 99.3379 89.7202 96.4253 86.0453 96.216C82.3704 96.007 78.677 97.529 78.4609 97.6507C78.2452 97.7725 81.3169 97.2427 83.5581 97.6853C85.7996 98.1275 87.5634 99.4298 87.5634 99.4298C87.5634 99.4298 84.534 98.9292 81.6947 98.6494C78.8554 98.3696 77.1077 98.199 77.4858 98.7156Z" fill="white"/>
<path opacity="0.5" d="M73.5968 99.6318C74.2188 98.7695 75.6144 95.4211 75.4941 93.3191C75.3737 91.2171 72.2578 88.1058 71.5529 88.3266C70.8476 88.5473 69.8557 93.0713 70.4602 95.0786C71.0648 97.0859 73.3974 99.1832 73.3839 98.8403C73.3704 98.4978 71.8477 94.965 72.4867 92.5145C72.6177 92.0118 74.3063 94.8785 74.086 97.0353C73.8659 99.1917 73.5968 99.6318 73.5968 99.6318Z" fill="white"/>
<path opacity="0.5" d="M89.2057 88.1335C88.9092 88.2652 87.5983 89.157 87.8037 89.4244C88.0088 89.6918 92.2772 90.7424 95.5968 89.926C98.9163 89.1097 98.9135 88.7971 99.0484 88.3154C99.1833 87.8337 99.3682 87.3666 97.9661 87.6632C96.5641 87.9597 94.6269 88.5311 92.6848 88.3154C90.742 88.0996 89.9043 87.8234 89.2057 88.1335Z" fill="url(#paint92_linear_148_7529)"/>
<path opacity="0.5" d="M89.3537 87.3546C90.4321 87.5447 97.5733 84.1625 97.2208 84.0176C96.8684 83.8727 93.9561 84.2604 92.009 85.2815C90.0619 86.3029 89.0102 87.2941 89.3537 87.3546Z" fill="url(#paint93_linear_148_7529)"/>
<path opacity="0.5" d="M83.2619 91.9658C82.9718 92.5992 82.1034 92.3101 81.8001 92.1688C81.4967 92.0274 79.6237 90.4356 78.66 88.3155C77.6488 86.0907 77.8465 83.2496 78.2513 82.2787C78.6557 81.3079 79.5052 81.5304 79.4443 81.8743C79.3838 82.2182 79.7113 86.1242 80.9965 88.3892C82.2821 90.6542 83.3399 91.7956 83.2619 91.9658Z" fill="url(#paint94_linear_148_7529)"/>
<path opacity="0.5" d="M84.1361 82.2184C83.9492 84.854 84.2978 90.4465 84.4395 90.4294C84.5812 90.4119 85.1035 86.8051 84.9247 85.0702C84.746 83.3349 84.1909 81.4476 84.1361 82.2184Z" fill="url(#paint95_linear_148_7529)"/>
<path opacity="0.5" d="M77.1994 98.7613C76.6002 99.1465 76.9032 99.5901 77.1994 100.197C77.496 100.804 79.2622 102.947 82.397 103.514C85.5318 104.08 85.916 102.705 85.7543 102.624C85.5927 102.543 83.0553 102.336 81.0018 101.39C78.6758 100.319 77.4824 98.5793 77.1994 98.7613Z" fill="url(#paint96_linear_148_7529)"/>
<path opacity="0.5" d="M78.4935 97.7909C80.1031 98.4093 85.9451 98.8504 85.7846 98.5998C85.6243 98.3495 84.3704 97.6987 82.6857 97.5627C81.0014 97.427 78.2247 97.6876 78.4935 97.7909Z" fill="url(#paint97_linear_148_7529)"/>
<path opacity="0.5" d="M73.6603 98.9227C73.1355 98.446 72.5388 92.714 72.887 92.7948C73.2355 92.876 74.0587 94.8455 74.0651 96.0079C74.0722 97.1703 73.8739 99.1167 73.6603 98.9227Z" fill="url(#paint98_linear_148_7529)"/>
<path opacity="0.5" d="M69.9797 93.382C69.3819 93.4362 68.7924 94.5623 69.0494 95.7482C69.3065 96.9341 70.3607 98.9303 72.7503 100.177C73.2156 100.42 73.5602 99.1226 73.3217 98.9261C73.0832 98.7295 72.1237 98.0716 71.1934 96.5916C70.1235 94.8895 70.2022 93.3617 69.9797 93.382Z" fill="url(#paint99_linear_148_7529)"/>
<path opacity="0.5" d="M82.3159 75.5237C83.8301 77.5114 83.5606 87.797 83.2619 88.9006C82.9632 90.0043 79.8084 85.9595 79.8892 82.4C79.97 78.8404 81.669 74.6742 82.3159 75.5237Z" fill="white"/>
<path d="M22.8176 53.5606C28.79 54.556 33.0053 65.4903 32.525 69.0926C31.8778 73.9462 28.9409 77.4246 27.7397 77.5866C26.5388 77.7482 21.6278 76.4954 19.5817 72.3285C16.265 65.5743 19.9053 53.0753 22.8176 53.5606Z" fill="url(#paint100_linear_148_7529)"/>
<path opacity="0.5" d="M28.8847 74.4584C29.1592 75.0551 25.7566 74.6054 23.5995 72.7327C22.1747 71.4959 20.0399 68.5259 20.094 63.2948C20.1478 58.0638 22.0896 53.9648 23.0601 53.9648C24.031 53.9648 30.7442 56.7742 32.0665 67.5013C32.3744 70.0009 30.7182 73.9731 29.963 74.1347C29.2079 74.2964 30.6103 69.1732 26.6193 62.5935C26.6193 62.5935 25.4127 66.9081 28.8847 74.4584Z" fill="white"/>
<path opacity="0.5" d="M29.6128 74.2271C29.2354 74.3246 27.6447 70.5298 27.0017 68.4452C26.0867 65.4792 26.4107 62.9354 26.6197 62.9721C26.8287 63.0087 28.7381 66.5601 29.1073 68.609C29.4761 70.6576 29.9336 74.1441 29.6128 74.2271Z" fill="url(#paint101_linear_148_7529)"/>
<path opacity="0.5" d="M26.552 73.7034C26.1608 75.0784 21.3345 71.6709 20.4206 66.8115C19.5583 62.2273 23.9598 57.6513 23.9598 62.971C23.9598 68.0946 27.0266 72.0358 26.552 73.7034Z" fill="white"/>
<path opacity="0.5" d="M30.9069 71.6005C30.4754 72.2933 28.9015 67.2096 28.0548 64.8862C25.9514 59.1146 22.1626 51.4217 27.6458 56.9393C30.269 59.5793 33.779 66.9896 30.9069 71.6005Z" fill="white"/>
<path opacity="0.5" d="M28.7386 75.4064C28.4342 76.2224 27.5093 77.3734 27.0771 77.3545C26.1998 77.3157 23.7614 76.6695 21.1592 74.2261C19.7853 72.9359 19.6222 71.316 19.7436 70.8916C19.865 70.4672 20.5123 69.0111 20.7953 69.3753C21.0784 69.7391 22.2109 72.4065 24.7593 73.6761C27.307 74.946 28.9163 74.9296 28.7386 75.4064Z" fill="url(#paint102_linear_148_7529)"/>
<path d="M17.2356 81.5237C18.263 80.1216 26.6193 80.6165 29.0036 82.1396C29.5547 82.4917 30.2091 83.0354 30.8745 83.6712C29.4515 81.4343 27.7393 77.5864 27.7393 77.5864C28.5393 76.1844 28.9922 76.7237 28.9922 76.7237C29.5031 79.9828 32.2295 85.1099 36.6439 90.2064C35.6128 88.2294 34.7143 85.441 34.7089 82.6021C34.6986 77.0609 38.3717 74.1216 39.4561 74.2294C40.5406 74.3373 44.2141 79.771 44.2141 84.3818C44.2141 88.9927 40.6841 92.3255 39.2988 92.9791C42.1139 95.6422 45.249 97.8741 47.8825 99.5403C47.0658 97.9902 46.2601 95.2573 46.2124 93.9069C46.1426 91.9342 49.1286 87.815 50.4715 88.1529C51.3862 88.3829 53.663 93.5901 53.1321 95.7309C52.5059 98.2554 50.4701 99.6062 49.2422 100.379C51.9145 101.986 53.8004 102.88 53.8004 102.88C54.5555 104.498 52.8295 103.959 52.8295 103.959C52.8295 103.959 49.6178 102.372 45.5267 99.3929C44.8086 100.764 42.3108 103.532 38.6903 103.801C34.7837 104.092 29.9488 101.322 29.789 100.409C29.6291 99.4972 31.8881 96.2001 36.5837 95.8601C38.4689 95.7234 40.3622 96.0538 41.9312 96.5632C40.3067 95.1808 38.6515 93.6164 37.0822 91.8783C36.2398 90.9452 35.4491 90.0042 34.7093 89.0707C34.7093 90.069 28.9388 91.1773 23.8152 89.4267C20.491 88.291 16.536 82.4789 17.2356 81.5237Z" fill="url(#paint103_radial_148_7529)"/>
<path opacity="0.5" d="M38.7538 91.662C39.846 90.7317 42.8299 86.4028 42.3535 81.7118C41.9897 78.1252 40.2487 74.6792 39.239 74.7052C38.2294 74.7312 34.9977 77.5014 35.0728 81.8329C35.1479 86.1646 37.257 90.3671 37.4187 90.6099C37.5803 90.8524 36.6906 87.2932 37.0142 84.6237C37.3379 81.9543 38.7128 79.77 38.7128 79.77C38.7128 79.77 38.3895 83.3698 38.3087 86.7271C38.2283 90.0844 38.1806 92.1508 38.7538 91.662Z" fill="white"/>
<path opacity="0.5" d="M33.7789 88.2649C33.3745 87.0921 30.705 83.4112 27.9544 81.955C25.2041 80.4989 17.9636 80.8631 17.4783 81.6314C16.993 82.4001 21.5634 86.6065 24.7185 87.5774C27.8732 88.5483 33.0039 88.1032 32.5621 87.8604C32.1202 87.6176 26.0735 86.3032 23.7074 83.937C23.2221 83.4518 28.6177 84.1303 31.0689 85.919C33.5201 87.7077 33.7789 88.2649 33.7789 88.2649Z" fill="white"/>
<path opacity="0.5" d="M44.5149 98.7156C43.7953 99.6993 40.3155 102.5 36.3113 102.392C33.2499 102.31 30.2205 101.052 30.1788 100.195C30.1375 99.3379 32.2808 96.4253 35.9553 96.216C39.6302 96.007 43.3236 97.529 43.5394 97.6507C43.7551 97.7725 40.6833 97.2427 38.4421 97.6853C36.2006 98.1275 34.4369 99.4298 34.4369 99.4298C34.4369 99.4298 37.4663 98.9292 40.3056 98.6494C43.1449 98.3696 44.8926 98.199 44.5149 98.7156Z" fill="white"/>
<path opacity="0.5" d="M48.4036 99.6318C47.7816 98.7695 46.386 95.4211 46.5063 93.3191C46.6267 91.2171 49.7426 88.1058 50.4479 88.3266C51.1532 88.5473 52.1451 93.0713 51.5405 95.0786C50.936 97.0859 48.6033 99.1832 48.6168 98.8403C48.6304 98.4975 50.1531 94.965 49.514 92.5145C49.383 92.0118 47.6944 94.8785 47.9147 97.0353C48.1344 99.1917 48.4036 99.6318 48.4036 99.6318Z" fill="white"/>
<path opacity="0.5" d="M32.7946 88.1335C33.0911 88.2652 34.402 89.157 34.1966 89.4244C33.9915 89.6918 29.7232 90.7424 26.4036 89.926C23.084 89.1097 23.0868 88.7971 22.9519 88.3154C22.8173 87.8337 22.6322 87.3666 24.0342 87.6632C25.4363 87.9597 27.3734 88.5311 29.3155 88.3154C31.2583 88.0996 32.0964 87.8234 32.7946 88.1335Z" fill="url(#paint104_linear_148_7529)"/>
<path opacity="0.5" d="M32.6465 87.3546C31.5681 87.5447 24.427 84.1625 24.7795 84.0176C25.1319 83.8727 28.0446 84.2604 29.9913 85.2815C31.9384 86.3029 32.9901 87.2941 32.6465 87.3546Z" fill="url(#paint105_linear_148_7529)"/>
<path opacity="0.5" d="M38.7384 91.9658C39.0289 92.5992 39.8973 92.3101 40.2006 92.1688C40.5039 92.0274 42.377 90.4356 43.3408 88.3155C44.3519 86.0907 44.1539 83.2496 43.7495 82.2787C43.345 81.3079 42.4956 81.5304 42.5561 81.8743C42.6166 82.2182 42.289 86.1242 41.0038 88.3892C39.7182 90.6542 38.6605 91.7956 38.7384 91.9658Z" fill="url(#paint106_linear_148_7529)"/>
<path opacity="0.5" d="M37.864 82.2184C38.0509 84.854 37.7023 90.4465 37.5607 90.4294C37.419 90.4119 36.8967 86.8051 37.075 85.0702C37.2541 83.3349 37.8095 81.4476 37.864 82.2184Z" fill="url(#paint107_linear_148_7529)"/>
<path opacity="0.5" d="M44.8008 98.7613C45.4 99.1465 45.0974 99.5901 44.8008 100.197C44.5042 100.804 42.738 102.947 39.6032 103.514C36.4684 104.08 36.0843 102.705 36.2459 102.624C36.4079 102.543 38.9449 102.336 40.9985 101.39C43.3244 100.319 44.5178 98.5793 44.8008 98.7613Z" fill="url(#paint108_linear_148_7529)"/>
<path opacity="0.5" d="M43.5067 97.7909C41.8971 98.4093 36.0551 98.8504 36.2156 98.5998C36.3759 98.3495 37.6298 97.6987 39.3145 97.5627C40.9988 97.427 43.7755 97.6876 43.5067 97.7909Z" fill="url(#paint109_linear_148_7529)"/>
<path opacity="0.5" d="M48.34 98.9227C48.8648 98.446 49.4615 92.714 49.1133 92.7948C48.7648 92.876 47.9416 94.8455 47.9352 96.0079C47.9285 97.1703 48.1264 99.1167 48.34 98.9227Z" fill="url(#paint110_linear_148_7529)"/>
<path opacity="0.5" d="M52.0206 93.382C52.6184 93.4362 53.2079 94.5623 52.9509 95.7482C52.6938 96.9341 51.6397 98.9303 49.25 100.177C48.7847 100.42 48.4401 99.1226 48.679 98.9261C48.9175 98.7295 49.877 98.0716 50.8073 96.5916C51.8768 94.8895 51.7985 93.3617 52.0206 93.382Z" fill="url(#paint111_linear_148_7529)"/>
<path opacity="0.5" d="M39.6845 75.5237C38.1703 77.5114 38.4398 87.797 38.7385 88.9006C39.0372 90.0043 42.1923 85.9595 42.1115 82.4C42.0303 78.8404 40.3314 74.6742 39.6845 75.5237Z" fill="white"/>
<path d="M56.3084 33.592C54.6653 36.9853 59.8426 43.9851 64.5422 38.6682C69.7476 32.7789 59.8601 26.2565 56.3084 33.592Z" fill="url(#paint112_linear_148_7529)"/>
<path d="M57.6629 33.568C56.6493 35.6041 57.4058 37.6734 59.2554 38.9397C61.3833 40.3969 63.9901 38.6738 64.8909 36.8894C66.1783 34.3395 63.726 31.696 62.2043 31.2631C60.6827 30.8298 58.3867 32.114 57.6629 33.568Z" fill="url(#paint113_linear_148_7529)"/>
<path opacity="0.4" d="M57.3035 35.3578C57.2294 35.6783 57.3035 37.4666 58.6628 38.3965C60.0221 39.3265 60.9815 39.4845 61.0851 39.3311C61.1887 39.1776 61.1848 37.9429 61.1215 37.8796C61.0577 37.8158 59.9968 37.2985 59.4859 36.594C58.975 35.889 58.7995 35.6427 58.6539 35.6291C58.5079 35.6153 57.354 35.14 57.3035 35.3578Z" fill="#540E01"/>
<path d="M58.9348 35.5476C58.744 36.3729 61.1055 37.9098 61.3212 37.8792C62.3373 37.734 63.5677 35.4871 63.5898 34.7569C63.6044 34.2634 61.7025 32.6716 61.0951 32.8625C60.4874 33.0533 59.0836 34.905 58.9348 35.5476Z" fill="white"/>
<path opacity="0.8" d="M61.3211 37.8791C61.0399 37.9969 61.1413 39.2758 61.2374 39.2872C62.3077 39.415 63.4081 38.8172 64.4801 37.4216C65.3495 36.2898 65.2776 34.7632 64.9049 34.2953C64.7682 34.1237 63.5951 34.5549 63.5897 34.7568C63.5566 35.9769 62.2461 37.491 61.3211 37.8791Z" fill="#540E01"/>
<path opacity="0.75" d="M57.2254 35.0755C57.2133 35.267 58.6217 35.7288 58.7264 35.6106C58.8976 35.418 61.0221 32.9162 61.0306 32.7617C61.0452 32.5121 61.1068 31.2988 60.7472 31.2813C60.6269 31.2753 59.0917 31.732 58.166 32.8389C57.2407 33.9458 57.2407 34.833 57.2254 35.0755Z" fill="white"/>
<path d="M57.6628 33.5676C57.6628 33.5676 58.3225 32.449 59.4793 31.8096C59.4793 31.8096 60.1052 32 59.6153 32.7894C59.1254 33.5783 57.6628 33.5676 57.6628 33.5676Z" fill="white"/>
<path d="M60.6084 37.5011C60.565 37.5701 61.0178 38.4549 61.1421 38.4299C61.2667 38.405 61.7427 37.7111 61.6839 37.7154C61.6252 37.72 60.7031 37.3501 60.6084 37.5011Z" fill="white"/>
<path d="M63.3943 34.3532C63.2116 34.5764 63.3725 35.3508 63.4761 35.3764C63.5801 35.402 64.0486 34.523 63.9913 34.4682C63.934 34.4133 63.5623 34.1477 63.3943 34.3532Z" fill="white"/>
<path d="M59.5474 40.3362C59.5474 40.3362 62.1104 41.1223 64.5417 38.6682C66.7725 36.4163 65.8568 33.9095 65.7579 33.6621C65.7579 33.6621 67.4137 36.6228 64.515 39.3315C62.0225 41.6602 59.5474 40.3362 59.5474 40.3362Z" fill="#FFDAC8"/>
<path opacity="0.5" d="M58.6605 39.8739C57.2745 38.1148 56.1096 35.0185 58.5157 32.5291C60.9217 30.0401 63.9646 31.8708 65.0198 32.3525C65.0198 32.3525 61.3852 27.3831 57.1855 30.3413C55.1323 31.7875 54.9233 34.1982 55.5446 35.8743C56.4492 38.3149 58.6605 39.8739 58.6605 39.8739Z" fill="url(#paint114_linear_148_7529)"/>
<path d="M56.3084 108.283C54.6653 111.677 59.8426 118.676 64.5422 113.36C69.7476 107.471 59.8601 100.948 56.3084 108.283Z" fill="url(#paint115_linear_148_7529)"/>
<path d="M57.6629 108.259C56.6492 110.295 57.4058 112.364 59.2557 113.63C61.3837 115.088 63.9905 113.364 64.8912 111.58C66.1786 109.03 63.7263 106.386 62.2047 105.953C60.6826 105.52 58.3867 106.805 57.6629 108.259Z" fill="url(#paint116_linear_148_7529)"/>
<path opacity="0.4" d="M57.3035 110.048C57.2294 110.369 57.3035 112.157 58.6628 113.087C60.0221 114.017 60.9815 114.175 61.0851 114.022C61.1887 113.868 61.1848 112.633 61.1215 112.57C61.0577 112.506 59.9968 111.989 59.4859 111.284C58.975 110.579 58.7995 110.333 58.6539 110.319C58.5079 110.306 57.354 109.83 57.3035 110.048Z" fill="#540E01"/>
<path d="M58.9348 110.238C58.744 111.063 61.1055 112.6 61.3212 112.57C62.3373 112.424 63.5677 110.178 63.5898 109.447C63.6044 108.954 61.7025 107.362 61.0951 107.553C60.4874 107.744 59.0836 109.595 58.9348 110.238Z" fill="white"/>
<path opacity="0.8" d="M61.3211 112.571C61.0399 112.688 61.1413 113.967 61.2374 113.979C62.3077 114.106 63.4081 113.509 64.4801 112.113C65.3495 110.981 65.2776 109.455 64.9049 108.987C64.7682 108.815 63.5951 109.246 63.5897 109.448C63.5566 110.668 62.2461 112.182 61.3211 112.571Z" fill="#540E01"/>
<path opacity="0.75" d="M57.2254 109.767C57.2133 109.958 58.6217 110.42 58.7264 110.302C58.8976 110.109 61.0221 107.607 61.0306 107.453C61.0452 107.203 61.1068 105.99 60.7472 105.973C60.6269 105.967 59.0917 106.423 58.166 107.53C57.2407 108.637 57.2407 109.524 57.2254 109.767Z" fill="white"/>
<path d="M57.6628 108.258C57.6628 108.258 58.3225 107.14 59.4793 106.5C59.4793 106.5 60.1052 106.69 59.6153 107.48C59.1254 108.269 57.6628 108.258 57.6628 108.258Z" fill="white"/>
<path d="M60.6084 112.193C60.565 112.262 61.0178 113.147 61.1421 113.121C61.2667 113.097 61.7427 112.403 61.6839 112.407C61.6252 112.412 60.7031 112.041 60.6084 112.193Z" fill="white"/>
<path d="M63.3943 109.045C63.2116 109.268 63.3725 110.042 63.4761 110.068C63.5801 110.093 64.0486 109.214 63.9913 109.16C63.934 109.105 63.5623 108.839 63.3943 109.045Z" fill="white"/>
<path d="M59.5474 115.027C59.5474 115.027 62.1104 115.813 64.5417 113.359C66.7725 111.107 65.8568 108.6 65.7579 108.353C65.7579 108.353 67.4137 111.313 64.515 114.022C62.0225 116.351 59.5474 115.027 59.5474 115.027Z" fill="#FFDAC8"/>
<path opacity="0.5" d="M58.6605 114.565C57.2745 112.806 56.1096 109.709 58.5157 107.22C60.9217 104.731 63.9646 106.562 65.0198 107.044C65.0198 107.044 61.3852 102.075 57.1855 105.033C55.1323 106.479 54.9233 108.89 55.5446 110.566C56.4492 113.006 58.6605 114.565 58.6605 114.565Z" fill="url(#paint117_linear_148_7529)"/>
<defs>
<linearGradient id="paint0_linear_148_7529" x1="89.4188" y1="110.806" x2="33.1108" y2="110.806" gradientUnits="userSpaceOnUse">
<stop stop-color="#D80080"/>
<stop offset="1" stop-color="#F90035"/>
</linearGradient>
<linearGradient id="paint1_linear_148_7529" x1="89.4188" y1="131.677" x2="33.1109" y2="131.677" gradientUnits="userSpaceOnUse">
<stop stop-color="#C4652E"/>
<stop offset="0.0614" stop-color="#C6682E"/>
<stop offset="0.1068" stop-color="#CC712D"/>
<stop offset="0.147" stop-color="#D7812B"/>
<stop offset="0.184" stop-color="#E59828"/>
<stop offset="0.2188" stop-color="#F8B525"/>
<stop offset="0.2202" stop-color="#F9B625"/>
<stop offset="0.6389" stop-color="#F9B725"/>
<stop offset="0.7984" stop-color="#F9B426"/>
<stop offset="0.916" stop-color="#F9AB2A"/>
<stop offset="0.9722" stop-color="#F9A32D"/>
</linearGradient>
<linearGradient id="paint2_linear_148_7529" x1="46.4343" y1="123.3" x2="76.0631" y2="123.3" gradientUnits="userSpaceOnUse">
<stop stop-color="#D80080"/>
<stop offset="1" stop-color="#F90035"/>
</linearGradient>
<linearGradient id="paint3_linear_148_7529" x1="72.3295" y1="139.068" x2="50.1691" y2="139.068" gradientUnits="userSpaceOnUse">
<stop stop-color="#C4652E"/>
<stop offset="0.0614" stop-color="#C6682E"/>
<stop offset="0.1068" stop-color="#CC712D"/>
<stop offset="0.147" stop-color="#D7812B"/>
<stop offset="0.184" stop-color="#E59828"/>
<stop offset="0.2188" stop-color="#F8B525"/>
<stop offset="0.2202" stop-color="#F9B625"/>
<stop offset="0.6389" stop-color="#F9B725"/>
<stop offset="0.7984" stop-color="#F9B426"/>
<stop offset="0.916" stop-color="#F9AB2A"/>
<stop offset="0.9722" stop-color="#F9A32D"/>
</linearGradient>
<linearGradient id="paint4_linear_148_7529" x1="61.0254" y1="13.4481" x2="61.0254" y2="43.9815" gradientUnits="userSpaceOnUse">
<stop stop-color="#DD5962"/>
<stop offset="0.494" stop-color="#DB5948"/>
<stop offset="1" stop-color="#BF454F"/>
</linearGradient>
<linearGradient id="paint5_linear_148_7529" x1="45.2778" y1="24.1733" x2="76.7757" y2="24.1733" gradientUnits="userSpaceOnUse">
<stop stop-color="#E55F43"/>
<stop offset="0.5238" stop-color="#E05B67"/>
<stop offset="1" stop-color="#E35E53"/>
</linearGradient>
<linearGradient id="paint6_linear_148_7529" x1="46.6747" y1="42.3388" x2="75.3778" y2="42.3388" gradientUnits="userSpaceOnUse">
<stop stop-color="#E45F5E"/>
<stop offset="1" stop-color="#D7555F"/>
</linearGradient>
<linearGradient id="paint7_linear_148_7529" x1="48.5872" y1="22.3616" x2="76.3718" y2="22.3616" gradientUnits="userSpaceOnUse">
<stop stop-color="#E45F5E"/>
<stop offset="1" stop-color="#D7555F"/>
</linearGradient>
<linearGradient id="paint8_linear_148_7529" x1="67.0029" y1="19.1131" x2="76.7748" y2="19.1131" gradientUnits="userSpaceOnUse">
<stop stop-color="#DB5948"/>
<stop offset="1" stop-color="#BF454F"/>
</linearGradient>
<linearGradient id="paint9_linear_148_7529" x1="45.2768" y1="19.1116" x2="55.0898" y2="19.1116" gradientUnits="userSpaceOnUse">
<stop stop-color="#DB5948"/>
<stop offset="1" stop-color="#BF454F"/>
</linearGradient>
<radialGradient id="paint10_radial_148_7529" cx="0" cy="0" r="1" gradientUnits="userSpaceOnUse" gradientTransform="translate(58.8481 1.22006) scale(5.57682 5.57681)">
<stop stop-color="#E55F43"/>
<stop offset="1" stop-color="#E05B67"/>
</radialGradient>
<radialGradient id="paint11_radial_148_7529" cx="0" cy="0" r="1" gradientUnits="userSpaceOnUse" gradientTransform="translate(44.1891 14.6474) scale(2.61002 2.61002)">
<stop stop-color="#E55F43"/>
<stop offset="1" stop-color="#E05B67"/>
</radialGradient>
<radialGradient id="paint12_radial_148_7529" cx="0" cy="0" r="1" gradientUnits="userSpaceOnUse" gradientTransform="translate(75.8131 14.6476) scale(2.61006 2.61006)">
<stop stop-color="#E55F43"/>
<stop offset="1" stop-color="#E05B67"/>
</radialGradient>
<linearGradient id="paint13_linear_148_7529" x1="46.3511" y1="21.9147" x2="55.3918" y2="21.9147" gradientUnits="userSpaceOnUse">
<stop stop-color="#E45F5E"/>
<stop offset="1" stop-color="#D7555F"/>
</linearGradient>
<radialGradient id="paint14_radial_148_7529" cx="0" cy="0" r="1" gradientUnits="userSpaceOnUse" gradientTransform="translate(19.3286 51.4124) scale(22.251 22.251)">
<stop stop-color="#E05B67"/>
<stop offset="1" stop-color="#E55F43"/>
</radialGradient>
<linearGradient id="paint15_linear_148_7529" x1="0.00130741" y1="51.4126" x2="38.657" y2="51.4126" gradientUnits="userSpaceOnUse">
<stop stop-color="#D7555F"/>
<stop offset="1" stop-color="white"/>
</linearGradient>
<linearGradient id="paint16_linear_148_7529" x1="2.69663" y1="38.7177" x2="14.4268" y2="38.7177" gradientUnits="userSpaceOnUse">
<stop stop-color="#E45F5E"/>
<stop offset="1" stop-color="#D7555F"/>
</linearGradient>
<linearGradient id="paint17_linear_148_7529" x1="4.27556" y1="54.3562" x2="12.4772" y2="54.3562" gradientUnits="userSpaceOnUse">
<stop stop-color="#E45F5E"/>
<stop offset="1" stop-color="#D7555F"/>
</linearGradient>
<linearGradient id="paint18_linear_148_7529" x1="11.1803" y1="67.6858" x2="18.3156" y2="67.6858" gradientUnits="userSpaceOnUse">
<stop stop-color="#E45F5E"/>
<stop offset="1" stop-color="#D7555F"/>
</linearGradient>
<radialGradient id="paint19_radial_148_7529" cx="0" cy="0" r="1" gradientUnits="userSpaceOnUse" gradientTransform="translate(102.671 51.4124) rotate(180) scale(22.251 22.251)">
<stop stop-color="#E05B67"/>
<stop offset="1" stop-color="#E55F43"/>
</radialGradient>
<linearGradient id="paint20_linear_148_7529" x1="121.999" y1="51.4126" x2="83.3429" y2="51.4126" gradientUnits="userSpaceOnUse">
<stop stop-color="#D7555F"/>
<stop offset="1" stop-color="white"/>
</linearGradient>
<linearGradient id="paint21_linear_148_7529" x1="119.303" y1="38.7177" x2="107.573" y2="38.7177" gradientUnits="userSpaceOnUse">
<stop stop-color="#E45F5E"/>
<stop offset="1" stop-color="#D7555F"/>
</linearGradient>
<linearGradient id="paint22_linear_148_7529" x1="117.724" y1="54.3562" x2="109.522" y2="54.3562" gradientUnits="userSpaceOnUse">
<stop stop-color="#E45F5E"/>
<stop offset="1" stop-color="#D7555F"/>
</linearGradient>
<linearGradient id="paint23_linear_148_7529" x1="110.82" y1="67.6858" x2="103.684" y2="67.6858" gradientUnits="userSpaceOnUse">
<stop stop-color="#E45F5E"/>
<stop offset="1" stop-color="#D7555F"/>
</linearGradient>
<radialGradient id="paint24_radial_148_7529" cx="0" cy="0" r="1" gradientUnits="userSpaceOnUse" gradientTransform="translate(84.5474 115.193) scale(13.9425 13.9425)">
<stop stop-color="#D7555F"/>
<stop offset="1" stop-color="#DC596D"/>
</radialGradient>
<linearGradient id="paint25_linear_148_7529" x1="70.1371" y1="115.081" x2="72.1061" y2="108.014" gradientUnits="userSpaceOnUse">
<stop stop-color="#D7555F"/>
<stop offset="1" stop-color="white"/>
</linearGradient>
<radialGradient id="paint26_radial_148_7529" cx="0" cy="0" r="1" gradientUnits="userSpaceOnUse" gradientTransform="translate(37.4525 115.193) scale(13.9425 13.9425)">
<stop stop-color="#D7555F"/>
<stop offset="1" stop-color="#DC596D"/>
</radialGradient>
<linearGradient id="paint27_linear_148_7529" x1="51.8629" y1="115.081" x2="49.894" y2="108.014" gradientUnits="userSpaceOnUse">
<stop stop-color="#D7555F"/>
<stop offset="1" stop-color="white"/>
</linearGradient>
<linearGradient id="paint28_linear_148_7529" x1="60.9997" y1="91.8047" x2="60.9997" y2="57.9628" gradientUnits="userSpaceOnUse">
<stop stop-color="#D35234"/>
<stop offset="0.504" stop-color="#DD5962"/>
<stop offset="1" stop-color="#E05B43"/>
</linearGradient>
<linearGradient id="paint29_linear_148_7529" x1="62.0045" y1="60.3583" x2="73.6597" y2="60.3583" gradientUnits="userSpaceOnUse">
<stop stop-color="#E05B67"/>
<stop offset="1" stop-color="#E55F43"/>
</linearGradient>
<linearGradient id="paint30_linear_148_7529" x1="73.5141" y1="58.5032" x2="59.9857" y2="58.8676" gradientUnits="userSpaceOnUse">
<stop stop-color="#D1AF85"/>
<stop offset="1" stop-color="#030000"/>
</linearGradient>
<linearGradient id="paint31_linear_148_7529" x1="53.7609" y1="67.7174" x2="53.3408" y2="57.6348" gradientUnits="userSpaceOnUse">
<stop stop-color="#E05B67"/>
<stop offset="1" stop-color="#E55F43"/>
</linearGradient>
<linearGradient id="paint32_linear_148_7529" x1="51.747" y1="55.9467" x2="49.1359" y2="69.2257" gradientUnits="userSpaceOnUse">
<stop stop-color="white"/>
<stop offset="0.4444" stop-color="#E15E52"/>
<stop offset="1" stop-color="#D15042"/>
</linearGradient>
<linearGradient id="paint33_linear_148_7529" x1="44.384" y1="74.9965" x2="48.6588" y2="83.0797" gradientUnits="userSpaceOnUse">
<stop stop-color="#DD5962"/>
<stop offset="0.494" stop-color="#DB5948"/>
<stop offset="1" stop-color="#BF454F"/>
</linearGradient>
<linearGradient id="paint34_linear_148_7529" x1="42.2204" y1="75.4504" x2="53.8832" y2="82.315" gradientUnits="userSpaceOnUse">
<stop stop-color="white"/>
<stop offset="0.4444" stop-color="#E15E52"/>
<stop offset="1" stop-color="#D15042"/>
</linearGradient>
<linearGradient id="paint35_linear_148_7529" x1="54.5944" y1="87.6755" x2="66.236" y2="87.6755" gradientUnits="userSpaceOnUse">
<stop stop-color="#DD5962"/>
<stop offset="0.494" stop-color="#DB5948"/>
<stop offset="1" stop-color="#BF454F"/>
</linearGradient>
<linearGradient id="paint36_linear_148_7529" x1="62.8893" y1="93.7424" x2="63.2393" y2="84.5695" gradientUnits="userSpaceOnUse">
<stop stop-color="white"/>
<stop offset="0.4444" stop-color="#E15E52"/>
<stop offset="1" stop-color="#D15042"/>
</linearGradient>
<linearGradient id="paint37_linear_148_7529" x1="68.3172" y1="75.0536" x2="81.5021" y2="75.0536" gradientUnits="userSpaceOnUse">
<stop stop-color="#DD5962"/>
<stop offset="0.494" stop-color="#DB5948"/>
<stop offset="1" stop-color="#BF454F"/>
</linearGradient>
<linearGradient id="paint38_linear_148_7529" x1="76.9611" y1="80.5335" x2="73.3177" y2="67.5002" gradientUnits="userSpaceOnUse">
<stop stop-color="#D1AF85"/>
<stop offset="1" stop-color="#030000"/>
</linearGradient>
<linearGradient id="paint39_linear_148_7529" x1="60.638" y1="134.129" x2="60.638" y2="4.59188" gradientUnits="userSpaceOnUse">
<stop stop-color="#E05B67"/>
<stop offset="1" stop-color="#E55F43"/>
</linearGradient>
<linearGradient id="paint40_linear_148_7529" x1="40.3468" y1="70.1254" x2="60.9281" y2="70.1254" gradientUnits="userSpaceOnUse">
<stop stop-color="#E05B67"/>
<stop offset="1" stop-color="#E55F43"/>
</linearGradient>
<linearGradient id="paint41_linear_148_7529" x1="60.9281" y1="70.1254" x2="80.7858" y2="70.1254" gradientUnits="userSpaceOnUse">
<stop stop-color="#E05B67"/>
<stop offset="1" stop-color="#E55F43"/>
</linearGradient>
<linearGradient id="paint42_linear_148_7529" x1="62.5754" y1="72.7177" x2="49.2854" y2="93.5853" gradientUnits="userSpaceOnUse">
<stop stop-color="white"/>
<stop offset="0.4444" stop-color="#E15E52"/>
<stop offset="1" stop-color="#D15042"/>
</linearGradient>
<linearGradient id="paint43_linear_148_7529" x1="69.2242" y1="79.7735" x2="61.5288" y2="79.7735" gradientUnits="userSpaceOnUse">
<stop stop-color="white"/>
<stop offset="0.4444" stop-color="#E15E52"/>
<stop offset="1" stop-color="#D15042"/>
</linearGradient>
<linearGradient id="paint44_linear_148_7529" x1="63.762" y1="51.1946" x2="63.762" y2="73.5973" gradientUnits="userSpaceOnUse">
<stop stop-color="#F3846D"/>
<stop offset="1" stop-color="#030000"/>
</linearGradient>
<linearGradient id="paint45_linear_148_7529" x1="75.9149" y1="73.652" x2="65.8891" y2="62.2273" gradientUnits="userSpaceOnUse">
<stop stop-color="#FFD8E5"/>
<stop offset="1" stop-color="#030000"/>
</linearGradient>
<linearGradient id="paint46_linear_148_7529" x1="56.9215" y1="68.4072" x2="82.802" y2="62.6948" gradientUnits="userSpaceOnUse">
<stop stop-color="#F3846D"/>
<stop offset="1" stop-color="#030000"/>
</linearGradient>
<linearGradient id="paint47_linear_148_7529" x1="50.6374" y1="51.1946" x2="50.6374" y2="73.5972" gradientUnits="userSpaceOnUse">
<stop stop-color="#F3846D"/>
<stop offset="1" stop-color="#030000"/>
</linearGradient>
<linearGradient id="paint48_linear_148_7529" x1="50.6374" y1="80.439" x2="50.6374" y2="67.5545" gradientUnits="userSpaceOnUse">
<stop stop-color="white"/>
<stop offset="0.4444" stop-color="#E15E52"/>
<stop offset="1" stop-color="#D15042"/>
</linearGradient>
<linearGradient id="paint49_linear_148_7529" x1="70.8569" y1="78.9022" x2="70.8569" y2="66.578" gradientUnits="userSpaceOnUse">
<stop stop-color="white"/>
<stop offset="0.4444" stop-color="#E15E52"/>
<stop offset="1" stop-color="#D15042"/>
</linearGradient>
<linearGradient id="paint50_linear_148_7529" x1="60.6379" y1="102.373" x2="60.6379" y2="70.5437" gradientUnits="userSpaceOnUse">
<stop stop-color="white"/>
<stop offset="0.4444" stop-color="#E15E52"/>
<stop offset="1" stop-color="#D15042"/>
</linearGradient>
<linearGradient id="paint51_linear_148_7529" x1="48.5662" y1="55.5633" x2="53.2036" y2="66.1337" gradientUnits="userSpaceOnUse">
<stop stop-color="white"/>
<stop offset="0.4444" stop-color="#E15E52"/>
<stop offset="1" stop-color="#D15042"/>
</linearGradient>
<linearGradient id="paint52_linear_148_7529" x1="70.7898" y1="56.5509" x2="70.7898" y2="63.6457" gradientUnits="userSpaceOnUse">
<stop stop-color="white"/>
<stop offset="0.4444" stop-color="#E15E52"/>
<stop offset="1" stop-color="#D15042"/>
</linearGradient>
<linearGradient id="paint53_linear_148_7529" x1="59.0994" y1="82.8864" x2="59.0994" y2="89.3279" gradientUnits="userSpaceOnUse">
<stop stop-color="white"/>
<stop offset="0.4444" stop-color="#E15E52"/>
<stop offset="1" stop-color="#D15042"/>
</linearGradient>
<linearGradient id="paint54_linear_148_7529" x1="39.4298" y1="79.9565" x2="81.7166" y2="79.9565" gradientUnits="userSpaceOnUse">
<stop stop-color="#E15E52"/>
<stop offset="1" stop-color="#D15042"/>
</linearGradient>
<linearGradient id="paint55_linear_148_7529" x1="61.0493" y1="79.3707" x2="61.0493" y2="71.4676" gradientUnits="userSpaceOnUse">
<stop stop-color="white"/>
<stop offset="0.4444" stop-color="#E15E52"/>
<stop offset="1" stop-color="#D15042"/>
</linearGradient>
<linearGradient id="paint56_linear_148_7529" x1="60.7378" y1="75.5477" x2="60.7378" y2="65.8557" gradientUnits="userSpaceOnUse">
<stop stop-color="#E05B67"/>
<stop offset="1" stop-color="#E55F43"/>
</linearGradient>
<linearGradient id="paint57_linear_148_7529" x1="55.4139" y1="72.8065" x2="66.0609" y2="72.8065" gradientUnits="userSpaceOnUse">
<stop stop-color="#D7545E"/>
<stop offset="1" stop-color="#BF454F"/>
</linearGradient>
<linearGradient id="paint58_linear_148_7529" x1="63.4042" y1="66.9993" x2="65.6315" y2="66.9993" gradientUnits="userSpaceOnUse">
<stop stop-color="#D1AF85"/>
<stop offset="1" stop-color="white"/>
</linearGradient>
<linearGradient id="paint59_linear_148_7529" x1="58.3145" y1="67.3959" x2="63.8487" y2="73.3618" gradientUnits="userSpaceOnUse">
<stop stop-color="#D7545E"/>
<stop offset="1" stop-color="#BF454F"/>
</linearGradient>
<linearGradient id="paint60_linear_148_7529" x1="63.2855" y1="72.4131" x2="58.3676" y2="67.4951" gradientUnits="userSpaceOnUse">
<stop stop-color="#B88313"/>
<stop offset="1" stop-color="#E2A11B"/>
</linearGradient>
<linearGradient id="paint61_linear_148_7529" x1="56.2724" y1="71.7763" x2="62.5635" y2="65.4853" gradientUnits="userSpaceOnUse">
<stop stop-color="white"/>
<stop offset="0.4444" stop-color="#E15E52"/>
<stop offset="1" stop-color="#962E32"/>
</linearGradient>
<linearGradient id="paint62_linear_148_7529" x1="26.6399" y1="66.5623" x2="26.6399" y2="46.9888" gradientUnits="userSpaceOnUse">
<stop stop-color="#DD5962"/>
<stop offset="0.494" stop-color="#DB5948"/>
<stop offset="1" stop-color="#BF454F"/>
</linearGradient>
<linearGradient id="paint63_linear_148_7529" x1="60.964" y1="44.9865" x2="60.964" y2="26.5792" gradientUnits="userSpaceOnUse">
<stop stop-color="#DD5962"/>
<stop offset="0.494" stop-color="#DB5948"/>
<stop offset="1" stop-color="#BF454F"/>
</linearGradient>
<linearGradient id="paint64_linear_148_7529" x1="30.1045" y1="99.7207" x2="30.1045" y2="94.7375" gradientUnits="userSpaceOnUse">
<stop stop-color="#DD5962"/>
<stop offset="0.494" stop-color="#DB5948"/>
<stop offset="1" stop-color="#BF454F"/>
</linearGradient>
<linearGradient id="paint65_linear_148_7529" x1="95.359" y1="66.5617" x2="95.359" y2="46.9884" gradientUnits="userSpaceOnUse">
<stop stop-color="#DD5962"/>
<stop offset="0.494" stop-color="#DB5948"/>
<stop offset="1" stop-color="#BF454F"/>
</linearGradient>
<linearGradient id="paint66_linear_148_7529" x1="91.8943" y1="99.7207" x2="91.8943" y2="94.7375" gradientUnits="userSpaceOnUse">
<stop stop-color="#DD5962"/>
<stop offset="0.494" stop-color="#DB5948"/>
<stop offset="1" stop-color="#BF454F"/>
</linearGradient>
<linearGradient id="paint67_linear_148_7529" x1="60.9859" y1="119.708" x2="60.9859" y2="102.703" gradientUnits="userSpaceOnUse">
<stop stop-color="#DD5962"/>
<stop offset="0.494" stop-color="#DB5948"/>
<stop offset="1" stop-color="#BF454F"/>
</linearGradient>
<linearGradient id="paint68_linear_148_7529" x1="60.986" y1="119.734" x2="60.986" y2="28.5874" gradientUnits="userSpaceOnUse">
<stop stop-color="#E05B67"/>
<stop offset="1" stop-color="#E55F43"/>
</linearGradient>
<linearGradient id="paint69_linear_148_7529" x1="60.9865" y1="100.324" x2="60.9865" y2="43.4404" gradientUnits="userSpaceOnUse">
<stop stop-color="#DD5962"/>
<stop offset="0.494" stop-color="#DB5948"/>
<stop offset="1" stop-color="#BF454F"/>
</linearGradient>
<linearGradient id="paint70_linear_148_7529" x1="63.013" y1="95.5548" x2="75.1029" y2="95.5548" gradientUnits="userSpaceOnUse">
<stop stop-color="#E45F5E"/>
<stop offset="1" stop-color="#D7555F"/>
</linearGradient>
<linearGradient id="paint71_linear_148_7529" x1="36.165" y1="71.8216" x2="38.5144" y2="71.8216" gradientUnits="userSpaceOnUse">
<stop stop-color="#E45F5E"/>
<stop offset="1" stop-color="#D7555F"/>
</linearGradient>
<linearGradient id="paint72_linear_148_7529" x1="83.4894" y1="71.828" x2="85.806" y2="71.828" gradientUnits="userSpaceOnUse">
<stop stop-color="#E45F5E"/>
<stop offset="1" stop-color="#D7555F"/>
</linearGradient>
<linearGradient id="paint73_linear_148_7529" x1="41.9305" y1="49.5249" x2="61.2081" y2="49.5249" gradientUnits="userSpaceOnUse">
<stop stop-color="#E45F5E"/>
<stop offset="1" stop-color="#D7555F"/>
</linearGradient>
<linearGradient id="paint74_linear_148_7529" x1="32.8605" y1="98.0593" x2="32.8605" y2="41.8481" gradientUnits="userSpaceOnUse">
<stop stop-color="#D7555F"/>
<stop offset="1" stop-color="white"/>
</linearGradient>
<linearGradient id="paint75_linear_148_7529" x1="89.0462" y1="98.5244" x2="89.0462" y2="42.1865" gradientUnits="userSpaceOnUse">
<stop stop-color="#E45F5E"/>
<stop offset="1" stop-color="#D7555F"/>
</linearGradient>
<linearGradient id="paint76_linear_148_7529" x1="45.0139" y1="51.5488" x2="45.675" y2="52.836" gradientUnits="userSpaceOnUse">
<stop stop-color="#E45F5E"/>
<stop offset="1" stop-color="#D7555F"/>
</linearGradient>
<linearGradient id="paint77_linear_148_7529" x1="85.2856" y1="67.7811" x2="86.2283" y2="67.8708" gradientUnits="userSpaceOnUse">
<stop stop-color="#E45F5E"/>
<stop offset="1" stop-color="#D7555F"/>
</linearGradient>
<linearGradient id="paint78_linear_148_7529" x1="84.2909" y1="61.7325" x2="86.1941" y2="61.5665" gradientUnits="userSpaceOnUse">
<stop stop-color="#E45F5E"/>
<stop offset="1" stop-color="#D7555F"/>
</linearGradient>
<linearGradient id="paint79_linear_148_7529" x1="33.6152" y1="55.8199" x2="19.613" y2="55.8199" gradientUnits="userSpaceOnUse">
<stop stop-color="#D7555F"/>
<stop offset="1" stop-color="white"/>
</linearGradient>
<linearGradient id="paint80_linear_148_7529" x1="86.4999" y1="55.8708" x2="101.911" y2="55.8708" gradientUnits="userSpaceOnUse">
<stop stop-color="#D7555F"/>
<stop offset="1" stop-color="white"/>
</linearGradient>
<linearGradient id="paint81_linear_148_7529" x1="37.5858" y1="93.8239" x2="20.5184" y2="93.8239" gradientUnits="userSpaceOnUse">
<stop stop-color="#D7555F"/>
<stop offset="1" stop-color="white"/>
</linearGradient>
<linearGradient id="paint82_linear_148_7529" x1="84.291" y1="93.6433" x2="100.612" y2="93.6433" gradientUnits="userSpaceOnUse">
<stop stop-color="#D7555F"/>
<stop offset="1" stop-color="white"/>
</linearGradient>
<linearGradient id="paint83_linear_148_7529" x1="70.409" y1="110.32" x2="61.211" y2="110.32" gradientUnits="userSpaceOnUse">
<stop stop-color="#D7555F"/>
<stop offset="1" stop-color="white"/>
</linearGradient>
<linearGradient id="paint84_linear_148_7529" x1="70.1775" y1="33.9092" x2="60.7327" y2="33.9092" gradientUnits="userSpaceOnUse">
<stop stop-color="#D7555F"/>
<stop offset="1" stop-color="white"/>
</linearGradient>
<linearGradient id="paint85_linear_148_7529" x1="21.4605" y1="81.6345" x2="55.5643" y2="81.6345" gradientUnits="userSpaceOnUse">
<stop offset="0.1865" stop-color="#E15E52"/>
<stop offset="1" stop-color="#962E32"/>
</linearGradient>
<linearGradient id="paint86_linear_148_7529" x1="66.2863" y1="81.6345" x2="100.558" y2="81.6345" gradientUnits="userSpaceOnUse">
<stop offset="0.1865" stop-color="#E15E52"/>
<stop offset="1" stop-color="#962E32"/>
</linearGradient>
<linearGradient id="paint87_linear_148_7529" x1="60.9861" y1="63.9828" x2="60.9861" y2="43.3906" gradientUnits="userSpaceOnUse">
<stop stop-color="#E15E52"/>
<stop offset="1" stop-color="#962E32"/>
</linearGradient>
<linearGradient id="paint88_linear_148_7529" x1="96.5876" y1="77.6003" x2="96.5876" y2="53.547" gradientUnits="userSpaceOnUse">
<stop stop-color="#E05B67"/>
<stop offset="1" stop-color="#E55F43"/>
</linearGradient>
<linearGradient id="paint89_linear_148_7529" x1="92.2789" y1="68.6002" x2="95.6112" y2="68.6002" gradientUnits="userSpaceOnUse">
<stop stop-color="#D7555F"/>
<stop offset="1" stop-color="white"/>
</linearGradient>
<linearGradient id="paint90_linear_148_7529" x1="93.2481" y1="73.336" x2="102.289" y2="73.336" gradientUnits="userSpaceOnUse">
<stop stop-color="#D7555F"/>
<stop offset="1" stop-color="white"/>
</linearGradient>
<radialGradient id="paint91_radial_148_7529" cx="0" cy="0" r="1" gradientUnits="userSpaceOnUse" gradientTransform="translate(86.4272 89.136) scale(16.756 16.756)">
<stop stop-color="#E05B67"/>
<stop offset="1" stop-color="#E55F43"/>
</radialGradient>
<linearGradient id="paint92_linear_148_7529" x1="87.7819" y1="88.9007" x2="99.1392" y2="88.9007" gradientUnits="userSpaceOnUse">
<stop stop-color="#D7555F"/>
<stop offset="1" stop-color="white"/>
</linearGradient>
<linearGradient id="paint93_linear_148_7529" x1="89.2895" y1="85.6754" x2="97.2336" y2="85.6754" gradientUnits="userSpaceOnUse">
<stop stop-color="#D7555F"/>
<stop offset="1" stop-color="white"/>
</linearGradient>
<linearGradient id="paint94_linear_148_7529" x1="80.5939" y1="92.3589" x2="80.5939" y2="81.5811" gradientUnits="userSpaceOnUse">
<stop stop-color="#D7555F"/>
<stop offset="1" stop-color="white"/>
</linearGradient>
<linearGradient id="paint95_linear_148_7529" x1="84.522" y1="90.4292" x2="84.522" y2="82.0409" gradientUnits="userSpaceOnUse">
<stop stop-color="#D7555F"/>
<stop offset="1" stop-color="white"/>
</linearGradient>
<linearGradient id="paint96_linear_148_7529" x1="76.8544" y1="101.199" x2="85.7849" y2="101.199" gradientUnits="userSpaceOnUse">
<stop stop-color="#D7555F"/>
<stop offset="1" stop-color="white"/>
</linearGradient>
<linearGradient id="paint97_linear_148_7529" x1="78.4755" y1="98.0979" x2="85.7881" y2="98.0979" gradientUnits="userSpaceOnUse">
<stop stop-color="#D7555F"/>
<stop offset="1" stop-color="white"/>
</linearGradient>
<linearGradient id="paint98_linear_148_7529" x1="73.4245" y1="98.9362" x2="73.4245" y2="92.794" gradientUnits="userSpaceOnUse">
<stop stop-color="#D7555F"/>
<stop offset="1" stop-color="white"/>
</linearGradient>
<linearGradient id="paint99_linear_148_7529" x1="71.1934" y1="100.207" x2="71.1934" y2="93.3818" gradientUnits="userSpaceOnUse">
<stop stop-color="#D7555F"/>
<stop offset="1" stop-color="white"/>
</linearGradient>
<linearGradient id="paint100_linear_148_7529" x1="25.4126" y1="77.6003" x2="25.4126" y2="53.547" gradientUnits="userSpaceOnUse">
<stop stop-color="#E05B67"/>
<stop offset="1" stop-color="#E55F43"/>
</linearGradient>
<linearGradient id="paint101_linear_148_7529" x1="29.7212" y1="68.6002" x2="26.389" y2="68.6002" gradientUnits="userSpaceOnUse">
<stop stop-color="#D7555F"/>
<stop offset="1" stop-color="white"/>
</linearGradient>
<linearGradient id="paint102_linear_148_7529" x1="28.7519" y1="73.336" x2="19.7106" y2="73.336" gradientUnits="userSpaceOnUse">
<stop stop-color="#D7555F"/>
<stop offset="1" stop-color="white"/>
</linearGradient>
<radialGradient id="paint103_radial_148_7529" cx="0" cy="0" r="1" gradientUnits="userSpaceOnUse" gradientTransform="translate(35.573 89.136) rotate(180) scale(16.756)">
<stop stop-color="#E05B67"/>
<stop offset="1" stop-color="#E55F43"/>
</radialGradient>
<linearGradient id="paint104_linear_148_7529" x1="34.2186" y1="88.9007" x2="22.8612" y2="88.9007" gradientUnits="userSpaceOnUse">
<stop stop-color="#D7555F"/>
<stop offset="1" stop-color="white"/>
</linearGradient>
<linearGradient id="paint105_linear_148_7529" x1="32.7109" y1="85.6754" x2="24.7668" y2="85.6754" gradientUnits="userSpaceOnUse">
<stop stop-color="#D7555F"/>
<stop offset="1" stop-color="white"/>
</linearGradient>
<linearGradient id="paint106_linear_148_7529" x1="41.4065" y1="92.3589" x2="41.4065" y2="81.5811" gradientUnits="userSpaceOnUse">
<stop stop-color="#D7555F"/>
<stop offset="1" stop-color="white"/>
</linearGradient>
<linearGradient id="paint107_linear_148_7529" x1="37.4782" y1="90.4292" x2="37.4782" y2="82.0409" gradientUnits="userSpaceOnUse">
<stop stop-color="#D7555F"/>
<stop offset="1" stop-color="white"/>
</linearGradient>
<linearGradient id="paint108_linear_148_7529" x1="45.1458" y1="101.199" x2="36.2153" y2="101.199" gradientUnits="userSpaceOnUse">
<stop stop-color="#D7555F"/>
<stop offset="1" stop-color="white"/>
</linearGradient>
<linearGradient id="paint109_linear_148_7529" x1="43.5248" y1="98.0979" x2="36.2122" y2="98.0979" gradientUnits="userSpaceOnUse">
<stop stop-color="#D7555F"/>
<stop offset="1" stop-color="white"/>
</linearGradient>
<linearGradient id="paint110_linear_148_7529" x1="48.5759" y1="98.9362" x2="48.5759" y2="92.794" gradientUnits="userSpaceOnUse">
<stop stop-color="#D7555F"/>
<stop offset="1" stop-color="white"/>
</linearGradient>
<linearGradient id="paint111_linear_148_7529" x1="50.8069" y1="100.207" x2="50.8069" y2="93.3818" gradientUnits="userSpaceOnUse">
<stop stop-color="#D7555F"/>
<stop offset="1" stop-color="white"/>
</linearGradient>
<linearGradient id="paint112_linear_148_7529" x1="58.3611" y1="32.4604" x2="64.6093" y2="39.196" gradientUnits="userSpaceOnUse">
<stop stop-color="#D7545E"/>
<stop offset="1" stop-color="#BF454F"/>
</linearGradient>
<linearGradient id="paint113_linear_148_7529" x1="63.9734" y1="38.125" x2="58.4209" y2="32.5724" gradientUnits="userSpaceOnUse">
<stop stop-color="#B88313"/>
<stop offset="1" stop-color="#E2A11B"/>
</linearGradient>
<linearGradient id="paint114_linear_148_7529" x1="55.8145" y1="37.1653" x2="62.8727" y2="30.107" gradientUnits="userSpaceOnUse">
<stop stop-color="white"/>
<stop offset="0.4444" stop-color="#E15E52"/>
<stop offset="1" stop-color="#962E32"/>
</linearGradient>
<linearGradient id="paint115_linear_148_7529" x1="58.3611" y1="107.152" x2="64.6093" y2="113.888" gradientUnits="userSpaceOnUse">
<stop stop-color="#D7545E"/>
<stop offset="1" stop-color="#BF454F"/>
</linearGradient>
<linearGradient id="paint116_linear_148_7529" x1="63.9734" y1="112.816" x2="58.4209" y2="107.263" gradientUnits="userSpaceOnUse">
<stop stop-color="#B88313"/>
<stop offset="1" stop-color="#E2A11B"/>
</linearGradient>
<linearGradient id="paint117_linear_148_7529" x1="55.8145" y1="111.857" x2="62.8727" y2="104.798" gradientUnits="userSpaceOnUse">
<stop stop-color="white"/>
<stop offset="0.4444" stop-color="#E15E52"/>
<stop offset="1" stop-color="#962E32"/>
</linearGradient>
</defs>
</svg>
