<svg width="135" height="61" viewBox="0 0 135 61" fill="none" xmlns="http://www.w3.org/2000/svg">
<path d="M128.311 0.226562L7.30882 0.439409C3.78209 0.439409 0.95645 3.17123 1.06912 6.47135C1.09622 7.26739 1.12041 8.22469 1.09196 9.43909L0.18816 48.0509C0.101251 51.766 -0.110645 55.0882 0.0721315 57.4461C0.226909 59.441 2.0204 60.9763 4.15683 60.9763H129.133C131.668 60.9763 133.79 59.1604 133.994 56.795C134.155 54.9307 134.155 52.508 134.155 49.4771V28.5169C134.155 13.0104 136.203 0.226562 128.311 0.226562ZM15.8941 8.35722C14.3849 8.35722 13.1612 7.2116 13.1612 5.79862C13.1612 4.38542 14.3849 3.2398 15.8941 3.2398C17.4036 3.2398 18.6273 4.38542 18.6273 5.79862C18.6273 7.21181 17.4036 8.35722 15.8941 8.35722ZM116.714 8.35722C115.205 8.35722 113.981 7.2116 113.981 5.79862C113.981 4.38542 115.205 3.2398 116.714 3.2398C118.224 3.2398 119.447 4.38542 119.447 5.79862C119.447 7.21181 118.224 8.35722 116.714 8.35722Z" fill="#8D735C"/>
<g opacity="0.65">
<g opacity="0.76">
<path d="M29.0748 15.3384C26.6479 15.4422 24.5309 15.5997 22.9478 15.8293C22.9478 15.8293 25.2562 15.5821 29.0748 15.3384Z" fill="#7A5F49"/>
<path d="M22.9588 15.9211L22.9326 15.7381C24.4217 15.5221 26.4867 15.3566 29.0704 15.2461L29.0816 15.4306C25.3094 15.6714 22.9821 15.9186 22.9588 15.9211Z" fill="#7A5F49"/>
</g>
<g opacity="0.76">
<path d="M61.4293 15.6684C48.8269 14.4314 36.2693 14.8795 29.0752 15.3388C41.2966 14.8166 61.4293 15.6684 61.4293 15.6684Z" fill="#7A5F49"/>
<path d="M61.4249 15.7601C61.2235 15.7517 41.1569 14.9142 29.0796 15.4305L29.0684 15.2461C35.6326 14.8272 48.5665 14.3125 61.4395 15.5762L61.4249 15.7601ZM38.5698 15.078C45.7084 15.078 53.2029 15.2873 57.5909 15.4345C49.8027 14.8704 42.2265 14.8943 36.3093 15.0855C37.0556 15.0803 37.8114 15.078 38.5698 15.078Z" fill="#7A5F49"/>
</g>
<g opacity="0.76">
<path d="M5.46567 19.4115C10.9624 19.7343 16.3812 19.4988 21.8024 19.4784C15.1981 19.3803 4.33743 19.1869 4.33228 19.124C4.34706 19.3033 4.96662 19.3824 5.46567 19.4115Z" fill="#7A5F49"/>
<path d="M12.042 19.6732C9.85922 19.6732 7.65695 19.6336 5.46005 19.5046C4.25924 19.4341 4.24132 19.2146 4.23438 19.132L4.33293 19.1248L4.36116 19.0376C4.68124 19.0982 14.7364 19.2819 21.8044 19.387L21.8033 19.5717C20.2965 19.5774 18.764 19.6 17.2818 19.6218C15.5569 19.6474 13.8055 19.6732 12.042 19.6732ZM4.78293 19.2439C4.94084 19.2741 5.16371 19.3022 5.47237 19.3203C8.73927 19.5122 12.0216 19.5059 15.2323 19.4658C13.5887 19.4375 11.9977 19.4086 10.591 19.3813C7.03627 19.3125 5.47237 19.28 4.78293 19.2439Z" fill="#7A5F49"/>
</g>
<g opacity="0.76">
<path d="M21.8027 19.479C24.2503 19.5153 26.1143 19.5385 26.6232 19.5371C25.0148 19.4849 23.4087 19.4729 21.8027 19.479Z" fill="#7A5F49"/>
<path d="M26.5785 19.6296C26.0378 19.6296 24.3077 19.6084 21.801 19.5713L21.8021 19.3865C23.6559 19.38 25.1891 19.3983 26.6265 19.4448L26.6231 19.6294C26.6097 19.6296 26.5946 19.6296 26.5785 19.6296Z" fill="#7A5F49"/>
</g>
<g opacity="0.76">
<path d="M11.5864 16.8092C10.9763 16.7218 10.3659 16.6343 9.75577 16.5469L9.59473 16.7526C10.2562 16.822 10.9223 16.8409 11.5864 16.8092Z" fill="#7A5F49"/>
<path d="M10.9634 16.9156C10.5025 16.9156 10.0406 16.8915 9.58366 16.8437L9.41455 16.8259L9.71157 16.4463L12.5587 16.8544L11.5913 16.9007C11.3828 16.9106 11.1731 16.9156 10.9634 16.9156ZM9.77562 16.6768C9.93734 16.6916 10.0997 16.7034 10.2621 16.7122L9.79981 16.6459L9.77562 16.6768Z" fill="#7A5F49"/>
</g>
<g opacity="0.76">
<path d="M87.8557 16.8307C98.3909 16.2668 115.741 17.0501 115.741 17.0501C104.883 15.856 94.0578 16.3467 87.8557 16.8307Z" fill="#7A5F49"/>
<path d="M115.736 17.1418C115.563 17.1341 98.2712 16.3657 87.8611 16.9225L87.8472 16.7384C93.5074 16.2965 104.659 15.7381 115.752 16.9579L115.736 17.1418ZM97.1645 16.5354C102.968 16.5354 108.881 16.705 112.433 16.8292C105.722 16.2915 99.1925 16.3412 94.092 16.5528C95.1031 16.5406 96.1321 16.5354 97.1645 16.5354Z" fill="#7A5F49"/>
</g>
<g opacity="0.76">
<path d="M87.8554 16.8301C85.7633 16.9421 83.9382 17.1069 82.573 17.3418C82.573 17.3418 84.5634 17.087 87.8554 16.8301Z" fill="#7A5F49"/>
<path d="M82.5863 17.4339L82.5552 17.2514C83.8402 17.0302 85.6216 16.8576 87.8499 16.7383L87.8637 16.9224C84.6123 17.1764 82.6062 17.4311 82.5863 17.4339Z" fill="#7A5F49"/>
</g>
<g opacity="0.76">
<path d="M71.6707 18.4259C69.1647 18.3887 66.6587 18.3514 64.1527 18.3143C59.0916 18.2392 54.0305 18.1642 48.9695 18.0889C57.1819 18.3013 65.3945 18.5139 73.6069 18.7264C75.2545 18.7689 77.2337 18.8933 78.8312 18.6253C77.3049 18.1614 73.5229 18.4533 71.6707 18.4259Z" fill="#7A5F49"/>
<path d="M76.331 18.8846C75.6777 18.8846 75.0225 18.8632 74.4025 18.8429C74.1303 18.8339 73.8631 18.8253 73.6046 18.8186L48.967 18.1808L48.9713 17.9961L71.6727 18.3331C72.187 18.3404 72.8621 18.3234 73.5764 18.305C75.4342 18.257 77.7453 18.1976 78.8621 18.5373L79.2364 18.6512L78.8489 18.7162C78.0733 18.8464 77.2037 18.8846 76.331 18.8846ZM65.7094 18.4296L73.61 18.634C73.8692 18.6407 74.1366 18.6495 74.4092 18.6583C75.6752 18.6996 77.0895 18.7458 78.3217 18.6036C77.1294 18.3985 75.1849 18.4484 73.5818 18.4897C72.8648 18.5084 72.1881 18.5258 71.6696 18.5181L65.7094 18.4296Z" fill="#7A5F49"/>
</g>
<g opacity="0.76">
<path d="M84.1027 14.8643C80.5916 14.878 77.0703 14.7207 73.5605 14.6343C74.1272 14.9423 74.8608 14.9941 75.5561 15.0252C78.3943 15.1514 81.2793 15.1277 84.1027 14.8643Z" fill="#7A5F49"/>
<path d="M78.7772 15.1907C77.7287 15.1907 76.6524 15.1662 75.5515 15.1171C74.8061 15.084 74.0891 15.0282 73.5112 14.714L73.177 14.5322L73.5634 14.5417C74.5886 14.5668 75.6149 14.5983 76.6417 14.6295C79.0886 14.7042 81.6187 14.7807 84.1026 14.7717L84.1129 14.956C82.4377 15.1125 80.652 15.1907 78.7772 15.1907ZM74.0638 14.7394C74.5142 14.874 75.0296 14.9091 75.5607 14.9328C77.6911 15.0275 79.7296 15.0303 81.6494 14.9414C79.9662 14.916 78.2815 14.8648 76.6347 14.8145C75.7773 14.7883 74.9201 14.7621 74.0638 14.7394Z" fill="#7A5F49"/>
</g>
<g opacity="0.76">
<path d="M125.205 15.3408C125.682 15.3215 126.158 15.3012 126.633 15.2769C126.159 15.2769 125.683 15.3029 125.205 15.3408Z" fill="#7A5F49"/>
<path d="M125.21 15.4338L125.197 15.2494C125.749 15.2056 126.205 15.1851 126.633 15.1851L126.639 15.3696C126.164 15.3941 125.687 15.4145 125.21 15.4338Z" fill="#7A5F49"/>
</g>
<g opacity="0.76">
<path d="M119.823 15.6561C121.597 15.8077 123.411 15.4841 125.206 15.3413C123.409 15.4143 121.601 15.4709 119.823 15.6561Z" fill="#7A5F49"/>
<path d="M120.794 15.7878C120.466 15.7878 120.139 15.776 119.814 15.7481L118.843 15.6651L119.812 15.5642C121.391 15.3998 123.016 15.3356 124.588 15.2736L125.201 15.249L125.214 15.4334C124.722 15.4726 124.219 15.5263 123.733 15.5783C122.767 15.6819 121.776 15.7878 120.794 15.7878Z" fill="#7A5F49"/>
</g>
<g opacity="0.76">
<path d="M113.749 19.6674C114.41 19.7368 115.076 19.7556 115.74 19.7238C115.13 19.6363 114.52 19.5489 113.91 19.4614L113.749 19.6674Z" fill="#7A5F49"/>
<path d="M115.117 19.8311C114.656 19.8311 114.194 19.807 113.738 19.7592L113.569 19.7414L113.866 19.3618L116.714 19.7697L115.746 19.816C115.537 19.8261 115.327 19.8311 115.117 19.8311ZM113.93 19.5923C114.092 19.607 114.254 19.6189 114.416 19.6275L113.954 19.5612L113.93 19.5923Z" fill="#7A5F49"/>
</g>
<g opacity="0.76">
<path d="M119.901 3.56201C119.888 3.57376 119.875 3.58718 119.862 3.5985C119.759 3.68721 119.652 3.77172 119.544 3.85434C124.363 3.98709 127.733 4.12968 127.733 4.12968C125.104 3.87175 122.478 3.68846 119.901 3.56201Z" fill="#7A5F49"/>
<path d="M112.56 3.34258C105.7 3.26415 99.611 3.52963 95.3792 3.79994C100.524 3.58017 107.071 3.60387 112.928 3.70495C112.8 3.58982 112.676 3.46945 112.56 3.34258Z" fill="#7A5F49"/>
<path d="M112.826 3.6132C110.246 3.56916 107.535 3.54002 104.874 3.54002C104.114 3.54002 103.36 3.54232 102.612 3.54735C105.598 3.45089 109.008 3.39762 112.653 3.4404C112.595 3.3798 112.538 3.31752 112.482 3.25419C105.429 3.17702 99.2745 3.45886 95.3726 3.70799L95.3838 3.89232C100.535 3.67213 107.139 3.69834 113.036 3.8013C112.964 3.7407 112.894 3.67758 112.826 3.6132Z" fill="#7A5F49"/>
<path d="M119.989 3.479C119.947 3.51948 119.906 3.56205 119.862 3.59959C119.841 3.61804 119.818 3.63545 119.797 3.65369C121.151 3.71849 122.519 3.79754 123.895 3.89736C122.693 3.8571 121.256 3.81201 119.658 3.76797C119.581 3.82921 119.502 3.88856 119.423 3.94622C124.243 4.07771 127.647 4.21968 127.729 4.22304L127.743 4.03892C125.142 3.78371 122.542 3.60441 119.989 3.479Z" fill="#7A5F49"/>
</g>
<g opacity="0.76">
<path d="M116.277 10.8528C110.64 10.8609 104.987 10.7672 99.3523 10.7158C100.262 10.8991 101.44 10.9299 102.556 10.9484C107.112 11.0237 111.744 11.0096 116.277 10.8528Z" fill="#7A5F49"/>
<path d="M107.727 11.085C106.046 11.085 104.32 11.0705 102.554 11.0414C101.373 11.0218 100.238 10.9893 99.3315 10.8067L98.3809 10.6152L99.3532 10.624C101.002 10.6391 102.652 10.6578 104.302 10.6765C108.229 10.7209 112.289 10.7669 116.277 10.761L116.281 10.9455C113.597 11.0384 110.734 11.085 107.727 11.085ZM101.448 10.8293C101.809 10.8428 102.181 10.8503 102.558 10.8564C104.379 10.8864 106.159 10.8998 107.89 10.9C106.685 10.8876 105.487 10.8742 104.301 10.8608C103.349 10.8503 102.398 10.8396 101.448 10.8293Z" fill="#7A5F49"/>
</g>
</g>
<g opacity="0.65">
<g opacity="0.76">
<path d="M101.89 27.4846C104.318 27.3808 106.434 27.2233 108.017 26.9937C108.017 26.9937 105.709 27.2407 101.89 27.4846Z" fill="#7A5F49"/>
<path d="M101.895 27.5764L101.884 27.3919C105.656 27.1509 107.984 26.9037 108.007 26.9014L108.033 27.0844C106.543 27.3004 104.478 27.4661 101.895 27.5764Z" fill="#7A5F49"/>
</g>
<g opacity="0.76">
<path d="M69.5364 27.1533C82.1387 28.3904 94.6963 27.9424 101.89 27.483C89.6693 28.0054 69.5364 27.1533 69.5364 27.1533Z" fill="#7A5F49"/>
<path d="M87.1661 28.0436C81.7269 28.0436 75.62 27.8439 69.5266 27.2456L69.5412 27.0615C69.7425 27.0701 89.8089 27.9075 101.886 27.3912L101.898 27.5757C98.4406 27.7963 93.2167 28.0436 87.1661 28.0436ZM73.3748 27.3874C81.1622 27.9515 88.7378 27.9276 94.6552 27.7366C86.8845 27.7894 78.2286 27.5501 73.3748 27.3874Z" fill="#7A5F49"/>
</g>
<g opacity="0.76">
<path d="M125.5 23.41C120.004 23.0873 114.585 23.3228 109.164 23.3431C115.768 23.4411 126.629 23.6346 126.634 23.6975C126.619 23.5182 125.999 23.4394 125.5 23.41Z" fill="#7A5F49"/>
<path d="M126.606 23.7849C126.286 23.7241 116.23 23.5404 109.162 23.4355L109.163 23.2508C110.67 23.2451 112.202 23.2225 113.684 23.2007C117.544 23.1438 121.534 23.0847 125.507 23.3181C126.708 23.3886 126.726 23.6079 126.732 23.6905L126.634 23.6977L126.606 23.7849ZM115.735 23.3567C117.378 23.385 118.969 23.4139 120.376 23.4412C123.93 23.51 125.494 23.5425 126.184 23.5786C126.026 23.5486 125.803 23.5205 125.494 23.5022C122.227 23.3108 118.946 23.3169 115.735 23.3567Z" fill="#7A5F49"/>
</g>
<g opacity="0.76">
<path d="M109.164 23.3435C106.716 23.3072 104.852 23.2839 104.343 23.2852C105.952 23.3374 107.558 23.3494 109.164 23.3435Z" fill="#7A5F49"/>
<path d="M108.433 23.437C106.9 23.437 105.584 23.4177 104.34 23.3775L104.343 23.1929C104.83 23.1915 106.583 23.2129 109.165 23.251L109.164 23.4358C108.915 23.4364 108.671 23.437 108.433 23.437Z" fill="#7A5F49"/>
</g>
<g opacity="0.76">
<path d="M119.38 26.0134C119.99 26.1009 120.6 26.1883 121.21 26.2758L121.371 26.0698C120.71 26.0006 120.044 25.9818 119.38 26.0134Z" fill="#7A5F49"/>
<path d="M121.254 26.3753L118.406 25.9674L119.375 25.9211C120.042 25.8894 120.717 25.9085 121.382 25.9779L121.551 25.9957L121.254 26.3753ZM120.704 26.1096L121.166 26.1759L121.19 26.1448C121.029 26.1302 120.866 26.1184 120.704 26.1096Z" fill="#7A5F49"/>
</g>
<g opacity="0.76">
<path d="M43.1111 25.9926C32.5759 26.5565 15.2258 25.7734 15.2258 25.7734C26.0842 26.9675 36.909 26.4766 43.1111 25.9926Z" fill="#7A5F49"/>
<path d="M29.7688 26.6041C25.246 26.6041 20.2248 26.416 15.2141 25.8651L15.2305 25.6812C15.4038 25.6889 32.6959 26.4577 43.1054 25.9003L43.1193 26.0844C40.0157 26.3266 35.2597 26.6041 29.7688 26.6041ZM18.5339 25.9938C25.2444 26.5313 31.7728 26.4816 36.8731 26.2702C30.1771 26.3495 22.7176 26.14 18.5339 25.9938Z" fill="#7A5F49"/>
</g>
<g opacity="0.76">
<path d="M43.1106 25.9917C45.2027 25.8797 47.0277 25.7148 48.393 25.48C48.393 25.48 46.4026 25.735 43.1106 25.9917Z" fill="#7A5F49"/>
<path d="M43.1164 26.0845L43.1025 25.9004C46.3538 25.6469 48.3598 25.3917 48.3798 25.3892L48.4109 25.5716C47.1256 25.7926 45.3442 25.9654 43.1164 26.0845Z" fill="#7A5F49"/>
</g>
<g opacity="0.76">
<path d="M59.295 24.3964C61.801 24.4335 64.307 24.4708 66.813 24.5079C71.8741 24.583 76.9352 24.6581 81.9962 24.7334C73.7836 24.5209 65.5712 24.3083 57.3586 24.0959C55.711 24.0533 53.7318 23.9289 52.1343 24.1969C53.661 24.6608 57.4431 24.3689 59.295 24.3964Z" fill="#7A5F49"/>
<path d="M81.9949 24.8259L59.2937 24.4889C58.7807 24.4811 58.1052 24.4985 57.3906 24.517C55.5331 24.565 53.2213 24.6244 52.104 24.2846L51.7297 24.1708L52.1172 24.1058C53.4742 23.8782 55.116 23.9319 56.5637 23.9791C56.836 23.9879 57.1028 23.9967 57.3618 24.0034L81.9991 24.6409L81.9949 24.8259ZM59.0262 24.3023C59.1205 24.3023 59.2108 24.3029 59.2968 24.3042L65.2581 24.3926L57.3561 24.1882C57.097 24.1815 56.8295 24.1727 56.5567 24.1639C55.2907 24.1225 53.8765 24.0762 52.6445 24.2186C53.8375 24.4239 55.7822 24.3738 57.3853 24.3324C57.9829 24.3169 58.5527 24.3023 59.0262 24.3023Z" fill="#7A5F49"/>
</g>
<g opacity="0.76">
<path d="M46.8633 27.959C50.3743 27.9454 53.8957 28.1027 57.4054 28.1891C56.8387 27.881 56.1054 27.8292 55.4099 27.7982C52.5719 27.6719 49.6869 27.6956 46.8633 27.959Z" fill="#7A5F49"/>
<path d="M57.7889 28.2902L57.4025 28.2808C56.3758 28.2554 55.3481 28.2242 54.32 28.1927C51.8747 28.1183 49.3467 28.0411 46.8636 28.0507L46.8533 27.8664C49.4634 27.6227 52.3442 27.5686 55.4142 27.7054C56.1596 27.7385 56.8766 27.7943 57.4545 28.1084L57.7889 28.2902ZM49.3165 27.8813C50.9982 27.9067 52.6813 27.9581 54.3265 28.0082C55.1855 28.0344 56.044 28.0606 56.9021 28.0833C56.4515 27.9486 55.9361 27.9136 55.405 27.8899C53.2742 27.7951 51.2359 27.7924 49.3165 27.8813Z" fill="#7A5F49"/>
</g>
<g opacity="0.76">
<path d="M5.76048 27.481C5.28361 27.5002 4.8074 27.5206 4.33276 27.5449C4.80673 27.5447 5.28294 27.5189 5.76048 27.481Z" fill="#7A5F49"/>
<path d="M4.33252 27.6372L4.32715 27.4526C4.80201 27.4281 5.27866 27.408 5.75598 27.3887L5.76853 27.573C5.21841 27.6168 4.76236 27.6372 4.33252 27.6372Z" fill="#7A5F49"/>
</g>
<g opacity="0.76">
<path d="M11.1434 27.166C9.36943 27.0144 7.55601 27.3379 5.7605 27.4807C7.5578 27.4078 9.3654 27.3509 11.1434 27.166Z" fill="#7A5F49"/>
<path d="M5.7645 27.5732L5.75195 27.3889C6.24428 27.3497 6.74737 27.296 7.23387 27.244C8.52294 27.106 9.85546 26.9634 11.1519 27.0744L12.122 27.1574L11.1539 27.2583C9.57569 27.4227 7.95132 27.4869 6.3807 27.5489L5.7645 27.5732Z" fill="#7A5F49"/>
</g>
<g opacity="0.76">
<path d="M17.2176 23.155C16.5561 23.0856 15.89 23.0667 15.2258 23.0984C15.836 23.1858 16.4464 23.2733 17.0565 23.3607L17.2176 23.155Z" fill="#7A5F49"/>
<path d="M17.1003 23.4605L14.2532 23.0524L15.2206 23.006C15.8881 22.9744 16.5636 22.9935 17.2284 23.0631L17.3978 23.0809L17.1003 23.4605ZM16.5504 23.195L17.0121 23.261L17.0363 23.2302C16.8748 23.2153 16.7126 23.2036 16.5504 23.195Z" fill="#7A5F49"/>
</g>
</g>
<g opacity="0.65">
<g opacity="0.76">
<path d="M58.0584 39.5581C55.6313 39.6619 53.5146 39.8194 51.9314 40.049C51.9314 40.049 54.2398 39.802 58.0584 39.5581Z" fill="#7A5F49"/>
<path d="M51.9427 40.1409L51.9165 39.9578C53.4065 39.7418 55.4717 39.5763 58.0543 39.4658L58.0655 39.6504C54.2935 39.8913 51.966 40.1383 51.9427 40.1409Z" fill="#7A5F49"/>
</g>
<g opacity="0.76">
<path d="M90.4124 39.8877C77.8101 38.6507 65.2525 39.0986 58.0583 39.5581C70.2797 39.0357 90.4124 39.8877 90.4124 39.8877Z" fill="#7A5F49"/>
<path d="M90.4081 39.98C90.2067 39.9716 70.1398 39.1342 58.063 39.6503L58.0518 39.4658C64.6167 39.0468 77.5512 38.5324 90.4228 39.7959L90.4081 39.98ZM67.553 39.2976C74.6924 39.2976 82.1872 39.5069 86.5747 39.6541C78.7872 39.0898 71.2114 39.1137 65.2943 39.3049C66.0406 39.2999 66.7941 39.2976 67.553 39.2976Z" fill="#7A5F49"/>
</g>
<g opacity="0.76">
<path d="M34.4493 43.6317C39.946 43.9545 45.3648 43.719 50.786 43.6986C44.1817 43.6007 33.3211 43.4071 33.3159 43.3442C33.3307 43.5233 33.9503 43.6024 34.4493 43.6317Z" fill="#7A5F49"/>
<path d="M41.0265 43.892C38.8433 43.892 36.6406 43.8523 34.443 43.7234C33.2422 43.6529 33.2242 43.4336 33.2175 43.3509L33.3159 43.3438L33.3441 43.2563C33.6644 43.3172 43.7195 43.5009 50.7876 43.6057L50.7864 43.7905C49.2801 43.7961 47.7476 43.8188 46.2654 43.8406C44.5409 43.8662 42.79 43.892 41.0265 43.892ZM33.7661 43.4627C33.924 43.4927 34.1466 43.5208 34.4553 43.539C37.7222 43.7307 41.0043 43.7246 44.2148 43.6848C42.5718 43.6565 40.981 43.6275 39.5739 43.6003C36.0197 43.5315 34.456 43.499 33.7661 43.4627Z" fill="#7A5F49"/>
</g>
<g opacity="0.76">
<path d="M50.7861 43.6992C53.2337 43.7355 55.0977 43.7587 55.6066 43.7575C53.9982 43.7053 52.3921 43.6931 50.7861 43.6992Z" fill="#7A5F49"/>
<path d="M55.5592 43.8499C55.0165 43.8499 53.2882 43.8288 50.7847 43.7916L50.7858 43.6069C52.6384 43.6 54.1723 43.6184 55.6099 43.6652L55.6067 43.8497C55.592 43.8499 55.5763 43.8499 55.5592 43.8499Z" fill="#7A5F49"/>
</g>
<g opacity="0.76">
<path d="M40.5698 41.0289C39.9597 40.9415 39.3493 40.854 38.7392 40.7666L38.5781 40.9725C39.2396 41.0417 39.9057 41.0606 40.5698 41.0289Z" fill="#7A5F49"/>
<path d="M39.9462 41.1358C39.4854 41.1358 39.0238 41.1117 38.5673 41.0639L38.3982 41.0461L38.6952 40.6665L41.5432 41.0744L40.5752 41.1207C40.366 41.1308 40.1561 41.1358 39.9462 41.1358ZM38.7593 40.897C38.921 40.9116 39.0832 40.9236 39.2458 40.9322L38.7835 40.8659L38.7593 40.897Z" fill="#7A5F49"/>
</g>
<g opacity="0.76">
<path d="M103.956 32.3688C114.491 31.8049 131.841 32.5882 131.841 32.5882C120.983 31.3941 110.158 31.8848 103.956 32.3688Z" fill="#7A5F49"/>
<path d="M131.836 32.6805C131.663 32.6727 114.372 31.9042 103.961 32.4611L103.948 32.277C109.608 31.8352 120.759 31.2765 131.853 32.4966L131.836 32.6805ZM113.265 32.074C119.068 32.074 124.981 32.2435 128.533 32.3678C121.822 31.8301 115.293 31.8798 110.192 32.0914C111.203 32.0793 112.232 32.074 113.265 32.074Z" fill="#7A5F49"/>
</g>
<g opacity="0.76">
<path d="M116.839 41.0498C114.747 41.1618 112.922 41.3266 111.557 41.5615C111.557 41.5615 113.547 41.3067 116.839 41.0498Z" fill="#7A5F49"/>
<path d="M111.57 41.6531L111.539 41.4707C112.824 41.2494 114.605 41.0766 116.833 40.9575L116.847 41.1416C113.596 41.3956 111.59 41.6506 111.57 41.6531Z" fill="#7A5F49"/>
</g>
<g opacity="0.76">
<path d="M100.654 42.6451C98.1481 42.608 95.6423 42.5707 93.1363 42.5335C88.0753 42.4585 83.0142 42.3834 77.9531 42.3081C86.1655 42.5205 94.3781 42.7332 102.59 42.9456C104.238 42.9882 106.217 43.1125 107.815 42.8445C106.288 42.3807 102.506 42.6726 100.654 42.6451Z" fill="#7A5F49"/>
<path d="M105.315 43.1041C104.661 43.1041 104.006 43.0827 103.386 43.0624C103.114 43.0536 102.847 43.0448 102.588 43.0381L77.9504 42.4006L77.9547 42.2158L100.656 42.5528C101.168 42.5602 101.844 42.543 102.559 42.5247C104.416 42.4767 106.728 42.4173 107.846 42.7571L108.22 42.8709L107.832 42.9359C107.056 43.066 106.187 43.1041 105.315 43.1041ZM94.6915 42.6491L102.593 42.8535C102.853 42.8602 103.12 42.869 103.393 42.8779C104.659 42.9192 106.073 42.9655 107.305 42.8231C106.112 42.618 104.168 42.6681 102.564 42.7092C101.848 42.7277 101.172 42.7451 100.653 42.7376L94.6915 42.6491Z" fill="#7A5F49"/>
</g>
<g opacity="0.76">
<path d="M118.641 39.084C113.28 39.0977 107.903 38.9404 102.544 38.854C103.409 39.1619 104.529 39.2139 105.591 39.2447C109.925 39.3711 114.33 39.3474 118.641 39.084Z" fill="#7A5F49"/>
<path d="M110.51 39.4108C108.91 39.4108 107.268 39.3862 105.588 39.3374C104.461 39.3044 103.377 39.2495 102.509 38.9406L101.982 38.7529L102.546 38.7619C104.113 38.7873 105.683 38.8186 107.253 38.85C110.987 38.9245 114.848 39.0019 118.641 38.992L118.648 39.1765C116.094 39.3325 113.37 39.4108 110.51 39.4108ZM103.297 38.9591C103.991 39.0937 104.781 39.1289 105.594 39.1526C108.85 39.2476 111.964 39.2501 114.897 39.1612C112.33 39.1358 109.76 39.0845 107.248 39.0343C105.931 39.0081 104.614 38.9819 103.297 38.9591Z" fill="#7A5F49"/>
</g>
<g opacity="0.76">
<path d="M95.0835 7.04914C96.8575 7.20076 98.6709 6.87718 100.466 6.73438C98.6689 6.80735 96.8613 6.86397 95.0835 7.04914Z" fill="#7A5F49"/>
<path d="M96.055 7.18082C95.7266 7.18082 95.3996 7.16908 95.0746 7.14119L94.1045 7.05815L95.0726 6.95727C96.6517 6.79287 98.2768 6.7287 99.8485 6.66641L100.462 6.64209L100.475 6.82642C99.9824 6.86563 99.4796 6.91932 98.9933 6.97154C98.0272 7.07492 97.0363 7.18082 96.055 7.18082Z" fill="#7A5F49"/>
</g>
<g opacity="0.76">
<path d="M89.0095 11.0607C89.671 11.1301 90.3371 11.149 91.0012 11.1173C90.3911 11.0299 89.7807 10.9424 89.1706 10.855L89.0095 11.0607Z" fill="#7A5F49"/>
<path d="M90.3771 11.2247C89.9166 11.2247 89.4549 11.2008 88.9982 11.1528L88.8291 11.1349L89.1259 10.7554L91.9733 11.1632L91.0058 11.2096C90.7968 11.2197 90.587 11.2247 90.3771 11.2247ZM89.1899 10.9858C89.3519 11.0005 89.5141 11.0125 89.6767 11.0213L89.2144 10.955L89.1899 10.9858Z" fill="#7A5F49"/>
</g>
</g>
<g opacity="0.65">
<g opacity="0.76">
<path d="M127.811 39.0993C130.238 38.9955 132.355 38.838 133.938 38.6084C133.938 38.6084 131.629 38.8554 127.811 39.0993Z" fill="#7A5F49"/>
<path d="M127.815 39.1921L127.804 39.0076C131.576 38.7666 133.903 38.5196 133.926 38.5171L133.953 38.7002C132.463 38.9162 130.398 39.0816 127.815 39.1921Z" fill="#7A5F49"/>
</g>
<g opacity="0.76">
<path d="M98.52 51.5312C111.122 52.7683 123.68 52.3204 130.874 51.8609C118.653 52.3833 98.52 51.5312 98.52 51.5312Z" fill="#7A5F49"/>
<path d="M116.15 52.421C110.711 52.421 104.604 52.2214 98.5098 51.6231L98.5243 51.439C98.7257 51.4476 118.793 52.2849 130.87 51.7686L130.881 51.9529C127.424 52.1738 122.2 52.421 116.15 52.421ZM102.358 51.7646C110.147 52.3289 117.723 52.3048 123.641 52.1138C115.868 52.166 107.212 51.9276 102.358 51.7646Z" fill="#7A5F49"/>
</g>
<g opacity="0.76">
<path d="M18.7791 7.81713C43.6344 7.92072 76.255 8.07988 76.2725 8.13587C76.2165 7.95679 73.8641 7.87794 71.9694 7.84858C54.1196 7.57261 36.4864 7.70472 18.8789 7.76134C18.8462 7.78063 18.8124 7.79867 18.7791 7.81713Z" fill="#7A5F49"/>
<path d="M13.2376 7.77539C12.1414 7.77749 11.0449 7.77958 9.94873 7.78063C11.025 7.78483 12.1317 7.78923 13.2629 7.79385C13.2546 7.78777 13.2461 7.78168 13.2376 7.77539Z" fill="#7A5F49"/>
<path d="M13.1101 7.68311C12.0542 7.6852 10.9992 7.68688 9.94822 7.68792L9.948 7.87268C11.0778 7.87708 12.2267 7.88169 13.391 7.88631C13.2976 7.81857 13.2039 7.75084 13.1101 7.68311Z" fill="#7A5F49"/>
<path d="M71.9712 7.75583C56.9029 7.52285 41.7598 7.58178 27.1151 7.63861C24.4512 7.64889 21.7438 7.65937 19.0248 7.66818C18.8897 7.75709 18.7491 7.8372 18.603 7.90829C44.7311 8.0167 75.7891 8.1721 76.2548 8.22578L76.2725 8.1354L76.367 8.1094C76.3359 8.00916 76.2774 7.82231 71.9712 7.75583ZM74.4465 8.01377C73.2681 8.00224 71.5579 7.98924 69.4278 7.97498C65.4022 7.94793 59.7089 7.91584 52.506 7.87914C47.1654 7.85188 41.1286 7.82315 34.8918 7.79463C47.0879 7.75457 59.5536 7.74849 71.9681 7.94037C73.0658 7.95736 73.9172 7.98378 74.5594 8.01482C74.5227 8.01461 74.4848 8.01419 74.4465 8.01377Z" fill="#7A5F49"/>
</g>
<g opacity="0.76">
<path d="M127.616 42.6892C125.168 42.6529 123.304 42.6296 122.795 42.6309C124.404 42.6831 126.01 42.6953 127.616 42.6892Z" fill="#7A5F49"/>
<path d="M126.878 42.7829C125.349 42.7829 124.035 42.7636 122.792 42.7231L122.795 42.5386C123.279 42.5409 125.035 42.5585 127.618 42.5967L127.617 42.7814C127.365 42.7823 127.119 42.7829 126.878 42.7829Z" fill="#7A5F49"/>
</g>
<g opacity="0.76">
<path d="M74.2578 34.3445C76.5743 34.4319 78.8911 34.5194 81.2078 34.6068L81.8193 34.4011C79.3081 34.3317 76.7788 34.3128 74.2578 34.3445Z" fill="#7A5F49"/>
<path d="M81.2231 34.6997L74.2539 34.4367L74.2566 34.2521C76.7727 34.2205 79.3179 34.2396 81.8223 34.3086L82.3426 34.323L81.2231 34.6997ZM79.237 34.44L81.1927 34.5139L81.2942 34.4797C80.6108 34.4627 79.9247 34.4495 79.237 34.44Z" fill="#7A5F49"/>
</g>
<g opacity="0.76">
<path d="M72.094 50.3681C61.5588 50.932 44.2087 50.1489 44.2087 50.1489C55.0671 51.343 65.8919 50.8521 72.094 50.3681Z" fill="#7A5F49"/>
<path d="M58.7522 50.98C54.2294 50.98 49.2077 50.7919 44.1975 50.241L44.2139 50.0571C44.3872 50.0651 61.6788 50.8339 72.0888 50.2765L72.1027 50.4606C68.9986 50.7026 64.2433 50.98 58.7522 50.98ZM47.517 50.3696C54.2269 50.9071 60.7553 50.8574 65.8563 50.646C59.1601 50.7248 51.7007 50.5158 47.517 50.3696Z" fill="#7A5F49"/>
</g>
<g opacity="0.76">
<path d="M72.0938 50.3681C74.1858 50.2561 76.0109 50.0913 77.3761 49.8564C77.3761 49.8564 75.3857 50.1114 72.0938 50.3681Z" fill="#7A5F49"/>
<path d="M72.0993 50.4605L72.0854 50.2764C75.3367 50.0227 77.3427 49.7677 77.3629 49.7651L77.394 49.9476C76.109 50.1686 74.3276 50.3412 72.0993 50.4605Z" fill="#7A5F49"/>
</g>
<g opacity="0.76">
<path d="M88.2782 48.7733C90.7842 48.8105 93.2902 48.8478 95.7962 48.8849C100.857 48.96 105.918 49.0351 110.979 49.1103C102.767 48.8977 94.5544 48.6853 86.342 48.4728C84.6944 48.4303 82.7152 48.3059 81.1177 48.5739C82.6442 49.0378 86.4263 48.7457 88.2782 48.7733Z" fill="#7A5F49"/>
<path d="M110.978 49.2019L88.2768 48.8649C87.7626 48.8571 87.0874 48.8745 86.3731 48.893C84.5154 48.941 82.2042 49.0003 81.0874 48.6606L80.7131 48.5467L81.1006 48.4817C82.4573 48.2542 84.099 48.3079 85.5473 48.3551C85.8194 48.3641 86.0864 48.3727 86.3451 48.3794L110.983 49.0171L110.978 49.2019ZM88.2798 48.6801L94.2401 48.7686L86.3393 48.5642C86.0802 48.5574 85.8127 48.5486 85.5401 48.5398C84.2739 48.4985 82.8596 48.4524 81.6277 48.5946C82.8202 48.7997 84.7647 48.7497 86.3675 48.7084C87.0845 48.69 87.7617 48.6728 88.2798 48.6801Z" fill="#7A5F49"/>
</g>
<g opacity="0.76">
<path d="M75.8467 52.3349C79.3577 52.3213 82.8791 52.4786 86.3888 52.565C85.8221 52.2569 85.0885 52.2051 84.3933 52.1743C81.5551 52.0478 78.6701 52.0715 75.8467 52.3349Z" fill="#7A5F49"/>
<path d="M86.7728 52.6665L86.3864 52.6571C85.3601 52.6319 84.3329 52.6005 83.305 52.5692C80.8595 52.4946 78.3313 52.4187 75.8475 52.4273L75.8372 52.2429C78.448 51.9993 81.3285 51.9452 84.3981 52.0817C85.1435 52.115 85.8605 52.1708 86.4384 52.4849L86.7728 52.6665ZM78.3006 52.2578C79.9828 52.283 81.6656 52.3344 83.3115 52.3847C84.1701 52.4109 85.0282 52.4371 85.8856 52.4596C85.4354 52.3251 84.92 52.2899 84.3889 52.2662C82.2587 52.1714 80.2204 52.1687 78.3006 52.2578Z" fill="#7A5F49"/>
</g>
<g opacity="0.76">
<path d="M34.7436 51.8564C34.2668 51.8757 33.7906 51.8961 33.3159 51.9204C33.7899 51.9204 34.2661 51.8944 34.7436 51.8564Z" fill="#7A5F49"/>
<path d="M33.3157 52.0127L33.3103 51.8281C33.7852 51.8036 34.2618 51.7835 34.7391 51.7642L34.7517 51.9485C34.2002 51.9923 33.744 52.0127 33.3157 52.0127Z" fill="#7A5F49"/>
</g>
<g opacity="0.76">
<path d="M40.1266 51.5415C38.3526 51.3899 36.5392 51.7134 34.7437 51.8562C36.5414 51.7833 38.3488 51.7264 40.1266 51.5415Z" fill="#7A5F49"/>
<path d="M34.7479 51.9484L34.7354 51.764C35.2277 51.7248 35.7303 51.6711 36.2166 51.6189C37.5059 51.4809 38.8391 51.3386 40.1355 51.4493L41.1059 51.5323L40.1375 51.6332C38.5582 51.7976 36.9334 51.8618 35.3616 51.924L34.7479 51.9484Z" fill="#7A5F49"/>
</g>
<g opacity="0.76">
<path d="M46.2002 47.5309C45.5388 47.4615 44.8726 47.4426 44.2085 47.4745C44.8186 47.5619 45.429 47.6494 46.0392 47.7368L46.2002 47.5309Z" fill="#7A5F49"/>
<path d="M46.0832 47.8364L43.2356 47.4285L44.2032 47.3822C44.8703 47.3503 45.5458 47.3694 46.2111 47.439L46.3802 47.4568L46.0832 47.8364ZM45.5324 47.5707L45.9949 47.6369L46.0191 47.6059C45.8572 47.5912 45.695 47.5795 45.5324 47.5707Z" fill="#7A5F49"/>
</g>
</g>
<g opacity="0.65">
<path d="M54.8911 34.7919C32.5201 34.6791 14.5955 34.4673 14.5955 34.4673C28.2837 34.8617 41.953 35.0574 54.8799 35.1268C54.8837 35.0152 54.8873 34.9035 54.8911 34.7919Z" fill="#7A5F49"/>
<path d="M54.9758 35.2204L54.8797 35.2198C40.6966 35.1436 27.142 34.9218 14.5925 34.5602L14.5968 34.3755C14.7762 34.3776 32.777 34.5888 54.8918 34.7001L54.993 34.7007L54.9758 35.2204ZM27.4603 34.6903C36.217 34.8683 45.3612 34.9836 54.7845 35.0346L54.7894 34.8844C44.241 34.8312 34.6352 34.7553 27.4603 34.6903Z" fill="#7A5F49"/>
</g>
<g opacity="0.65">
<path d="M0.375642 41.5551C0.375194 41.6751 0.372279 41.7948 0.366455 41.9144C6.55822 41.9991 12.0722 41.7017 15.8605 41.4062C11.3196 41.6493 5.51353 41.642 0.375642 41.5551Z" fill="#7A5F49"/>
<path d="M2.50981 42.0221C1.80558 42.0221 1.08994 42.0175 0.365103 42.0076L0.263184 42.0061L0.267887 41.9109C0.27371 41.7927 0.2764 41.6742 0.276848 41.5555L0.277299 41.4619L0.377421 41.4636C6.78131 41.5718 11.9882 41.5217 15.8549 41.3149L15.8688 41.4991C12.6951 41.7467 7.94225 42.0221 2.50981 42.0221ZM0.469032 41.8243C3.78521 41.8673 6.90271 41.8002 9.62934 41.6861C6.92936 41.7184 3.87033 41.7067 0.473291 41.6501C0.472395 41.7081 0.471048 41.7662 0.469032 41.8243Z" fill="#7A5F49"/>
</g>
<g opacity="0.65">
<path d="M19.613 43.3721C23.1241 43.3585 26.6454 43.5157 30.1551 43.6021C29.5884 43.2941 28.8549 43.2423 28.1596 43.2112C25.3217 43.085 22.4364 43.1087 19.613 43.3721Z" fill="#7A5F49"/>
<path d="M30.5392 43.7041L30.1528 43.6946C29.1262 43.6693 28.099 43.638 27.0711 43.6068C24.6254 43.5321 22.0983 43.4562 19.6136 43.4648L19.6033 43.2805C22.2141 43.0368 25.0942 42.9827 28.1644 43.1194C28.8801 43.1513 29.6268 43.2086 30.2047 43.5225L30.5392 43.7041ZM22.0669 43.2952C23.7489 43.3203 25.4319 43.3717 27.0774 43.422C27.9362 43.4482 28.7945 43.4742 29.6521 43.4969C29.2015 43.3623 28.6861 43.3272 28.1552 43.3036C26.0249 43.2088 23.9868 43.206 22.0669 43.2952Z" fill="#7A5F49"/>
</g>
<g opacity="0.65">
<path d="M24.8842 48.6191C18.9581 48.4675 12.9011 48.7909 6.90356 48.9339C12.9076 48.8611 18.9451 48.8043 24.8842 48.6191Z" fill="#7A5F49"/>
<path d="M6.90517 49.0258L6.90137 48.8411C8.55128 48.8019 10.2337 48.748 11.8607 48.696C16.1517 48.5584 20.5881 48.4169 24.8873 48.5263L24.888 48.7109C19.626 48.8749 14.2052 48.9392 8.96298 49.0011L6.90517 49.0258Z" fill="#7A5F49"/>
</g>
<g opacity="0.65">
<path d="M51.9313 57.0144C39.025 56.945 26.0257 56.9261 13.0676 56.9578C24.975 57.0452 36.8816 57.1326 48.7889 57.2201L51.9313 57.0144Z" fill="#7A5F49"/>
<path d="M48.796 57.3128L13.0669 57.0507L13.0676 56.8659C25.9844 56.8342 39.0601 56.8533 51.9319 56.9225L51.9382 57.1071L48.796 57.3128ZM38.6432 57.054L48.7898 57.1285L49.3153 57.0941C45.7699 57.0769 42.2085 57.0634 38.6432 57.054Z" fill="#7A5F49"/>
</g>
<path opacity="0.05" d="M7.30882 0.439603C3.78209 0.439603 0.95645 3.17142 1.06912 6.47154C1.09622 7.26758 1.12041 8.22488 1.09196 9.43928L0.18816 48.0511C0.101251 51.7662 -0.110645 55.0884 0.0721315 57.4463C0.226909 59.4412 2.02041 60.9765 4.15683 60.9765H66.8085L67.6771 0.333496L7.30882 0.439603ZM15.8941 8.35721C14.3849 8.35721 13.1612 7.21159 13.1612 5.7986C13.1612 4.3854 14.3849 3.23979 15.8941 3.23979C17.4036 3.23979 18.6273 4.3854 18.6273 5.7986C18.6273 7.2118 17.4036 8.35721 15.8941 8.35721Z" fill="#232222"/>
<path d="M34.8359 37.3682H36.5449V25.0635H34.8359V24.3018H45.7246C46.7598 24.3018 47.694 24.458 48.5273 24.7705C49.3607 25.0765 50.0703 25.5257 50.6562 26.1182C51.2422 26.7106 51.6914 27.4365 52.0039 28.2959C52.3229 29.1488 52.4824 30.1221 52.4824 31.2158C52.4824 32.3161 52.3229 33.2959 52.0039 34.1553C51.6914 35.0146 51.2422 35.7406 50.6562 36.333C50.0703 36.9189 49.3607 37.3682 48.5273 37.6807C47.694 37.9867 46.7598 38.1396 45.7246 38.1396H34.8359V37.3682ZM43.2832 37.3682C43.5892 37.3682 43.8659 37.3389 44.1133 37.2803C44.3672 37.2152 44.5885 37.098 44.7773 36.9287C44.9661 36.7594 45.1289 36.5316 45.2656 36.2451C45.4023 35.9521 45.513 35.5778 45.5976 35.1221C45.6888 34.6663 45.7539 34.1195 45.793 33.4814C45.8385 32.8369 45.8613 32.0817 45.8613 31.2158C45.8613 30.3499 45.8385 29.598 45.793 28.96C45.7539 28.3219 45.6888 27.7751 45.5976 27.3193C45.513 26.8636 45.4023 26.4893 45.2656 26.1963C45.1289 25.9033 44.9661 25.6755 44.7773 25.5127C44.5885 25.3434 44.3672 25.2262 44.1133 25.1611C43.8659 25.096 43.5892 25.0635 43.2832 25.0635V37.3682ZM54.6016 37.3682H56.3105V25.0635H54.6016V24.3018H65.7637C66.6556 24.3018 67.4499 24.3734 68.1465 24.5166C68.8496 24.6598 69.4388 24.8812 69.9141 25.1807C70.3958 25.4736 70.7604 25.848 71.0078 26.3037C71.2617 26.7594 71.3887 27.2965 71.3887 27.915C71.3887 28.4554 71.278 28.9372 71.0566 29.3604C70.8418 29.7835 70.4707 30.1416 69.9433 30.4346C69.4225 30.7275 68.7226 30.9554 67.8437 31.1182C66.9713 31.2744 65.8808 31.3558 64.5723 31.3623C65.7441 31.3688 66.7435 31.4274 67.5703 31.5381C68.3971 31.6423 69.071 31.8278 69.5918 32.0947C70.1191 32.3551 70.5032 32.71 70.7441 33.1592C70.985 33.6019 71.1055 34.165 71.1055 34.8486C71.1055 35.0374 71.1022 35.2002 71.0957 35.3369C71.0957 35.4671 71.0924 35.6234 71.0859 35.8057C71.0729 35.9945 71.0664 36.141 71.0664 36.2451C71.0664 36.3428 71.0664 36.4567 71.0664 36.5869C71.0664 36.7887 71.0924 36.9417 71.1445 37.0459C71.2031 37.1501 71.2975 37.2021 71.4277 37.2021C71.6426 37.2021 71.7988 36.9938 71.8965 36.5771C71.9941 36.1605 72.043 35.5583 72.043 34.7705H72.8633V35.083C72.8633 35.7275 72.8014 36.2712 72.6777 36.7139C72.5605 37.1566 72.3457 37.5146 72.0332 37.7881C71.7272 38.0615 71.3138 38.2568 70.793 38.374C70.2721 38.4977 69.6113 38.5596 68.8105 38.5596C68.0423 38.5596 67.4043 38.4782 66.8965 38.3154C66.3887 38.1592 65.9818 37.9248 65.6758 37.6123C65.3763 37.2998 65.1647 36.9124 65.041 36.4502C64.9173 35.988 64.8555 35.4541 64.8555 34.8486C64.8555 34.1846 64.8197 33.641 64.748 33.2178C64.6829 32.7946 64.5788 32.4626 64.4355 32.2217C64.2923 31.9743 64.1035 31.805 63.8691 31.7139C63.6413 31.6227 63.3678 31.5771 63.0488 31.5771V37.3682H64.748V38.1396H54.6016V37.3682ZM63.0488 30.8057C63.4004 30.8057 63.7064 30.7633 63.9668 30.6787C64.2272 30.5941 64.442 30.4443 64.6113 30.2295C64.7871 30.0146 64.9173 29.7217 65.0019 29.3506C65.0866 28.973 65.1289 28.4945 65.1289 27.915C65.1289 27.3356 65.0866 26.8636 65.0019 26.499C64.9173 26.1279 64.7871 25.8382 64.6113 25.6299C64.442 25.415 64.2272 25.2686 63.9668 25.1904C63.7064 25.1058 63.4004 25.0635 63.0488 25.0635V30.8057ZM74.4258 37.3682H76.1348V25.0635H74.4258V24.3018H85.5879C86.4798 24.3018 87.2741 24.3734 87.9707 24.5166C88.6738 24.6598 89.263 24.8812 89.7383 25.1807C90.22 25.4736 90.5846 25.848 90.832 26.3037C91.0859 26.7594 91.2129 27.2965 91.2129 27.915C91.2129 28.4554 91.1022 28.9372 90.8808 29.3604C90.666 29.7835 90.2949 30.1416 89.7676 30.4346C89.2467 30.7275 88.5469 30.9554 87.668 31.1182C86.7956 31.2744 85.7051 31.3558 84.3965 31.3623C85.5683 31.3688 86.5677 31.4274 87.3945 31.5381C88.2213 31.6423 88.8952 31.8278 89.416 32.0947C89.9433 32.3551 90.3275 32.71 90.5683 33.1592C90.8092 33.6019 90.9297 34.165 90.9297 34.8486C90.9297 35.0374 90.9264 35.2002 90.9199 35.3369C90.9199 35.4671 90.9167 35.6234 90.9101 35.8057C90.8971 35.9945 90.8906 36.141 90.8906 36.2451C90.8906 36.3428 90.8906 36.4567 90.8906 36.5869C90.8906 36.7887 90.9167 36.9417 90.9687 37.0459C91.0273 37.1501 91.1217 37.2021 91.2519 37.2021C91.4668 37.2021 91.623 36.9938 91.7207 36.5771C91.8183 36.1605 91.8672 35.5583 91.8672 34.7705H92.6875V35.083C92.6875 35.7275 92.6256 36.2712 92.5019 36.7139C92.3848 37.1566 92.1699 37.5146 91.8574 37.7881C91.5514 38.0615 91.138 38.2568 90.6172 38.374C90.0963 38.4977 89.4355 38.5596 88.6348 38.5596C87.8665 38.5596 87.2285 38.4782 86.7207 38.3154C86.2129 38.1592 85.806 37.9248 85.5 37.6123C85.2005 37.2998 84.9889 36.9124 84.8652 36.4502C84.7415 35.988 84.6797 35.4541 84.6797 34.8486C84.6797 34.1846 84.6439 33.641 84.5723 33.2178C84.5072 32.7946 84.403 32.4626 84.2598 32.2217C84.1165 31.9743 83.9277 31.805 83.6933 31.7139C83.4655 31.6227 83.192 31.5771 82.873 31.5771V37.3682H84.5723V38.1396H74.4258V37.3682ZM82.873 30.8057C83.2246 30.8057 83.5306 30.7633 83.791 30.6787C84.0514 30.5941 84.2663 30.4443 84.4355 30.2295C84.6113 30.0146 84.7415 29.7217 84.8262 29.3506C84.9108 28.973 84.9531 28.4945 84.9531 27.915C84.9531 27.3356 84.9108 26.8636 84.8262 26.499C84.7415 26.1279 84.6113 25.8382 84.4355 25.6299C84.2663 25.415 84.0514 25.2686 83.791 25.1904C83.5306 25.1058 83.2246 25.0635 82.873 25.0635V30.8057Z" fill="white"/>
</svg>
