<svg width="185" height="68" viewBox="0 0 185 68" fill="none" xmlns="http://www.w3.org/2000/svg">
<path d="M167.864 0.825195L25.4885 1.05862C21.3388 1.05862 18.0141 4.05453 18.1466 7.67368C18.1785 8.54667 18.207 9.59652 18.1735 10.9283L17.1101 53.2728C17.0078 57.3471 16.7585 60.9904 16.9735 63.5762C17.1557 65.764 19.2659 67.4477 21.7797 67.4477H168.831C171.813 67.4477 174.311 65.4563 174.551 62.8622C174.74 60.8177 174.74 58.1607 174.74 54.8369V31.8505C174.74 14.8448 177.149 0.825195 167.864 0.825195ZM35.5903 9.74186C33.8144 9.74186 32.3746 8.48549 32.3746 6.93591C32.3746 5.38609 33.8144 4.12973 35.5903 4.12973C37.3664 4.12973 38.8062 5.38609 38.8062 6.93591C38.8062 8.48572 37.3664 9.74186 35.5903 9.74186ZM154.219 9.74186C152.442 9.74186 151.003 8.48549 151.003 6.93591C151.003 5.38609 152.443 4.12973 154.219 4.12973C155.995 4.12973 157.434 5.38609 157.434 6.93591C157.434 8.48572 155.995 9.74186 154.219 9.74186Z" fill="#8D735C"/>
<g opacity="0.65">
<g opacity="0.76">
<path d="M51.0992 17.3979C48.2436 17.5118 45.7527 17.6845 43.8899 17.9363C43.8899 17.9363 46.6061 17.6652 51.0992 17.3979Z" fill="#7A5F49"/>
<path d="M43.9034 18.0372L43.8726 17.8364C45.6247 17.5995 48.0544 17.4181 51.0945 17.2969L51.1077 17.4993C46.6691 17.7633 43.9308 18.0344 43.9034 18.0372Z" fill="#7A5F49"/>
</g>
<g opacity="0.76">
<path d="M89.1685 17.7601C74.3401 16.4034 59.5645 16.8949 51.0996 17.3985C65.4797 16.8259 89.1685 17.7601 89.1685 17.7601Z" fill="#7A5F49"/>
<path d="M89.1636 17.8609C88.9267 17.8517 65.3156 16.9332 51.105 17.4994L51.0918 17.2972C58.8155 16.8377 74.034 16.2734 89.1807 17.6592L89.1636 17.8609ZM62.2715 17.1128C70.671 17.1128 79.4893 17.3423 84.6523 17.5038C75.4885 16.8851 66.5741 16.9113 59.6117 17.1211C60.4899 17.1153 61.3791 17.1128 62.2715 17.1128Z" fill="#7A5F49"/>
</g>
<g opacity="0.76">
<path d="M23.3202 21.8651C29.7878 22.219 36.1637 21.9608 42.5425 21.9385C34.7716 21.8308 21.9926 21.6188 21.9866 21.5498C22.004 21.7464 22.733 21.8331 23.3202 21.8651Z" fill="#7A5F49"/>
<path d="M31.0581 22.1521C28.4897 22.1521 25.8985 22.1087 23.3135 21.9672C21.9006 21.89 21.8795 21.6492 21.8713 21.5586L21.9873 21.5508L22.0205 21.4551C22.3971 21.5215 34.2284 21.723 42.5448 21.8382L42.5435 22.0408C40.7706 22.047 38.9673 22.0719 37.2234 22.0958C35.1938 22.1239 33.133 22.1521 31.0581 22.1521ZM22.5168 21.6814C22.7026 21.7145 22.9648 21.7453 23.328 21.7651C27.172 21.9755 31.0341 21.9686 34.8119 21.9247C32.8779 21.8936 31.0059 21.8619 29.3508 21.832C25.1681 21.7566 23.328 21.7209 22.5168 21.6814Z" fill="#7A5F49"/>
</g>
<g opacity="0.76">
<path d="M42.542 21.9391C45.4219 21.9789 47.6152 22.0044 48.214 22.0028C46.3214 21.9455 44.4317 21.9324 42.542 21.9391Z" fill="#7A5F49"/>
<path d="M48.1619 22.1039C47.5257 22.1039 45.49 22.0806 42.5405 22.0399L42.5418 21.8373C44.723 21.8302 46.5271 21.8502 48.2183 21.9013L48.2143 22.1036C48.1985 22.1039 48.1809 22.1039 48.1619 22.1039Z" fill="#7A5F49"/>
</g>
<g opacity="0.76">
<path d="M30.522 19.0108C29.8041 18.9149 29.0859 18.819 28.368 18.7231L28.1785 18.9488C28.9567 19.0249 29.7406 19.0456 30.522 19.0108Z" fill="#7A5F49"/>
<path d="M29.7893 19.1285C29.2469 19.1285 28.7034 19.102 28.1658 19.0496L27.9668 19.03L28.3163 18.6138L31.6663 19.0613L30.528 19.1121C30.2827 19.1229 30.036 19.1285 29.7893 19.1285ZM28.3916 18.8665C28.5819 18.8828 28.773 18.8957 28.9641 18.9054L28.4201 18.8327L28.3916 18.8665Z" fill="#7A5F49"/>
</g>
<g opacity="0.76">
<path d="M120.262 19.0347C132.658 18.4163 153.073 19.2752 153.073 19.2752C140.297 17.9657 127.56 18.5039 120.262 19.0347Z" fill="#7A5F49"/>
<path d="M153.067 19.3766C152.863 19.3681 132.517 18.5254 120.268 19.136L120.252 18.9341C126.912 18.4495 140.033 17.8371 153.086 19.1749L153.067 19.3766ZM131.215 18.7115C138.043 18.7115 145.001 18.8975 149.181 19.0337C141.284 18.444 133.601 18.4985 127.6 18.7306C128.79 18.7172 130 18.7115 131.215 18.7115Z" fill="#7A5F49"/>
</g>
<g opacity="0.76">
<path d="M120.263 19.0337C117.801 19.1565 115.654 19.3373 114.047 19.5948C114.047 19.5948 116.389 19.3154 120.263 19.0337Z" fill="#7A5F49"/>
<path d="M114.063 19.6955L114.026 19.4954C115.538 19.2528 117.634 19.0635 120.256 18.9326L120.272 19.1345C116.447 19.4131 114.086 19.6925 114.063 19.6955Z" fill="#7A5F49"/>
</g>
<g opacity="0.76">
<path d="M101.219 20.7846C98.2707 20.7439 95.322 20.703 92.3733 20.6623C86.4183 20.5799 80.4633 20.4976 74.5083 20.415C84.1713 20.648 93.8345 20.8812 103.497 21.1142C105.436 21.1608 107.765 21.2972 109.645 21.0033C107.849 20.4946 103.399 20.8147 101.219 20.7846Z" fill="#7A5F49"/>
<path d="M106.703 21.2869C105.934 21.2869 105.163 21.2634 104.433 21.2411C104.113 21.2312 103.799 21.2218 103.495 21.2145L74.5051 20.5151L74.5101 20.3125L101.221 20.6821C101.827 20.6901 102.621 20.6715 103.461 20.6512C105.647 20.5986 108.367 20.5335 109.681 20.9061L110.121 21.0309L109.665 21.1022C108.752 21.245 107.729 21.2869 106.703 21.2869ZM94.2048 20.7879L103.501 21.0121C103.806 21.0194 104.12 21.0291 104.441 21.0388C105.931 21.0841 107.595 21.1347 109.045 20.9787C107.642 20.7538 105.354 20.8086 103.468 20.8539C102.624 20.8743 101.828 20.8934 101.218 20.8849L94.2048 20.7879Z" fill="#7A5F49"/>
</g>
<g opacity="0.76">
<path d="M115.846 16.8778C111.715 16.8927 107.572 16.7202 103.442 16.6255C104.109 16.9633 104.972 17.0201 105.79 17.0542C109.13 17.1926 112.524 17.1666 115.846 16.8778Z" fill="#7A5F49"/>
<path d="M109.581 17.2363C108.347 17.2363 107.081 17.2094 105.785 17.1556C104.908 17.1192 104.064 17.058 103.384 16.7135L102.991 16.5142L103.446 16.5245C104.652 16.5521 105.86 16.5866 107.068 16.6209C109.947 16.7027 112.924 16.7867 115.847 16.7768L115.859 16.9789C113.888 17.1505 111.787 17.2363 109.581 17.2363ZM104.035 16.7414C104.565 16.889 105.171 16.9274 105.796 16.9534C108.303 17.0574 110.701 17.0604 112.96 16.9628C110.98 16.935 108.997 16.8789 107.06 16.8237C106.051 16.795 105.042 16.7662 104.035 16.7414Z" fill="#7A5F49"/>
</g>
<g opacity="0.76">
<path d="M164.21 17.4012C164.771 17.38 165.331 17.3577 165.89 17.3311C165.332 17.3311 164.772 17.3596 164.21 17.4012Z" fill="#7A5F49"/>
<path d="M164.215 17.5027L164.2 17.3006C164.849 17.2525 165.386 17.23 165.89 17.23L165.896 17.4324C165.337 17.4593 164.776 17.4816 164.215 17.5027Z" fill="#7A5F49"/>
</g>
<g opacity="0.76">
<path d="M157.877 17.7466C159.964 17.9128 162.098 17.558 164.21 17.4014C162.095 17.4814 159.969 17.5435 157.877 17.7466Z" fill="#7A5F49"/>
<path d="M159.019 17.8906C158.633 17.8906 158.249 17.8777 157.866 17.8472L156.724 17.7561L157.863 17.6455C159.722 17.4652 161.634 17.3948 163.483 17.3267L164.205 17.2998L164.22 17.502C163.641 17.545 163.049 17.6038 162.477 17.6609C161.341 17.7745 160.174 17.8906 159.019 17.8906Z" fill="#7A5F49"/>
</g>
<g opacity="0.76">
<path d="M150.73 22.1453C151.508 22.2214 152.292 22.2421 153.073 22.2071C152.355 22.1112 151.637 22.0153 150.919 21.9194L150.73 22.1453Z" fill="#7A5F49"/>
<path d="M152.34 22.3257C151.797 22.3257 151.254 22.2993 150.717 22.2468L150.518 22.2273L150.867 21.811L154.219 22.2583L153.079 22.3092C152.833 22.3202 152.586 22.3257 152.34 22.3257ZM150.943 22.0638C151.133 22.0799 151.324 22.093 151.515 22.1024L150.971 22.0297L150.943 22.0638Z" fill="#7A5F49"/>
</g>
<g opacity="0.76">
<path d="M157.967 4.48389C157.952 4.49677 157.938 4.51149 157.922 4.52391C157.801 4.62119 157.675 4.71387 157.548 4.80448C163.218 4.95005 167.183 5.10643 167.183 5.10643C164.09 4.82356 161 4.62256 157.967 4.48389Z" fill="#7A5F49"/>
<path d="M149.33 4.24383C141.258 4.15782 134.094 4.44897 129.115 4.74541C135.168 4.50439 142.872 4.53038 149.763 4.64123C149.612 4.51497 149.467 4.38297 149.33 4.24383Z" fill="#7A5F49"/>
<path d="M149.644 4.5393C146.607 4.491 143.418 4.45904 140.286 4.45904C139.392 4.45904 138.505 4.46156 137.625 4.46708C141.139 4.36129 145.151 4.30288 149.44 4.3498C149.371 4.28333 149.304 4.21503 149.239 4.14558C140.94 4.06095 133.698 4.37004 129.107 4.64325L129.12 4.8454C135.181 4.60392 142.952 4.63266 149.891 4.74558C149.806 4.67912 149.724 4.6099 149.644 4.5393Z" fill="#7A5F49"/>
<path d="M158.072 4.39209C158.023 4.43648 157.974 4.48316 157.923 4.52433C157.897 4.54457 157.871 4.56365 157.845 4.58366C159.439 4.65473 161.048 4.74142 162.668 4.85089C161.253 4.80674 159.562 4.75729 157.682 4.709C157.591 4.77615 157.499 4.84123 157.405 4.90448C163.077 5.04867 167.082 5.20437 167.179 5.20805L167.196 5.00613C164.135 4.72625 161.076 4.52962 158.072 4.39209Z" fill="#7A5F49"/>
</g>
<g opacity="0.76">
<path d="M153.704 12.4793C147.071 12.4882 140.419 12.3854 133.79 12.3291C134.861 12.5301 136.246 12.5639 137.559 12.5841C142.921 12.6667 148.371 12.6513 153.704 12.4793Z" fill="#7A5F49"/>
<path d="M143.644 12.7339C141.665 12.7339 139.635 12.718 137.557 12.6861C136.168 12.6647 134.832 12.629 133.765 12.4287L132.647 12.2188L133.791 12.2284C135.73 12.245 137.672 12.2654 139.614 12.2859C144.235 12.3347 149.012 12.385 153.704 12.3786L153.708 12.581C150.55 12.6828 147.182 12.7339 143.644 12.7339ZM136.255 12.4536C136.68 12.4683 137.118 12.4766 137.562 12.4832C139.705 12.5161 141.799 12.5308 143.836 12.5311C142.418 12.5175 141.008 12.5028 139.612 12.4881C138.493 12.4766 137.373 12.4648 136.255 12.4536Z" fill="#7A5F49"/>
</g>
</g>
<g opacity="0.65">
<g opacity="0.76">
<path d="M136.777 30.7186C139.633 30.6047 142.124 30.432 143.986 30.1802C143.986 30.1802 141.27 30.4511 136.777 30.7186Z" fill="#7A5F49"/>
<path d="M136.782 30.8189L136.769 30.6165C141.208 30.3523 143.946 30.0811 143.974 30.0786L144.004 30.2794C142.251 30.5163 139.822 30.6979 136.782 30.8189Z" fill="#7A5F49"/>
</g>
<g opacity="0.76">
<path d="M98.7075 30.3569C113.536 31.7136 128.312 31.2223 136.776 30.7185C122.397 31.2913 98.7075 30.3569 98.7075 30.3569Z" fill="#7A5F49"/>
<path d="M119.451 31.3323C113.052 31.3323 105.866 31.1134 98.6963 30.4573L98.7134 30.2554C98.9504 30.2648 122.561 31.1831 136.772 30.6169L136.785 30.8193C132.718 31.0612 126.571 31.3323 119.451 31.3323ZM103.224 30.6128C112.387 31.2314 121.301 31.2052 128.263 30.9957C119.12 31.0536 108.935 30.7912 103.224 30.6128Z" fill="#7A5F49"/>
</g>
<g opacity="0.76">
<path d="M164.557 26.2511C158.089 25.8971 151.713 26.1554 145.334 26.1777C153.105 26.2851 165.884 26.4974 165.89 26.5664C165.873 26.3697 165.144 26.2833 164.557 26.2511Z" fill="#7A5F49"/>
<path d="M165.857 26.6618C165.48 26.5951 153.649 26.3936 145.333 26.2786L145.334 26.076C147.107 26.0698 148.909 26.045 150.653 26.0211C155.194 25.9587 159.89 25.8939 164.564 26.1498C165.977 26.2271 165.998 26.4677 166.006 26.5583L165.89 26.5661L165.857 26.6618ZM153.066 26.1922C154.999 26.2232 156.871 26.255 158.527 26.2848C162.709 26.3603 164.549 26.3959 165.36 26.4355C165.174 26.4026 164.913 26.3718 164.549 26.3518C160.705 26.1418 156.844 26.1485 153.066 26.1922Z" fill="#7A5F49"/>
</g>
<g opacity="0.76">
<path d="M145.334 26.1777C142.454 26.138 140.261 26.1124 139.662 26.1138C141.554 26.1711 143.444 26.1842 145.334 26.1777Z" fill="#7A5F49"/>
<path d="M144.475 26.28C142.671 26.28 141.123 26.2588 139.658 26.2147L139.662 26.0123C140.235 26.0107 142.298 26.0341 145.336 26.076L145.335 26.2786C145.041 26.2793 144.755 26.28 144.475 26.28Z" fill="#7A5F49"/>
</g>
<g opacity="0.76">
<path d="M157.355 29.1052C158.073 29.2011 158.791 29.297 159.509 29.3929L159.699 29.1671C158.92 29.0912 158.136 29.0705 157.355 29.1052Z" fill="#7A5F49"/>
<path d="M159.561 29.5017L156.21 29.0544L157.349 29.0036C158.134 28.9688 158.929 28.9898 159.711 29.0659L159.91 29.0854L159.561 29.5017ZM158.913 29.2103L159.457 29.283L159.485 29.249C159.295 29.2329 159.104 29.22 158.913 29.2103Z" fill="#7A5F49"/>
</g>
<g opacity="0.76">
<path d="M67.6147 29.0821C55.2186 29.7005 34.804 28.8418 34.804 28.8418C47.5803 30.1513 60.3171 29.6129 67.6147 29.0821Z" fill="#7A5F49"/>
<path d="M51.9158 29.7529C46.5941 29.7529 40.686 29.5466 34.7903 28.9424L34.8095 28.7407C35.0135 28.7492 55.3599 29.5923 67.6081 28.981L67.6245 29.183C63.9726 29.4486 58.3766 29.7529 51.9158 29.7529ZM38.6964 29.0836C46.5923 29.673 54.2738 29.6185 60.275 29.3867C52.3963 29.4737 43.6191 29.2439 38.6964 29.0836Z" fill="#7A5F49"/>
</g>
<g opacity="0.76">
<path d="M67.6143 29.0817C70.0759 28.9588 72.2233 28.7781 73.8297 28.5205C73.8297 28.5205 71.4877 28.8002 67.6143 29.0817Z" fill="#7A5F49"/>
<path d="M67.6213 29.1835L67.605 28.9816C71.4305 28.7036 73.7909 28.4237 73.8143 28.4209L73.851 28.621C72.3387 28.8634 70.2426 29.0529 67.6213 29.1835Z" fill="#7A5F49"/>
</g>
<g opacity="0.76">
<path d="M86.6575 27.3317C89.6062 27.3724 92.5548 27.4134 95.5035 27.4541C101.458 27.5364 107.414 27.6187 113.369 27.7013C103.705 27.4683 94.0423 27.2351 84.3791 27.0022C82.4404 26.9555 80.1116 26.8191 78.2319 27.113C80.0283 27.6217 84.4784 27.3016 86.6575 27.3317Z" fill="#7A5F49"/>
<path d="M113.367 27.8029L86.6556 27.4333C86.0521 27.4248 85.2572 27.4439 84.4164 27.4641C82.2308 27.5168 79.5106 27.5819 78.196 27.2093L77.7556 27.0844L78.2116 27.0131C79.8082 26.7636 81.74 26.8225 83.4434 26.8742C83.7639 26.8839 84.0778 26.8936 84.3824 26.9009L113.372 27.6L113.367 27.8029ZM86.3409 27.2286C86.4519 27.2286 86.5581 27.2293 86.6593 27.2307L93.6735 27.3278L84.3758 27.1035C84.0709 27.0962 83.7562 27.0865 83.4352 27.0769C81.9456 27.0315 80.2815 26.9807 78.832 27.1369C80.2357 27.362 82.5238 27.307 84.4101 27.2617C85.1133 27.2447 85.7837 27.2286 86.3409 27.2286Z" fill="#7A5F49"/>
</g>
<g opacity="0.76">
<path d="M72.0298 31.2386C76.161 31.2236 80.3043 31.3961 84.434 31.4908C83.7672 31.153 82.9043 31.0962 82.086 31.0622C78.7467 30.9237 75.3522 30.9497 72.0298 31.2386Z" fill="#7A5F49"/>
<path d="M84.8856 31.6019L84.4309 31.5916C83.2228 31.5638 82.0136 31.5295 80.8039 31.495C77.9267 31.4133 74.9522 31.3287 72.0304 31.3393L72.0183 31.1371C75.0895 30.8699 78.4791 30.8106 82.0914 30.9605C82.9685 30.9969 83.8121 31.058 84.4921 31.4025L84.8856 31.6019ZM74.9166 31.1535C76.8954 31.1813 78.8757 31.2377 80.8115 31.2926C81.8223 31.3214 82.8325 31.3501 83.8422 31.3749C83.3119 31.2273 82.7054 31.1889 82.0806 31.1629C79.5734 31.059 77.175 31.056 74.9166 31.1535Z" fill="#7A5F49"/>
</g>
<g opacity="0.76">
<path d="M23.6665 30.7144C23.1054 30.7355 22.545 30.7578 21.9866 30.7845C22.5443 30.7843 23.1046 30.756 23.6665 30.7144Z" fill="#7A5F49"/>
<path d="M21.9868 30.8858L21.9805 30.6834C22.5392 30.6565 23.1 30.6344 23.6617 30.6133L23.6764 30.8154C23.0292 30.8635 22.4926 30.8858 21.9868 30.8858Z" fill="#7A5F49"/>
</g>
<g opacity="0.76">
<path d="M30.0005 30.369C27.9131 30.2027 25.7794 30.5576 23.6667 30.7142C25.7815 30.6342 27.9084 30.5719 30.0005 30.369Z" fill="#7A5F49"/>
<path d="M23.6717 30.8157L23.657 30.6136C24.2363 30.5706 24.8282 30.5117 25.4007 30.4547C26.9174 30.3034 28.4853 30.147 30.0108 30.2686L31.1522 30.3597L30.0131 30.4703C28.1561 30.6506 26.2448 30.721 24.3968 30.7891L23.6717 30.8157Z" fill="#7A5F49"/>
</g>
<g opacity="0.76">
<path d="M37.1472 25.9705C36.369 25.8944 35.5852 25.8737 34.8037 25.9084C35.5216 26.0043 36.2398 26.1002 36.9577 26.1961L37.1472 25.9705Z" fill="#7A5F49"/>
<path d="M37.0095 26.3051L33.6594 25.8576L34.7977 25.8068C35.5831 25.7721 36.378 25.793 37.1602 25.8693L37.3595 25.8889L37.0095 26.3051ZM36.3624 26.014L36.9056 26.0864L36.9341 26.0526C36.7441 26.0363 36.5533 26.0234 36.3624 26.014Z" fill="#7A5F49"/>
</g>
</g>
<g opacity="0.65">
<g opacity="0.76">
<path d="M85.202 43.959C82.3461 44.0728 79.8555 44.2455 77.9927 44.4974C77.9927 44.4974 80.7089 44.2264 85.202 43.959Z" fill="#7A5F49"/>
<path d="M78.0059 44.5982L77.9751 44.3974C79.7283 44.1606 82.1582 43.9791 85.197 43.8579L85.2102 44.0603C80.7719 44.3245 78.0333 44.5954 78.0059 44.5982Z" fill="#7A5F49"/>
</g>
<g opacity="0.76">
<path d="M123.271 44.3207C108.443 42.9641 93.667 43.4553 85.2021 43.9592C99.5822 43.3863 123.271 44.3207 123.271 44.3207Z" fill="#7A5F49"/>
<path d="M123.266 44.4216C123.029 44.4124 99.4173 43.4941 85.2073 44.0601L85.1941 43.8577C92.9186 43.3982 108.138 42.8341 123.283 44.2197L123.266 44.4216ZM96.3735 43.6732C104.774 43.6732 113.593 43.9028 118.755 44.0642C109.592 43.4453 100.678 43.4716 93.7159 43.6813C94.594 43.6758 95.4806 43.6732 96.3735 43.6732Z" fill="#7A5F49"/>
</g>
<g opacity="0.76">
<path d="M57.4229 48.4271C63.8906 48.781 70.2665 48.5228 76.6453 48.5005C68.8744 48.3931 56.0954 48.1808 56.0894 48.1118C56.1068 48.3082 56.8357 48.3949 57.4229 48.4271Z" fill="#7A5F49"/>
<path d="M65.1619 48.7137C62.5931 48.7137 60.0013 48.6702 57.4155 48.5288C56.0026 48.4515 55.9815 48.2109 55.9736 48.1203L56.0893 48.1125L56.1225 48.0166C56.4994 48.0833 68.3307 48.2848 76.6471 48.3997L76.6458 48.6024C74.8734 48.6086 73.0702 48.6334 71.3262 48.6573C69.2971 48.6854 67.2369 48.7137 65.1619 48.7137ZM56.6191 48.2429C56.8049 48.2758 57.0669 48.3066 57.43 48.3266C61.274 48.5368 65.1359 48.5301 68.9134 48.4865C66.9802 48.4554 65.1084 48.4237 63.4528 48.3938C59.2707 48.3183 57.4308 48.2827 56.6191 48.2429Z" fill="#7A5F49"/>
</g>
<g opacity="0.76">
<path d="M76.6453 48.5006C79.5251 48.5404 81.7184 48.5659 82.3172 48.5645C80.4246 48.5073 78.535 48.4939 76.6453 48.5006Z" fill="#7A5F49"/>
<path d="M82.261 48.666C81.6224 48.666 79.5888 48.6428 76.6431 48.6021L76.6444 48.3995C78.8242 48.3919 80.6291 48.4121 82.3206 48.4634L82.3169 48.6658C82.2995 48.666 82.281 48.666 82.261 48.666Z" fill="#7A5F49"/>
</g>
<g opacity="0.76">
<path d="M64.6245 45.5724C63.9066 45.4765 63.1884 45.3806 62.4705 45.2847L62.281 45.5105C63.0593 45.5864 63.8431 45.6071 64.6245 45.5724Z" fill="#7A5F49"/>
<path d="M63.8908 45.69C63.3486 45.69 62.8054 45.6635 62.2683 45.6111L62.0693 45.5916L62.4188 45.1753L65.7699 45.6226L64.6308 45.6734C64.3847 45.6845 64.1377 45.69 63.8908 45.69ZM62.4942 45.428C62.6845 45.4441 62.8753 45.4572 63.0666 45.4667L62.5227 45.394L62.4942 45.428Z" fill="#7A5F49"/>
</g>
<g opacity="0.76">
<path d="M139.207 36.0752C151.603 35.4568 172.017 36.3158 172.017 36.3158C159.241 35.0063 146.504 35.5444 139.207 36.0752Z" fill="#7A5F49"/>
<path d="M172.011 36.4167C171.808 36.4082 151.462 35.5653 139.213 36.1761L139.197 35.9742C145.856 35.4897 158.977 34.877 172.031 36.215L172.011 36.4167ZM150.16 35.7516C156.988 35.7516 163.945 35.9374 168.125 36.0738C160.228 35.4841 152.546 35.5386 146.544 35.7707C147.734 35.7574 148.945 35.7516 150.16 35.7516Z" fill="#7A5F49"/>
</g>
<g opacity="0.76">
<path d="M154.364 45.5952C151.903 45.718 149.755 45.8988 148.149 46.1564C148.149 46.1564 150.491 45.8769 154.364 45.5952Z" fill="#7A5F49"/>
<path d="M148.165 46.2565L148.128 46.0564C149.641 45.8138 151.737 45.6243 154.358 45.4937L154.375 45.6956C150.549 45.9741 148.189 46.2537 148.165 46.2565Z" fill="#7A5F49"/>
</g>
<g opacity="0.76">
<path d="M135.321 47.3452C132.373 47.3045 129.424 47.2635 126.476 47.2228C120.521 47.1405 114.566 47.0581 108.611 46.9756C118.274 47.2086 127.937 47.4417 137.6 47.6747C139.538 47.7214 141.867 47.8578 143.747 47.5639C141.951 47.0552 137.501 47.3753 135.321 47.3452Z" fill="#7A5F49"/>
<path d="M140.805 47.8487C140.036 47.8487 139.265 47.8252 138.536 47.8029C138.215 47.7933 137.901 47.7836 137.597 47.7762L108.607 47.0771L108.612 46.8745L135.323 47.2441C135.926 47.2521 136.722 47.2333 137.563 47.2133C139.748 47.1606 142.468 47.0955 143.783 47.4681L144.223 47.593L143.767 47.6642C142.855 47.8068 141.832 47.8487 140.805 47.8487ZM128.305 47.3496L137.603 47.5739C137.908 47.5812 138.223 47.5909 138.544 47.6005C140.033 47.6459 141.697 47.6967 143.147 47.5405C141.744 47.3156 139.456 47.3706 137.569 47.4156C136.726 47.4359 135.93 47.455 135.32 47.4467L128.305 47.3496Z" fill="#7A5F49"/>
</g>
<g opacity="0.76">
<path d="M156.486 43.4398C150.178 43.4547 143.851 43.2823 137.545 43.1875C138.564 43.5251 139.881 43.5821 141.131 43.616C146.23 43.7546 151.414 43.7286 156.486 43.4398Z" fill="#7A5F49"/>
<path d="M146.918 43.7976C145.035 43.7976 143.103 43.7707 141.127 43.7171C139.8 43.681 138.525 43.6207 137.504 43.282L136.883 43.0762L137.547 43.0861C139.392 43.1139 141.238 43.1482 143.085 43.1827C147.48 43.2643 152.023 43.3492 156.486 43.3383L156.493 43.5407C153.489 43.7118 150.284 43.7976 146.918 43.7976ZM138.431 43.3022C139.248 43.4499 140.177 43.4885 141.134 43.5145C144.964 43.6187 148.629 43.6214 152.08 43.5239C149.06 43.4961 146.036 43.4398 143.08 43.3848C141.53 43.356 139.98 43.3273 138.431 43.3022Z" fill="#7A5F49"/>
</g>
<g opacity="0.76">
<path d="M128.767 8.30858C130.854 8.47485 132.988 8.11999 135.101 7.96338C132.986 8.04341 130.859 8.10551 128.767 8.30858Z" fill="#7A5F49"/>
<path d="M129.91 8.45312C129.524 8.45312 129.139 8.44024 128.756 8.40965L127.615 8.31858L128.754 8.20796C130.612 8.02766 132.524 7.95728 134.374 7.88898L135.096 7.8623L135.11 8.06445C134.531 8.10746 133.94 8.16634 133.367 8.2236C132.231 8.33698 131.065 8.45312 129.91 8.45312Z" fill="#7A5F49"/>
</g>
<g opacity="0.76">
<path d="M121.62 12.707C122.398 12.7832 123.182 12.8039 123.964 12.7691C123.246 12.6732 122.528 12.5773 121.81 12.4814L121.62 12.707Z" fill="#7A5F49"/>
<path d="M123.23 12.8872C122.688 12.8872 122.145 12.861 121.607 12.8084L121.408 12.7888L121.757 12.3726L125.108 12.8199L123.969 12.8707C123.724 12.8817 123.477 12.8872 123.23 12.8872ZM121.833 12.6253C122.023 12.6414 122.214 12.6545 122.405 12.6642L121.862 12.5915L121.833 12.6253Z" fill="#7A5F49"/>
</g>
</g>
<g opacity="0.65">
<g opacity="0.76">
<path d="M167.275 43.4563C170.131 43.3425 172.621 43.1698 174.484 42.918C174.484 42.918 171.768 43.1889 167.275 43.4563Z" fill="#7A5F49"/>
<path d="M167.28 43.5577L167.267 43.3553C171.705 43.0911 174.444 42.8201 174.471 42.8174L174.502 43.0181C172.749 43.255 170.319 43.4365 167.28 43.5577Z" fill="#7A5F49"/>
</g>
<g opacity="0.76">
<path d="M132.81 57.0894C147.639 58.446 162.414 57.9547 170.879 57.4509C156.499 58.0237 132.81 57.0894 132.81 57.0894Z" fill="#7A5F49"/>
<path d="M153.555 58.0653C147.155 58.0653 139.969 57.8463 132.799 57.1902L132.816 56.9883C133.053 56.9977 156.664 57.916 170.875 57.3498L170.888 57.552C166.82 57.7941 160.674 58.0653 153.555 58.0653ZM137.327 57.3454C146.491 57.9643 155.406 57.9378 162.369 57.7283C153.223 57.7856 143.039 57.5241 137.327 57.3454Z" fill="#7A5F49"/>
</g>
<g opacity="0.76">
<path d="M38.9854 9.14926C68.231 9.26287 106.613 9.43742 106.634 9.49882C106.568 9.30242 103.8 9.21595 101.571 9.18375C80.5682 8.8811 59.8204 9.02599 39.1029 9.08808C39.0644 9.10924 39.0246 9.12902 38.9854 9.14926Z" fill="#7A5F49"/>
<path d="M32.4638 9.10449C31.1739 9.10675 29.8838 9.109 28.594 9.11013C29.8604 9.11465 31.1626 9.11939 32.4935 9.12436C32.4838 9.11781 32.4738 9.11126 32.4638 9.10449Z" fill="#7A5F49"/>
<path d="M32.3144 9.00342C31.072 9.00572 29.8306 9.00755 28.594 9.0087L28.5938 9.21132C29.9231 9.21614 31.2749 9.2212 32.6449 9.22626C32.5349 9.15198 32.4248 9.0777 32.3144 9.00342Z" fill="#7A5F49"/>
<path d="M101.573 9.08266C83.8433 8.82716 66.0254 8.89178 48.7939 8.95411C45.6595 8.96538 42.4739 8.97687 39.2746 8.98653C39.1157 9.08404 38.9502 9.17189 38.7783 9.24985C69.5215 9.36875 106.065 9.53917 106.613 9.59804L106.634 9.49892L106.745 9.4704C106.709 9.36048 106.64 9.15556 101.573 9.08266ZM104.486 9.36554C103.099 9.35289 101.087 9.33863 98.5805 9.32299C93.8439 9.29332 87.1448 9.25814 78.6697 9.21789C72.3858 9.18799 65.2827 9.15648 57.9443 9.12521C72.2946 9.08128 86.9622 9.07461 101.569 9.28504C102.861 9.30367 103.863 9.33265 104.618 9.36669C104.575 9.36646 104.531 9.366 104.486 9.36554Z" fill="#7A5F49"/>
</g>
<g opacity="0.76">
<path d="M167.046 47.3936C164.166 47.3538 161.973 47.3283 161.374 47.3296C163.267 47.3869 165.157 47.4002 167.046 47.3936Z" fill="#7A5F49"/>
<path d="M166.179 47.4959C164.379 47.4959 162.833 47.4748 161.37 47.4304L161.374 47.228C161.943 47.2306 164.01 47.2499 167.048 47.2917L167.047 47.4943C166.751 47.4953 166.461 47.4959 166.179 47.4959Z" fill="#7A5F49"/>
</g>
<g opacity="0.76">
<path d="M104.263 38.2414C106.989 38.3373 109.715 38.4332 112.441 38.5291L113.16 38.3035C110.205 38.2274 107.229 38.2067 104.263 38.2414Z" fill="#7A5F49"/>
<path d="M112.459 38.6311L104.259 38.3427L104.262 38.1403C107.222 38.1056 110.217 38.1265 113.164 38.2022L113.776 38.218L112.459 38.6311ZM110.122 38.3464L112.423 38.4273L112.543 38.3898C111.738 38.3712 110.931 38.3567 110.122 38.3464Z" fill="#7A5F49"/>
</g>
<g opacity="0.76">
<path d="M101.717 55.8141C89.3212 56.4325 68.9065 55.5737 68.9065 55.5737C81.6828 56.8832 94.4196 56.3449 101.717 55.8141Z" fill="#7A5F49"/>
<path d="M86.0186 56.4848C80.6969 56.4848 74.7883 56.2785 68.8931 55.6743L68.9123 55.4727C69.1163 55.4814 89.4622 56.3245 101.711 55.7132L101.727 55.9151C98.0749 56.1805 92.4796 56.4848 86.0186 56.4848ZM72.7989 55.8153C80.694 56.4048 88.3756 56.3502 94.3775 56.1184C86.4985 56.2049 77.7216 55.9756 72.7989 55.8153Z" fill="#7A5F49"/>
</g>
<g opacity="0.76">
<path d="M101.717 55.8141C104.178 55.6913 106.326 55.5105 107.932 55.2529C107.932 55.2529 105.59 55.5326 101.717 55.8141Z" fill="#7A5F49"/>
<path d="M101.723 55.9154L101.707 55.7135C105.533 55.4352 107.893 55.1556 107.917 55.1528L107.953 55.3529C106.441 55.5953 104.345 55.7846 101.723 55.9154Z" fill="#7A5F49"/>
</g>
<g opacity="0.76">
<path d="M120.76 54.0656C123.709 54.1063 126.657 54.1473 129.606 54.188C135.561 54.2703 141.516 54.3526 147.471 54.4352C137.808 54.202 128.145 53.969 118.482 53.736C116.543 53.6894 114.214 53.553 112.335 53.8469C114.131 54.3556 118.581 54.0353 120.76 54.0656Z" fill="#7A5F49"/>
<path d="M147.47 54.5353L120.759 54.1657C120.153 54.1572 119.359 54.1763 118.519 54.1965C116.333 54.2492 113.613 54.3143 112.299 53.9417L111.859 53.8169L112.315 53.7456C113.911 53.496 115.843 53.5549 117.547 53.6067C117.867 53.6165 118.181 53.626 118.486 53.6333L147.475 54.3327L147.47 54.5353ZM120.762 53.9631L127.775 54.0602L118.479 53.8359C118.174 53.8286 117.859 53.8189 117.538 53.8093C116.049 53.764 114.385 53.7134 112.935 53.8693C114.338 54.0942 116.626 54.0395 118.512 53.9942C119.356 53.9739 120.152 53.9551 120.762 53.9631Z" fill="#7A5F49"/>
</g>
<g opacity="0.76">
<path d="M106.133 57.9709C110.264 57.956 114.407 58.1285 118.537 58.2232C117.87 57.8854 117.007 57.8286 116.189 57.7948C112.849 57.6561 109.455 57.6821 106.133 57.9709Z" fill="#7A5F49"/>
<path d="M118.989 58.3352L118.534 58.3248C117.326 58.2972 116.118 58.2627 114.908 58.2285C112.031 58.1466 109.056 58.0633 106.133 58.0728L106.121 57.8706C109.193 57.6034 112.583 57.544 116.194 57.6938C117.072 57.7303 117.915 57.7915 118.595 58.136L118.989 58.3352ZM109.02 57.8869C110.999 57.9145 112.979 57.9709 114.916 58.0261C115.926 58.0548 116.936 58.0836 117.945 58.1082C117.415 57.9608 116.808 57.9221 116.184 57.8961C113.677 57.7922 111.279 57.7892 109.02 57.8869Z" fill="#7A5F49"/>
</g>
<g opacity="0.76">
<path d="M57.7693 57.4463C57.2081 57.4674 56.6478 57.4898 56.0894 57.5164C56.647 57.5164 57.2074 57.4879 57.7693 57.4463Z" fill="#7A5F49"/>
<path d="M56.0893 57.6177L56.083 57.4154C56.6417 57.3884 57.2026 57.3664 57.7642 57.3452L57.779 57.5474C57.1301 57.5954 56.5933 57.6177 56.0893 57.6177Z" fill="#7A5F49"/>
</g>
<g opacity="0.76">
<path d="M64.1028 57.1019C62.0154 56.9357 59.8817 57.2905 57.769 57.4471C59.8843 57.3671 62.011 57.3048 64.1028 57.1019Z" fill="#7A5F49"/>
<path d="M57.7745 57.5483L57.7598 57.3461C58.3391 57.3031 58.9305 57.2443 59.5026 57.187C61.0197 57.0357 62.5883 56.8795 64.1138 57.001L65.2555 57.092L64.1162 57.2026C62.2578 57.383 60.346 57.4533 58.4967 57.5216L57.7745 57.5483Z" fill="#7A5F49"/>
</g>
<g opacity="0.76">
<path d="M71.2498 52.7033C70.4715 52.6272 69.6877 52.6065 68.9062 52.6415C69.6242 52.7374 70.3424 52.8333 71.0603 52.9292L71.2498 52.7033Z" fill="#7A5F49"/>
<path d="M71.112 53.038L67.7615 52.5907L68.9 52.5399C69.6849 52.5049 70.4798 52.5258 71.2625 52.6022L71.4615 52.6217L71.112 53.038ZM70.464 52.7466L71.0082 52.8193L71.0367 52.7852C70.8461 52.7691 70.6553 52.7563 70.464 52.7466Z" fill="#7A5F49"/>
</g>
</g>
<g opacity="0.65">
<path d="M81.4755 38.7325C55.153 38.6087 34.0623 38.3765 34.0623 38.3765C50.1683 38.8091 66.252 39.0236 81.4623 39.0997C81.4668 38.9774 81.471 38.8548 81.4755 38.7325Z" fill="#7A5F49"/>
<path d="M81.5754 39.202L81.4623 39.2013C64.774 39.1178 48.8253 38.8745 34.0591 38.478L34.0641 38.2754C34.2752 38.2777 55.4555 38.5093 81.4765 38.6314L81.5957 38.6321L81.5754 39.202ZM49.1998 38.6206C59.5032 38.8158 70.2625 38.9423 81.3503 38.9982L81.3561 38.8335C68.9445 38.7751 57.642 38.6919 49.1998 38.6206Z" fill="#7A5F49"/>
</g>
<g opacity="0.65">
<path d="M17.3306 46.1496C17.3301 46.2812 17.3267 46.4125 17.3198 46.5436C24.6053 46.6365 31.0932 46.3104 35.5507 45.9863C30.2076 46.2529 23.3761 46.2448 17.3306 46.1496Z" fill="#7A5F49"/>
<path d="M19.8422 46.6612C19.0136 46.6612 18.1715 46.6562 17.3187 46.6454L17.1987 46.6438L17.2043 46.5393C17.2111 46.4096 17.2143 46.2797 17.2148 46.1495L17.2153 46.047L17.3331 46.0488C24.8682 46.1675 30.9948 46.1125 35.5445 45.8857L35.5608 46.0877C31.8265 46.3593 26.2342 46.6612 19.8422 46.6612ZM17.4409 46.4444C21.3429 46.4915 25.011 46.4179 28.2193 46.2928C25.0424 46.3282 21.443 46.3153 17.4459 46.2533C17.4449 46.317 17.4433 46.3807 17.4409 46.4444Z" fill="#7A5F49"/>
</g>
<g opacity="0.65">
<path d="M39.9666 48.1423C44.0978 48.1274 48.2411 48.2999 52.3708 48.3946C51.704 48.0568 50.8408 48 50.0227 47.966C46.6835 47.8275 43.2887 47.8535 39.9666 48.1423Z" fill="#7A5F49"/>
<path d="M52.8221 48.5075L52.3675 48.4971C51.1596 48.4693 49.951 48.435 48.7415 48.4007C45.8637 48.3189 42.8903 48.2356 39.9667 48.2451L39.9546 48.0429C43.0266 47.7757 46.4154 47.7163 50.0279 47.8663C50.87 47.9012 51.7487 47.964 52.4286 48.3083L52.8221 48.5075ZM42.8534 48.059C44.8325 48.0866 46.8128 48.1429 48.7489 48.1981C49.7593 48.2269 50.7693 48.2554 51.7784 48.2802C51.2482 48.1326 50.6417 48.0942 50.0171 48.0682C47.5104 47.9643 45.1124 47.9613 42.8534 48.059Z" fill="#7A5F49"/>
</g>
<g opacity="0.65">
<path d="M46.1683 53.8974C39.1954 53.7311 32.0687 54.0857 25.0117 54.2426C32.0763 54.1627 39.1802 54.1004 46.1683 53.8974Z" fill="#7A5F49"/>
<path d="M25.0138 54.343L25.0093 54.1404C26.9506 54.0974 28.9302 54.0383 30.8446 53.9813C35.8936 53.8304 41.1135 53.6752 46.1722 53.7952L46.173 53.9976C39.9816 54.1775 33.6033 54.2481 27.435 54.3159L25.0138 54.343Z" fill="#7A5F49"/>
</g>
<g opacity="0.65">
<path d="M77.9932 63.1028C62.8072 63.0267 47.5118 63.006 32.2649 63.0407C46.2755 63.1366 60.2852 63.2325 74.2958 63.3284L77.9932 63.1028Z" fill="#7A5F49"/>
<path d="M74.3041 63.4302L32.2639 63.1427L32.2647 62.9401C47.4631 62.9054 62.8484 62.9263 77.9938 63.0022L78.0012 63.2046L74.3041 63.4302ZM62.3579 63.1464L74.2967 63.228L74.915 63.1903C70.7434 63.1715 66.5529 63.1567 62.3579 63.1464Z" fill="#7A5F49"/>
</g>
<path d="M27.3443 43.0806H28.8824V32.0063H27.3443V31.3208H40.9585V35.6011H40.3609L37.9175 32.0063H34.9468V37.2358H36.274L37.4341 34.3354H38.0054V40.8394H37.4341L36.274 37.9214H34.9468V43.0806H38.2251L40.774 39.0815H41.3804V43.7749H27.3443V43.0806ZM43.5337 38.8882C43.5337 38.1909 43.6451 37.5259 43.8677 36.8931C44.0962 36.2603 44.439 35.7065 44.896 35.2319C45.3589 34.7515 45.939 34.3706 46.6363 34.0894C47.3335 33.8022 48.1539 33.6587 49.0972 33.6587C49.7417 33.6587 50.2867 33.7407 50.732 33.9048C51.1773 34.063 51.5464 34.2651 51.8394 34.5112V31.1187H50.3101V30.4858H57.0777V43.1421H58.6158V43.7749H51.8394V43.0718C51.5992 43.394 51.2623 43.646 50.8287 43.8276C50.3951 44.0151 49.8179 44.1089 49.0972 44.1089C48.1539 44.1089 47.3335 43.9683 46.6363 43.687C45.939 43.4058 45.3589 43.0249 44.896 42.5444C44.439 42.064 44.0962 41.5103 43.8677 40.8833C43.6451 40.2505 43.5337 39.5854 43.5337 38.8882ZM50.4332 43.0981C50.6499 43.0981 50.8492 43.0542 51.0308 42.9663C51.2124 42.8726 51.3677 42.7261 51.4966 42.5269C51.6314 42.3218 51.7369 42.061 51.813 41.7446C51.8892 41.4282 51.9273 41.0415 51.9273 40.5845V36.7524C51.9273 36.5239 51.8951 36.2837 51.8306 36.0317C51.7662 35.7798 51.6665 35.5483 51.5318 35.3374C51.397 35.1265 51.2271 34.9536 51.022 34.8188C50.8228 34.6782 50.5884 34.6079 50.3189 34.6079C50.0728 34.6079 49.8619 34.6841 49.6861 34.8364C49.5103 34.9829 49.3667 35.2261 49.2554 35.5659C49.1441 35.9058 49.0621 36.3481 49.0093 36.8931C48.9566 37.4321 48.9302 38.0972 48.9302 38.8882C48.9302 39.6851 48.9537 40.353 49.0005 40.8921C49.0533 41.4312 49.1382 41.8647 49.2554 42.1929C49.3726 42.5151 49.5279 42.7466 49.7212 42.8872C49.9146 43.0278 50.1519 43.0981 50.4332 43.0981ZM60.8921 34.6255H59.354V33.9927H66.1216V39.6792C66.1216 40.2827 66.1392 40.7778 66.1744 41.1646C66.2095 41.5454 66.271 41.8472 66.3589 42.0698C66.4468 42.2866 66.564 42.439 66.7105 42.5269C66.857 42.6089 67.0415 42.6499 67.2642 42.6499C67.4869 42.6499 67.6832 42.603 67.8531 42.5093C68.023 42.4155 68.1636 42.2837 68.2749 42.1138C68.3921 41.9438 68.4771 41.7417 68.5298 41.5073C68.5884 41.2729 68.6177 41.0181 68.6177 40.7427V34.6255H67.3257V33.9927H73.8472V43.1421H75.3765V43.7749H68.6177V42.6499C68.4302 42.8784 68.2017 43.0835 67.9322 43.2651C67.6685 43.4468 67.3755 43.6021 67.0533 43.731C66.7369 43.854 66.3941 43.9478 66.0249 44.0122C65.6617 44.0767 65.2867 44.1089 64.8999 44.1089C64.0972 44.1089 63.4351 44.0034 62.9136 43.7925C62.398 43.5874 61.9908 43.2944 61.6919 42.9136C61.3931 42.5269 61.1851 42.061 61.0679 41.5161C60.9507 40.9712 60.8921 40.3589 60.8921 39.6792V34.6255ZM76.6333 38.7915C76.6333 38.0239 76.7886 37.3237 77.0992 36.6909C77.4097 36.0581 77.8374 35.519 78.3824 35.0737C78.9332 34.6226 79.5835 34.2739 80.3335 34.0278C81.0835 33.7817 81.9009 33.6587 82.7857 33.6587C83.899 33.6587 84.854 33.7495 85.6509 33.9312C86.4478 34.1069 87.1011 34.3384 87.6109 34.6255C88.1265 34.9126 88.5044 35.2349 88.7447 35.5923C88.9849 35.9497 89.105 36.3042 89.105 36.6558C89.105 36.9136 89.0406 37.1567 88.9117 37.3853C88.7886 37.6138 88.6158 37.813 88.3931 37.9829C88.1763 38.1528 87.9214 38.2876 87.6285 38.3872C87.3355 38.4868 87.0191 38.5366 86.6792 38.5366C86.3394 38.5366 86.0201 38.4897 85.7212 38.396C85.4224 38.2964 85.1617 38.1646 84.939 38.0005C84.7222 37.8306 84.5494 37.6343 84.4205 37.4116C84.2915 37.189 84.2271 36.9487 84.2271 36.6909C84.2271 36.4507 84.2828 36.2251 84.3941 36.0142C84.5113 35.7974 84.6695 35.6069 84.8687 35.4429C85.0738 35.2788 85.3111 35.144 85.5806 35.0386C85.856 34.9331 86.1519 34.8716 86.4683 34.854C86.1343 34.731 85.8033 34.6372 85.4751 34.5728C85.1529 34.5024 84.854 34.4673 84.5787 34.4673C84.1275 34.4673 83.7378 34.5288 83.4097 34.6519C83.0816 34.769 82.8091 34.9917 82.5923 35.3198C82.3814 35.6421 82.2232 36.0903 82.1177 36.6646C82.0123 37.2388 81.9595 37.98 81.9595 38.8882C81.9595 39.7847 81.9976 40.5142 82.0738 41.0767C82.1558 41.6392 82.2818 42.0815 82.4517 42.4038C82.6275 42.7202 82.8501 42.937 83.1197 43.0542C83.3951 43.1714 83.7261 43.23 84.1128 43.23C84.605 43.23 85.0679 43.1685 85.5015 43.0454C85.9351 42.9224 86.3218 42.7495 86.6617 42.5269C87.0074 42.2983 87.2945 42.0259 87.523 41.7095C87.7515 41.3872 87.9068 41.0269 87.9888 40.6284H88.815C88.7564 41.1733 88.5894 41.6626 88.314 42.0962C88.0386 42.5239 87.6724 42.8872 87.2154 43.186C86.7642 43.4849 86.231 43.7134 85.6158 43.8716C85.0064 44.0298 84.3384 44.1089 83.6119 44.1089C82.4693 44.1089 81.4615 43.9917 80.5884 43.7573C79.7212 43.5171 78.9947 43.1714 78.4087 42.7202C77.8228 42.2632 77.3804 41.7065 77.0816 41.0503C76.7828 40.3882 76.6333 39.6353 76.6333 38.7915ZM90.9771 41.4722C90.9771 41.021 91.0621 40.6343 91.232 40.312C91.4019 39.9839 91.6421 39.7085 91.9527 39.4858C92.2632 39.2573 92.6353 39.0757 93.0689 38.9409C93.5025 38.8003 93.983 38.6919 94.5103 38.6157C95.0435 38.5396 95.6148 38.4897 96.2242 38.4663C96.8335 38.437 97.4664 38.4224 98.1226 38.4224V37.9302C98.1226 37.1802 98.0699 36.5796 97.9644 36.1284C97.8648 35.6772 97.7095 35.3315 97.4986 35.0913C97.2935 34.8511 97.0386 34.6958 96.7339 34.6255C96.4292 34.5493 96.0748 34.5112 95.6705 34.5112C95.4537 34.5112 95.2222 34.5288 94.9761 34.564C94.7359 34.5991 94.522 34.6401 94.3345 34.687C94.604 34.7163 94.8531 34.7837 95.0816 34.8892C95.3101 34.9946 95.5064 35.1265 95.6705 35.2847C95.8345 35.4429 95.9605 35.6187 96.0484 35.812C96.1421 36.0054 96.189 36.2017 96.189 36.4009C96.189 36.647 96.1275 36.8784 96.0044 37.0952C95.8814 37.312 95.7115 37.5024 95.4947 37.6665C95.2779 37.8247 95.0259 37.9507 94.7388 38.0444C94.4517 38.1382 94.1441 38.1851 93.816 38.1851C93.4878 38.1851 93.1802 38.1382 92.8931 38.0444C92.6119 37.9507 92.3628 37.8247 92.146 37.6665C91.9351 37.5024 91.7681 37.312 91.6451 37.0952C91.522 36.8784 91.4605 36.647 91.4605 36.4009C91.4605 36.0728 91.5484 35.7769 91.7242 35.5132C91.9058 35.2495 92.149 35.0181 92.4537 34.8188C92.7642 34.6138 93.1275 34.438 93.5435 34.2915C93.9654 34.145 94.4165 34.0249 94.897 33.9312C95.3775 33.8374 95.8755 33.77 96.3912 33.729C96.9126 33.6821 97.4312 33.6587 97.9468 33.6587C98.8609 33.6587 99.6548 33.7231 100.329 33.8521C101.008 33.9751 101.571 34.1978 102.016 34.52C102.467 34.8364 102.804 35.2729 103.027 35.8296C103.25 36.3804 103.361 37.0806 103.361 37.9302V41.6128C103.361 42.0522 103.405 42.3921 103.493 42.6323C103.586 42.8667 103.756 42.9839 104.002 42.9839C104.126 42.9839 104.225 42.9458 104.301 42.8696C104.383 42.7876 104.445 42.6821 104.486 42.5532C104.533 42.4243 104.565 42.2749 104.583 42.105C104.6 41.9351 104.609 41.7622 104.609 41.5864V40.7163H105.391V41.5864C105.391 42.0552 105.33 42.4507 105.207 42.7729C105.089 43.0952 104.881 43.356 104.583 43.5552C104.29 43.7544 103.894 43.895 103.396 43.9771C102.904 44.0649 102.283 44.1089 101.533 44.1089C101.152 44.1089 100.794 44.0884 100.46 44.0474C100.132 44.0063 99.8306 43.936 99.5552 43.8364C99.2857 43.7368 99.0513 43.605 98.8521 43.4409C98.6529 43.2769 98.4947 43.0718 98.3775 42.8257C98.2017 43.0952 97.9673 43.3149 97.6744 43.4849C97.3814 43.6489 97.065 43.7778 96.7251 43.8716C96.3853 43.9653 96.0425 44.0269 95.6968 44.0562C95.3511 44.0913 95.0347 44.1089 94.7476 44.1089C94.0621 44.1089 93.479 44.0356 92.9986 43.8892C92.5181 43.7485 92.1285 43.5581 91.8296 43.3179C91.5308 43.0776 91.314 42.7993 91.1792 42.4829C91.0445 42.1606 90.9771 41.8237 90.9771 41.4722ZM96.0484 41.3755C96.0484 41.8091 96.1275 42.1606 96.2857 42.4302C96.4439 42.6938 96.7046 42.8257 97.0679 42.8257C97.3726 42.8257 97.6246 42.7173 97.8238 42.5005C98.023 42.2778 98.1226 41.9819 98.1226 41.6128V39.231C97.7007 39.231 97.355 39.269 97.0855 39.3452C96.816 39.4214 96.6021 39.5444 96.4439 39.7144C96.2915 39.8784 96.1861 40.0981 96.1275 40.3735C96.0748 40.6489 96.0484 40.9829 96.0484 41.3755ZM107.755 34.6255H106.217V33.9927H107.755C108.347 33.9927 108.877 33.8931 109.346 33.6938C109.821 33.4888 110.222 33.2251 110.55 32.9028C110.884 32.5747 111.139 32.2085 111.315 31.8042C111.491 31.3999 111.579 30.9956 111.579 30.5913H112.985V33.9927H115.815V34.6255H112.985V40.0396C112.985 40.6665 113.017 41.1792 113.082 41.5776C113.152 41.9702 113.249 42.2778 113.372 42.5005C113.501 42.7231 113.65 42.8755 113.82 42.9575C113.996 43.0337 114.189 43.0718 114.4 43.0718C114.605 43.0718 114.804 43.0278 114.998 42.9399C115.191 42.8462 115.361 42.6997 115.507 42.5005C115.654 42.2954 115.771 42.0317 115.859 41.7095C115.947 41.3813 115.991 40.98 115.991 40.5054C115.991 40.394 115.988 40.2798 115.982 40.1626C115.976 40.0396 115.967 39.9136 115.956 39.7847H116.694C116.711 40.0776 116.72 40.3442 116.72 40.5845C116.72 41.3169 116.618 41.9146 116.413 42.3774C116.213 42.8345 115.926 43.1919 115.551 43.4497C115.176 43.7075 114.719 43.8833 114.18 43.9771C113.647 44.0708 113.046 44.1177 112.378 44.1177C111.628 44.1177 110.966 44.0444 110.392 43.8979C109.818 43.7515 109.335 43.52 108.942 43.2036C108.549 42.8813 108.253 42.4683 108.054 41.9644C107.855 41.4604 107.755 40.8481 107.755 40.1274V34.6255ZM121.66 33.105C121.32 33.105 120.992 33.0728 120.675 33.0083C120.359 32.938 120.081 32.8296 119.84 32.6831C119.6 32.5308 119.407 32.3374 119.26 32.103C119.114 31.8687 119.041 31.5815 119.041 31.2417C119.041 30.9019 119.114 30.6147 119.26 30.3804C119.407 30.1401 119.6 29.9468 119.84 29.8003C120.081 29.6479 120.359 29.5396 120.675 29.4751C120.992 29.4048 121.32 29.3696 121.66 29.3696C121.994 29.3696 122.319 29.4048 122.635 29.4751C122.952 29.5396 123.23 29.6479 123.47 29.8003C123.71 29.9468 123.904 30.1372 124.05 30.3716C124.197 30.606 124.27 30.8931 124.27 31.2329C124.27 31.5728 124.197 31.8628 124.05 32.103C123.904 32.3374 123.71 32.5308 123.47 32.6831C123.23 32.8296 122.952 32.938 122.635 33.0083C122.319 33.0728 121.994 33.105 121.66 33.105ZM117.599 43.1421H119.137V34.6255H117.599V33.9927H124.367V43.1421H125.905V43.7749H117.599V43.1421ZM127.153 38.8882C127.153 38.1323 127.291 37.4351 127.566 36.7964C127.841 36.1577 128.254 35.6069 128.805 35.144C129.356 34.6753 130.047 34.312 130.879 34.0542C131.711 33.7905 132.684 33.6587 133.797 33.6587C134.911 33.6587 135.88 33.7905 136.707 34.0542C137.539 34.312 138.23 34.6753 138.781 35.144C139.332 35.6069 139.745 36.1577 140.02 36.7964C140.295 37.4351 140.433 38.1323 140.433 38.8882C140.433 39.644 140.295 40.3413 140.02 40.98C139.745 41.6128 139.332 42.1636 138.781 42.6323C138.23 43.0952 137.539 43.4585 136.707 43.7222C135.88 43.98 134.911 44.1089 133.797 44.1089C132.684 44.1089 131.711 43.98 130.879 43.7222C130.047 43.4585 129.356 43.0952 128.805 42.6323C128.254 42.1636 127.841 41.6128 127.566 40.98C127.291 40.3413 127.153 39.644 127.153 38.8882ZM133.797 43.564C134.02 43.564 134.21 43.4907 134.369 43.3442C134.527 43.1978 134.656 42.9458 134.755 42.5884C134.855 42.231 134.925 41.7534 134.966 41.1558C135.013 40.5522 135.037 39.7964 135.037 38.8882C135.037 37.9741 135.013 37.2183 134.966 36.6206C134.925 36.0171 134.855 35.5366 134.755 35.1792C134.656 34.8218 134.527 34.5698 134.369 34.4233C134.21 34.2769 134.02 34.2036 133.797 34.2036C133.569 34.2036 133.376 34.2769 133.217 34.4233C133.059 34.5698 132.93 34.8218 132.831 35.1792C132.731 35.5366 132.658 36.0171 132.611 36.6206C132.57 37.2183 132.549 37.9741 132.549 38.8882C132.549 39.7964 132.57 40.5522 132.611 41.1558C132.658 41.7534 132.731 42.231 132.831 42.5884C132.93 42.9458 133.059 43.1978 133.217 43.3442C133.376 43.4907 133.569 43.564 133.797 43.564ZM141.927 43.1421H143.465V34.6255H141.927V33.9927H148.695V35.1177C148.882 34.8892 149.108 34.6841 149.372 34.5024C149.641 34.3208 149.937 34.1685 150.259 34.0454C150.582 33.9165 150.924 33.8198 151.288 33.7554C151.657 33.6909 152.035 33.6587 152.421 33.6587C153.218 33.6587 153.875 33.7642 154.39 33.9751C154.912 34.1802 155.322 34.4761 155.621 34.8628C155.919 35.2437 156.127 35.7095 156.245 36.2603C156.362 36.8052 156.42 37.4146 156.42 38.0884V43.1421H157.959V43.7749H150.312V43.1421H151.191V38.0884C151.191 37.4849 151.173 36.9927 151.138 36.6118C151.103 36.2251 151.042 35.9233 150.954 35.7065C150.866 35.4839 150.749 35.3315 150.602 35.2495C150.456 35.1616 150.271 35.1177 150.048 35.1177C149.826 35.1177 149.629 35.1646 149.46 35.2583C149.29 35.3521 149.146 35.4839 149.029 35.6538C148.918 35.8237 148.833 36.0259 148.774 36.2603C148.721 36.4946 148.695 36.7495 148.695 37.0249V43.1421H149.565V43.7749H141.927V43.1421Z" fill="white"/>
<path opacity="0.05" d="M25.4885 1.05875C21.3388 1.05875 18.0141 4.05466 18.1466 7.67381C18.1785 8.5468 18.207 9.59665 18.1735 10.9284L17.1101 53.2729C17.0078 57.3472 16.7585 60.9905 16.9735 63.5764C17.1557 65.7642 19.2659 67.4478 21.7797 67.4478H95.4978L96.5199 0.942383L25.4885 1.05875ZM35.5903 9.74176C33.8144 9.74176 32.3746 8.48539 32.3746 6.93581C32.3746 5.38599 33.8144 4.12963 35.5903 4.12963C37.3664 4.12963 38.8062 5.38599 38.8062 6.93581C38.8062 8.48562 37.3664 9.74176 35.5903 9.74176Z" fill="#232222"/>
</svg>
