<svg width="122" height="128" viewBox="0 0 122 128" fill="none" xmlns="http://www.w3.org/2000/svg">
<path d="M69.6239 15.8635C70.1515 15.772 70.562 15.2867 70.577 14.6911C70.5933 14.0225 70.1024 13.466 69.4783 13.4504C68.8542 13.4347 68.3365 13.9694 68.324 14.6423C68.3134 15.2227 68.6794 15.7133 69.1782 15.8446C65.7564 18.1819 62.7391 21.3584 61.0255 25.1604C59.4391 21.3758 56.2488 18.1278 52.8822 15.8496C53.3917 15.7271 53.7687 15.2298 53.758 14.6409C53.7455 13.968 53.2282 13.4329 52.6041 13.4486C51.9797 13.4642 51.4887 14.0207 51.5051 14.6893C51.5193 15.275 51.9159 15.7549 52.4304 15.8582C50.97 18.3464 50.0436 21.169 49.25 23.9317C50.4213 30.4847 51.4335 37.0605 52.3976 43.6466C55.2739 43.8246 58.1449 43.9364 61.0263 43.9817C63.9079 43.9354 66.7789 43.8222 69.6549 43.6431C70.6179 37.0577 71.6298 30.483 72.8011 23.931C72.0079 21.1704 71.0822 18.3507 69.6239 15.8635Z" fill="url(#paint0_linear_150_9893)"/>
<path d="M74.8521 41.1518C74.8781 41.2354 75.3018 42.615 75.3783 43.4033C65.7955 44.2862 56.258 44.2883 46.6752 43.4086C46.755 42.5958 47.2029 41.1514 47.2029 41.1514C48.1413 40.6572 48.6074 40.4041 49.5352 39.8868C49.4238 36.8748 49.0517 33.8515 48.5874 30.9043C47.812 25.9794 46.7329 21.0057 45.2771 16.1855C45.2771 16.1855 52.6678 19.1879 54.8951 22.0403C55.3441 16.5992 56.5172 11.1944 59.4195 6.49733C59.4202 6.49733 59.4209 6.49733 59.4209 6.49733C59.877 5.75965 60.28 5.20532 60.567 4.83576C60.8532 4.46728 61.0263 4.2793 61.0263 4.2793C61.0263 4.2793 61.1993 4.46692 61.4855 4.83576C61.9202 5.39615 62.6234 6.38376 63.3725 7.78045C65.745 12.203 66.7383 17.0713 67.1549 22.04C69.4007 19.1255 76.775 16.1869 76.775 16.1869C75.2584 21.2371 74.1903 26.402 73.3536 31.6046C73.3536 31.6096 73.3536 31.6128 73.3522 31.6163C72.9691 34.3695 72.6754 37.1073 72.5155 39.8829C73.4419 40.3991 73.908 40.6523 74.845 41.145C74.8482 41.1464 74.8482 41.1464 74.8482 41.1464C74.8504 41.1489 74.8511 41.1496 74.8521 41.1518Z" fill="url(#paint1_linear_150_9893)"/>
<path opacity="0.5" d="M75.3777 43.4026C65.7949 44.2856 56.2573 44.2874 46.6746 43.408C46.7543 42.5952 47.2022 41.1508 47.2022 41.1508C56.3367 40.2102 65.6877 40.6936 74.8447 41.1447C74.8479 41.1462 74.8493 41.1462 74.8493 41.1462C74.85 41.1479 74.8504 41.149 74.8511 41.1508C74.8774 41.2362 75.3011 42.6162 75.3777 43.4026Z" fill="url(#paint2_linear_150_9893)"/>
<path opacity="0.5" d="M76.3717 17.5717C76.4006 17.5824 72.8011 30.3331 72.517 39.8831C64.8742 39.7104 57.1695 39.4178 49.5349 39.8867C49.4235 36.8747 49.0283 33.8826 48.5872 30.9041C48.5889 30.9041 48.5889 30.9041 48.5889 30.9041C49.2373 32.3987 52.2531 37.6352 53.6441 38.8132C55.3053 40.2202 62.4796 36.7803 62.4796 36.7803C61.2567 19.1115 61.4863 4.83633 61.4863 4.83633C61.6615 4.77865 66.6416 11.0931 67.1607 22.8274C67.1988 23.6142 67.3967 25.5463 67.5583 26.3552C67.7107 27.1189 76.3717 17.5717 76.3717 17.5717Z" fill="url(#paint3_linear_150_9893)"/>
<path d="M67.0029 20.1751C69.5777 17.6772 76.7747 16.1865 76.7747 16.1865C76.7772 16.2079 69.6175 19.1725 67.1546 22.0396C67.093 21.2941 67.0627 20.9213 67.0029 20.1751Z" fill="url(#paint4_linear_150_9893)"/>
<path d="M45.2769 16.1847C45.2747 16.1328 52.0399 17.8477 55.09 20.0893C55.0298 20.8366 54.9565 21.2926 54.8952 22.0396C51.9587 19.007 45.2769 16.1847 45.2769 16.1847Z" fill="url(#paint5_linear_150_9893)"/>
<path d="M63.4849 2.45871C63.4785 2.98527 63.303 3.47018 63.0149 3.86608C62.6539 4.36238 62.1103 4.71769 61.4862 4.83625C61.3381 4.86437 61.1846 4.87968 61.0269 4.87968C60.8692 4.87968 60.7157 4.86402 60.5676 4.83589C59.6441 4.66001 58.9 3.95758 58.6547 3.06289C58.602 2.87063 58.5721 2.66627 58.5693 2.45764C58.5532 1.1108 59.6526 -0.00035594 61.0276 8.55318e-08C62.4018 0.000356111 63.5013 1.11187 63.4849 2.45871Z" fill="url(#paint6_radial_150_9893)"/>
<path opacity="0.5" d="M63.3727 7.78055C63.0509 7.46262 61.28 5.85908 59.4212 6.49708C59.8773 5.75939 60.2796 5.20506 60.5672 4.83551C59.6419 4.6607 58.895 3.96502 58.6543 3.0625C59.9203 3.97072 61.5217 4.27121 63.0149 3.86534C62.6539 4.36235 62.1117 4.71802 61.4862 4.83551C61.9216 5.39625 62.6201 6.38315 63.3727 7.78055Z" fill="#CB4D5F"/>
<path d="M46.3134 15.1958C46.338 15.8501 45.8531 16.3959 45.2332 16.4159C44.6134 16.4358 44.0907 15.9295 44.0622 15.283C44.0338 14.6368 44.5137 14.0882 45.1374 14.0597C45.7608 14.0319 46.2888 14.5414 46.3134 15.1958Z" fill="url(#paint7_radial_150_9893)"/>
<path d="M77.9371 15.2827C77.909 15.9292 77.386 16.4355 76.7662 16.4155C76.1463 16.3952 75.6614 15.8498 75.686 15.1954C75.7105 14.5411 76.2385 14.0316 76.8619 14.0597C77.4861 14.0875 77.9656 14.6361 77.9371 15.2827Z" fill="url(#paint8_radial_150_9893)"/>
<path opacity="0.5" d="M54.8947 22.0396C55.2244 22.3731 55.6139 27.0022 55.2365 27.0022C54.8588 27.0022 47.3566 17.9652 46.4349 16.9947C45.5135 16.0238 52.4172 19.5331 54.8947 22.0396Z" fill="url(#paint9_linear_150_9893)"/>
<path d="M38.6569 50.2467L32.4101 53.5506L27.8349 76.2419C26.2719 76.3551 22.0541 73.996 18.3831 71.668C15.123 69.602 9.89723 63.5446 9.87622 62.9749C9.87622 62.9735 9.87622 62.9735 9.87622 62.9735C11.1593 61.6936 12.3033 61.0335 12.3033 61.0335C12.3033 61.0335 5.77837 52.5235 5.34616 51.4522C5.04354 50.6999 2.81091 46.5355 2.54211 45.513C2.54069 45.513 2.54068 45.5115 2.54068 45.5115C2.42746 45.0779 10.0379 44.9889 10.0379 44.9889C10.0379 44.9889 10.0361 44.9889 10.0361 44.9871C9.95347 44.9255 8.11747 42.8983 7.28722 41.6722C5.55444 39.1141 -0.219955 26.582 0.00647714 26.582C15.5156 26.582 31.9423 39.8472 32.7013 41.0769C32.8826 41.3695 33.0734 41.7028 33.2742 42.067C34.6591 44.5837 36.5101 48.5381 38.6569 50.2467Z" fill="url(#paint10_radial_150_9893)"/>
<path opacity="0.5" d="M38.6571 50.2464L32.4106 53.5503L27.8353 76.2416C24.8842 76.4566 13.9884 69.8232 9.87633 62.9747C9.92155 63.2851 13.9873 65.5765 17.3995 64.8538C19.4317 64.4233 30.1883 56.5384 29.1982 55.8218C28.5883 55.3799 19.3292 56.9411 12.303 61.0333C12.303 61.0333 5.77813 52.5232 5.34592 51.4523C5.0433 50.7 2.80993 46.5352 2.54148 45.5127C2.88291 46.0079 4.27534 48.0814 8.09621 50.6231C10.0743 51.9393 17.0929 54.1135 20.9772 54.8252C23.4896 55.2859 32.3682 51.3252 31.6159 49.9228C31.2439 49.2289 27.3347 45.5116 10.0376 44.9883C10.0376 44.9883 10.0362 44.9883 10.0362 44.9865C9.95358 44.9249 8.11722 42.8977 7.28733 41.6715C5.55455 39.1135 -0.205258 26.6619 0.00693257 26.5811C0.00693257 26.5811 3.19303 33.7592 11.7715 38.9212C13.0104 39.6671 32.7364 42.222 32.7022 41.0763C34.1309 43.3929 36.1994 48.2904 38.6571 50.2464Z" fill="url(#paint11_linear_150_9893)"/>
<path opacity="0.5" d="M9.15996 37.8802C10.342 39.1782 14.6445 44.8387 14.4181 44.8743C12.7565 45.136 10.5078 44.6026 10.0902 44.3007C7.52043 42.4433 4.06202 35.9594 2.76146 32.847C2.00633 31.0406 8.06518 36.6782 9.15996 37.8802Z" fill="url(#paint12_linear_150_9893)"/>
<path opacity="0.5" d="M9.56428 52.5704C10.0471 53.1272 13.2506 60.55 12.3028 60.1701C11.3551 59.7902 5.70995 52.9164 4.2944 48.7096C3.93944 47.6551 8.72869 51.6059 9.56428 52.5704Z" fill="url(#paint13_linear_150_9893)"/>
<path opacity="0.5" d="M11.1825 64.5376C11.2263 64.9232 14.036 68.0238 14.6801 68.602C15.6143 69.4405 18.5714 72.2534 18.2976 70.6588C17.4368 65.6431 11.0493 63.3627 11.1825 64.5376Z" fill="url(#paint14_linear_150_9893)"/>
<path opacity="0.5" d="M11.7714 38.9213C16.0451 40.1499 30.9166 41.5936 32.1047 41.3209C33.1072 41.0909 4.45825 32.8664 6.29035 34.7932C7.47414 36.0382 10.9682 38.6906 11.7714 38.9213Z" fill="white"/>
<path opacity="0.5" d="M32.7836 42.7624C29.1065 41.0766 11.1272 39.0982 11.1803 39.487C11.3017 40.3767 14.7381 44.5867 15.2273 44.7964C16.0112 45.1325 21.3185 44.1797 36.6931 49.7615C37.2538 49.9652 34.4526 43.5279 32.7836 42.7624Z" fill="#FF9D94"/>
<path opacity="0.5" d="M38.6568 50.2468L32.41 53.5508L27.8347 76.242C26.2717 76.3552 22.0539 73.9962 18.3829 71.6682C18.3829 71.6682 17.5448 66.4364 17.3992 64.8542C17.2536 63.2735 19.0255 57.9886 19.0255 57.9886C19.0255 57.9886 16.0061 54.3401 16.1036 53.5693C16.4404 50.9012 23.7981 46.1045 23.7981 46.1045C23.7981 46.1045 36.5099 48.5383 38.6568 50.2468Z" fill="#CB4D5F"/>
<path d="M83.3428 50.2467L89.5896 53.5506L94.1649 76.2419C95.7279 76.3551 99.9457 73.996 103.617 71.668C106.877 69.602 112.103 63.5446 112.124 62.9749C112.124 62.9735 112.124 62.9735 112.124 62.9735C110.841 61.6936 109.697 61.0335 109.697 61.0335C109.697 61.0335 116.222 52.5235 116.654 51.4522C116.957 50.6999 119.189 46.5355 119.458 45.513C119.459 45.513 119.459 45.5115 119.459 45.5115C119.573 45.0779 111.962 44.9889 111.962 44.9889C111.962 44.9889 111.964 44.9889 111.964 44.9871C112.047 44.9255 113.883 42.8983 114.713 41.6722C116.446 39.1141 122.22 26.582 121.994 26.582C106.484 26.582 90.0578 39.8472 89.2987 41.0769C89.1175 41.3695 88.9267 41.7028 88.7259 42.067C87.3406 44.5837 85.4896 48.5381 83.3428 50.2467Z" fill="url(#paint15_radial_150_9893)"/>
<path opacity="0.5" d="M83.3428 50.2464L89.5893 53.5503L94.1649 76.2416C97.116 76.4566 108.012 69.8232 112.124 62.9747C112.078 63.2851 108.013 65.5765 104.6 64.8538C102.568 64.4233 91.8116 56.5384 92.8017 55.8218C93.4116 55.3799 102.671 56.9411 109.697 61.0333C109.697 61.0333 116.222 52.5232 116.654 51.4523C116.957 50.7 119.19 46.5352 119.458 45.5127C119.117 46.0079 117.725 48.0814 113.904 50.6231C111.926 51.9393 104.907 54.1135 101.023 54.8252C98.5102 55.2859 89.6316 51.3252 90.3839 49.9228C90.756 49.2289 94.6651 45.5116 111.962 44.9883C111.962 44.9883 111.963 44.9883 111.963 44.9865C112.046 44.9249 113.882 42.8977 114.712 41.6715C116.445 39.1135 122.205 26.6619 121.993 26.5811C121.993 26.5811 118.806 33.7592 110.228 38.9212C108.989 39.6671 89.2632 42.222 89.2973 41.0763C87.869 43.3929 85.8004 48.2904 83.3428 50.2464Z" fill="url(#paint16_linear_150_9893)"/>
<path opacity="0.5" d="M112.84 37.8802C111.657 39.1782 107.355 44.8387 107.582 44.8743C109.243 45.136 111.492 44.6026 111.909 44.3007C114.479 42.4433 117.938 35.9594 119.238 32.847C119.993 31.0406 113.935 36.6782 112.84 37.8802Z" fill="url(#paint17_linear_150_9893)"/>
<path opacity="0.5" d="M112.435 52.5704C111.953 53.1272 108.749 60.55 109.697 60.1701C110.645 59.7902 116.29 52.9164 117.706 48.7096C118.06 47.6551 113.271 51.6059 112.435 52.5704Z" fill="url(#paint18_linear_150_9893)"/>
<path opacity="0.5" d="M110.817 64.5376C110.774 64.9232 107.964 68.0238 107.32 68.602C106.386 69.4405 103.428 72.2534 103.702 70.6588C104.563 65.6431 110.95 63.3627 110.817 64.5376Z" fill="url(#paint19_linear_150_9893)"/>
<path opacity="0.5" d="M110.228 38.9213C105.955 40.1499 91.0832 41.5936 89.8951 41.3209C88.8922 41.0909 117.542 32.8664 115.709 34.7932C114.526 36.0382 111.032 38.6906 110.228 38.9213Z" fill="white"/>
<path opacity="0.5" d="M89.2161 42.7624C92.8931 41.0766 110.872 39.0982 110.819 39.487C110.698 40.3767 107.262 44.5867 106.773 44.7964C105.989 45.1325 100.682 44.1797 85.307 49.7615C84.7459 49.9652 87.5471 43.5279 89.2161 42.7624Z" fill="#FF9D94"/>
<path opacity="0.5" d="M83.3428 50.2468L89.5896 53.5508L94.1649 76.242C95.7279 76.3552 99.9457 73.9962 103.617 71.6682C103.617 71.6682 104.455 66.4364 104.6 64.8542C104.746 63.2735 102.974 57.9886 102.974 57.9886C102.974 57.9886 105.993 54.3401 105.896 53.5693C105.559 50.9012 98.2019 46.1045 98.2019 46.1045C98.2019 46.1045 85.4896 48.5383 83.3428 50.2468Z" fill="#CB4D5F"/>
<path d="M69.186 106.174L69.4669 105.166C71.0598 105.217 75.7148 106.841 78.1372 107.828C76.8936 104.281 84.9273 101.413 88.0835 103.584C88.6962 104.005 86.8143 108.01 82.7694 108.872C81.8459 109.069 80.911 109.045 80.038 108.896C82.4889 110.316 84.812 112.071 86.5138 114.036C87.5552 113.569 89.4816 113.23 92.6043 114.504C97.468 116.489 100.81 126.195 99.6917 126.891C97.7873 128.078 91.5932 128.078 87.3793 123.461C84.0397 119.802 84.6945 116.571 85.2257 115.273C84.0245 113.974 82.453 111.432 77.3148 108.998C76.9588 108.83 76.5447 108.795 76.2279 108.624C77.9888 110.016 79.7871 112.069 80.68 114.803C82.0176 118.897 81.2012 121.295 80.3763 121.72C77.255 123.328 70.9548 117.96 70.0661 115.824C68.8624 112.931 69.4395 107.322 71.3898 106.508C69.8051 106.039 69.186 106.174 69.186 106.174Z" fill="url(#paint20_radial_150_9893)"/>
<path opacity="0.5" d="M87.2642 114.681C90.7533 113.244 94.7208 115.112 97.2636 119.483C99.8782 123.977 99.865 126.603 99.3645 126.674C98.4174 126.808 93.3743 127.073 89.4 123.142C85.0658 118.855 86.7227 115.118 86.9566 115.183C87.1902 115.249 95.1203 122.961 94.0095 120.312C92.9329 117.744 86.9954 114.792 87.2642 114.681Z" fill="white"/>
<path opacity="0.5" d="M80.386 121.135C79.1285 121.283 74.0166 117.925 72.432 114.569C70.8477 111.214 71.7748 107.105 72.1678 107.215C72.5609 107.324 72.7919 112.129 76.1143 114.45C78.4022 116.048 73.2081 107.505 73.2081 107.505C73.2081 107.505 76.5334 108.137 79.2107 112.242C81.888 116.347 81.3408 121.023 80.386 121.135Z" fill="white"/>
<path opacity="0.5" d="M79.6898 106.303C81.288 103.28 87.574 102.744 87.7175 103.863C87.8606 104.983 86.7306 109.064 79.5862 108.484C79.5862 108.484 84.5051 107.251 85.0046 105.837C85.5044 104.422 79.3349 108.204 79.3349 108.204C79.3349 108.204 79.2491 107.136 79.6898 106.303Z" fill="white"/>
<path opacity="0.5" d="M94.3959 121.637C98.7362 123.87 99.3917 126.367 98.0783 126.505C96.7649 126.643 93.0601 125.905 90.3782 123.625C87.6963 121.345 86.9372 117.438 87.2687 117.153C87.6001 116.868 92.0825 120.447 94.3959 121.637Z" fill="white"/>
<path opacity="0.5" d="M84.9462 118.079C84.8928 117.177 85.9752 116.984 86.2208 117.265C86.4661 117.546 86.4209 123.662 95.4316 126.586C95.6153 126.646 94.9018 127.131 93.854 127.098C93.1669 127.077 89.9274 125.921 87.7827 123.671C85.638 121.423 85.0221 119.357 84.9462 118.079Z" fill="#CB4D5F"/>
<path opacity="0.5" d="M70.3553 115.793C70.2705 115.293 72.1934 114.822 72.3465 114.976C72.4992 115.131 75.2082 119.273 80.0074 121.338C80.2606 121.447 79.0974 121.724 78.4505 121.701C75.7348 121.602 70.6942 117.79 70.3553 115.793Z" fill="#CB4D5F"/>
<path opacity="0.5" d="M79.2107 112.242C81.4828 115.983 80.7245 118.249 79.4182 118.683C79.0063 118.82 77.6132 115.464 76.884 113.862C76.1549 112.259 75.1413 110.788 75.4254 110.615C75.7095 110.442 77.8574 110.016 79.2107 112.242Z" fill="white"/>
<path opacity="0.5" d="M72.1398 114.51C71.913 114.717 70.0966 115.223 69.9574 115.009C69.6943 114.606 69.3486 110.865 69.894 109.309C70.4395 107.754 71.1861 107.631 71.4698 107.873C71.7536 108.115 71.2729 109.183 71.4289 110.934C71.5848 112.685 72.3403 114.327 72.1398 114.51Z" fill="url(#paint21_linear_150_9893)"/>
<path d="M52.8139 106.174L52.533 105.166C50.9402 105.217 46.2851 106.841 43.8624 107.828C45.106 104.281 37.0726 101.413 33.9161 103.584C33.3034 104.005 35.1853 108.01 39.2301 108.872C40.1537 109.069 41.0886 109.045 41.9616 108.896C39.5107 110.316 37.1876 112.071 35.4858 114.036C34.4444 113.569 32.518 113.23 29.3953 114.504C24.532 116.489 21.19 126.195 22.3079 126.891C24.2123 128.078 30.4064 128.078 34.6203 123.461C37.9598 119.802 37.3047 116.571 36.7739 115.273C37.9751 113.974 39.5466 111.432 44.6848 108.998C45.0408 108.83 45.4549 108.795 45.7717 108.624C44.0108 110.016 42.2129 112.069 41.3196 114.803C39.9821 118.897 40.7984 121.295 41.6233 121.72C44.7446 123.328 51.0448 117.96 51.9335 115.824C53.1372 112.931 52.5601 107.322 50.6098 106.508C52.1948 106.039 52.8139 106.174 52.8139 106.174Z" fill="url(#paint22_radial_150_9893)"/>
<path opacity="0.5" d="M34.7356 114.681C31.2465 113.244 27.279 115.112 24.7366 119.483C22.122 123.977 22.1348 126.603 22.6357 126.674C23.5827 126.808 28.6262 127.073 32.6002 123.142C36.9344 118.855 35.2771 115.118 35.0435 115.183C34.81 115.249 26.8802 122.961 27.9907 120.312C29.067 117.744 35.0044 114.792 34.7356 114.681Z" fill="white"/>
<path opacity="0.5" d="M41.6144 121.135C42.8718 121.283 47.9836 117.925 49.5683 114.569C51.1526 111.214 50.2255 107.105 49.8325 107.215C49.4394 107.324 49.2083 112.129 45.8859 114.45C43.5981 116.048 48.7922 107.505 48.7922 107.505C48.7922 107.505 45.4669 108.137 42.7896 112.242C40.1123 116.347 40.6591 121.023 41.6144 121.135Z" fill="white"/>
<path opacity="0.5" d="M42.31 106.303C40.7118 103.28 34.4255 102.744 34.2823 103.863C34.1392 104.983 35.2696 109.064 42.4139 108.484C42.4139 108.484 37.4951 107.251 36.9952 105.837C36.4957 104.422 42.6649 108.204 42.6649 108.204C42.6649 108.204 42.7507 107.136 42.31 106.303Z" fill="white"/>
<path opacity="0.5" d="M27.604 121.637C23.264 123.87 22.6082 126.367 23.9216 126.505C25.235 126.643 28.9398 125.905 31.6217 123.625C34.3037 121.345 35.0627 117.438 34.7313 117.153C34.3998 116.868 29.9174 120.447 27.604 121.637Z" fill="white"/>
<path opacity="0.5" d="M37.0537 118.079C37.1074 117.177 36.0248 116.984 35.7791 117.265C35.5335 117.546 35.579 123.662 26.5684 126.586C26.3847 126.646 27.0981 127.131 28.1459 127.098C28.833 127.077 32.0726 125.921 34.2172 123.671C36.3619 121.423 36.9778 119.357 37.0537 118.079Z" fill="#CB4D5F"/>
<path opacity="0.5" d="M51.6447 115.793C51.7294 115.293 49.8065 114.822 49.6534 114.976C49.5007 115.131 46.7917 119.273 41.9925 121.338C41.7394 121.447 42.9021 121.724 43.5494 121.701C46.2651 121.602 51.3057 117.79 51.6447 115.793Z" fill="#CB4D5F"/>
<path opacity="0.5" d="M42.7891 112.242C40.5166 115.983 41.2753 118.249 42.5815 118.683C42.9934 118.82 44.3866 115.464 45.1157 113.862C45.8449 112.259 46.8585 110.788 46.5744 110.615C46.2906 110.442 44.1423 110.016 42.7891 112.242Z" fill="white"/>
<path opacity="0.5" d="M49.86 114.51C50.0864 114.717 51.9032 115.223 52.0424 115.009C52.3055 114.606 52.6513 110.865 52.1059 109.309C51.5604 107.754 50.8138 107.631 50.5301 107.873C50.2463 108.115 50.727 109.183 50.571 110.934C50.4151 112.685 49.6596 114.327 49.86 114.51Z" fill="url(#paint23_linear_150_9893)"/>
<path d="M60.9994 98.5018C75.7614 98.5018 87.7284 86.5349 87.7284 71.7729C87.7284 57.0109 75.7614 45.0439 60.9994 45.0439C46.2374 45.0439 34.2705 57.0109 34.2705 71.7729C34.2705 86.5349 46.2374 98.5018 60.9994 98.5018Z" fill="url(#paint24_linear_150_9893)"/>
<path opacity="0.2" d="M45.4391 73.576C48.7747 77.854 49.8136 86.6354 45.4391 84.6919C41.0646 82.7483 37.6742 69.9083 40.4188 70.5349C43.1627 71.1618 44.4921 72.362 45.4391 73.576Z" fill="#E45F60"/>
<path opacity="0.2" d="M53.7329 90.9891C56.7987 93.5554 71.965 91.7774 68.6394 88.8145C65.3137 85.8517 61.3854 83.9309 58.8028 84.9691C56.2202 86.0073 52.2561 89.753 53.7329 90.9891Z" fill="#E45F60"/>
<path opacity="0.2" d="M72.4646 75.6695C71.9406 81.7806 74.7898 85.6115 78.0186 82.739C81.2471 79.8666 82.8826 73.8334 81.2877 72.1477C79.6927 70.4619 72.6978 72.9491 72.4646 75.6695Z" fill="#E45F60"/>
<path d="M71.2951 66.8583L62.0046 59.8375L73.6599 53.8584L71.2951 66.8583Z" fill="url(#paint25_linear_150_9893)"/>
<path opacity="0.5" d="M62.0046 59.8375L73.6599 53.8584L66.6258 63.3297L62.0046 59.8375Z" fill="url(#paint26_linear_150_9893)"/>
<path d="M59.4121 59.9465L50.5246 67.4708L47.2471 54.7881L59.4121 59.9465Z" fill="url(#paint27_linear_150_9893)"/>
<path opacity="0.5" d="M50.5246 67.4708L47.2471 54.7881L54.9454 63.7279L50.5246 67.4708Z" fill="url(#paint28_linear_150_9893)"/>
<path d="M48.5323 69.5449L52.686 80.4236L39.6338 79.3132L48.5323 69.5449Z" fill="url(#paint29_linear_150_9893)"/>
<path opacity="0.5" d="M52.686 80.4239L39.6338 79.3135L50.6196 75.0127L52.686 80.4239Z" fill="url(#paint30_linear_150_9893)"/>
<path d="M54.5945 81.71L66.2361 81.9813L60.2695 93.6429L54.5945 81.71Z" fill="url(#paint31_linear_150_9893)"/>
<path opacity="0.5" d="M66.2359 81.9806L60.2693 93.6422L60.4455 81.8457L66.2359 81.9806Z" fill="url(#paint32_linear_150_9893)"/>
<path d="M68.3171 80.4138L72.8675 69.6953L81.5022 79.5462L68.3171 80.4138Z" fill="url(#paint33_linear_150_9893)"/>
<path opacity="0.5" d="M72.8675 69.6953L81.5022 79.5462L70.6042 75.0268L72.8675 69.6953Z" fill="url(#paint34_linear_150_9893)"/>
<path d="M80.8576 65.2001L73.5904 64.1441L71.6048 63.8554L66.8861 63.17L60.6378 50.5098L54.39 63.17L40.4185 65.2001L50.5281 75.0545L48.1417 88.9694L60.6378 82.3997L73.1343 88.9694L70.7475 75.0545L80.8576 65.2001Z" fill="url(#paint35_linear_150_9893)"/>
<path d="M40.3467 65.1992L60.9282 70.5798L50.4564 75.0536L40.3467 65.1992Z" fill="url(#paint36_linear_150_9893)"/>
<path d="M80.7856 65.1992L60.928 70.5798L70.6756 75.0536L80.7856 65.1992Z" fill="url(#paint37_linear_150_9893)"/>
<path opacity="0.5" d="M60.5663 82.399L60.9281 70.5801L48.0698 88.9688L60.5663 82.399Z" fill="url(#paint38_linear_150_9893)"/>
<path opacity="0.5" d="M73.0625 88.9688L60.9281 70.5801L60.5664 82.399L73.0625 88.9688Z" fill="url(#paint39_linear_150_9893)"/>
<path opacity="0.5" d="M60.6377 50.5088L60.9282 70.5797L66.886 63.169L60.6377 50.5088Z" fill="url(#paint40_linear_150_9893)"/>
<path opacity="0.5" d="M80.7856 65.199L60.928 70.5796L66.8141 63.1689L80.7856 65.199Z" fill="url(#paint41_linear_150_9893)"/>
<path opacity="0.5" d="M80.7856 65.199L60.928 70.5796L66.8141 63.1689L80.7856 65.199Z" fill="url(#paint42_linear_150_9893)"/>
<path opacity="0.5" d="M54.3182 63.1689L60.9282 70.5796L40.3467 65.199L54.3182 63.1689Z" fill="url(#paint43_linear_150_9893)"/>
<path opacity="0.8" d="M66.8144 67.5724C65.7762 68.4507 66.6627 69.0257 66.6627 69.0257L72.0123 67.5763C72.0123 67.5763 69.2143 65.542 66.8144 67.5724Z" fill="white"/>
<path opacity="0.5" d="M40.3469 65.1992L60.9284 70.5798L49.3633 81.8455L48.1418 76.0103L48.9093 75.7098L40.3469 65.1992Z" fill="url(#paint44_linear_150_9893)"/>
<path opacity="0.5" d="M80.7861 65.1992L60.9285 70.5798L67.9389 81.1413L76.7217 77.5465L72.0122 75.5204L80.7861 65.1992Z" fill="url(#paint45_linear_150_9893)"/>
<path opacity="0.5" d="M48.1416 88.9688L60.9283 70.5801L73.1342 88.9688L60.6377 82.399L48.1416 88.9688Z" fill="url(#paint46_linear_150_9893)"/>
<path opacity="0.4" d="M55.9854 60.979C54.6564 64.6653 59.7198 67.2383 60.4016 66.1047C61.0834 64.9715 60.6505 58.6407 59.7953 57.7859C58.9405 56.931 56.5298 59.4706 55.9854 60.979Z" fill="white"/>
<path opacity="0.4" d="M51.8446 79.8616C54.5358 80.2265 56.0421 77.1622 56.6089 75.0538C57.5221 71.657 46.9528 79.1983 51.8446 79.8616Z" fill="white"/>
<path opacity="0.5" d="M49.0221 61.655L41.5125 65.0134L45.1784 64.4971L54.3183 63.1692L59.0168 53.8584L55.7705 58.4013L52.686 61.1028L49.0221 61.655Z" fill="url(#paint47_linear_150_9893)"/>
<path opacity="0.5" d="M61.5164 52.4336L66.8859 63.1692L75.3843 64.3871L80.0635 65.0839L72.2594 61.5571L68.2605 61.1281L64.9264 58.3386L61.5164 52.4336Z" fill="url(#paint48_linear_150_9893)"/>
<path opacity="0.5" d="M60.5666 82.3994L49.6509 88.1382L56.269 85.2309L60.568 83.3183L64.5733 85.2309L68.548 86.5955L60.5666 82.3994Z" fill="url(#paint49_linear_150_9893)"/>
<path opacity="0.5" d="M40.4185 65.1992L48.9093 75.7098L39.4302 79.3078L44.187 82.3988L47.7979 89.766L56.6654 89.8636L60.2694 94.7158L63.9197 89.8636L73.6973 89.5513L75.8779 82.3988L81.7167 79.7742L74.5403 76.6582L80.4122 65.1992L60.9284 70.5798L40.4185 65.1992Z" fill="url(#paint50_linear_150_9893)"/>
<path opacity="0.5" d="M56.0802 69.3496L53.3296 74.0399L57.3185 75.7556L60.5305 79.5836L64.5177 76.0194L68.7693 74.1784L65.8702 69.3496L60.8061 70.8784L56.0802 69.3496Z" fill="url(#paint51_linear_150_9893)"/>
<path d="M56.2072 67.4831C54.0818 71.0597 56.543 74.8578 59.8803 75.4495C63.2181 76.0413 67.0874 72.946 65.8128 68.621C64.5382 64.2963 58.0739 64.3419 56.2072 67.4831Z" fill="url(#paint52_linear_150_9893)"/>
<path d="M59.88 75.4499C57.3614 75.0031 55.3421 72.7302 55.4158 70.1045C55.7746 73.1055 57.9596 75.723 62.3227 74.6916C62.8553 74.5655 65.8124 73.1966 66.0574 70.0928C66.1841 73.6231 62.8257 75.9725 59.88 75.4499Z" fill="url(#paint53_linear_150_9893)"/>
<path opacity="0.5" d="M65.6312 68.1151C65.4454 68.5594 63.1266 66.2993 63.4314 65.8262H63.4332C64.3848 66.2951 65.1805 67.0498 65.6312 68.1151Z" fill="url(#paint54_linear_150_9893)"/>
<path d="M56.4966 68.3981C55.0416 71.4036 59.6268 77.6034 63.7891 72.8943C68.3999 67.6782 59.6421 61.901 56.4966 68.3981Z" fill="url(#paint55_linear_150_9893)"/>
<path d="M57.6964 68.3759C56.7985 70.1795 57.4685 72.012 59.107 73.1338C60.9918 74.4244 63.3006 72.8981 64.0985 71.3177C65.2388 69.0594 63.0667 66.7179 61.7188 66.3344C60.3712 65.9506 58.3373 67.0881 57.6964 68.3759Z" fill="url(#paint56_linear_150_9893)"/>
<path opacity="0.4" d="M57.3781 69.9608C57.3126 70.2446 57.3781 71.8285 58.5822 72.6524C59.7862 73.4759 60.6361 73.6161 60.7276 73.4801C60.8194 73.3441 60.8159 72.2508 60.7597 72.1945C60.7034 72.1383 59.7638 71.6797 59.311 71.0556C58.8581 70.4315 58.7029 70.2133 58.574 70.2011C58.4448 70.1887 57.4226 69.7675 57.3781 69.9608Z" fill="#540E01"/>
<path d="M58.8229 70.1306C58.6538 70.8615 60.7455 72.2229 60.9367 72.1955C61.8367 72.067 62.9265 70.0768 62.9457 69.4299C62.9586 68.9931 61.2742 67.5829 60.7362 67.7523C60.1983 67.9211 58.9547 69.5609 58.8229 70.1306Z" fill="white"/>
<path opacity="0.8" d="M60.9364 72.1953C60.6872 72.2996 60.7772 73.4325 60.8623 73.4424C61.8101 73.5557 62.7849 73.0263 63.7344 71.7901C64.5041 70.7876 64.4408 69.4354 64.1104 69.0213C63.9893 68.8693 62.9501 69.251 62.9455 69.43C62.9163 70.5106 61.7556 71.8517 60.9364 72.1953Z" fill="#540E01"/>
<path opacity="0.75" d="M57.3087 69.7121C57.298 69.882 58.5455 70.2907 58.6381 70.186C58.7897 70.0151 60.6709 67.7992 60.6791 67.6629C60.6919 67.4418 60.7464 66.3673 60.4281 66.3516C60.3217 66.3463 58.9617 66.7507 58.1421 67.7312C57.3222 68.7113 57.3222 69.4971 57.3087 69.7121Z" fill="white"/>
<path d="M57.6965 68.3756C57.6965 68.3756 58.2807 67.3848 59.3054 66.8184C59.3054 66.8184 59.8598 66.9871 59.4261 67.6864C58.9918 68.3852 57.6965 68.3756 57.6965 68.3756Z" fill="white"/>
<path d="M60.3053 71.8592C60.2669 71.9204 60.6678 72.7044 60.7781 72.6823C60.8885 72.6602 61.31 72.0457 61.2581 72.0496C61.2057 72.0532 60.389 71.7256 60.3053 71.8592Z" fill="white"/>
<path d="M62.7729 69.0709C62.6113 69.2685 62.7537 69.9546 62.8455 69.9774C62.9374 70.0002 63.3529 69.2215 63.3016 69.1728C63.2507 69.1243 62.9217 68.889 62.7729 69.0709Z" fill="white"/>
<path d="M59.3655 74.372C59.3655 74.372 61.6355 75.0684 63.7891 72.8949C65.765 70.9004 64.954 68.6802 64.8664 68.4609C64.8664 68.4609 66.3333 71.0834 63.7653 73.4823C61.5579 75.5444 59.3655 74.372 59.3655 74.372Z" fill="#FFDAC8"/>
<path opacity="0.5" d="M58.58 73.9619C57.3524 72.4039 56.3207 69.6614 58.4518 67.4566C60.583 65.2521 63.2781 66.8734 64.2127 67.3003C64.2127 67.3003 62.2097 63.7916 58.093 65.7288C56.5193 66.4693 55.2704 68.9351 55.8204 70.4194C56.6215 72.5812 58.58 73.9619 58.58 73.9619Z" fill="url(#paint57_linear_150_9893)"/>
<path d="M44.4918 62.1958C44.8983 61.8077 44.9247 59.8271 44.9247 59.8271C44.9247 59.8271 44.9831 61.9113 45.2415 62.1331C45.4929 62.3485 46.995 62.6369 46.995 62.6369C46.995 62.6369 45.5612 62.6924 45.2942 62.9328C45.1094 63.099 44.9243 65.1323 44.9243 65.1323C44.9243 65.1323 44.7776 63.3222 44.4992 63.062C44.2219 62.8032 42.9651 62.6369 42.9651 62.6369C42.9651 62.6369 44.1788 62.4945 44.4918 62.1958Z" fill="white"/>
<path d="M48.3581 71.6174C48.5589 71.4259 48.5717 70.4482 48.5717 70.4482C48.5717 70.4482 48.6005 71.4768 48.728 71.5865C48.8519 71.6929 49.5935 71.8353 49.5935 71.8353C49.5935 71.8353 48.8857 71.8627 48.754 71.9813C48.6628 72.0635 48.5717 73.0672 48.5717 73.0672C48.5717 73.0672 48.4994 72.1735 48.362 72.0454C48.2249 71.9176 47.6047 71.8357 47.6047 71.8357C47.6047 71.8357 48.2036 71.7648 48.3581 71.6174Z" fill="white"/>
<path d="M33.9699 63.5517V66.5644C33.9699 66.5644 28.0646 65.0517 23.4533 59.6835C18.8424 54.3168 19.3245 46.9912 19.3245 46.9912C19.3263 47.0008 19.3263 47.009 19.3277 47.0186C19.3797 47.3892 20.0056 51.4451 23.0489 55.9997C23.6605 56.9154 24.4388 57.7567 25.2979 58.519C26.7409 59.8035 28.4124 60.8634 29.8991 61.674C32.1435 62.8949 33.9699 63.5517 33.9699 63.5517Z" fill="url(#paint58_linear_150_9893)"/>
<path d="M57.9369 26.5811C57.9369 26.5811 53.466 30.1908 51.6054 37.0233C49.7448 43.8558 51.2035 44.9883 51.2035 44.9883H71.263C71.263 44.9883 71.425 40.7377 70.1305 36.4316C68.8363 32.1258 65.0443 27.6933 64.2667 26.8431L57.9369 26.5811Z" fill="url(#paint59_linear_150_9893)"/>
<path d="M19.363 96.8419C19.363 96.8419 27.7702 100.968 38.5147 94.7393L40.8463 96.0334C40.8463 96.0334 35.7851 99.1885 30.1047 99.6738C24.4247 100.159 19.363 96.8419 19.363 96.8419Z" fill="url(#paint60_linear_150_9893)"/>
<path d="M102.675 46.9893C102.675 46.9893 103.156 54.3152 98.5453 59.683C93.9344 65.0508 88.0291 66.5628 88.0291 66.5628V63.5505C88.0291 63.5505 95.7558 60.7763 98.9501 55.9985C102.144 51.221 102.675 46.9893 102.675 46.9893Z" fill="url(#paint61_linear_150_9893)"/>
<path d="M102.636 96.8419C102.636 96.8419 94.2293 100.968 83.4844 94.7393L81.1528 96.0334C81.1528 96.0334 86.2141 99.1885 91.8944 99.6738C97.5748 100.159 102.636 96.8419 102.636 96.8419Z" fill="url(#paint62_linear_150_9893)"/>
<path d="M50.6069 102.704C50.6069 102.704 50.5881 113.454 61.0969 119.709C61.0969 119.709 71.3654 114.532 71.3654 102.704H50.6069Z" fill="url(#paint63_linear_150_9893)"/>
<path d="M100.559 89.6044C100.252 89.0155 99.897 88.4185 99.4912 87.8296C97.0029 84.2216 93.1635 81.6024 92.6523 81.2627C92.5277 74.9903 92.5277 68.7192 92.6541 62.4482C93.0731 62.1666 95.2961 60.6378 97.4187 58.3888C98.1372 57.6269 98.8443 56.7838 99.4669 55.8778C102.428 51.5677 102.609 46.9259 102.609 46.9259C102.609 46.9259 98.4298 44.9001 93.2315 45.4811C89.4875 45.9019 85.9152 47.5457 84.6435 48.183C79.4854 45.4003 74.3099 42.6482 69.1471 39.8734C69.0371 38.4382 68.6067 34.549 67.0487 31.1369C64.8741 26.3804 60.9867 23.8369 60.9867 23.8369C60.9867 23.8369 57.1003 26.3804 54.9261 31.1369C53.3663 34.549 52.9377 38.4386 52.8276 39.8734C47.6457 42.6564 42.4538 45.4181 37.2779 48.2122C36.9639 48.0552 36.516 47.8416 35.9642 47.6005C34.2474 46.8515 31.5213 45.8435 28.6998 45.5313C23.5015 44.9585 19.3257 46.9907 19.3257 46.9907C19.3257 46.9907 19.3709 48.0972 19.7625 49.7331C20.1734 51.4467 20.9645 53.7359 22.4822 55.9394C23.0857 56.8148 23.7699 57.6319 24.4642 58.371C24.7458 58.6704 25.0288 58.9567 25.3104 59.2301C27.2017 61.0697 28.9864 62.2844 29.3214 62.508C29.4475 68.779 29.4475 75.0501 29.3214 81.3211C28.7582 81.6981 24.9694 84.3092 22.5085 87.8912C22.1119 88.4687 21.7645 89.0511 21.4618 89.629C19.5008 93.3615 19.3634 96.8431 19.3634 96.8431C19.3634 96.8431 23.5442 98.8685 28.7425 98.2878C28.7877 98.2832 28.8347 98.2782 28.88 98.27C32.5737 97.8268 36.0749 96.2151 37.332 95.586C42.4929 98.3722 47.6721 101.126 52.8398 103.902C52.8818 104.321 52.9612 104.947 53.105 105.719C53.3881 107.251 53.9235 109.358 54.9268 111.55C57.1014 116.307 60.9874 118.199 60.9874 118.199C60.9874 118.199 64.8752 116.306 67.0494 111.55C68.0171 109.43 68.5494 107.394 68.8406 105.876C69.0022 105.031 69.0898 104.347 69.135 103.902C74.3205 101.116 79.5171 98.3526 84.6962 95.5568C85.9501 96.1812 89.3494 97.736 92.9652 98.2006C93.0671 98.2134 93.1706 98.2266 93.2725 98.2376C98.4708 98.8105 102.648 96.7765 102.648 96.7765C102.648 96.7765 102.507 93.3192 100.559 89.6044ZM69.3849 92.976C66.5827 94.5339 63.7822 96.0937 60.9863 97.663C58.1321 96.0613 55.2718 94.4695 52.4115 92.8788C47.7746 90.2983 43.1345 87.7224 38.5137 85.1146C38.5899 81.4094 38.6336 77.7046 38.6464 74.0012C38.6628 68.8855 38.6191 63.7698 38.5137 58.6537C45.9852 54.4373 53.5037 50.3038 60.9867 46.1052C68.4678 50.3038 75.9878 54.4376 83.4593 58.6537C83.3543 63.7826 83.3105 68.9111 83.3283 74.04C83.3412 77.7306 83.3849 81.4226 83.4593 85.1146C78.7804 87.7552 74.082 90.3631 69.3849 92.976Z" fill="url(#paint64_linear_150_9893)"/>
<path opacity="0.5" d="M19.9024 47.4096C21.1407 49.1 30.4329 54.2767 34.8042 55.9973C35.5818 56.3035 36.9703 48.8807 36.2393 48.4385C28.5232 43.7711 19.2555 46.5263 19.9024 47.4096Z" fill="white"/>
<path d="M60.9859 43.4424C52.7229 48.0543 44.4079 52.5723 36.1577 57.2067C36.4019 66.9927 36.4019 76.7752 36.1577 86.5617C44.4082 91.196 52.7229 95.714 60.9859 100.326C69.2492 95.714 77.5649 91.196 85.8158 86.5617C85.5715 76.7756 85.5715 66.9931 85.8158 57.2067C77.5649 52.5723 69.2492 48.0543 60.9859 43.4424ZM83.46 85.1141C75.9873 89.3308 68.4681 93.4639 60.9859 97.6636C53.5044 93.4639 45.9858 89.3312 38.5136 85.1141C38.6944 76.2932 38.6948 67.4752 38.5136 58.6543C45.9855 54.4375 53.5044 50.3044 60.9859 46.1047C68.4681 50.3044 75.9873 54.4375 83.46 58.6543C83.2787 67.4752 83.2787 76.2928 83.46 85.1141Z" fill="url(#paint65_linear_150_9893)"/>
<path opacity="0.5" d="M36.4756 55.9969C37.6462 55.994 56.7288 45.7779 58.6139 44.2388C59.64 43.4011 52.9492 41.104 52.1984 41.0784C50.7276 41.0274 49.9856 41.8563 44.6912 44.6326C41.2552 46.4344 41.1808 46.308 37.8213 48.2498C36.3424 49.1049 35.8575 55.9987 36.4756 55.9969Z" fill="white"/>
<path opacity="0.5" d="M68.8629 103.146C69.5529 103.512 71.6556 102.142 76.5911 99.5385C81.4886 96.9548 82.8672 96.3442 83.4899 95.6087C84.2169 94.7496 86.2124 87.2161 84.6484 87.9609C80.2511 90.0547 76.625 92.4386 72.6386 94.74C68.7219 97.0011 61.8525 100.326 62.1761 100.719C62.9216 101.624 68.3282 102.862 68.8629 103.146Z" fill="url(#paint66_linear_150_9893)"/>
<path opacity="0.5" d="M53.5466 103.099C52.9766 103.388 50.9836 102.35 45.8195 99.6782C42.392 97.9045 41.864 97.5275 38.5149 95.6085C37.2001 94.8552 34.615 86.6086 36.143 87.1024C37.3542 87.494 42.1492 90.5893 46.3033 92.8746C50.1238 94.9762 59.2416 99.7904 59.3175 100.719C59.362 101.266 53.9486 102.895 53.5466 103.099Z" fill="white"/>
<path opacity="0.5" d="M38.1984 58.8233C38.1083 58.1451 36.1495 56.9097 36.1651 57.4911C36.4233 67.051 36.2389 84.0619 36.4126 86.3003C36.419 86.3839 38.0467 85.668 38.1998 84.8715C38.5135 83.2399 38.5192 74.4813 38.5135 70.2015C38.5082 65.9253 38.5135 61.1955 38.1984 58.8233Z" fill="url(#paint67_linear_150_9893)"/>
<path opacity="0.5" d="M83.7327 58.6141C83.3606 67.179 83.4596 82.6056 83.7344 85.2384C83.7604 85.4859 85.8168 86.6262 85.8061 86.2032C85.6837 81.3727 85.6509 75.9928 85.6327 71.1562C85.6156 66.4841 85.7303 58.7412 85.5153 57.3958C85.4853 57.2064 83.7626 57.9313 83.7327 58.6141Z" fill="url(#paint68_linear_150_9893)"/>
<path opacity="0.5" d="M60.9865 43.7759C61.3753 43.6602 61.2172 45.8675 60.7868 46.105C56.6804 48.3697 44.6788 54.8547 43.94 55.1416C42.5263 55.6906 41.533 54.4983 42.0859 54.1853C45.1438 52.4547 48.223 50.6461 51.3108 48.9098C54.2456 47.2596 60.2168 44.0048 60.9865 43.7759Z" fill="url(#paint69_linear_150_9893)"/>
<path opacity="0.5" d="M29.866 82.6058C30.1209 83.4584 35.3751 86.798 35.6816 85.6658C36.707 81.882 36.0092 76.0567 35.9836 71.2799C35.9601 66.9186 36.137 58.6638 35.8024 58.0557C35.2705 57.0891 29.9942 61.795 29.6446 62.9738C29.4968 63.4723 29.437 62.9115 29.521 68.5837C29.6072 74.4332 29.416 81.1005 29.866 82.6058Z" fill="url(#paint70_linear_150_9893)"/>
<path opacity="0.5" d="M86.3909 86.3195C86.5087 86.6158 91.1898 82.6051 91.8943 81.3647C92.2543 80.731 92.2087 76.1301 92.2265 70.7733C92.2447 65.3372 92.3757 64.8502 92.1126 64.0349C91.7858 63.0216 86.6088 56.9685 86.2389 58.5684C85.4011 62.1924 86.0794 67.3213 86.0303 72.0518C85.9818 76.662 85.8622 84.9905 86.3909 86.3195Z" fill="url(#paint71_linear_150_9893)"/>
<path d="M36.1577 86.5615L60.6298 100.718C60.6298 100.718 72.274 95.1033 85.8158 86.5615C85.8158 86.5615 68.6475 96.0336 60.6305 100.127C60.6305 100.127 54.9765 96.9891 36.1577 86.5615Z" fill="#FFDAC8"/>
<path d="M46.533 51.5578C45.1296 51.1494 44.0242 52.0103 43.431 52.6835C42.8383 53.3568 43.1889 53.7822 43.9522 53.6697C44.7156 53.5576 47.1244 51.7298 46.533 51.5578Z" fill="#AC3A45"/>
<path opacity="0.5" d="M46.5331 51.5577C45.5821 51.2092 44.4033 51.792 44.037 52.1114C43.6706 52.4311 44.4294 53.397 44.9314 53.2122C45.4334 53.0271 46.9664 51.7165 46.5331 51.5577Z" fill="url(#paint72_linear_150_9893)"/>
<path d="M43.7726 52.3359C43.7726 52.3359 42.2263 53.3147 42.4157 53.8334C42.6048 54.3521 44.4654 53.4788 44.4654 53.4788C44.4654 53.4788 43.4963 53.7675 43.2641 53.325C43.0316 52.8828 43.7726 52.3359 43.7726 52.3359Z" fill="#FFDAC8"/>
<path d="M85.4779 66.5989C85.2429 67.0603 85.087 69.2143 85.4348 69.3706C85.7823 69.5269 86.5535 68.8504 86.5072 68.431C86.4605 68.0116 85.6317 66.297 85.4779 66.5989Z" fill="#AC3A45"/>
<path d="M84.1572 62.6303C84.3309 63.4146 85.3626 65.4215 85.8881 64.7005C86.6137 63.7051 86.0697 59.8376 85.5514 59.6859C85.342 59.6251 83.9329 61.6174 84.1572 62.6303Z" fill="#AC3A45"/>
<path opacity="0.5" d="M85.2521 68.8597C85.4095 69.576 86.3928 68.1815 86.2049 67.6983C86.0172 67.2152 85.5729 66.3059 85.4779 66.5989C85.3828 66.8919 85.1663 68.4691 85.2521 68.8597Z" fill="url(#paint73_linear_150_9893)"/>
<path d="M85.3538 69.2842C85.3538 69.2842 85.7062 69.4302 86.1103 69.124C86.4275 68.8833 86.5479 68.5291 86.4881 68.334C86.4881 68.334 86.5952 68.8616 86.22 69.2105C85.6325 69.757 85.3538 69.2842 85.3538 69.2842Z" fill="#FFDAC8"/>
<path opacity="0.5" d="M84.3214 62.0403C84.8213 63.8881 86.1589 63.8009 86.2514 63.0493C86.344 62.2981 86.0196 59.5862 85.5511 59.6863C85.0829 59.7867 84.2121 61.6366 84.3214 62.0403Z" fill="url(#paint74_linear_150_9893)"/>
<path d="M84.1575 62.6309C84.1575 62.6309 84.8182 64.4865 85.4452 64.4388C86.0722 64.391 86.2128 63.7388 86.2128 63.7388C86.2128 63.7388 86.3879 65.6151 85.7421 65.4267C84.6242 65.1017 84.1575 62.6309 84.1575 62.6309Z" fill="#FFDAC8"/>
<path d="M41.492 46.8381C41.4724 47.3105 47.1222 46.7153 48.615 45.9559C49.7813 45.3624 50.1003 42.8976 49.5524 42.9724C47.2329 43.2892 41.5098 46.4077 41.492 46.8381Z" fill="#FFDAC8"/>
<path opacity="0.5" d="M42.5923 87.4062C44.486 89.0361 43.979 90.896 43.979 90.896L48.649 93.4808C48.649 93.4808 54.1396 94.1106 51.5659 92.4056L42.5923 87.4062Z" fill="white"/>
<path opacity="0.5" d="M33.4848 87.4055C33.0323 88.2518 19.5521 97.0847 19.885 95.7094C20.2179 94.3341 20.5084 88.2518 27.9838 83.2514C29.0088 82.566 34.2321 86.0074 33.4848 87.4055Z" fill="white"/>
<path opacity="0.5" d="M85.2902 48.5382C83.9594 49.2837 84.512 55.438 85.8061 55.2841C87.1003 55.1303 102.65 47.3733 101.518 46.9902C100.385 46.6071 93.1175 44.1534 85.2902 48.5382Z" fill="white"/>
<path opacity="0.5" d="M92.4972 82.0117C91.7548 82.0103 87.0421 86.6781 87.8464 87.4062C88.6507 88.1343 101.522 97.3407 101.868 95.9259C102.588 92.983 96.1112 82.0192 92.4972 82.0117Z" fill="white"/>
<path d="M24.8211 45.7743C24.3494 46.1955 27.5386 47.5769 28.1457 47.6577C28.7523 47.7385 31.054 46.4109 30.7657 46.104C30.4766 45.7975 25.5221 45.1488 24.8211 45.7743Z" fill="#FFDAC8"/>
<path d="M92.7784 46.1943C92.3063 46.6155 95.496 47.9969 96.1027 48.0781C96.7093 48.1589 99.011 46.8309 98.7223 46.5244C98.4339 46.2171 93.4794 45.5688 92.7784 46.1943Z" fill="#FFDAC8"/>
<path opacity="0.5" d="M33.5571 57.3402C31.5555 55.0186 19.8697 47.4961 19.6497 48.5378C19.4296 49.5796 20.2179 53.4385 21.7281 56.7777C23.238 60.1172 27.9301 63.4606 28.4695 63.1911C29.0085 62.9213 34.2221 58.1114 33.5571 57.3402Z" fill="url(#paint75_linear_150_9893)"/>
<path opacity="0.5" d="M86.5091 56.1441C86.2353 57.4051 92.4013 62.6917 93.4014 63.0285C94.0429 63.2447 100.062 58.4985 101.113 54.1842C102.316 49.2482 102.03 48.601 101.113 48.7231C100.196 48.8449 86.7672 54.9546 86.5091 56.1441Z" fill="url(#paint76_linear_150_9893)"/>
<path opacity="0.5" d="M33.9699 88.252C32.773 88.5817 19.9055 96.6364 20.5414 97.2306C21.1772 97.8244 26.7718 100.232 31.8128 99.1072C36.8537 97.9829 37.564 96.8956 37.5832 96.6264C37.6868 95.1998 34.7649 88.033 33.9699 88.252Z" fill="url(#paint77_linear_150_9893)"/>
<path opacity="0.5" d="M84.4369 97.0199C85.4071 97.3734 89.773 99.4804 94.48 98.9994C99.1867 98.5184 100.898 97.058 100.574 96.6802C100.25 96.3028 88.7633 87.6739 86.5093 88.2471C85.3825 88.5337 83.8018 96.7885 84.4369 97.0199Z" fill="url(#paint78_linear_150_9893)"/>
<path opacity="0.5" d="M59.5871 101.588C58.1961 101.807 51.6432 104.08 51.3359 104.986C51.0283 105.892 53.2513 113.921 59.1019 117.821C60.72 118.9 60.9336 110.703 61.0981 108.546C61.2622 106.388 61.3882 101.306 59.5871 101.588Z" fill="white"/>
<path opacity="0.5" d="M61.9056 102.128C61.4196 103.729 60.7684 118.626 61.6361 118.739C62.5037 118.851 67.6454 114.386 69.2942 110.433C71.043 106.241 70.5367 104.548 69.1343 103.901C67.7323 103.254 62.1776 101.233 61.9056 102.128Z" fill="url(#paint79_linear_150_9893)"/>
<path opacity="0.5" d="M51.5698 39.5687C52.4036 40.5577 59.695 43.182 60.1806 42.4272C60.6658 41.6721 60.72 25.4932 60.0727 25.547C59.4255 25.6008 55.4885 29.4839 53.1697 33.7983C50.8502 38.1126 51.0012 38.8944 51.5698 39.5687Z" fill="white"/>
<path opacity="0.5" d="M60.9864 42.5619C61.6362 43.6406 69.8874 40.0544 70.1569 39.4071C70.4264 38.7599 68.0265 28.3244 61.5279 25.0618C61.084 24.8386 60.3385 41.4856 60.9864 42.5619Z" fill="url(#paint80_linear_150_9893)"/>
<path opacity="0.5" d="M55.5647 102.399C55.5647 102.399 53.7639 105.62 51.1297 106.33C50.4066 104.487 50.6491 103.123 50.607 102.704C45.4393 99.9279 42.4922 98.372 37.3309 95.5858C36.0738 96.2152 32.5726 97.8266 28.8789 98.2698C29.2979 94.3931 28.0554 91.6912 28.0554 91.6912C25.9911 90.4245 22.9752 89.8484 21.4607 89.6284C21.7633 89.0509 22.1112 88.4685 22.5074 87.8906C24.9683 84.3087 28.7574 81.6972 29.3203 81.3206C29.4464 75.0495 29.4464 68.7785 29.3203 62.5075C28.9853 62.2842 27.2009 61.0691 25.3093 59.2295C25.0277 58.9561 24.7447 58.6695 24.463 58.3705C26.0228 57.505 27.2315 56.9257 27.6456 56.9417C29.2345 57.0051 35.994 67.0749 35.0719 71.0175C34.1772 74.8391 32.1144 77.4374 31.9866 77.5958C34.4264 75.6818 36.7239 74.6027 38.6457 74.001C38.6329 77.7044 38.5891 81.4096 38.5129 85.1144C43.1337 87.7222 47.7738 90.2981 52.4107 92.8786C52.8005 93.5596 53.0886 94.2005 53.2036 94.7392C53.7939 97.4976 52.2523 99.6348 52.2523 99.6348L55.5647 102.399Z" fill="url(#paint81_linear_150_9893)"/>
<path opacity="0.5" d="M93.796 91.6912C93.796 91.6912 92.5663 94.3607 92.9643 98.2001C89.3482 97.7358 85.9492 96.1807 84.6953 95.5562C79.5165 98.3521 76.5508 99.9175 71.3653 102.704C71.3201 103.149 71.1891 105.485 71.0271 106.33C68.0084 105.296 66.2866 102.398 66.2866 102.398L69.5984 99.6348C69.5984 99.6348 68.0564 97.4976 68.6471 94.7392C68.7571 94.2261 69.0223 93.6212 69.3848 92.9758C74.0814 90.3629 78.7799 87.7546 83.4588 85.1144C83.3844 81.4224 83.3406 77.7304 83.3278 74.0398C85.224 74.6483 87.4744 75.7224 89.864 77.5958C89.7362 77.4374 87.672 74.8391 86.7787 71.0175C85.8566 67.0746 92.6161 57.0047 94.205 56.9417C94.6223 56.9257 95.8438 57.5128 97.4182 58.3883C95.2956 60.6373 93.0726 62.166 92.6535 62.4477C92.5275 68.7187 92.5275 74.9897 92.6517 81.2622C93.163 81.6018 97.0024 84.2214 99.4906 87.829C99.8968 88.4179 100.251 89.015 100.558 89.6038C99.109 89.8064 95.9382 90.3761 93.796 91.6912Z" fill="url(#paint82_linear_150_9893)"/>
<path opacity="0.5" d="M36.2111 62.5802L38.5445 63.9847C38.5445 63.9847 53.5684 54.7512 61.5611 54.7512C69.8266 54.7512 83.2698 62.2192 83.2698 62.2192L85.8713 58.3228L85.7584 57.1565L60.9285 43.3926L36.1003 57.1565L36.2111 62.5802Z" fill="url(#paint83_linear_150_9893)"/>
<path d="M99.1826 53.5635C93.2103 54.559 88.995 65.4932 89.4752 69.0955C90.1225 73.9492 93.0597 77.4275 94.2605 77.5895C95.4614 77.7512 100.372 76.4983 102.419 72.3314C105.735 65.5772 102.095 53.0783 99.1826 53.5635Z" fill="url(#paint84_linear_150_9893)"/>
<path opacity="0.5" d="M93.1155 74.4623C92.841 75.059 96.2436 74.6093 98.4007 72.7366C99.8255 71.4998 101.96 68.5298 101.906 63.2987C101.852 58.0677 99.9106 53.9688 98.9401 53.9688C97.9692 53.9688 91.256 56.7781 89.9337 67.5052C89.6258 70.0048 91.282 73.977 92.0371 74.1386C92.7919 74.3003 91.3899 69.1771 95.3805 62.5974C95.3805 62.5974 96.5875 66.912 93.1155 74.4623Z" fill="white"/>
<path opacity="0.5" d="M92.3875 74.2291C92.7653 74.3266 94.3553 70.5317 94.9986 68.4472C95.9136 65.4812 95.5896 62.9374 95.3806 62.974C95.1716 63.0107 93.2623 66.562 92.8931 68.611C92.5243 70.6595 92.0667 74.1461 92.3875 74.2291Z" fill="url(#paint85_linear_150_9893)"/>
<path opacity="0.5" d="M95.448 73.7064C95.8393 75.0813 100.666 71.6738 101.579 66.8144C102.441 62.2302 98.0402 57.6542 98.0402 62.974C98.0406 68.0975 94.9738 72.0387 95.448 73.7064Z" fill="white"/>
<path opacity="0.5" d="M91.0933 71.6024C91.5248 72.2952 93.0988 67.2115 93.9454 64.8881C96.0484 59.1166 99.8376 51.4236 94.3545 56.9413C91.7313 59.5812 88.2212 66.9915 91.0933 71.6024Z" fill="white"/>
<path opacity="0.5" d="M93.2614 75.4103C93.5658 76.2263 94.4908 77.3773 94.923 77.3584C95.8002 77.3196 98.2387 76.6734 100.841 74.23C102.215 72.9398 102.378 71.3199 102.257 70.8955C102.135 70.4711 101.488 69.015 101.205 69.3792C100.922 69.7431 99.7895 72.4104 97.2411 73.68C94.6927 74.9496 93.0837 74.9335 93.2614 75.4103Z" fill="url(#paint86_linear_150_9893)"/>
<path d="M104.765 81.5266C103.737 80.1246 95.3809 80.6194 92.9966 82.1425C92.4455 82.4946 91.7911 83.0383 91.1257 83.6741C92.5488 81.4372 94.2609 77.5893 94.2609 77.5893C93.4605 76.1873 93.008 76.7267 93.008 76.7267C92.4971 79.9857 89.7707 85.1128 85.3563 90.2093C86.3874 88.2323 87.286 85.4439 87.2913 82.605C87.3017 77.0638 83.6285 74.1245 82.5441 74.2324C81.4596 74.3402 77.7862 79.7739 77.7862 84.3848C77.7862 88.9957 81.3162 92.3284 82.7015 92.9821C79.8864 95.6451 76.7508 97.8771 74.1177 99.5433C74.9344 97.9931 75.7401 95.2603 75.7878 93.9099C75.8576 91.9371 72.8716 87.8179 71.5287 88.1558C70.614 88.3858 68.3373 93.593 68.8685 95.7338C69.4947 98.2584 71.5304 99.6091 72.7584 100.382C70.086 101.989 68.2002 102.883 68.2002 102.883C67.445 104.501 69.1711 103.962 69.1711 103.962C69.1711 103.962 72.3828 102.375 76.4738 99.3959C77.192 100.767 79.6898 103.535 83.3106 103.804C87.2173 104.095 92.0521 101.324 92.2119 100.412C92.3718 99.5002 90.1128 96.203 85.4172 95.863C83.532 95.7263 81.6387 96.0567 80.0697 96.5662C81.6942 95.1837 83.3498 93.6194 84.9188 91.8812C85.7615 90.9481 86.5519 90.0071 87.2917 89.0736C87.2917 90.0719 93.0621 91.1802 98.1857 89.4297C101.509 88.2939 105.464 82.4818 104.765 81.5266Z" fill="url(#paint87_radial_150_9893)"/>
<path opacity="0.5" d="M83.2461 91.6649C82.1541 90.7346 79.1699 86.4057 79.6463 81.7147C80.0102 78.1281 81.7511 74.6822 82.7608 74.7082C83.7705 74.7341 87.0021 77.5044 86.927 81.8358C86.8519 86.1675 84.7428 90.3701 84.5811 90.6129C84.4195 90.8553 85.3092 87.2961 84.9856 84.6267C84.662 81.9572 83.287 79.773 83.287 79.773C83.287 79.773 83.6103 83.3727 83.6911 86.7301C83.7719 90.0874 83.8196 92.1537 83.2461 91.6649Z" fill="white"/>
<path opacity="0.5" d="M88.2214 88.2678C88.6259 87.0951 91.2954 83.4141 94.046 81.958C96.7967 80.5018 104.037 80.866 104.522 81.6343C105.007 82.403 100.437 86.6094 97.2819 87.5803C94.1272 88.5512 88.9965 88.1062 89.4384 87.8634C89.8802 87.6205 95.9269 86.3061 98.2931 83.94C98.7783 83.4547 93.3828 84.1333 90.9315 85.9219C88.4803 87.7106 88.2214 88.2678 88.2214 88.2678Z" fill="white"/>
<path opacity="0.5" d="M77.4858 98.7185C78.2053 99.7022 81.6851 102.503 85.6893 102.395C88.7507 102.313 91.7802 101.055 91.8218 100.198C91.8635 99.3409 89.7202 96.4282 86.0453 96.2189C82.3704 96.0099 78.677 97.5319 78.4609 97.6537C78.2452 97.7754 81.3169 97.2457 83.5581 97.6882C85.7996 98.1304 87.5634 99.4327 87.5634 99.4327C87.5634 99.4327 84.534 98.9322 81.6947 98.6523C78.8554 98.3725 77.1077 98.202 77.4858 98.7185Z" fill="white"/>
<path opacity="0.5" d="M73.5965 99.6347C74.2185 98.7724 75.6142 95.424 75.4938 93.322C75.3735 91.2201 72.2575 88.1088 71.5526 88.3295C70.8473 88.5502 69.8554 93.0742 70.46 95.0815C71.0645 97.0888 73.3972 99.1861 73.3837 98.8433C73.3701 98.5008 71.8474 94.9679 72.4865 92.5174C72.6175 92.0147 74.3061 94.8814 74.0857 97.0382C73.8657 99.1947 73.5965 99.6347 73.5965 99.6347Z" fill="white"/>
<path opacity="0.5" d="M89.2057 88.1364C88.9092 88.2681 87.5983 89.16 87.8037 89.4273C88.0088 89.6947 92.2772 90.7453 95.5968 89.929C98.9163 89.1126 98.9135 88.8 99.0484 88.3183C99.1833 87.8366 99.3682 87.3695 97.9661 87.6661C96.5641 87.9627 94.6269 88.5341 92.6848 88.3183C90.742 88.1026 89.9043 87.8263 89.2057 88.1364Z" fill="url(#paint88_linear_150_9893)"/>
<path opacity="0.5" d="M89.3537 87.3576C90.4321 87.5477 97.5733 84.1654 97.2208 84.0205C96.8684 83.8756 93.9561 84.2633 92.009 85.2844C90.0619 86.3059 89.0102 87.297 89.3537 87.3576Z" fill="url(#paint89_linear_150_9893)"/>
<path opacity="0.5" d="M83.2617 91.9688C82.9715 92.6021 82.1032 92.313 81.7998 92.1717C81.4965 92.0304 79.6235 90.4386 78.6597 88.3184C77.6486 86.0936 77.8462 83.2525 78.251 82.2817C78.6555 81.3108 79.5049 81.5333 79.444 81.8772C79.3835 82.2211 79.711 86.1271 80.9963 88.3921C82.2819 90.6572 83.3397 91.7986 83.2617 91.9688Z" fill="url(#paint90_linear_150_9893)"/>
<path opacity="0.5" d="M84.1361 82.2213C83.9492 84.857 84.2978 90.4494 84.4395 90.4323C84.5812 90.4149 85.1035 86.808 84.9247 85.0731C84.746 83.3378 84.1909 81.4505 84.1361 82.2213Z" fill="url(#paint91_linear_150_9893)"/>
<path opacity="0.5" d="M77.1994 98.7642C76.6002 99.1494 76.9032 99.593 77.1994 100.2C77.496 100.807 79.2622 102.95 82.397 103.517C85.5318 104.083 85.916 102.708 85.7543 102.627C85.5927 102.546 83.0553 102.339 81.0018 101.393C78.6758 100.321 77.4824 98.5823 77.1994 98.7642Z" fill="url(#paint92_linear_150_9893)"/>
<path opacity="0.5" d="M78.4935 97.7928C80.1031 98.4113 85.9451 98.8524 85.7845 98.6017C85.6243 98.3514 84.3704 97.7006 82.6857 97.5646C81.0014 97.429 78.2247 97.6896 78.4935 97.7928Z" fill="url(#paint93_linear_150_9893)"/>
<path opacity="0.5" d="M73.66 98.9256C73.1352 98.4489 72.5386 92.7169 72.8867 92.7977C73.2353 92.8789 74.0584 94.8484 74.0648 96.0108C74.0719 97.1733 73.8736 99.1197 73.66 98.9256Z" fill="url(#paint94_linear_150_9893)"/>
<path opacity="0.5" d="M69.9795 93.384C69.3817 93.4381 68.7921 94.5642 69.0492 95.7501C69.3062 96.9361 70.3604 98.9323 72.7501 100.179C73.2154 100.422 73.56 99.1245 73.3215 98.928C73.0829 98.7315 72.1234 98.0736 71.1931 96.5936C70.1233 94.8914 70.202 93.3637 69.9795 93.384Z" fill="url(#paint95_linear_150_9893)"/>
<path opacity="0.5" d="M82.3159 75.5266C83.8301 77.5143 83.5606 87.7999 83.2619 88.9036C82.9632 90.0072 79.8084 85.9624 79.8892 82.4029C79.97 78.8434 81.669 74.6771 82.3159 75.5266Z" fill="white"/>
<path d="M22.8176 53.5635C28.79 54.559 33.0053 65.4932 32.525 69.0955C31.8778 73.9492 28.9409 77.4275 27.7397 77.5895C26.5388 77.7512 21.6278 76.4983 19.5817 72.3314C16.265 65.5772 19.9053 53.0783 22.8176 53.5635Z" fill="url(#paint96_linear_150_9893)"/>
<path opacity="0.5" d="M28.8847 74.4623C29.1592 75.059 25.7566 74.6093 23.5995 72.7366C22.1747 71.4998 20.0399 68.5298 20.094 63.2987C20.1478 58.0677 22.0896 53.9688 23.0601 53.9688C24.031 53.9688 30.7442 56.7781 32.0665 67.5052C32.3744 70.0048 30.7182 73.977 29.963 74.1386C29.2079 74.3003 30.6103 69.1771 26.6193 62.5974C26.6193 62.5974 25.4127 66.912 28.8847 74.4623Z" fill="white"/>
<path opacity="0.5" d="M29.6128 74.2291C29.2354 74.3266 27.6447 70.5317 27.0017 68.4472C26.0867 65.4812 26.4107 62.9374 26.6197 62.974C26.8287 63.0107 28.7381 66.562 29.1073 68.611C29.4761 70.6595 29.9336 74.1461 29.6128 74.2291Z" fill="url(#paint97_linear_150_9893)"/>
<path opacity="0.5" d="M26.552 73.7064C26.1608 75.0813 21.3345 71.6738 20.4206 66.8144C19.5583 62.2302 23.9598 57.6542 23.9598 62.974C23.9598 68.0975 27.0266 72.0387 26.552 73.7064Z" fill="white"/>
<path opacity="0.5" d="M30.9067 71.6024C30.4752 72.2952 28.9012 67.2115 28.0546 64.8881C25.9512 59.1166 22.1624 51.4236 27.6455 56.9413C30.2687 59.5812 33.7788 66.9915 30.9067 71.6024Z" fill="white"/>
<path opacity="0.5" d="M28.7384 75.4103C28.434 76.2263 27.509 77.3773 27.0768 77.3584C26.1996 77.3196 23.7612 76.6734 21.159 74.23C19.7851 72.9398 19.622 71.3199 19.7434 70.8955C19.8648 70.4711 20.5121 69.015 20.7951 69.3792C21.0781 69.7431 22.2107 72.4104 24.7591 73.68C27.3068 74.9499 28.916 74.9335 28.7384 75.4103Z" fill="url(#paint98_linear_150_9893)"/>
<path d="M17.2356 81.5266C18.263 80.1246 26.6193 80.6194 29.0036 82.1425C29.5547 82.4946 30.2091 83.0383 30.8745 83.6741C29.4515 81.4372 27.7393 77.5893 27.7393 77.5893C28.5393 76.1873 28.9922 76.7267 28.9922 76.7267C29.5031 79.9857 32.2295 85.1128 36.6439 90.2093C35.6128 88.2323 34.7143 85.4439 34.7089 82.605C34.6986 77.0638 38.3717 74.1245 39.4561 74.2324C40.5406 74.3402 44.2141 79.7739 44.2141 84.3848C44.2141 88.9957 40.6841 92.3284 39.2988 92.9821C42.1139 95.6451 45.249 97.8771 47.8825 99.5433C47.0658 97.9931 46.2601 95.2603 46.2124 93.9099C46.1426 91.9371 49.1286 87.8179 50.4715 88.1558C51.3862 88.3858 53.663 93.593 53.1321 95.7338C52.5059 98.2584 50.4701 99.6091 49.2422 100.382C51.9145 101.989 53.8004 102.883 53.8004 102.883C54.5555 104.501 52.8295 103.962 52.8295 103.962C52.8295 103.962 49.6178 102.375 45.5267 99.3959C44.8086 100.767 42.3108 103.535 38.6903 103.804C34.7837 104.095 29.9488 101.324 29.789 100.412C29.6291 99.5002 31.8881 96.203 36.5837 95.863C38.4689 95.7263 40.3622 96.0567 41.9312 96.5662C40.3067 95.1837 38.6515 93.6194 37.0822 91.8812C36.2398 90.9481 35.4491 90.0071 34.7093 89.0736C34.7093 90.0719 28.9388 91.1802 23.8152 89.4297C20.491 88.2939 16.536 82.4818 17.2356 81.5266Z" fill="url(#paint99_radial_150_9893)"/>
<path opacity="0.5" d="M38.7538 91.6649C39.846 90.7346 42.8299 86.4057 42.3535 81.7147C41.9897 78.1281 40.2487 74.6822 39.239 74.7082C38.2294 74.7341 34.9977 77.5044 35.0728 81.8358C35.1479 86.1675 37.257 90.3701 37.4187 90.6129C37.5803 90.8553 36.6906 87.2961 37.0142 84.6267C37.3379 81.9572 38.7128 79.773 38.7128 79.773C38.7128 79.773 38.3895 83.3727 38.3087 86.7301C38.2283 90.0874 38.1806 92.1537 38.7538 91.6649Z" fill="white"/>
<path opacity="0.5" d="M33.7789 88.2678C33.3745 87.0951 30.705 83.4141 27.9544 81.958C25.2041 80.5018 17.9636 80.866 17.4783 81.6343C16.993 82.403 21.5634 86.6094 24.7185 87.5803C27.8732 88.5512 33.0039 88.1062 32.5621 87.8634C32.1202 87.6205 26.0735 86.3061 23.7074 83.94C23.2221 83.4547 28.6177 84.1333 31.0689 85.9219C33.5201 87.7106 33.7789 88.2678 33.7789 88.2678Z" fill="white"/>
<path opacity="0.5" d="M44.5149 98.7185C43.7953 99.7022 40.3156 102.503 36.3113 102.395C33.2499 102.313 30.2205 101.055 30.1788 100.198C30.1375 99.3409 32.2808 96.4282 35.9553 96.2189C39.6302 96.0099 43.3236 97.5319 43.5394 97.6537C43.7551 97.7754 40.6833 97.2457 38.4421 97.6882C36.2006 98.1304 34.4369 99.4327 34.4369 99.4327C34.4369 99.4327 37.4663 98.9322 40.3056 98.6523C43.1449 98.3725 44.8926 98.202 44.5149 98.7185Z" fill="white"/>
<path opacity="0.5" d="M48.4033 99.6347C47.7814 98.7724 46.3858 95.424 46.5061 93.322C46.6264 91.2201 49.7423 88.1088 50.4476 88.3295C51.1529 88.5502 52.1448 93.0742 51.5403 95.0815C50.9358 97.0888 48.6031 99.1861 48.6166 98.8433C48.6301 98.5004 50.1529 94.9679 49.5138 92.5174C49.3828 92.0147 47.6941 94.8814 47.9145 97.0382C48.1342 99.1947 48.4033 99.6347 48.4033 99.6347Z" fill="white"/>
<path opacity="0.5" d="M32.7946 88.1364C33.0911 88.2681 34.402 89.16 34.1966 89.4273C33.9915 89.6947 29.7232 90.7453 26.4036 89.929C23.084 89.1126 23.0868 88.8 22.9519 88.3183C22.8173 87.8366 22.6322 87.3695 24.0342 87.6661C25.4363 87.9627 27.3734 88.5341 29.3155 88.3183C31.2583 88.1026 32.0964 87.8263 32.7946 88.1364Z" fill="url(#paint100_linear_150_9893)"/>
<path opacity="0.5" d="M32.6463 87.3576C31.5679 87.5477 24.4268 84.1654 24.7792 84.0205C25.1317 83.8756 28.0443 84.2633 29.9911 85.2844C31.9382 86.3059 32.9898 87.297 32.6463 87.3576Z" fill="url(#paint101_linear_150_9893)"/>
<path opacity="0.5" d="M38.7384 91.9688C39.0289 92.6021 39.8973 92.313 40.2006 92.1717C40.5039 92.0304 42.377 90.4386 43.3408 88.3184C44.3519 86.0936 44.1539 83.2525 43.7495 82.2817C43.345 81.3108 42.4956 81.5333 42.5561 81.8772C42.6166 82.2211 42.289 86.1271 41.0038 88.3921C39.7182 90.6572 38.6605 91.7986 38.7384 91.9688Z" fill="url(#paint102_linear_150_9893)"/>
<path opacity="0.5" d="M37.864 82.2213C38.0509 84.857 37.7023 90.4494 37.5607 90.4323C37.419 90.4149 36.8967 86.808 37.075 85.0731C37.2541 83.3378 37.8095 81.4505 37.864 82.2213Z" fill="url(#paint103_linear_150_9893)"/>
<path opacity="0.5" d="M44.8006 98.7642C45.3997 99.1494 45.0971 99.593 44.8006 100.2C44.504 100.807 42.7377 102.95 39.6029 103.517C36.4681 104.083 36.084 102.708 36.2456 102.627C36.4076 102.546 38.9447 102.339 40.9982 101.393C43.3241 100.321 44.5175 98.5823 44.8006 98.7642Z" fill="url(#paint104_linear_150_9893)"/>
<path opacity="0.5" d="M43.5064 97.7928C41.8969 98.4113 36.0548 98.8524 36.2154 98.6017C36.3756 98.3514 37.6295 97.7006 39.3142 97.5646C40.9986 97.429 43.7752 97.6896 43.5064 97.7928Z" fill="url(#paint105_linear_150_9893)"/>
<path opacity="0.5" d="M48.34 98.9256C48.8648 98.4489 49.4615 92.7169 49.1133 92.7977C48.7648 92.8789 47.9416 94.8484 47.9352 96.0108C47.9285 97.1733 48.1264 99.1197 48.34 98.9256Z" fill="url(#paint106_linear_150_9893)"/>
<path opacity="0.5" d="M52.0206 93.384C52.6184 93.4381 53.2079 94.5642 52.9509 95.7501C52.6938 96.9361 51.6397 98.9323 49.25 100.179C48.7847 100.422 48.4401 99.1245 48.679 98.928C48.9175 98.7315 49.877 98.0736 50.8073 96.5936C51.8768 94.8914 51.7985 93.3637 52.0206 93.384Z" fill="url(#paint107_linear_150_9893)"/>
<path opacity="0.5" d="M39.6842 75.5266C38.1701 77.5143 38.4396 87.7999 38.7383 88.9036C39.037 90.0072 42.1921 85.9624 42.1113 82.4029C42.0301 78.8434 40.3311 74.6771 39.6842 75.5266Z" fill="white"/>
<path d="M56.3084 33.592C54.6653 36.9853 59.8426 43.9851 64.5422 38.6682C69.7476 32.7789 59.8601 26.2565 56.3084 33.592Z" fill="url(#paint108_linear_150_9893)"/>
<path d="M57.6631 33.568C56.6495 35.6041 57.4061 37.6734 59.2556 38.9397C61.3836 40.3969 63.9904 38.6738 64.8911 36.8894C66.1785 34.3395 63.7262 31.696 62.2046 31.2631C60.6829 30.8298 58.3869 32.114 57.6631 33.568Z" fill="url(#paint109_linear_150_9893)"/>
<path opacity="0.4" d="M57.3035 35.3588C57.2294 35.6792 57.3035 37.4676 58.6628 38.3975C60.0221 39.3274 60.9815 39.4855 61.0851 39.3321C61.1887 39.1786 61.1848 37.9439 61.1215 37.8805C61.0577 37.8168 59.9968 37.2995 59.4859 36.5949C58.975 35.89 58.7995 35.6436 58.6539 35.6301C58.5079 35.6162 57.354 35.1409 57.3035 35.3588Z" fill="#540E01"/>
<path d="M58.9348 35.5486C58.744 36.3739 61.1055 37.9108 61.3212 37.8802C62.3373 37.7349 63.5677 35.4881 63.5898 34.7579C63.6044 34.2644 61.7025 32.6726 61.0951 32.8635C60.4874 33.0543 59.0836 34.906 58.9348 35.5486Z" fill="white"/>
<path opacity="0.8" d="M61.3211 37.8801C61.0399 37.9979 61.1413 39.2768 61.2374 39.2882C62.3077 39.416 63.4081 38.8182 64.4801 37.4226C65.3495 36.2908 65.2776 34.7641 64.9049 34.2963C64.7682 34.1247 63.5951 34.5559 63.5897 34.7577C63.5566 35.9778 62.2461 37.492 61.3211 37.8801Z" fill="#540E01"/>
<path opacity="0.75" d="M57.2257 35.0764C57.2136 35.268 58.622 35.7298 58.7266 35.6116C58.8979 35.4189 61.0223 32.9172 61.0309 32.7626C61.0455 32.5131 61.107 31.2997 60.7475 31.2823C60.6271 31.2762 59.0919 31.733 58.1663 32.8399C57.241 33.9468 57.241 34.834 57.2257 35.0764Z" fill="white"/>
<path d="M57.6628 33.5686C57.6628 33.5686 58.3225 32.45 59.4793 31.8105C59.4793 31.8105 60.1052 32.001 59.6153 32.7903C59.1254 33.5793 57.6628 33.5686 57.6628 33.5686Z" fill="white"/>
<path d="M60.6084 37.502C60.565 37.5711 61.0178 38.4558 61.1421 38.4309C61.2667 38.406 61.7427 37.7121 61.6839 37.7164C61.6252 37.721 60.7031 37.3511 60.6084 37.502Z" fill="white"/>
<path d="M63.3945 34.3541C63.2119 34.5774 63.3728 35.3517 63.4764 35.3774C63.5803 35.403 64.0489 34.524 63.9916 34.4691C63.9342 34.4143 63.5625 34.1487 63.3945 34.3541Z" fill="white"/>
<path d="M59.5476 40.3362C59.5476 40.3362 62.1106 41.1223 64.5419 38.6682C66.7728 36.4163 65.8571 33.9095 65.7581 33.6621C65.7581 33.6621 67.414 36.6228 64.5152 39.3315C62.0227 41.6602 59.5476 40.3362 59.5476 40.3362Z" fill="#FFDAC8"/>
<path opacity="0.5" d="M58.6608 39.8749C57.2748 38.1158 56.1099 35.0194 58.5159 32.5301C60.9219 30.0411 63.9648 31.8718 65.0201 32.3535C65.0201 32.3535 61.3854 27.3841 57.1858 30.3423C55.1326 31.7885 54.9236 34.1991 55.5448 35.8753C56.4495 38.3159 58.6608 39.8749 58.6608 39.8749Z" fill="url(#paint110_linear_150_9893)"/>
<path d="M56.3081 108.284C54.6651 111.678 59.8424 118.677 64.5419 113.361C69.7474 107.472 59.8598 100.949 56.3081 108.284Z" fill="url(#paint111_linear_150_9893)"/>
<path d="M57.6629 108.26C56.6492 110.296 57.4058 112.365 59.2557 113.631C61.3837 115.089 63.9905 113.365 64.8912 111.581C66.1786 109.031 63.7263 106.387 62.2047 105.954C60.6826 105.521 58.3867 106.806 57.6629 108.26Z" fill="url(#paint112_linear_150_9893)"/>
<path opacity="0.4" d="M57.3035 110.049C57.2294 110.37 57.3035 112.158 58.6628 113.088C60.0221 114.018 60.9815 114.176 61.0851 114.023C61.1887 113.869 61.1848 112.634 61.1215 112.571C61.0577 112.507 59.9968 111.99 59.4859 111.285C58.975 110.58 58.7995 110.334 58.6539 110.32C58.5079 110.307 57.354 109.831 57.3035 110.049Z" fill="#540E01"/>
<path d="M58.9348 110.239C58.744 111.064 61.1055 112.601 61.3212 112.571C62.3373 112.425 63.5677 110.178 63.5898 109.448C63.6044 108.955 61.7025 107.363 61.0951 107.554C60.4874 107.745 59.0836 109.596 58.9348 110.239Z" fill="white"/>
<path opacity="0.8" d="M61.3209 112.571C61.0396 112.689 61.1411 113.968 61.2372 113.98C62.3074 114.107 63.4079 113.51 64.4799 112.114C65.3493 110.982 65.2774 109.456 64.9046 108.988C64.7679 108.816 63.5948 109.247 63.5895 109.449C63.5564 110.669 62.2459 112.183 61.3209 112.571Z" fill="#540E01"/>
<path opacity="0.75" d="M57.2254 109.767C57.2133 109.959 58.6217 110.421 58.7264 110.303C58.8976 110.11 61.0221 107.608 61.0306 107.454C61.0452 107.204 61.1068 105.991 60.7472 105.974C60.6269 105.968 59.0917 106.424 58.166 107.531C57.2407 108.638 57.2407 109.525 57.2254 109.767Z" fill="white"/>
<path d="M57.6628 108.259C57.6628 108.259 58.3225 107.141 59.4793 106.501C59.4793 106.501 60.1052 106.691 59.6153 107.481C59.1254 108.27 57.6628 108.259 57.6628 108.259Z" fill="white"/>
<path d="M60.6084 112.193C60.565 112.262 61.0178 113.147 61.1421 113.121C61.2667 113.097 61.7427 112.403 61.6839 112.407C61.6252 112.412 60.7031 112.041 60.6084 112.193Z" fill="white"/>
<path d="M63.3943 109.046C63.2116 109.269 63.3725 110.043 63.4761 110.069C63.5801 110.094 64.0486 109.215 63.9913 109.161C63.934 109.106 63.5623 108.84 63.3943 109.046Z" fill="white"/>
<path d="M59.5474 115.028C59.5474 115.028 62.1104 115.814 64.5417 113.36C66.7725 111.108 65.8568 108.601 65.7579 108.354C65.7579 108.354 67.4137 111.314 64.515 114.023C62.0225 116.352 59.5474 115.028 59.5474 115.028Z" fill="#FFDAC8"/>
<path opacity="0.5" d="M58.6605 114.566C57.2745 112.807 56.1096 109.71 58.5157 107.221C60.9217 104.732 63.9646 106.563 65.0198 107.045C65.0198 107.045 61.3852 102.076 57.1855 105.034C55.1323 106.48 54.9233 108.891 55.5446 110.567C56.4492 113.007 58.6605 114.566 58.6605 114.566Z" fill="url(#paint113_linear_150_9893)"/>
<defs>
<linearGradient id="paint0_linear_150_9893" x1="61.0252" y1="13.4481" x2="61.0252" y2="43.9815" gradientUnits="userSpaceOnUse">
<stop stop-color="#DD5962"/>
<stop offset="0.494" stop-color="#DB5948"/>
<stop offset="1" stop-color="#BF454F"/>
</linearGradient>
<linearGradient id="paint1_linear_150_9893" x1="45.2775" y1="24.1733" x2="76.7755" y2="24.1733" gradientUnits="userSpaceOnUse">
<stop stop-color="#E55F43"/>
<stop offset="0.5238" stop-color="#E05B67"/>
<stop offset="1" stop-color="#E35E53"/>
</linearGradient>
<linearGradient id="paint2_linear_150_9893" x1="46.6747" y1="42.3388" x2="75.3778" y2="42.3388" gradientUnits="userSpaceOnUse">
<stop stop-color="#E45F5E"/>
<stop offset="1" stop-color="#D7555F"/>
</linearGradient>
<linearGradient id="paint3_linear_150_9893" x1="48.5872" y1="22.3616" x2="76.3718" y2="22.3616" gradientUnits="userSpaceOnUse">
<stop stop-color="#E45F5E"/>
<stop offset="1" stop-color="#D7555F"/>
</linearGradient>
<linearGradient id="paint4_linear_150_9893" x1="67.0029" y1="19.1131" x2="76.7748" y2="19.1131" gradientUnits="userSpaceOnUse">
<stop stop-color="#DB5948"/>
<stop offset="1" stop-color="#BF454F"/>
</linearGradient>
<linearGradient id="paint5_linear_150_9893" x1="45.2768" y1="19.1116" x2="55.0898" y2="19.1116" gradientUnits="userSpaceOnUse">
<stop stop-color="#DB5948"/>
<stop offset="1" stop-color="#BF454F"/>
</linearGradient>
<radialGradient id="paint6_radial_150_9893" cx="0" cy="0" r="1" gradientUnits="userSpaceOnUse" gradientTransform="translate(58.8478 1.22006) scale(5.57682 5.57681)">
<stop stop-color="#E55F43"/>
<stop offset="1" stop-color="#E05B67"/>
</radialGradient>
<radialGradient id="paint7_radial_150_9893" cx="0" cy="0" r="1" gradientUnits="userSpaceOnUse" gradientTransform="translate(44.1888 14.6483) scale(2.61002 2.61002)">
<stop stop-color="#E55F43"/>
<stop offset="1" stop-color="#E05B67"/>
</radialGradient>
<radialGradient id="paint8_radial_150_9893" cx="0" cy="0" r="1" gradientUnits="userSpaceOnUse" gradientTransform="translate(75.8131 14.6476) scale(2.61006 2.61006)">
<stop stop-color="#E55F43"/>
<stop offset="1" stop-color="#E05B67"/>
</radialGradient>
<linearGradient id="paint9_linear_150_9893" x1="46.3509" y1="21.9157" x2="55.3916" y2="21.9157" gradientUnits="userSpaceOnUse">
<stop stop-color="#E45F5E"/>
<stop offset="1" stop-color="#D7555F"/>
</linearGradient>
<radialGradient id="paint10_radial_150_9893" cx="0" cy="0" r="1" gradientUnits="userSpaceOnUse" gradientTransform="translate(19.3286 51.4134) scale(22.251 22.251)">
<stop stop-color="#E05B67"/>
<stop offset="1" stop-color="#E55F43"/>
</radialGradient>
<linearGradient id="paint11_linear_150_9893" x1="0.00130741" y1="51.4135" x2="38.657" y2="51.4135" gradientUnits="userSpaceOnUse">
<stop stop-color="#D7555F"/>
<stop offset="1" stop-color="white"/>
</linearGradient>
<linearGradient id="paint12_linear_150_9893" x1="2.69663" y1="38.7187" x2="14.4268" y2="38.7187" gradientUnits="userSpaceOnUse">
<stop stop-color="#E45F5E"/>
<stop offset="1" stop-color="#D7555F"/>
</linearGradient>
<linearGradient id="paint13_linear_150_9893" x1="4.27556" y1="54.3581" x2="12.4772" y2="54.3581" gradientUnits="userSpaceOnUse">
<stop stop-color="#E45F5E"/>
<stop offset="1" stop-color="#D7555F"/>
</linearGradient>
<linearGradient id="paint14_linear_150_9893" x1="11.1803" y1="67.6868" x2="18.3156" y2="67.6868" gradientUnits="userSpaceOnUse">
<stop stop-color="#E45F5E"/>
<stop offset="1" stop-color="#D7555F"/>
</linearGradient>
<radialGradient id="paint15_radial_150_9893" cx="0" cy="0" r="1" gradientUnits="userSpaceOnUse" gradientTransform="translate(102.671 51.4134) rotate(180) scale(22.251 22.251)">
<stop stop-color="#E05B67"/>
<stop offset="1" stop-color="#E55F43"/>
</radialGradient>
<linearGradient id="paint16_linear_150_9893" x1="121.999" y1="51.4135" x2="83.3429" y2="51.4135" gradientUnits="userSpaceOnUse">
<stop stop-color="#D7555F"/>
<stop offset="1" stop-color="white"/>
</linearGradient>
<linearGradient id="paint17_linear_150_9893" x1="119.303" y1="38.7187" x2="107.573" y2="38.7187" gradientUnits="userSpaceOnUse">
<stop stop-color="#E45F5E"/>
<stop offset="1" stop-color="#D7555F"/>
</linearGradient>
<linearGradient id="paint18_linear_150_9893" x1="117.724" y1="54.3581" x2="109.522" y2="54.3581" gradientUnits="userSpaceOnUse">
<stop stop-color="#E45F5E"/>
<stop offset="1" stop-color="#D7555F"/>
</linearGradient>
<linearGradient id="paint19_linear_150_9893" x1="110.82" y1="67.6868" x2="103.684" y2="67.6868" gradientUnits="userSpaceOnUse">
<stop stop-color="#E45F5E"/>
<stop offset="1" stop-color="#D7555F"/>
</linearGradient>
<radialGradient id="paint20_radial_150_9893" cx="0" cy="0" r="1" gradientUnits="userSpaceOnUse" gradientTransform="translate(84.5472 115.193) scale(13.9425 13.9425)">
<stop stop-color="#D7555F"/>
<stop offset="1" stop-color="#DC596D"/>
</radialGradient>
<linearGradient id="paint21_linear_150_9893" x1="70.1369" y1="115.08" x2="72.1058" y2="108.013" gradientUnits="userSpaceOnUse">
<stop stop-color="#D7555F"/>
<stop offset="1" stop-color="white"/>
</linearGradient>
<radialGradient id="paint22_radial_150_9893" cx="0" cy="0" r="1" gradientUnits="userSpaceOnUse" gradientTransform="translate(37.4528 115.193) scale(13.9425 13.9425)">
<stop stop-color="#D7555F"/>
<stop offset="1" stop-color="#DC596D"/>
</radialGradient>
<linearGradient id="paint23_linear_150_9893" x1="51.8631" y1="115.08" x2="49.8942" y2="108.013" gradientUnits="userSpaceOnUse">
<stop stop-color="#D7555F"/>
<stop offset="1" stop-color="white"/>
</linearGradient>
<linearGradient id="paint24_linear_150_9893" x1="60.9997" y1="91.8057" x2="60.9997" y2="57.9638" gradientUnits="userSpaceOnUse">
<stop stop-color="#D35234"/>
<stop offset="0.504" stop-color="#DD5962"/>
<stop offset="1" stop-color="#E05B43"/>
</linearGradient>
<linearGradient id="paint25_linear_150_9893" x1="62.0047" y1="60.3583" x2="73.6599" y2="60.3583" gradientUnits="userSpaceOnUse">
<stop stop-color="#E05B67"/>
<stop offset="1" stop-color="#E55F43"/>
</linearGradient>
<linearGradient id="paint26_linear_150_9893" x1="73.5143" y1="58.5032" x2="59.986" y2="58.8676" gradientUnits="userSpaceOnUse">
<stop stop-color="#D1AF85"/>
<stop offset="1" stop-color="#030000"/>
</linearGradient>
<linearGradient id="paint27_linear_150_9893" x1="53.7609" y1="67.7194" x2="53.3408" y2="57.6368" gradientUnits="userSpaceOnUse">
<stop stop-color="#E05B67"/>
<stop offset="1" stop-color="#E55F43"/>
</linearGradient>
<linearGradient id="paint28_linear_150_9893" x1="51.747" y1="55.9486" x2="49.1359" y2="69.2277" gradientUnits="userSpaceOnUse">
<stop stop-color="white"/>
<stop offset="0.4444" stop-color="#E15E52"/>
<stop offset="1" stop-color="#D15042"/>
</linearGradient>
<linearGradient id="paint29_linear_150_9893" x1="44.384" y1="74.9984" x2="48.6588" y2="83.0816" gradientUnits="userSpaceOnUse">
<stop stop-color="#DD5962"/>
<stop offset="0.494" stop-color="#DB5948"/>
<stop offset="1" stop-color="#BF454F"/>
</linearGradient>
<linearGradient id="paint30_linear_150_9893" x1="42.2204" y1="75.4524" x2="53.8832" y2="82.317" gradientUnits="userSpaceOnUse">
<stop stop-color="white"/>
<stop offset="0.4444" stop-color="#E15E52"/>
<stop offset="1" stop-color="#D15042"/>
</linearGradient>
<linearGradient id="paint31_linear_150_9893" x1="54.5946" y1="87.6765" x2="66.2363" y2="87.6765" gradientUnits="userSpaceOnUse">
<stop stop-color="#DD5962"/>
<stop offset="0.494" stop-color="#DB5948"/>
<stop offset="1" stop-color="#BF454F"/>
</linearGradient>
<linearGradient id="paint32_linear_150_9893" x1="62.8893" y1="93.7424" x2="63.2393" y2="84.5695" gradientUnits="userSpaceOnUse">
<stop stop-color="white"/>
<stop offset="0.4444" stop-color="#E15E52"/>
<stop offset="1" stop-color="#D15042"/>
</linearGradient>
<linearGradient id="paint33_linear_150_9893" x1="68.3172" y1="75.0546" x2="81.5021" y2="75.0546" gradientUnits="userSpaceOnUse">
<stop stop-color="#DD5962"/>
<stop offset="0.494" stop-color="#DB5948"/>
<stop offset="1" stop-color="#BF454F"/>
</linearGradient>
<linearGradient id="paint34_linear_150_9893" x1="76.9611" y1="80.5345" x2="73.3177" y2="67.5012" gradientUnits="userSpaceOnUse">
<stop stop-color="#D1AF85"/>
<stop offset="1" stop-color="#030000"/>
</linearGradient>
<linearGradient id="paint35_linear_150_9893" x1="60.638" y1="134.131" x2="60.638" y2="4.59383" gradientUnits="userSpaceOnUse">
<stop stop-color="#E05B67"/>
<stop offset="1" stop-color="#E55F43"/>
</linearGradient>
<linearGradient id="paint36_linear_150_9893" x1="40.3468" y1="70.1264" x2="60.9281" y2="70.1264" gradientUnits="userSpaceOnUse">
<stop stop-color="#E05B67"/>
<stop offset="1" stop-color="#E55F43"/>
</linearGradient>
<linearGradient id="paint37_linear_150_9893" x1="60.9279" y1="70.1264" x2="80.7855" y2="70.1264" gradientUnits="userSpaceOnUse">
<stop stop-color="#E05B67"/>
<stop offset="1" stop-color="#E55F43"/>
</linearGradient>
<linearGradient id="paint38_linear_150_9893" x1="62.5752" y1="72.7187" x2="49.2852" y2="93.5863" gradientUnits="userSpaceOnUse">
<stop stop-color="white"/>
<stop offset="0.4444" stop-color="#E15E52"/>
<stop offset="1" stop-color="#D15042"/>
</linearGradient>
<linearGradient id="paint39_linear_150_9893" x1="69.2239" y1="79.7745" x2="61.5285" y2="79.7745" gradientUnits="userSpaceOnUse">
<stop stop-color="white"/>
<stop offset="0.4444" stop-color="#E15E52"/>
<stop offset="1" stop-color="#D15042"/>
</linearGradient>
<linearGradient id="paint40_linear_150_9893" x1="63.762" y1="51.1956" x2="63.762" y2="73.5983" gradientUnits="userSpaceOnUse">
<stop stop-color="#F3846D"/>
<stop offset="1" stop-color="#030000"/>
</linearGradient>
<linearGradient id="paint41_linear_150_9893" x1="75.9146" y1="73.653" x2="65.8889" y2="62.2283" gradientUnits="userSpaceOnUse">
<stop stop-color="#FFD8E5"/>
<stop offset="1" stop-color="#030000"/>
</linearGradient>
<linearGradient id="paint42_linear_150_9893" x1="56.9213" y1="68.4082" x2="82.8018" y2="62.6958" gradientUnits="userSpaceOnUse">
<stop stop-color="#F3846D"/>
<stop offset="1" stop-color="#030000"/>
</linearGradient>
<linearGradient id="paint43_linear_150_9893" x1="50.6374" y1="51.1955" x2="50.6374" y2="73.5982" gradientUnits="userSpaceOnUse">
<stop stop-color="#F3846D"/>
<stop offset="1" stop-color="#030000"/>
</linearGradient>
<linearGradient id="paint44_linear_150_9893" x1="50.6377" y1="80.44" x2="50.6377" y2="67.5554" gradientUnits="userSpaceOnUse">
<stop stop-color="white"/>
<stop offset="0.4444" stop-color="#E15E52"/>
<stop offset="1" stop-color="#D15042"/>
</linearGradient>
<linearGradient id="paint45_linear_150_9893" x1="70.8572" y1="78.9032" x2="70.8572" y2="66.579" gradientUnits="userSpaceOnUse">
<stop stop-color="white"/>
<stop offset="0.4444" stop-color="#E15E52"/>
<stop offset="1" stop-color="#D15042"/>
</linearGradient>
<linearGradient id="paint46_linear_150_9893" x1="60.6379" y1="102.374" x2="60.6379" y2="70.5447" gradientUnits="userSpaceOnUse">
<stop stop-color="white"/>
<stop offset="0.4444" stop-color="#E15E52"/>
<stop offset="1" stop-color="#D15042"/>
</linearGradient>
<linearGradient id="paint47_linear_150_9893" x1="48.5662" y1="55.5643" x2="53.2036" y2="66.1347" gradientUnits="userSpaceOnUse">
<stop stop-color="white"/>
<stop offset="0.4444" stop-color="#E15E52"/>
<stop offset="1" stop-color="#D15042"/>
</linearGradient>
<linearGradient id="paint48_linear_150_9893" x1="70.7898" y1="56.5518" x2="70.7898" y2="63.6467" gradientUnits="userSpaceOnUse">
<stop stop-color="white"/>
<stop offset="0.4444" stop-color="#E15E52"/>
<stop offset="1" stop-color="#D15042"/>
</linearGradient>
<linearGradient id="paint49_linear_150_9893" x1="59.0994" y1="82.8873" x2="59.0994" y2="89.3288" gradientUnits="userSpaceOnUse">
<stop stop-color="white"/>
<stop offset="0.4444" stop-color="#E15E52"/>
<stop offset="1" stop-color="#D15042"/>
</linearGradient>
<linearGradient id="paint50_linear_150_9893" x1="39.43" y1="79.9575" x2="81.7169" y2="79.9575" gradientUnits="userSpaceOnUse">
<stop stop-color="#E15E52"/>
<stop offset="1" stop-color="#D15042"/>
</linearGradient>
<linearGradient id="paint51_linear_150_9893" x1="61.0493" y1="79.3717" x2="61.0493" y2="71.4686" gradientUnits="userSpaceOnUse">
<stop stop-color="white"/>
<stop offset="0.4444" stop-color="#E15E52"/>
<stop offset="1" stop-color="#D15042"/>
</linearGradient>
<linearGradient id="paint52_linear_150_9893" x1="60.7381" y1="75.5487" x2="60.7381" y2="65.8567" gradientUnits="userSpaceOnUse">
<stop stop-color="#E05B67"/>
<stop offset="1" stop-color="#E55F43"/>
</linearGradient>
<linearGradient id="paint53_linear_150_9893" x1="55.4141" y1="72.8075" x2="66.0612" y2="72.8075" gradientUnits="userSpaceOnUse">
<stop stop-color="#D7545E"/>
<stop offset="1" stop-color="#BF454F"/>
</linearGradient>
<linearGradient id="paint54_linear_150_9893" x1="63.4039" y1="66.9993" x2="65.6313" y2="66.9993" gradientUnits="userSpaceOnUse">
<stop stop-color="#D1AF85"/>
<stop offset="1" stop-color="white"/>
</linearGradient>
<linearGradient id="paint55_linear_150_9893" x1="58.3148" y1="67.3959" x2="63.8489" y2="73.3618" gradientUnits="userSpaceOnUse">
<stop stop-color="#D7545E"/>
<stop offset="1" stop-color="#BF454F"/>
</linearGradient>
<linearGradient id="paint56_linear_150_9893" x1="63.2858" y1="72.4121" x2="58.3678" y2="67.4942" gradientUnits="userSpaceOnUse">
<stop stop-color="#B88313"/>
<stop offset="1" stop-color="#E2A11B"/>
</linearGradient>
<linearGradient id="paint57_linear_150_9893" x1="56.2727" y1="71.7763" x2="62.5637" y2="65.4853" gradientUnits="userSpaceOnUse">
<stop stop-color="white"/>
<stop offset="0.4444" stop-color="#E15E52"/>
<stop offset="1" stop-color="#962E32"/>
</linearGradient>
<linearGradient id="paint58_linear_150_9893" x1="26.6402" y1="66.5642" x2="26.6402" y2="46.9908" gradientUnits="userSpaceOnUse">
<stop stop-color="#DD5962"/>
<stop offset="0.494" stop-color="#DB5948"/>
<stop offset="1" stop-color="#BF454F"/>
</linearGradient>
<linearGradient id="paint59_linear_150_9893" x1="60.9645" y1="44.9885" x2="60.9645" y2="26.5812" gradientUnits="userSpaceOnUse">
<stop stop-color="#DD5962"/>
<stop offset="0.494" stop-color="#DB5948"/>
<stop offset="1" stop-color="#BF454F"/>
</linearGradient>
<linearGradient id="paint60_linear_150_9893" x1="30.1047" y1="99.7226" x2="30.1047" y2="94.7395" gradientUnits="userSpaceOnUse">
<stop stop-color="#DD5962"/>
<stop offset="0.494" stop-color="#DB5948"/>
<stop offset="1" stop-color="#BF454F"/>
</linearGradient>
<linearGradient id="paint61_linear_150_9893" x1="95.3592" y1="66.5627" x2="95.3592" y2="46.9894" gradientUnits="userSpaceOnUse">
<stop stop-color="#DD5962"/>
<stop offset="0.494" stop-color="#DB5948"/>
<stop offset="1" stop-color="#BF454F"/>
</linearGradient>
<linearGradient id="paint62_linear_150_9893" x1="91.8946" y1="99.7226" x2="91.8946" y2="94.7395" gradientUnits="userSpaceOnUse">
<stop stop-color="#DD5962"/>
<stop offset="0.494" stop-color="#DB5948"/>
<stop offset="1" stop-color="#BF454F"/>
</linearGradient>
<linearGradient id="paint63_linear_150_9893" x1="60.9861" y1="119.709" x2="60.9861" y2="102.704" gradientUnits="userSpaceOnUse">
<stop stop-color="#DD5962"/>
<stop offset="0.494" stop-color="#DB5948"/>
<stop offset="1" stop-color="#BF454F"/>
</linearGradient>
<linearGradient id="paint64_linear_150_9893" x1="60.9865" y1="119.736" x2="60.9865" y2="28.5893" gradientUnits="userSpaceOnUse">
<stop stop-color="#E05B67"/>
<stop offset="1" stop-color="#E55F43"/>
</linearGradient>
<linearGradient id="paint65_linear_150_9893" x1="60.9867" y1="100.326" x2="60.9867" y2="43.4424" gradientUnits="userSpaceOnUse">
<stop stop-color="#DD5962"/>
<stop offset="0.494" stop-color="#DB5948"/>
<stop offset="1" stop-color="#BF454F"/>
</linearGradient>
<linearGradient id="paint66_linear_150_9893" x1="63.0135" y1="95.5567" x2="75.1034" y2="95.5567" gradientUnits="userSpaceOnUse">
<stop stop-color="#E45F5E"/>
<stop offset="1" stop-color="#D7555F"/>
</linearGradient>
<linearGradient id="paint67_linear_150_9893" x1="36.1652" y1="71.8236" x2="38.5147" y2="71.8236" gradientUnits="userSpaceOnUse">
<stop stop-color="#E45F5E"/>
<stop offset="1" stop-color="#D7555F"/>
</linearGradient>
<linearGradient id="paint68_linear_150_9893" x1="83.4897" y1="71.8309" x2="85.8063" y2="71.8309" gradientUnits="userSpaceOnUse">
<stop stop-color="#E45F5E"/>
<stop offset="1" stop-color="#D7555F"/>
</linearGradient>
<linearGradient id="paint69_linear_150_9893" x1="41.9307" y1="49.5279" x2="61.2083" y2="49.5279" gradientUnits="userSpaceOnUse">
<stop stop-color="#E45F5E"/>
<stop offset="1" stop-color="#D7555F"/>
</linearGradient>
<linearGradient id="paint70_linear_150_9893" x1="32.8608" y1="98.0613" x2="32.8608" y2="41.8501" gradientUnits="userSpaceOnUse">
<stop stop-color="#D7555F"/>
<stop offset="1" stop-color="white"/>
</linearGradient>
<linearGradient id="paint71_linear_150_9893" x1="89.0462" y1="98.5264" x2="89.0462" y2="42.1885" gradientUnits="userSpaceOnUse">
<stop stop-color="#E45F5E"/>
<stop offset="1" stop-color="#D7555F"/>
</linearGradient>
<linearGradient id="paint72_linear_150_9893" x1="45.0141" y1="51.5498" x2="45.6753" y2="52.837" gradientUnits="userSpaceOnUse">
<stop stop-color="#E45F5E"/>
<stop offset="1" stop-color="#D7555F"/>
</linearGradient>
<linearGradient id="paint73_linear_150_9893" x1="85.2858" y1="67.783" x2="86.2285" y2="67.8728" gradientUnits="userSpaceOnUse">
<stop stop-color="#E45F5E"/>
<stop offset="1" stop-color="#D7555F"/>
</linearGradient>
<linearGradient id="paint74_linear_150_9893" x1="84.2911" y1="61.7344" x2="86.1943" y2="61.5684" gradientUnits="userSpaceOnUse">
<stop stop-color="#E45F5E"/>
<stop offset="1" stop-color="#D7555F"/>
</linearGradient>
<linearGradient id="paint75_linear_150_9893" x1="33.6155" y1="55.8228" x2="19.6132" y2="55.8228" gradientUnits="userSpaceOnUse">
<stop stop-color="#D7555F"/>
<stop offset="1" stop-color="white"/>
</linearGradient>
<linearGradient id="paint76_linear_150_9893" x1="86.5004" y1="55.8728" x2="101.912" y2="55.8728" gradientUnits="userSpaceOnUse">
<stop stop-color="#D7555F"/>
<stop offset="1" stop-color="white"/>
</linearGradient>
<linearGradient id="paint77_linear_150_9893" x1="37.586" y1="93.8248" x2="20.5186" y2="93.8248" gradientUnits="userSpaceOnUse">
<stop stop-color="#D7555F"/>
<stop offset="1" stop-color="white"/>
</linearGradient>
<linearGradient id="paint78_linear_150_9893" x1="84.2912" y1="93.6452" x2="100.612" y2="93.6452" gradientUnits="userSpaceOnUse">
<stop stop-color="#D7555F"/>
<stop offset="1" stop-color="white"/>
</linearGradient>
<linearGradient id="paint79_linear_150_9893" x1="70.409" y1="110.322" x2="61.211" y2="110.322" gradientUnits="userSpaceOnUse">
<stop stop-color="#D7555F"/>
<stop offset="1" stop-color="white"/>
</linearGradient>
<linearGradient id="paint80_linear_150_9893" x1="70.1775" y1="33.9112" x2="60.7327" y2="33.9112" gradientUnits="userSpaceOnUse">
<stop stop-color="#D7555F"/>
<stop offset="1" stop-color="white"/>
</linearGradient>
<linearGradient id="paint81_linear_150_9893" x1="21.4609" y1="81.6355" x2="55.5648" y2="81.6355" gradientUnits="userSpaceOnUse">
<stop offset="0.1865" stop-color="#E15E52"/>
<stop offset="1" stop-color="#962E32"/>
</linearGradient>
<linearGradient id="paint82_linear_150_9893" x1="66.2865" y1="81.6355" x2="100.559" y2="81.6355" gradientUnits="userSpaceOnUse">
<stop offset="0.1865" stop-color="#E15E52"/>
<stop offset="1" stop-color="#962E32"/>
</linearGradient>
<linearGradient id="paint83_linear_150_9893" x1="60.9861" y1="63.9848" x2="60.9861" y2="43.3925" gradientUnits="userSpaceOnUse">
<stop stop-color="#E15E52"/>
<stop offset="1" stop-color="#962E32"/>
</linearGradient>
<linearGradient id="paint84_linear_150_9893" x1="96.5876" y1="77.6032" x2="96.5876" y2="53.55" gradientUnits="userSpaceOnUse">
<stop stop-color="#E05B67"/>
<stop offset="1" stop-color="#E55F43"/>
</linearGradient>
<linearGradient id="paint85_linear_150_9893" x1="92.2791" y1="68.6021" x2="95.6114" y2="68.6021" gradientUnits="userSpaceOnUse">
<stop stop-color="#D7555F"/>
<stop offset="1" stop-color="white"/>
</linearGradient>
<linearGradient id="paint86_linear_150_9893" x1="93.2481" y1="73.3399" x2="102.289" y2="73.3399" gradientUnits="userSpaceOnUse">
<stop stop-color="#D7555F"/>
<stop offset="1" stop-color="white"/>
</linearGradient>
<radialGradient id="paint87_radial_150_9893" cx="0" cy="0" r="1" gradientUnits="userSpaceOnUse" gradientTransform="translate(86.4272 89.1389) scale(16.756 16.756)">
<stop stop-color="#E05B67"/>
<stop offset="1" stop-color="#E55F43"/>
</radialGradient>
<linearGradient id="paint88_linear_150_9893" x1="87.7819" y1="88.9036" x2="99.1392" y2="88.9036" gradientUnits="userSpaceOnUse">
<stop stop-color="#D7555F"/>
<stop offset="1" stop-color="white"/>
</linearGradient>
<linearGradient id="paint89_linear_150_9893" x1="89.2895" y1="85.6783" x2="97.2336" y2="85.6783" gradientUnits="userSpaceOnUse">
<stop stop-color="#D7555F"/>
<stop offset="1" stop-color="white"/>
</linearGradient>
<linearGradient id="paint90_linear_150_9893" x1="80.5936" y1="92.3618" x2="80.5936" y2="81.5841" gradientUnits="userSpaceOnUse">
<stop stop-color="#D7555F"/>
<stop offset="1" stop-color="white"/>
</linearGradient>
<linearGradient id="paint91_linear_150_9893" x1="84.522" y1="90.4321" x2="84.522" y2="82.0438" gradientUnits="userSpaceOnUse">
<stop stop-color="#D7555F"/>
<stop offset="1" stop-color="white"/>
</linearGradient>
<linearGradient id="paint92_linear_150_9893" x1="76.8544" y1="101.202" x2="85.7849" y2="101.202" gradientUnits="userSpaceOnUse">
<stop stop-color="#D7555F"/>
<stop offset="1" stop-color="white"/>
</linearGradient>
<linearGradient id="paint93_linear_150_9893" x1="78.4755" y1="98.0998" x2="85.7881" y2="98.0998" gradientUnits="userSpaceOnUse">
<stop stop-color="#D7555F"/>
<stop offset="1" stop-color="white"/>
</linearGradient>
<linearGradient id="paint94_linear_150_9893" x1="73.4242" y1="98.9391" x2="73.4242" y2="92.7969" gradientUnits="userSpaceOnUse">
<stop stop-color="#D7555F"/>
<stop offset="1" stop-color="white"/>
</linearGradient>
<linearGradient id="paint95_linear_150_9893" x1="71.1931" y1="100.209" x2="71.1931" y2="93.3837" gradientUnits="userSpaceOnUse">
<stop stop-color="#D7555F"/>
<stop offset="1" stop-color="white"/>
</linearGradient>
<linearGradient id="paint96_linear_150_9893" x1="25.4126" y1="77.6032" x2="25.4126" y2="53.55" gradientUnits="userSpaceOnUse">
<stop stop-color="#E05B67"/>
<stop offset="1" stop-color="#E55F43"/>
</linearGradient>
<linearGradient id="paint97_linear_150_9893" x1="29.7212" y1="68.6021" x2="26.389" y2="68.6021" gradientUnits="userSpaceOnUse">
<stop stop-color="#D7555F"/>
<stop offset="1" stop-color="white"/>
</linearGradient>
<linearGradient id="paint98_linear_150_9893" x1="28.7516" y1="73.3399" x2="19.7104" y2="73.3399" gradientUnits="userSpaceOnUse">
<stop stop-color="#D7555F"/>
<stop offset="1" stop-color="white"/>
</linearGradient>
<radialGradient id="paint99_radial_150_9893" cx="0" cy="0" r="1" gradientUnits="userSpaceOnUse" gradientTransform="translate(35.573 89.1389) rotate(180) scale(16.756)">
<stop stop-color="#E05B67"/>
<stop offset="1" stop-color="#E55F43"/>
</radialGradient>
<linearGradient id="paint100_linear_150_9893" x1="34.2186" y1="88.9036" x2="22.8612" y2="88.9036" gradientUnits="userSpaceOnUse">
<stop stop-color="#D7555F"/>
<stop offset="1" stop-color="white"/>
</linearGradient>
<linearGradient id="paint101_linear_150_9893" x1="32.7107" y1="85.6783" x2="24.7665" y2="85.6783" gradientUnits="userSpaceOnUse">
<stop stop-color="#D7555F"/>
<stop offset="1" stop-color="white"/>
</linearGradient>
<linearGradient id="paint102_linear_150_9893" x1="41.4065" y1="92.3618" x2="41.4065" y2="81.5841" gradientUnits="userSpaceOnUse">
<stop stop-color="#D7555F"/>
<stop offset="1" stop-color="white"/>
</linearGradient>
<linearGradient id="paint103_linear_150_9893" x1="37.4782" y1="90.4321" x2="37.4782" y2="82.0438" gradientUnits="userSpaceOnUse">
<stop stop-color="#D7555F"/>
<stop offset="1" stop-color="white"/>
</linearGradient>
<linearGradient id="paint104_linear_150_9893" x1="45.1456" y1="101.202" x2="36.2151" y2="101.202" gradientUnits="userSpaceOnUse">
<stop stop-color="#D7555F"/>
<stop offset="1" stop-color="white"/>
</linearGradient>
<linearGradient id="paint105_linear_150_9893" x1="43.5246" y1="98.0998" x2="36.212" y2="98.0998" gradientUnits="userSpaceOnUse">
<stop stop-color="#D7555F"/>
<stop offset="1" stop-color="white"/>
</linearGradient>
<linearGradient id="paint106_linear_150_9893" x1="48.5759" y1="98.9391" x2="48.5759" y2="92.7969" gradientUnits="userSpaceOnUse">
<stop stop-color="#D7555F"/>
<stop offset="1" stop-color="white"/>
</linearGradient>
<linearGradient id="paint107_linear_150_9893" x1="50.8069" y1="100.209" x2="50.8069" y2="93.3837" gradientUnits="userSpaceOnUse">
<stop stop-color="#D7555F"/>
<stop offset="1" stop-color="white"/>
</linearGradient>
<linearGradient id="paint108_linear_150_9893" x1="58.3611" y1="32.4604" x2="64.6093" y2="39.196" gradientUnits="userSpaceOnUse">
<stop stop-color="#D7545E"/>
<stop offset="1" stop-color="#BF454F"/>
</linearGradient>
<linearGradient id="paint109_linear_150_9893" x1="63.9737" y1="38.125" x2="58.4211" y2="32.5724" gradientUnits="userSpaceOnUse">
<stop stop-color="#B88313"/>
<stop offset="1" stop-color="#E2A11B"/>
</linearGradient>
<linearGradient id="paint110_linear_150_9893" x1="55.8147" y1="37.1662" x2="62.8729" y2="30.108" gradientUnits="userSpaceOnUse">
<stop stop-color="white"/>
<stop offset="0.4444" stop-color="#E15E52"/>
<stop offset="1" stop-color="#962E32"/>
</linearGradient>
<linearGradient id="paint111_linear_150_9893" x1="58.3608" y1="107.153" x2="64.6091" y2="113.889" gradientUnits="userSpaceOnUse">
<stop stop-color="#D7545E"/>
<stop offset="1" stop-color="#BF454F"/>
</linearGradient>
<linearGradient id="paint112_linear_150_9893" x1="63.9734" y1="112.817" x2="58.4209" y2="107.264" gradientUnits="userSpaceOnUse">
<stop stop-color="#B88313"/>
<stop offset="1" stop-color="#E2A11B"/>
</linearGradient>
<linearGradient id="paint113_linear_150_9893" x1="55.8145" y1="111.858" x2="62.8727" y2="104.799" gradientUnits="userSpaceOnUse">
<stop stop-color="white"/>
<stop offset="0.4444" stop-color="#E15E52"/>
<stop offset="1" stop-color="#962E32"/>
</linearGradient>
</defs>
</svg>
