<svg width="82" height="81" viewBox="0 0 82 81" fill="none" xmlns="http://www.w3.org/2000/svg">
<path d="M81.954 40.3991C81.0341 94.2685 0.912132 94.2601 0 40.3973C0.919939 -13.4703 81.0419 -13.4619 81.954 40.3991Z" fill="#DB8686"/>
<path d="M75.941 40.3993C75.593 83.6823 11.8576 87.5407 6.26895 44.643C1.59366 -3.88167 74.706 -8.32792 75.941 40.3993Z" fill="#FFB392"/>
<path d="M75.9412 40.3989C75.9412 41.8355 75.8543 43.2521 75.685 44.644C57.0921 55.7581 24.8614 55.7577 6.26912 44.644C1.59177 -3.89011 74.7104 -8.32033 75.9412 40.3989Z" fill="#FFDBB3"/>
<path d="M59.906 31.7595C58.2875 18.6094 40.8777 31.7595 40.8777 31.7595C21.2312 16.4439 14.5087 34.9599 31.5615 51.4869C34.1454 54.1635 36.7041 56.3619 38.4848 57.8019C39.8748 58.9266 41.8768 58.9266 43.2667 57.8019C50.2711 52.1106 61.0852 41.4697 59.906 31.7595Z" fill="#EE3F6C"/>
<path d="M40.8661 44.3233C33.8698 44.3233 27.49 42.0477 22.6643 38.3086C25.1412 45.6715 32.8989 53.3138 38.4853 57.8026C39.8752 58.9272 41.8772 58.9272 43.2672 57.8026C48.8624 53.3015 56.6182 45.6647 59.0945 38.2881C54.2656 42.0395 47.8751 44.3233 40.8661 44.3233Z" fill="#CE3272"/>
<path d="M62.0276 31.4984C59.7629 17.8547 46.2978 25.5628 40.8789 29.134C19.136 14.0037 12.7523 34.385 27.9619 50.7336C30.5829 53.7976 34.9284 57.7236 37.1404 59.464C43.0633 63.5437 46.8696 57.2486 51.7185 52.9828C57.115 47.3204 62.9377 39.6615 62.0276 31.4984ZM59.0948 38.2876C57.2987 43.3533 53.8507 47.6491 50.1793 51.4967C46.5427 54.6143 42.4357 60.8545 38.4851 57.8011C33.8694 54.1187 27.3838 47.7921 24.3089 41.9794C22.6064 38.8964 21.3985 35.184 21.8465 31.7591C23.4645 18.61 40.8791 31.7591 40.8791 31.7591C44.5529 28.2197 64.3558 18.2517 59.0948 38.2876Z" fill="#CE3272"/>
<path d="M8.01728 42.1807C7.95482 51.7403 12.1075 61.1004 18.785 67.4218C-17.2892 35.8736 29.7194 -16.8888 65.178 15.1624C43.8096 -3.59934 7.05481 13.3211 8.01728 42.1807Z" fill="#FFF3B6"/>
<g opacity="0.57">
<path d="M75.9412 40.3989C76.0032 79.9042 19.4658 88.4535 7.66089 51.0339C26.0206 90.0742 85.5304 67.1693 72.732 25.7437C74.7919 30.2004 75.9412 35.165 75.9412 40.3989Z" fill="#DB8686"/>
</g>
</svg>
