<svg width="272" height="96" viewBox="0 0 272 96" fill="none" xmlns="http://www.w3.org/2000/svg">
<path d="M271.205 44.5997C270.421 54.1511 275.419 77.3201 260.427 77.5443C260.428 77.5447 69.8674 77.5447 69.8674 77.5447V32.2622H260.428C266.38 32.2622 271.205 37.7856 271.205 44.5997Z" fill="#DB8686"/>
<path d="M268.217 46.169C267.542 55.2298 272.089 73.8682 257.76 74.0966L72.8552 74.0968V35.7104H257.76C263.536 35.7104 268.217 40.3927 268.217 46.169Z" fill="#FFDBB3"/>
<path d="M259.886 48.7844C259.411 55.1324 262.601 68.1872 252.561 68.3498L72.8552 68.35V41.4565H252.561C256.606 41.4565 259.886 44.7366 259.886 48.7844Z" fill="#4A206B"/>
<path d="M83.5059 54.6783C82.5721 109.296 1.24977 109.287 0.323975 54.6767C1.2577 0.0609159 82.5801 0.0694532 83.5059 54.6783Z" fill="#DB8686"/>
<path d="M8.26577 55.9084C8.20229 65.6641 12.4229 75.2162 19.2096 81.6672C-17.4548 49.472 30.323 -4.37242 66.3615 28.336C44.6437 9.18955 7.28756 26.4572 8.26577 55.9084Z" fill="#FFF3B6"/>
<path d="M77.7912 54.95C77.437 98.8123 12.5796 102.722 6.89261 59.2505C2.13502 10.0762 76.5343 5.5704 77.7912 54.95Z" fill="#FFB392"/>
<path d="M77.7912 54.483C77.7912 55.9193 77.7027 57.3357 77.5305 58.7274C58.6103 69.8398 25.8123 69.8394 6.89278 58.7274C2.13311 10.2014 76.5387 5.77191 77.7912 54.483Z" fill="#FFDBB3"/>
<g opacity="0.57">
<path d="M77.4873 54.5894C77.5503 94.7304 20.1031 103.417 8.10815 65.3955C26.7634 105.064 87.2309 81.7905 74.2265 39.6982C76.3196 44.2269 77.4873 49.2712 77.4873 54.5894Z" fill="#DB8686"/>
</g>
<path d="M61.0531 50.6138C59.6946 47.2774 53.2645 48.7707 50.5851 48.4648C50.8387 45.9595 54.6541 37.7627 52.3851 35.5557C51.6213 34.5643 50.4659 33.9956 49.2151 33.9956H33.0369C31.2104 33.9956 29.6162 35.2313 29.1601 37.0022L24.0967 56.7157C23.3986 59.1545 25.4355 61.7852 27.9732 61.7149H39.8433C40.0147 64.0935 37.5394 74.609 39.7754 76.3643C41.4176 78.2423 44.6552 78.087 46.0389 75.9624L60.7919 54.7544C61.6461 53.5262 61.7461 51.9397 61.0531 50.6138ZM58.9343 53.462C55.3056 58.6388 47.759 69.5549 44.1816 74.6698C43.1604 76.138 40.8561 75.2975 41.022 73.5166L42.1497 61.3519C42.2455 60.3327 41.4412 59.4517 40.4177 59.4517H27.9732C26.837 59.4517 26.0052 58.3793 26.288 57.2791L31.3517 37.565C31.5496 36.7968 32.2432 36.2586 33.0369 36.2586C35.8995 36.1953 46.1744 36.3041 49.2151 36.2584C50.3555 36.2586 51.1873 37.3395 50.8959 38.4439L48.2236 48.5425C47.9322 49.6468 48.764 50.7278 49.9044 50.7278H57.5063C58.911 50.7278 59.7365 52.3088 58.9343 53.462Z" fill="#4F9CE8"/>
<path d="M58.9343 53.4624C55.3062 58.6411 47.7585 69.5541 44.1815 74.6702C43.1604 76.1384 40.8561 75.2979 41.022 73.517L42.1497 61.3523C42.2455 60.3331 41.4412 59.4522 40.4177 59.4522C20.0137 59.4369 26.1705 62.3869 31.3515 37.565C31.5498 36.7972 32.2434 36.2588 33.0371 36.2588H49.2153C50.3557 36.2588 51.1877 37.3398 50.8961 38.4441L48.2238 48.5427C47.9324 49.6471 48.7642 50.728 49.9046 50.728H57.5065C58.911 50.7282 59.7365 52.3092 58.9343 53.4624Z" fill="#4ECDEA"/>
<path d="M50.4749 65.6228L44.1813 74.6703C43.1602 76.1385 40.8559 75.2981 41.0218 73.5171L42.1494 61.3524C42.2453 60.3333 41.441 59.4523 40.4175 59.4523H27.9732C26.837 59.4523 26.0052 58.3799 26.288 57.2797L31.3517 37.5656C31.7207 35.4356 35.9943 36.4984 37.377 36.2591L34.4899 50.5772C34.1409 52.3049 35.4622 53.9201 37.2261 53.9201H45.3513C47.23 53.9201 48.5726 55.7395 48.0172 57.5352L46.6343 62.0079C45.9414 64.5087 48.1938 65.9715 50.4749 65.6228Z" fill="#4F9CE8"/>
<g filter="url(#filter0_d_233_37)">
<rect x="90" width="158" height="27" rx="10" fill="#FFDBB3"/>
<path d="M109.642 18.4985H110.752V10.5005H109.642V10.0054H116.237V10.5005H115.132V18.4985H117.151L118.744 15.6104H119.176V19H109.642V18.4985ZM120.344 17.3369C120.344 17.0111 120.405 16.7318 120.528 16.499C120.651 16.262 120.824 16.0632 121.048 15.9023C121.273 15.7373 121.541 15.6061 121.854 15.5088C122.168 15.4072 122.515 15.3289 122.896 15.2739C123.281 15.2189 123.693 15.1829 124.133 15.166C124.573 15.1449 125.03 15.1343 125.504 15.1343V14.7788C125.504 14.2371 125.466 13.8034 125.39 13.4775C125.318 13.1517 125.206 12.902 125.054 12.7285C124.906 12.555 124.722 12.4429 124.501 12.3921C124.281 12.3371 124.025 12.3096 123.733 12.3096C123.577 12.3096 123.41 12.3223 123.232 12.3477C123.058 12.373 122.904 12.4027 122.769 12.4365C122.963 12.4577 123.143 12.5063 123.308 12.5825C123.473 12.6587 123.615 12.7539 123.733 12.8682C123.852 12.9824 123.943 13.1094 124.006 13.249C124.074 13.3887 124.108 13.5304 124.108 13.6743C124.108 13.8521 124.063 14.0192 123.975 14.1758C123.886 14.3324 123.763 14.4699 123.606 14.5884C123.45 14.7026 123.268 14.7936 123.061 14.8613C122.853 14.929 122.631 14.9629 122.394 14.9629C122.157 14.9629 121.935 14.929 121.728 14.8613C121.524 14.7936 121.345 14.7026 121.188 14.5884C121.036 14.4699 120.915 14.3324 120.826 14.1758C120.737 14.0192 120.693 13.8521 120.693 13.6743C120.693 13.4373 120.756 13.2236 120.883 13.0332C121.014 12.8428 121.19 12.6756 121.41 12.5317C121.634 12.3836 121.897 12.2567 122.197 12.1509C122.502 12.0451 122.828 11.9583 123.175 11.8906C123.522 11.8229 123.882 11.7743 124.254 11.7446C124.631 11.7108 125.005 11.6938 125.377 11.6938C126.038 11.6938 126.611 11.7404 127.098 11.8335C127.589 11.9224 127.995 12.0832 128.316 12.3159C128.642 12.5444 128.886 12.8597 129.046 13.2617C129.207 13.6595 129.288 14.1652 129.288 14.7788V17.4385C129.288 17.7559 129.319 18.0013 129.383 18.1748C129.451 18.3441 129.573 18.4287 129.751 18.4287C129.84 18.4287 129.912 18.4012 129.967 18.3462C130.026 18.2869 130.07 18.2108 130.1 18.1177C130.134 18.0246 130.157 17.9167 130.17 17.7939C130.183 17.6712 130.189 17.5464 130.189 17.4194V16.791H130.754V17.4194C130.754 17.758 130.709 18.0436 130.621 18.2764C130.536 18.5091 130.386 18.6974 130.17 18.8413C129.958 18.9852 129.673 19.0868 129.313 19.146C128.958 19.2095 128.509 19.2412 127.967 19.2412C127.692 19.2412 127.434 19.2264 127.193 19.1968C126.956 19.1672 126.738 19.1164 126.539 19.0444C126.344 18.9725 126.175 18.8773 126.031 18.7588C125.887 18.6403 125.773 18.4922 125.688 18.3145C125.562 18.5091 125.392 18.6678 125.181 18.7905C124.969 18.909 124.741 19.0021 124.495 19.0698C124.25 19.1375 124.002 19.182 123.752 19.2031C123.503 19.2285 123.274 19.2412 123.067 19.2412C122.572 19.2412 122.151 19.1883 121.804 19.0825C121.457 18.981 121.175 18.8434 120.959 18.6699C120.744 18.4964 120.587 18.2954 120.49 18.0669C120.392 17.8341 120.344 17.5908 120.344 17.3369ZM124.006 17.2671C124.006 17.5802 124.063 17.8341 124.178 18.0288C124.292 18.2192 124.48 18.3145 124.743 18.3145C124.963 18.3145 125.145 18.2362 125.289 18.0796C125.432 17.9188 125.504 17.7051 125.504 17.4385V15.7183C125.2 15.7183 124.95 15.7458 124.755 15.8008C124.561 15.8558 124.406 15.9447 124.292 16.0674C124.182 16.1859 124.106 16.3446 124.063 16.5435C124.025 16.7424 124.006 16.9836 124.006 17.2671ZM131.985 16.2324H132.455C132.637 16.554 132.889 16.863 133.21 17.1592C133.532 17.4512 133.894 17.7114 134.296 17.9399C134.702 18.1642 135.132 18.3441 135.584 18.4795C136.037 18.6149 136.488 18.6826 136.937 18.6826C137.123 18.6826 137.303 18.6742 137.476 18.6572C137.65 18.6361 137.802 18.6001 137.933 18.5493C138.064 18.4943 138.168 18.4224 138.244 18.3335C138.325 18.2446 138.365 18.1304 138.365 17.9907C138.365 17.8468 138.299 17.7284 138.168 17.6353C138.041 17.5379 137.868 17.4575 137.647 17.394C137.427 17.3306 137.174 17.2777 136.886 17.2354C136.602 17.193 136.306 17.1507 135.997 17.1084C135.438 17.0365 134.916 16.9412 134.429 16.8228C133.943 16.7043 133.519 16.5413 133.16 16.334C132.8 16.1266 132.516 15.8643 132.309 15.5469C132.106 15.2295 132.004 14.8359 132.004 14.3662C132.004 13.9346 132.1 13.5537 132.29 13.2236C132.485 12.8893 132.753 12.61 133.096 12.3857C133.439 12.1572 133.845 11.9858 134.315 11.8716C134.785 11.7531 135.297 11.6938 135.851 11.6938C136.113 11.6938 136.378 11.7192 136.645 11.77C136.915 11.8208 137.176 11.8885 137.425 11.9731C137.679 12.0535 137.918 12.1488 138.143 12.2588C138.371 12.3646 138.576 12.4725 138.758 12.5825L139.609 11.77H140.136V14.271H139.685C139.512 13.979 139.292 13.7082 139.025 13.4585C138.763 13.2088 138.464 12.993 138.13 12.811C137.796 12.6291 137.434 12.4873 137.044 12.3857C136.655 12.2799 136.249 12.2271 135.826 12.2271C135.618 12.2271 135.428 12.2376 135.254 12.2588C135.081 12.2799 134.931 12.3138 134.804 12.3604C134.677 12.4069 134.577 12.4683 134.505 12.5444C134.438 12.6206 134.404 12.7116 134.404 12.8174C134.404 12.9613 134.457 13.0798 134.562 13.1729C134.668 13.266 134.825 13.3485 135.032 13.4204C135.244 13.4881 135.504 13.5495 135.813 13.6045C136.122 13.6595 136.482 13.7188 136.892 13.7822C137.413 13.8669 137.897 13.9705 138.346 14.0933C138.794 14.216 139.181 14.3831 139.507 14.5947C139.837 14.8063 140.096 15.075 140.282 15.4009C140.472 15.7267 140.567 16.1372 140.567 16.6323C140.567 17.0343 140.489 17.3983 140.333 17.7241C140.18 18.0457 139.952 18.3187 139.647 18.543C139.347 18.7673 138.974 18.9386 138.53 19.0571C138.085 19.1799 137.576 19.2412 137 19.2412C136.729 19.2412 136.437 19.2137 136.124 19.1587C135.811 19.1079 135.5 19.0339 135.191 18.9365C134.886 18.835 134.596 18.7144 134.321 18.5747C134.046 18.4308 133.813 18.27 133.623 18.0923L132.512 19.146H131.985V16.2324ZM142.364 12.3921H141.253V11.9351H142.364C142.791 11.9351 143.174 11.8631 143.513 11.7192C143.855 11.5711 144.145 11.3807 144.382 11.1479C144.624 10.911 144.808 10.6465 144.935 10.3545C145.062 10.0625 145.125 9.77051 145.125 9.47852H146.141V11.9351H148.185V12.3921H146.141V16.3022C146.141 16.755 146.164 17.1253 146.21 17.4131C146.261 17.6966 146.331 17.9188 146.42 18.0796C146.513 18.2404 146.621 18.3504 146.744 18.4097C146.871 18.4647 147.01 18.4922 147.163 18.4922C147.311 18.4922 147.455 18.4604 147.594 18.397C147.734 18.3293 147.857 18.2235 147.962 18.0796C148.068 17.9315 148.153 17.741 148.216 17.5083C148.28 17.2713 148.312 16.9814 148.312 16.6387C148.312 16.5583 148.309 16.4757 148.305 16.3911C148.301 16.3022 148.295 16.2113 148.286 16.1182H148.819C148.832 16.3298 148.838 16.5223 148.838 16.6958C148.838 17.2248 148.764 17.6564 148.616 17.9907C148.472 18.3208 148.265 18.5789 147.994 18.7651C147.723 18.9513 147.393 19.0783 147.004 19.146C146.619 19.2137 146.185 19.2476 145.703 19.2476C145.161 19.2476 144.683 19.1947 144.268 19.0889C143.853 18.9831 143.504 18.8159 143.221 18.5874C142.937 18.3547 142.723 18.0563 142.58 17.6924C142.436 17.3285 142.364 16.8862 142.364 16.3657V12.3921ZM154.329 15.4707C154.329 14.9671 154.41 14.4868 154.57 14.0298C154.735 13.5728 154.983 13.1729 155.313 12.8301C155.647 12.4831 156.066 12.208 156.57 12.0049C157.073 11.7975 157.666 11.6938 158.347 11.6938C158.813 11.6938 159.206 11.7531 159.528 11.8716C159.849 11.9858 160.116 12.1318 160.328 12.3096V9.85938H159.223V9.40234H164.111V18.543H165.222V19H160.328V18.4922C160.154 18.7249 159.911 18.9069 159.598 19.0381C159.285 19.1735 158.868 19.2412 158.347 19.2412C157.666 19.2412 157.073 19.1396 156.57 18.9365C156.066 18.7334 155.647 18.4583 155.313 18.1113C154.983 17.7643 154.735 17.3644 154.57 16.9116C154.41 16.4546 154.329 15.9743 154.329 15.4707ZM159.312 18.5112C159.469 18.5112 159.612 18.4795 159.744 18.416C159.875 18.3483 159.987 18.2425 160.08 18.0986C160.177 17.9505 160.254 17.7622 160.309 17.5337C160.364 17.3052 160.391 17.0259 160.391 16.6958V13.9282C160.391 13.7632 160.368 13.5897 160.321 13.4077C160.275 13.2257 160.203 13.0586 160.105 12.9062C160.008 12.7539 159.885 12.6291 159.737 12.5317C159.593 12.4302 159.424 12.3794 159.229 12.3794C159.052 12.3794 158.899 12.4344 158.772 12.5444C158.646 12.6502 158.542 12.8258 158.461 13.0713C158.381 13.3167 158.322 13.6362 158.284 14.0298C158.246 14.4191 158.227 14.8994 158.227 15.4707C158.227 16.0462 158.243 16.5286 158.277 16.918C158.315 17.3073 158.377 17.6204 158.461 17.8574C158.546 18.0902 158.658 18.2573 158.798 18.3589C158.938 18.4604 159.109 18.5112 159.312 18.5112ZM166.11 15.4707C166.11 14.9248 166.21 14.4212 166.409 13.96C166.608 13.4987 166.906 13.1009 167.304 12.7666C167.701 12.4281 168.201 12.1657 168.802 11.9795C169.403 11.7891 170.105 11.6938 170.909 11.6938C171.713 11.6938 172.414 11.7891 173.01 11.9795C173.611 12.1657 174.111 12.4281 174.508 12.7666C174.906 13.1009 175.204 13.4987 175.403 13.96C175.602 14.4212 175.702 14.9248 175.702 15.4707C175.702 16.0166 175.602 16.5202 175.403 16.9814C175.204 17.4385 174.906 17.8363 174.508 18.1748C174.111 18.5091 173.611 18.7715 173.01 18.9619C172.414 19.1481 171.713 19.2412 170.909 19.2412C170.105 19.2412 169.403 19.1481 168.802 18.9619C168.201 18.7715 167.701 18.5091 167.304 18.1748C166.906 17.8363 166.608 17.4385 166.409 16.9814C166.21 16.5202 166.11 16.0166 166.11 15.4707ZM170.909 18.8477C171.07 18.8477 171.208 18.7948 171.322 18.689C171.436 18.5832 171.529 18.4012 171.601 18.1431C171.673 17.8849 171.724 17.54 171.753 17.1084C171.787 16.6725 171.804 16.1266 171.804 15.4707C171.804 14.8105 171.787 14.2646 171.753 13.833C171.724 13.3971 171.673 13.0501 171.601 12.792C171.529 12.5339 171.436 12.3519 171.322 12.2461C171.208 12.1403 171.07 12.0874 170.909 12.0874C170.744 12.0874 170.604 12.1403 170.49 12.2461C170.376 12.3519 170.283 12.5339 170.211 12.792C170.139 13.0501 170.086 13.3971 170.052 13.833C170.023 14.2646 170.008 14.8105 170.008 15.4707C170.008 16.1266 170.023 16.6725 170.052 17.1084C170.086 17.54 170.139 17.8849 170.211 18.1431C170.283 18.4012 170.376 18.5832 170.49 18.689C170.604 18.7948 170.744 18.8477 170.909 18.8477ZM176.781 18.543H177.892V12.3921H176.781V11.9351H181.668V12.7476C181.804 12.5825 181.967 12.4344 182.157 12.3032C182.352 12.172 182.566 12.062 182.798 11.9731C183.031 11.88 183.279 11.8102 183.541 11.7637C183.808 11.7171 184.081 11.6938 184.36 11.6938C184.935 11.6938 185.409 11.77 185.782 11.9224C186.158 12.0705 186.455 12.2842 186.67 12.5635C186.886 12.8385 187.036 13.175 187.121 13.5728C187.206 13.9663 187.248 14.4064 187.248 14.8931V18.543H188.359V19H182.836V18.543H183.471V14.8931C183.471 14.4572 183.458 14.1017 183.433 13.8267C183.408 13.5474 183.363 13.3294 183.3 13.1729C183.236 13.012 183.152 12.902 183.046 12.8428C182.94 12.7793 182.807 12.7476 182.646 12.7476C182.485 12.7476 182.343 12.7814 182.221 12.8491C182.098 12.9168 181.994 13.012 181.91 13.1348C181.829 13.2575 181.768 13.4035 181.726 13.5728C181.688 13.742 181.668 13.9261 181.668 14.125V18.543H182.297V19H176.781V18.543ZM189.406 17.3369C189.406 17.0111 189.468 16.7318 189.59 16.499C189.713 16.262 189.887 16.0632 190.111 15.9023C190.335 15.7373 190.604 15.6061 190.917 15.5088C191.23 15.4072 191.577 15.3289 191.958 15.2739C192.343 15.2189 192.756 15.1829 193.196 15.166C193.636 15.1449 194.093 15.1343 194.567 15.1343V14.7788C194.567 14.2371 194.529 13.8034 194.453 13.4775C194.381 13.1517 194.269 12.902 194.116 12.7285C193.968 12.555 193.784 12.4429 193.564 12.3921C193.344 12.3371 193.088 12.3096 192.796 12.3096C192.639 12.3096 192.472 12.3223 192.294 12.3477C192.121 12.373 191.966 12.4027 191.831 12.4365C192.026 12.4577 192.206 12.5063 192.371 12.5825C192.536 12.6587 192.677 12.7539 192.796 12.8682C192.914 12.9824 193.005 13.1094 193.069 13.249C193.137 13.3887 193.17 13.5304 193.17 13.6743C193.17 13.8521 193.126 14.0192 193.037 14.1758C192.948 14.3324 192.826 14.4699 192.669 14.5884C192.512 14.7026 192.33 14.7936 192.123 14.8613C191.916 14.929 191.694 14.9629 191.457 14.9629C191.22 14.9629 190.997 14.929 190.79 14.8613C190.587 14.7936 190.407 14.7026 190.25 14.5884C190.098 14.4699 189.978 14.3324 189.889 14.1758C189.8 14.0192 189.755 13.8521 189.755 13.6743C189.755 13.4373 189.819 13.2236 189.946 13.0332C190.077 12.8428 190.253 12.6756 190.473 12.5317C190.697 12.3836 190.959 12.2567 191.26 12.1509C191.564 12.0451 191.89 11.9583 192.237 11.8906C192.584 11.8229 192.944 11.7743 193.316 11.7446C193.693 11.7108 194.068 11.6938 194.44 11.6938C195.1 11.6938 195.674 11.7404 196.16 11.8335C196.651 11.9224 197.057 12.0832 197.379 12.3159C197.705 12.5444 197.948 12.8597 198.109 13.2617C198.27 13.6595 198.35 14.1652 198.35 14.7788V17.4385C198.35 17.7559 198.382 18.0013 198.445 18.1748C198.513 18.3441 198.636 18.4287 198.813 18.4287C198.902 18.4287 198.974 18.4012 199.029 18.3462C199.089 18.2869 199.133 18.2108 199.163 18.1177C199.196 18.0246 199.22 17.9167 199.232 17.7939C199.245 17.6712 199.251 17.5464 199.251 17.4194V16.791H199.816V17.4194C199.816 17.758 199.772 18.0436 199.683 18.2764C199.598 18.5091 199.448 18.6974 199.232 18.8413C199.021 18.9852 198.735 19.0868 198.375 19.146C198.02 19.2095 197.571 19.2412 197.03 19.2412C196.755 19.2412 196.497 19.2264 196.255 19.1968C196.018 19.1672 195.8 19.1164 195.602 19.0444C195.407 18.9725 195.238 18.8773 195.094 18.7588C194.95 18.6403 194.836 18.4922 194.751 18.3145C194.624 18.5091 194.455 18.6678 194.243 18.7905C194.032 18.909 193.803 19.0021 193.558 19.0698C193.312 19.1375 193.065 19.182 192.815 19.2031C192.565 19.2285 192.337 19.2412 192.129 19.2412C191.634 19.2412 191.213 19.1883 190.866 19.0825C190.519 18.981 190.238 18.8434 190.022 18.6699C189.806 18.4964 189.65 18.2954 189.552 18.0669C189.455 17.8341 189.406 17.5908 189.406 17.3369ZM193.069 17.2671C193.069 17.5802 193.126 17.8341 193.24 18.0288C193.354 18.2192 193.543 18.3145 193.805 18.3145C194.025 18.3145 194.207 18.2362 194.351 18.0796C194.495 17.9188 194.567 17.7051 194.567 17.4385V15.7183C194.262 15.7183 194.013 15.7458 193.818 15.8008C193.623 15.8558 193.469 15.9447 193.354 16.0674C193.244 16.1859 193.168 16.3446 193.126 16.5435C193.088 16.7424 193.069 16.9836 193.069 17.2671ZM201.524 12.3921H200.413V11.9351H201.524C201.951 11.9351 202.334 11.8631 202.673 11.7192C203.016 11.5711 203.306 11.3807 203.542 11.1479C203.784 10.911 203.968 10.6465 204.095 10.3545C204.222 10.0625 204.285 9.77051 204.285 9.47852H205.301V11.9351H207.345V12.3921H205.301V16.3022C205.301 16.755 205.324 17.1253 205.371 17.4131C205.421 17.6966 205.491 17.9188 205.58 18.0796C205.673 18.2404 205.781 18.3504 205.904 18.4097C206.031 18.4647 206.17 18.4922 206.323 18.4922C206.471 18.4922 206.615 18.4604 206.754 18.397C206.894 18.3293 207.017 18.2235 207.123 18.0796C207.228 17.9315 207.313 17.741 207.376 17.5083C207.44 17.2713 207.472 16.9814 207.472 16.6387C207.472 16.5583 207.47 16.4757 207.465 16.3911C207.461 16.3022 207.455 16.2113 207.446 16.1182H207.979C207.992 16.3298 207.999 16.5223 207.999 16.6958C207.999 17.2248 207.924 17.6564 207.776 17.9907C207.632 18.3208 207.425 18.5789 207.154 18.7651C206.883 18.9513 206.553 19.0783 206.164 19.146C205.779 19.2137 205.345 19.2476 204.863 19.2476C204.321 19.2476 203.843 19.1947 203.428 19.0889C203.014 18.9831 202.664 18.8159 202.381 18.5874C202.097 18.3547 201.884 18.0563 201.74 17.6924C201.596 17.3285 201.524 16.8862 201.524 16.3657V12.3921ZM208.69 15.4009C208.69 14.8338 208.807 14.3218 209.04 13.8647C209.272 13.4077 209.594 13.0184 210.004 12.6968C210.419 12.3752 210.908 12.1276 211.471 11.9541C212.038 11.7806 212.651 11.6938 213.312 11.6938C213.819 11.6938 214.278 11.7446 214.689 11.8462C215.104 11.9478 215.47 12.0874 215.787 12.2651C216.109 12.4386 216.384 12.646 216.612 12.8872C216.845 13.1284 217.035 13.3887 217.184 13.668C217.336 13.9473 217.448 14.2414 217.52 14.5503C217.592 14.855 217.628 15.1618 217.628 15.4707H212.537C212.537 16.1182 212.565 16.645 212.62 17.0513C212.679 17.4575 212.77 17.777 212.893 18.0098C213.02 18.2383 213.18 18.3949 213.375 18.4795C213.574 18.5641 213.813 18.6064 214.092 18.6064C214.448 18.6064 214.782 18.562 215.095 18.4731C215.408 18.3843 215.688 18.2594 215.933 18.0986C216.183 17.9336 216.39 17.7368 216.555 17.5083C216.72 17.2756 216.832 17.0153 216.892 16.7275H217.488C217.446 17.1211 217.325 17.4744 217.126 17.7876C216.928 18.0965 216.663 18.3589 216.333 18.5747C216.007 18.7905 215.622 18.9556 215.178 19.0698C214.738 19.1841 214.255 19.2412 213.73 19.2412C212.905 19.2412 212.177 19.1566 211.547 18.9873C210.921 18.8138 210.396 18.5641 209.973 18.2383C209.549 17.9082 209.23 17.5062 209.014 17.0322C208.798 16.554 208.69 16.0103 208.69 15.4009ZM214.321 14.8296C214.308 14.3006 214.283 13.8605 214.245 13.5093C214.207 13.158 214.152 12.8766 214.08 12.665C214.008 12.4535 213.919 12.3053 213.813 12.2207C213.707 12.1318 213.58 12.0874 213.432 12.0874C213.284 12.0874 213.155 12.1318 213.045 12.2207C212.939 12.3053 212.85 12.4535 212.778 12.665C212.706 12.8766 212.651 13.158 212.613 13.5093C212.575 13.8605 212.552 14.3006 212.543 14.8296H214.321ZM218.771 15.4707C218.771 14.9671 218.851 14.4868 219.012 14.0298C219.177 13.5728 219.424 13.1729 219.754 12.8301C220.089 12.4831 220.508 12.208 221.011 12.0049C221.515 11.7975 222.107 11.6938 222.789 11.6938C223.254 11.6938 223.648 11.7531 223.969 11.8716C224.291 11.9858 224.557 12.1318 224.769 12.3096V9.85938H223.665V9.40234H228.552V18.543H229.663V19H224.769V18.4922C224.596 18.7249 224.352 18.9069 224.039 19.0381C223.726 19.1735 223.309 19.2412 222.789 19.2412C222.107 19.2412 221.515 19.1396 221.011 18.9365C220.508 18.7334 220.089 18.4583 219.754 18.1113C219.424 17.7643 219.177 17.3644 219.012 16.9116C218.851 16.4546 218.771 15.9743 218.771 15.4707ZM223.753 18.5112C223.91 18.5112 224.054 18.4795 224.185 18.416C224.316 18.3483 224.428 18.2425 224.521 18.0986C224.619 17.9505 224.695 17.7622 224.75 17.5337C224.805 17.3052 224.833 17.0259 224.833 16.6958V13.9282C224.833 13.7632 224.809 13.5897 224.763 13.4077C224.716 13.2257 224.644 13.0586 224.547 12.9062C224.45 12.7539 224.327 12.6291 224.179 12.5317C224.035 12.4302 223.866 12.3794 223.671 12.3794C223.493 12.3794 223.341 12.4344 223.214 12.5444C223.087 12.6502 222.983 12.8258 222.903 13.0713C222.822 13.3167 222.763 13.6362 222.725 14.0298C222.687 14.4191 222.668 14.8994 222.668 15.4707C222.668 16.0462 222.685 16.5286 222.719 16.918C222.757 17.3073 222.818 17.6204 222.903 17.8574C222.987 18.0902 223.1 18.2573 223.239 18.3589C223.379 18.4604 223.55 18.5112 223.753 18.5112Z" fill="#CE3272"/>
</g>
<defs>
<filter id="filter0_d_233_37" x="86" y="0" width="166" height="35" filterUnits="userSpaceOnUse" color-interpolation-filters="sRGB">
<feFlood flood-opacity="0" result="BackgroundImageFix"/>
<feColorMatrix in="SourceAlpha" type="matrix" values="0 0 0 0 0 0 0 0 0 0 0 0 0 0 0 0 0 0 127 0" result="hardAlpha"/>
<feOffset dy="4"/>
<feGaussianBlur stdDeviation="2"/>
<feComposite in2="hardAlpha" operator="out"/>
<feColorMatrix type="matrix" values="0 0 0 0 0 0 0 0 0 0 0 0 0 0 0 0 0 0 0.25 0"/>
<feBlend mode="normal" in2="BackgroundImageFix" result="effect1_dropShadow_233_37"/>
<feBlend mode="normal" in="SourceGraphic" in2="effect1_dropShadow_233_37" result="shape"/>
</filter>
</defs>
</svg>
