<svg width="269" height="103" viewBox="0 0 269 103" fill="none" xmlns="http://www.w3.org/2000/svg">
<path d="M268.086 46.9544C267.326 56.2093 272.17 78.6589 257.643 78.8761C257.643 78.8765 73 78.8765 73 78.8765V35H257.643C263.411 35 268.086 40.3519 268.086 46.9544Z" fill="#DB8686"/>
<path d="M265.191 48.4749C264.537 57.2544 268.943 75.314 255.058 75.5353C255.059 75.5357 75.8955 75.5357 75.8955 75.5357V38.3408H255.059C260.655 38.3408 265.191 42.8777 265.191 48.4749Z" fill="#FFDBB3"/>
<path d="M257.118 51.009C256.658 57.1599 259.749 69.8093 250.021 69.9669L75.8953 69.9671V43.9087H250.021C253.941 43.9087 257.118 47.0869 257.118 51.009Z" fill="#4A206B"/>
<path d="M166.479 51.009C166.023 57.1578 169.103 69.8143 159.381 69.9669L75.8953 69.9671V43.9087H159.381C163.301 43.9087 166.479 47.0869 166.479 51.009Z" fill="#FF9B57"/>
<path d="M85.1969 60.4351C84.2442 116.223 1.26859 116.214 0.323975 60.4334C1.27668 4.6471 84.2523 4.65583 85.1969 60.4351Z" fill="#DB8686"/>
<path d="M78.9697 60.4353C78.6094 105.26 12.6039 109.256 6.81618 64.8301C1.97416 14.5772 77.6907 9.97258 78.9697 60.4353Z" fill="#FFB392"/>
<path d="M78.9697 60.4354C78.9697 61.9231 78.8796 63.3902 78.7043 64.8317C59.4494 76.3416 26.0706 76.3412 6.81609 64.8317C1.97216 14.5689 77.6948 9.98093 78.9697 60.4354Z" fill="#FFDBB3"/>
<path d="M8.62655 62.2803C8.56187 72.1804 12.8624 81.8739 19.7777 88.4205C-17.5813 55.7486 31.1019 1.10704 67.8233 34.2995C45.6939 14.8698 7.63001 32.3929 8.62655 62.2803Z" fill="#FFF3B6"/>
<g opacity="0.57">
<path d="M78.9697 60.4351C79.034 101.347 20.4829 110.201 8.25757 71.4488C27.2712 111.88 88.9005 88.1589 75.6463 45.2578C77.7796 49.8733 78.9697 55.0147 78.9697 60.4351Z" fill="#DB8686"/>
</g>
<path d="M65.6297 60.5238C65.118 90.4888 20.5499 90.4841 20.0425 60.5228C20.5541 30.5589 65.1223 30.5636 65.6297 60.5238Z" fill="#FFCE55"/>
<path d="M60.0225 60.524C59.6368 83.1175 26.0324 83.1141 25.6499 60.5234C26.0356 37.9304 59.64 37.934 60.0225 60.524Z" fill="#FF9B57"/>
<g opacity="0.78">
<path d="M42.8363 70.103C34.6523 70.103 27.8094 64.3803 26.0776 56.7192C21.5506 84.3307 64.1287 84.313 59.5949 56.7192C57.8631 64.3803 51.0202 70.103 42.8363 70.103Z" fill="#F26D6D"/>
</g>
<path d="M43.5241 50.711V51.8623C45.7261 51.8562 48.927 54.253 47.516 56.4942C46.7479 57.2423 45.4495 56.8897 45.2189 55.7531C44.9844 54.8648 44.4196 54.2752 43.5241 53.9837V58.4178C50.048 59.2055 49.9914 67.3719 43.5241 67.9371C43.3805 68.6037 43.9805 71.9959 42.8635 71.7959C42.2717 71.7865 42.1848 71.4048 42.1706 70.8365V67.9583C39.6161 67.8639 36.0931 65.1485 37.6137 62.5377C38.2421 61.855 39.6203 62.0333 39.879 62.9803C40.3248 64.3831 40.7039 65.3502 42.1706 65.7517V60.7949C36.2346 59.9919 35.9453 52.3189 42.1706 51.8621V50.7321C42.0689 49.5372 43.6131 49.534 43.5241 50.711ZM42.1704 58.0234V53.9407C39.6329 54.4358 39.6531 57.4408 42.1704 58.0234ZM43.5241 61.1894V65.8583C46.4705 65.3651 46.5127 61.726 43.5241 61.1894Z" fill="#FFF097"/>
<path d="M42.8358 35.4219C9.84908 36.0136 9.8544 85.0397 42.8369 85.6265C75.8226 85.0348 75.8173 36.0085 42.8358 35.4219ZM42.8358 83.3199C12.8738 82.8082 12.8785 38.2358 42.8369 37.7283C72.7979 38.24 72.7932 82.8124 42.8358 83.3199Z" fill="#F26D6D"/>
<g filter="url(#filter0_d_233_36)">
<rect x="87" width="158" height="27" rx="10" fill="#FFDBB3"/>
<path d="M94.6714 18.4985H95.7759V10.5005H94.8618L93.3066 13.6362H92.8687V10.0054H103.069V13.6362H102.625L101.076 10.5005H100.156V18.4985H101.267V19H94.6714V18.4985ZM104.06 15.4707C104.06 14.9248 104.159 14.4212 104.358 13.96C104.557 13.4987 104.855 13.1009 105.253 12.7666C105.651 12.4281 106.15 12.1657 106.751 11.9795C107.352 11.7891 108.054 11.6938 108.858 11.6938C109.662 11.6938 110.363 11.7891 110.959 11.9795C111.56 12.1657 112.06 12.4281 112.458 12.7666C112.855 13.1009 113.154 13.4987 113.353 13.96C113.551 14.4212 113.651 14.9248 113.651 15.4707C113.651 16.0166 113.551 16.5202 113.353 16.9814C113.154 17.4385 112.855 17.8363 112.458 18.1748C112.06 18.5091 111.56 18.7715 110.959 18.9619C110.363 19.1481 109.662 19.2412 108.858 19.2412C108.054 19.2412 107.352 19.1481 106.751 18.9619C106.15 18.7715 105.651 18.5091 105.253 18.1748C104.855 17.8363 104.557 17.4385 104.358 16.9814C104.159 16.5202 104.06 16.0166 104.06 15.4707ZM108.858 18.8477C109.019 18.8477 109.157 18.7948 109.271 18.689C109.385 18.5832 109.478 18.4012 109.55 18.1431C109.622 17.8849 109.673 17.54 109.703 17.1084C109.736 16.6725 109.753 16.1266 109.753 15.4707C109.753 14.8105 109.736 14.2646 109.703 13.833C109.673 13.3971 109.622 13.0501 109.55 12.792C109.478 12.5339 109.385 12.3519 109.271 12.2461C109.157 12.1403 109.019 12.0874 108.858 12.0874C108.693 12.0874 108.554 12.1403 108.439 12.2461C108.325 12.3519 108.232 12.5339 108.16 12.792C108.088 13.0501 108.035 13.3971 108.001 13.833C107.972 14.2646 107.957 14.8105 107.957 15.4707C107.957 16.1266 107.972 16.6725 108.001 17.1084C108.035 17.54 108.088 17.8849 108.16 18.1431C108.232 18.4012 108.325 18.5832 108.439 18.689C108.554 18.7948 108.693 18.8477 108.858 18.8477ZM115.479 12.3921H114.368V11.9351H115.479C115.906 11.9351 116.289 11.8631 116.628 11.7192C116.971 11.5711 117.261 11.3807 117.498 11.1479C117.739 10.911 117.923 10.6465 118.05 10.3545C118.177 10.0625 118.24 9.77051 118.24 9.47852H119.256V11.9351H121.3V12.3921H119.256V16.3022C119.256 16.755 119.279 17.1253 119.326 17.4131C119.376 17.6966 119.446 17.9188 119.535 18.0796C119.628 18.2404 119.736 18.3504 119.859 18.4097C119.986 18.4647 120.125 18.4922 120.278 18.4922C120.426 18.4922 120.57 18.4604 120.709 18.397C120.849 18.3293 120.972 18.2235 121.078 18.0796C121.183 17.9315 121.268 17.741 121.332 17.5083C121.395 17.2713 121.427 16.9814 121.427 16.6387C121.427 16.5583 121.425 16.4757 121.42 16.3911C121.416 16.3022 121.41 16.2113 121.401 16.1182H121.935C121.947 16.3298 121.954 16.5223 121.954 16.6958C121.954 17.2248 121.88 17.6564 121.731 17.9907C121.588 18.3208 121.38 18.5789 121.109 18.7651C120.839 18.9513 120.508 19.0783 120.119 19.146C119.734 19.2137 119.3 19.2476 118.818 19.2476C118.276 19.2476 117.798 19.1947 117.383 19.0889C116.969 18.9831 116.619 18.8159 116.336 18.5874C116.052 18.3547 115.839 18.0563 115.695 17.6924C115.551 17.3285 115.479 16.8862 115.479 16.3657V12.3921ZM122.912 17.3369C122.912 17.0111 122.973 16.7318 123.096 16.499C123.219 16.262 123.392 16.0632 123.617 15.9023C123.841 15.7373 124.11 15.6061 124.423 15.5088C124.736 15.4072 125.083 15.3289 125.464 15.2739C125.849 15.2189 126.262 15.1829 126.702 15.166C127.142 15.1449 127.599 15.1343 128.073 15.1343V14.7788C128.073 14.2371 128.035 13.8034 127.958 13.4775C127.887 13.1517 127.774 12.902 127.622 12.7285C127.474 12.555 127.29 12.4429 127.07 12.3921C126.85 12.3371 126.594 12.3096 126.302 12.3096C126.145 12.3096 125.978 12.3223 125.8 12.3477C125.627 12.373 125.472 12.4027 125.337 12.4365C125.532 12.4577 125.711 12.5063 125.876 12.5825C126.042 12.6587 126.183 12.7539 126.302 12.8682C126.42 12.9824 126.511 13.1094 126.575 13.249C126.642 13.3887 126.676 13.5304 126.676 13.6743C126.676 13.8521 126.632 14.0192 126.543 14.1758C126.454 14.3324 126.331 14.4699 126.175 14.5884C126.018 14.7026 125.836 14.7936 125.629 14.8613C125.422 14.929 125.199 14.9629 124.962 14.9629C124.725 14.9629 124.503 14.929 124.296 14.8613C124.093 14.7936 123.913 14.7026 123.756 14.5884C123.604 14.4699 123.483 14.3324 123.395 14.1758C123.306 14.0192 123.261 13.8521 123.261 13.6743C123.261 13.4373 123.325 13.2236 123.452 13.0332C123.583 12.8428 123.758 12.6756 123.979 12.5317C124.203 12.3836 124.465 12.2567 124.766 12.1509C125.07 12.0451 125.396 11.9583 125.743 11.8906C126.09 11.8229 126.45 11.7743 126.822 11.7446C127.199 11.7108 127.573 11.6938 127.946 11.6938C128.606 11.6938 129.179 11.7404 129.666 11.8335C130.157 11.9224 130.563 12.0832 130.885 12.3159C131.211 12.5444 131.454 12.8597 131.615 13.2617C131.776 13.6595 131.856 14.1652 131.856 14.7788V17.4385C131.856 17.7559 131.888 18.0013 131.951 18.1748C132.019 18.3441 132.142 18.4287 132.319 18.4287C132.408 18.4287 132.48 18.4012 132.535 18.3462C132.594 18.2869 132.639 18.2108 132.668 18.1177C132.702 18.0246 132.726 17.9167 132.738 17.7939C132.751 17.6712 132.757 17.5464 132.757 17.4194V16.791H133.322V17.4194C133.322 17.758 133.278 18.0436 133.189 18.2764C133.104 18.5091 132.954 18.6974 132.738 18.8413C132.527 18.9852 132.241 19.0868 131.881 19.146C131.526 19.2095 131.077 19.2412 130.536 19.2412C130.261 19.2412 130.002 19.2264 129.761 19.1968C129.524 19.1672 129.306 19.1164 129.107 19.0444C128.913 18.9725 128.743 18.8773 128.6 18.7588C128.456 18.6403 128.341 18.4922 128.257 18.3145C128.13 18.5091 127.961 18.6678 127.749 18.7905C127.537 18.909 127.309 19.0021 127.063 19.0698C126.818 19.1375 126.57 19.182 126.321 19.2031C126.071 19.2285 125.843 19.2412 125.635 19.2412C125.14 19.2412 124.719 19.1883 124.372 19.0825C124.025 18.981 123.744 18.8434 123.528 18.6699C123.312 18.4964 123.155 18.2954 123.058 18.0669C122.961 17.8341 122.912 17.5908 122.912 17.3369ZM126.575 17.2671C126.575 17.5802 126.632 17.8341 126.746 18.0288C126.86 18.2192 127.049 18.3145 127.311 18.3145C127.531 18.3145 127.713 18.2362 127.857 18.0796C128.001 17.9188 128.073 17.7051 128.073 17.4385V15.7183C127.768 15.7183 127.518 15.7458 127.324 15.8008C127.129 15.8558 126.975 15.9447 126.86 16.0674C126.75 16.1859 126.674 16.3446 126.632 16.5435C126.594 16.7424 126.575 16.9836 126.575 17.2671ZM134.281 18.543H135.392V9.85938H134.281V9.40234H139.168V18.543H140.279V19H134.281V18.543ZM145.979 15.4707C145.979 14.9671 146.06 14.4868 146.221 14.0298C146.386 13.5728 146.633 13.1729 146.963 12.8301C147.298 12.4831 147.717 12.208 148.22 12.0049C148.724 11.7975 149.316 11.6938 149.998 11.6938C150.463 11.6938 150.857 11.7531 151.178 11.8716C151.5 11.9858 151.766 12.1318 151.978 12.3096V9.85938H150.874V9.40234H155.761V18.543H156.872V19H151.978V18.4922C151.805 18.7249 151.561 18.9069 151.248 19.0381C150.935 19.1735 150.518 19.2412 149.998 19.2412C149.316 19.2412 148.724 19.1396 148.22 18.9365C147.717 18.7334 147.298 18.4583 146.963 18.1113C146.633 17.7643 146.386 17.3644 146.221 16.9116C146.06 16.4546 145.979 15.9743 145.979 15.4707ZM150.962 18.5112C151.119 18.5112 151.263 18.4795 151.394 18.416C151.525 18.3483 151.637 18.2425 151.73 18.0986C151.828 17.9505 151.904 17.7622 151.959 17.5337C152.014 17.3052 152.042 17.0259 152.042 16.6958V13.9282C152.042 13.7632 152.018 13.5897 151.972 13.4077C151.925 13.2257 151.853 13.0586 151.756 12.9062C151.659 12.7539 151.536 12.6291 151.388 12.5317C151.244 12.4302 151.075 12.3794 150.88 12.3794C150.702 12.3794 150.55 12.4344 150.423 12.5444C150.296 12.6502 150.192 12.8258 150.112 13.0713C150.031 13.3167 149.972 13.6362 149.934 14.0298C149.896 14.4191 149.877 14.8994 149.877 15.4707C149.877 16.0462 149.894 16.5286 149.928 16.918C149.966 17.3073 150.027 17.6204 150.112 17.8574C150.196 18.0902 150.309 18.2573 150.448 18.3589C150.588 18.4604 150.759 18.5112 150.962 18.5112ZM157.761 15.4707C157.761 14.9248 157.86 14.4212 158.059 13.96C158.258 13.4987 158.556 13.1009 158.954 12.7666C159.352 12.4281 159.851 12.1657 160.452 11.9795C161.053 11.7891 161.756 11.6938 162.56 11.6938C163.364 11.6938 164.064 11.7891 164.661 11.9795C165.262 12.1657 165.761 12.4281 166.159 12.7666C166.556 13.1009 166.855 13.4987 167.054 13.96C167.253 14.4212 167.352 14.9248 167.352 15.4707C167.352 16.0166 167.253 16.5202 167.054 16.9814C166.855 17.4385 166.556 17.8363 166.159 18.1748C165.761 18.5091 165.262 18.7715 164.661 18.9619C164.064 19.1481 163.364 19.2412 162.56 19.2412C161.756 19.2412 161.053 19.1481 160.452 18.9619C159.851 18.7715 159.352 18.5091 158.954 18.1748C158.556 17.8363 158.258 17.4385 158.059 16.9814C157.86 16.5202 157.761 16.0166 157.761 15.4707ZM162.56 18.8477C162.72 18.8477 162.858 18.7948 162.972 18.689C163.086 18.5832 163.18 18.4012 163.251 18.1431C163.323 17.8849 163.374 17.54 163.404 17.1084C163.438 16.6725 163.455 16.1266 163.455 15.4707C163.455 14.8105 163.438 14.2646 163.404 13.833C163.374 13.3971 163.323 13.0501 163.251 12.792C163.18 12.5339 163.086 12.3519 162.972 12.2461C162.858 12.1403 162.72 12.0874 162.56 12.0874C162.395 12.0874 162.255 12.1403 162.141 12.2461C162.026 12.3519 161.933 12.5339 161.861 12.792C161.789 13.0501 161.736 13.3971 161.703 13.833C161.673 14.2646 161.658 14.8105 161.658 15.4707C161.658 16.1266 161.673 16.6725 161.703 17.1084C161.736 17.54 161.789 17.8849 161.861 18.1431C161.933 18.4012 162.026 18.5832 162.141 18.689C162.255 18.7948 162.395 18.8477 162.56 18.8477ZM168.431 18.543H169.542V12.3921H168.431V11.9351H173.319V12.7476C173.454 12.5825 173.617 12.4344 173.808 12.3032C174.002 12.172 174.216 12.062 174.449 11.9731C174.681 11.88 174.929 11.8102 175.191 11.7637C175.458 11.7171 175.731 11.6938 176.01 11.6938C176.586 11.6938 177.06 11.77 177.432 11.9224C177.809 12.0705 178.105 12.2842 178.321 12.5635C178.537 12.8385 178.687 13.175 178.771 13.5728C178.856 13.9663 178.898 14.4064 178.898 14.8931V18.543H180.009V19H174.487V18.543H175.122V14.8931C175.122 14.4572 175.109 14.1017 175.083 13.8267C175.058 13.5474 175.014 13.3294 174.95 13.1729C174.887 13.012 174.802 12.902 174.696 12.8428C174.59 12.7793 174.457 12.7476 174.296 12.7476C174.136 12.7476 173.994 12.7814 173.871 12.8491C173.748 12.9168 173.645 13.012 173.56 13.1348C173.48 13.2575 173.418 13.4035 173.376 13.5728C173.338 13.742 173.319 13.9261 173.319 14.125V18.543H173.947V19H168.431V18.543ZM181.057 17.3369C181.057 17.0111 181.118 16.7318 181.241 16.499C181.363 16.262 181.537 16.0632 181.761 15.9023C181.986 15.7373 182.254 15.6061 182.567 15.5088C182.881 15.4072 183.228 15.3289 183.608 15.2739C183.993 15.2189 184.406 15.1829 184.846 15.166C185.286 15.1449 185.743 15.1343 186.217 15.1343V14.7788C186.217 14.2371 186.179 13.8034 186.103 13.4775C186.031 13.1517 185.919 12.902 185.767 12.7285C185.618 12.555 185.434 12.4429 185.214 12.3921C184.994 12.3371 184.738 12.3096 184.446 12.3096C184.29 12.3096 184.123 12.3223 183.945 12.3477C183.771 12.373 183.617 12.4027 183.481 12.4365C183.676 12.4577 183.856 12.5063 184.021 12.5825C184.186 12.6587 184.328 12.7539 184.446 12.8682C184.565 12.9824 184.656 13.1094 184.719 13.249C184.787 13.3887 184.821 13.5304 184.821 13.6743C184.821 13.8521 184.776 14.0192 184.688 14.1758C184.599 14.3324 184.476 14.4699 184.319 14.5884C184.163 14.7026 183.981 14.7936 183.773 14.8613C183.566 14.929 183.344 14.9629 183.107 14.9629C182.87 14.9629 182.648 14.929 182.44 14.8613C182.237 14.7936 182.057 14.7026 181.901 14.5884C181.749 14.4699 181.628 14.3324 181.539 14.1758C181.45 14.0192 181.406 13.8521 181.406 13.6743C181.406 13.4373 181.469 13.2236 181.596 13.0332C181.727 12.8428 181.903 12.6756 182.123 12.5317C182.347 12.3836 182.61 12.2567 182.91 12.1509C183.215 12.0451 183.541 11.9583 183.888 11.8906C184.235 11.8229 184.594 11.7743 184.967 11.7446C185.343 11.7108 185.718 11.6938 186.09 11.6938C186.75 11.6938 187.324 11.7404 187.811 11.8335C188.301 11.9224 188.708 12.0832 189.029 12.3159C189.355 12.5444 189.598 12.8597 189.759 13.2617C189.92 13.6595 190 14.1652 190 14.7788V17.4385C190 17.7559 190.032 18.0013 190.096 18.1748C190.163 18.3441 190.286 18.4287 190.464 18.4287C190.553 18.4287 190.625 18.4012 190.68 18.3462C190.739 18.2869 190.783 18.2108 190.813 18.1177C190.847 18.0246 190.87 17.9167 190.883 17.7939C190.896 17.6712 190.902 17.5464 190.902 17.4194V16.791H191.467V17.4194C191.467 17.758 191.422 18.0436 191.333 18.2764C191.249 18.5091 191.099 18.6974 190.883 18.8413C190.671 18.9852 190.386 19.0868 190.026 19.146C189.67 19.2095 189.222 19.2412 188.68 19.2412C188.405 19.2412 188.147 19.2264 187.906 19.1968C187.669 19.1672 187.451 19.1164 187.252 19.0444C187.057 18.9725 186.888 18.8773 186.744 18.7588C186.6 18.6403 186.486 18.4922 186.401 18.3145C186.274 18.5091 186.105 18.6678 185.894 18.7905C185.682 18.909 185.453 19.0021 185.208 19.0698C184.963 19.1375 184.715 19.182 184.465 19.2031C184.216 19.2285 183.987 19.2412 183.78 19.2412C183.285 19.2412 182.864 19.1883 182.517 19.0825C182.17 18.981 181.888 18.8434 181.672 18.6699C181.457 18.4964 181.3 18.2954 181.203 18.0669C181.105 17.8341 181.057 17.5908 181.057 17.3369ZM184.719 17.2671C184.719 17.5802 184.776 17.8341 184.891 18.0288C185.005 18.2192 185.193 18.3145 185.456 18.3145C185.676 18.3145 185.858 18.2362 186.001 18.0796C186.145 17.9188 186.217 17.7051 186.217 17.4385V15.7183C185.913 15.7183 185.663 15.7458 185.468 15.8008C185.274 15.8558 185.119 15.9447 185.005 16.0674C184.895 16.1859 184.819 16.3446 184.776 16.5435C184.738 16.7424 184.719 16.9836 184.719 17.2671ZM193.174 12.3921H192.063V11.9351H193.174C193.602 11.9351 193.985 11.8631 194.323 11.7192C194.666 11.5711 194.956 11.3807 195.193 11.1479C195.434 10.911 195.618 10.6465 195.745 10.3545C195.872 10.0625 195.936 9.77051 195.936 9.47852H196.951V11.9351H198.995V12.3921H196.951V16.3022C196.951 16.755 196.974 17.1253 197.021 17.4131C197.072 17.6966 197.142 17.9188 197.23 18.0796C197.324 18.2404 197.431 18.3504 197.554 18.4097C197.681 18.4647 197.821 18.4922 197.973 18.4922C198.121 18.4922 198.265 18.4604 198.405 18.397C198.544 18.3293 198.667 18.2235 198.773 18.0796C198.879 17.9315 198.963 17.741 199.027 17.5083C199.09 17.2713 199.122 16.9814 199.122 16.6387C199.122 16.5583 199.12 16.4757 199.116 16.3911C199.111 16.3022 199.105 16.2113 199.097 16.1182H199.63C199.643 16.3298 199.649 16.5223 199.649 16.6958C199.649 17.2248 199.575 17.6564 199.427 17.9907C199.283 18.3208 199.076 18.5789 198.805 18.7651C198.534 18.9513 198.204 19.0783 197.814 19.146C197.429 19.2137 196.996 19.2476 196.513 19.2476C195.972 19.2476 195.493 19.1947 195.079 19.0889C194.664 18.9831 194.315 18.8159 194.031 18.5874C193.748 18.3547 193.534 18.0563 193.39 17.6924C193.246 17.3285 193.174 16.8862 193.174 16.3657V12.3921ZM203.216 11.2939C202.971 11.2939 202.734 11.2707 202.505 11.2241C202.277 11.1733 202.076 11.0951 201.902 10.9893C201.729 10.8792 201.589 10.7396 201.483 10.5703C201.378 10.401 201.325 10.1937 201.325 9.94824C201.325 9.7028 201.378 9.49544 201.483 9.32617C201.589 9.15267 201.729 9.01302 201.902 8.90723C202.076 8.7972 202.277 8.71891 202.505 8.67236C202.734 8.62158 202.971 8.59619 203.216 8.59619C203.458 8.59619 203.692 8.62158 203.921 8.67236C204.149 8.71891 204.35 8.7972 204.524 8.90723C204.697 9.01302 204.837 9.15055 204.943 9.31982C205.049 9.4891 205.102 9.69645 205.102 9.94189C205.102 10.1873 205.049 10.3968 204.943 10.5703C204.837 10.7396 204.697 10.8792 204.524 10.9893C204.35 11.0951 204.149 11.1733 203.921 11.2241C203.692 11.2707 203.458 11.2939 203.216 11.2939ZM200.284 18.543H201.395V12.3921H200.284V11.9351H205.171V18.543H206.282V19H200.284V18.543ZM207.184 15.4707C207.184 14.9248 207.283 14.4212 207.482 13.96C207.681 13.4987 207.979 13.1009 208.377 12.7666C208.775 12.4281 209.274 12.1657 209.875 11.9795C210.476 11.7891 211.178 11.6938 211.982 11.6938C212.786 11.6938 213.487 11.7891 214.083 11.9795C214.684 12.1657 215.184 12.4281 215.582 12.7666C215.979 13.1009 216.278 13.4987 216.477 13.96C216.675 14.4212 216.775 14.9248 216.775 15.4707C216.775 16.0166 216.675 16.5202 216.477 16.9814C216.278 17.4385 215.979 17.8363 215.582 18.1748C215.184 18.5091 214.684 18.7715 214.083 18.9619C213.487 19.1481 212.786 19.2412 211.982 19.2412C211.178 19.2412 210.476 19.1481 209.875 18.9619C209.274 18.7715 208.775 18.5091 208.377 18.1748C207.979 17.8363 207.681 17.4385 207.482 16.9814C207.283 16.5202 207.184 16.0166 207.184 15.4707ZM211.982 18.8477C212.143 18.8477 212.281 18.7948 212.395 18.689C212.509 18.5832 212.602 18.4012 212.674 18.1431C212.746 17.8849 212.797 17.54 212.827 17.1084C212.861 16.6725 212.877 16.1266 212.877 15.4707C212.877 14.8105 212.861 14.2646 212.827 13.833C212.797 13.3971 212.746 13.0501 212.674 12.792C212.602 12.5339 212.509 12.3519 212.395 12.2461C212.281 12.1403 212.143 12.0874 211.982 12.0874C211.817 12.0874 211.678 12.1403 211.563 12.2461C211.449 12.3519 211.356 12.5339 211.284 12.792C211.212 13.0501 211.159 13.3971 211.125 13.833C211.096 14.2646 211.081 14.8105 211.081 15.4707C211.081 16.1266 211.096 16.6725 211.125 17.1084C211.159 17.54 211.212 17.8849 211.284 18.1431C211.356 18.4012 211.449 18.5832 211.563 18.689C211.678 18.7948 211.817 18.8477 211.982 18.8477ZM217.854 18.543H218.965V12.3921H217.854V11.9351H222.742V12.7476C222.877 12.5825 223.04 12.4344 223.23 12.3032C223.425 12.172 223.639 12.062 223.872 11.9731C224.104 11.88 224.352 11.8102 224.614 11.7637C224.881 11.7171 225.154 11.6938 225.433 11.6938C226.009 11.6938 226.483 11.77 226.855 11.9224C227.232 12.0705 227.528 12.2842 227.744 12.5635C227.959 12.8385 228.11 13.175 228.194 13.5728C228.279 13.9663 228.321 14.4064 228.321 14.8931V18.543H229.432V19H223.91V18.543H224.544V14.8931C224.544 14.4572 224.532 14.1017 224.506 13.8267C224.481 13.5474 224.437 13.3294 224.373 13.1729C224.31 13.012 224.225 12.902 224.119 12.8428C224.013 12.7793 223.88 12.7476 223.719 12.7476C223.558 12.7476 223.417 12.7814 223.294 12.8491C223.171 12.9168 223.068 13.012 222.983 13.1348C222.903 13.2575 222.841 13.4035 222.799 13.5728C222.761 13.742 222.742 13.9261 222.742 14.125V18.543H223.37V19H217.854V18.543ZM230.429 16.2324H230.898C231.08 16.554 231.332 16.863 231.654 17.1592C231.975 17.4512 232.337 17.7114 232.739 17.9399C233.146 18.1642 233.575 18.3441 234.028 18.4795C234.481 18.6149 234.931 18.6826 235.38 18.6826C235.566 18.6826 235.746 18.6742 235.919 18.6572C236.093 18.6361 236.245 18.6001 236.376 18.5493C236.508 18.4943 236.611 18.4224 236.688 18.3335C236.768 18.2446 236.808 18.1304 236.808 17.9907C236.808 17.8468 236.743 17.7284 236.611 17.6353C236.484 17.5379 236.311 17.4575 236.091 17.394C235.871 17.3306 235.617 17.2777 235.329 17.2354C235.046 17.193 234.749 17.1507 234.44 17.1084C233.882 17.0365 233.359 16.9412 232.873 16.8228C232.386 16.7043 231.963 16.5413 231.603 16.334C231.243 16.1266 230.96 15.8643 230.752 15.5469C230.549 15.2295 230.448 14.8359 230.448 14.3662C230.448 13.9346 230.543 13.5537 230.733 13.2236C230.928 12.8893 231.197 12.61 231.54 12.3857C231.882 12.1572 232.289 11.9858 232.758 11.8716C233.228 11.7531 233.74 11.6938 234.294 11.6938C234.557 11.6938 234.821 11.7192 235.088 11.77C235.359 11.8208 235.619 11.8885 235.869 11.9731C236.123 12.0535 236.362 12.1488 236.586 12.2588C236.814 12.3646 237.02 12.4725 237.202 12.5825L238.052 11.77H238.579V14.271H238.128C237.955 13.979 237.735 13.7082 237.468 13.4585C237.206 13.2088 236.908 12.993 236.573 12.811C236.239 12.6291 235.877 12.4873 235.488 12.3857C235.098 12.2799 234.692 12.2271 234.269 12.2271C234.062 12.2271 233.871 12.2376 233.698 12.2588C233.524 12.2799 233.374 12.3138 233.247 12.3604C233.12 12.4069 233.021 12.4683 232.949 12.5444C232.881 12.6206 232.847 12.7116 232.847 12.8174C232.847 12.9613 232.9 13.0798 233.006 13.1729C233.112 13.266 233.268 13.3485 233.476 13.4204C233.687 13.4881 233.947 13.5495 234.256 13.6045C234.565 13.6595 234.925 13.7188 235.335 13.7822C235.856 13.8669 236.34 13.9705 236.789 14.0933C237.238 14.216 237.625 14.3831 237.951 14.5947C238.281 14.8063 238.539 15.075 238.725 15.4009C238.916 15.7267 239.011 16.1372 239.011 16.6323C239.011 17.0343 238.932 17.3983 238.776 17.7241C238.624 18.0457 238.395 18.3187 238.09 18.543C237.79 18.7673 237.417 18.9386 236.973 19.0571C236.529 19.1799 236.019 19.2412 235.443 19.2412C235.173 19.2412 234.881 19.2137 234.567 19.1587C234.254 19.1079 233.943 19.0339 233.634 18.9365C233.33 18.835 233.04 18.7144 232.765 18.5747C232.49 18.4308 232.257 18.27 232.066 18.0923L230.956 19.146H230.429V16.2324Z" fill="#CE3272"/>
</g>
<defs>
<filter id="filter0_d_233_36" x="83" y="0" width="166" height="35" filterUnits="userSpaceOnUse" color-interpolation-filters="sRGB">
<feFlood flood-opacity="0" result="BackgroundImageFix"/>
<feColorMatrix in="SourceAlpha" type="matrix" values="0 0 0 0 0 0 0 0 0 0 0 0 0 0 0 0 0 0 127 0" result="hardAlpha"/>
<feOffset dy="4"/>
<feGaussianBlur stdDeviation="2"/>
<feComposite in2="hardAlpha" operator="out"/>
<feColorMatrix type="matrix" values="0 0 0 0 0 0 0 0 0 0 0 0 0 0 0 0 0 0 0.25 0"/>
<feBlend mode="normal" in2="BackgroundImageFix" result="effect1_dropShadow_233_36"/>
<feBlend mode="normal" in="SourceGraphic" in2="effect1_dropShadow_233_36" result="shape"/>
</filter>
</defs>
</svg>
