<svg width="263" height="98" viewBox="0 0 263 98" fill="none" xmlns="http://www.w3.org/2000/svg">
<path d="M262.61 44.4715C261.823 54.056 266.839 77.3052 251.795 77.5301C251.795 77.5305 60.5754 77.5305 60.5754 77.5305V32.0913H251.795C257.768 32.0913 262.61 37.6338 262.61 44.4715Z" fill="#DB8686"/>
<path d="M259.612 46.0458C258.934 55.1379 263.497 73.8408 249.118 74.07C249.118 74.0704 63.5737 74.0704 63.5737 74.0704V35.5508H249.118C254.914 35.5508 259.612 40.2492 259.612 46.0458Z" fill="#FFDBB3"/>
<path d="M251.252 48.6706C250.775 55.0405 253.976 68.1405 243.901 68.3037L63.574 68.3039V41.3174H243.901C247.96 41.3174 251.252 44.6088 251.252 48.6706Z" fill="#4A206B"/>
<path d="M81.954 57.3991C81.0341 111.269 0.912132 111.26 0 57.3973C0.919939 3.52972 81.0419 3.53815 81.954 57.3991Z" fill="#DB8686"/>
<path d="M75.941 57.3993C75.593 100.682 11.8576 104.541 6.26895 61.643C1.59366 13.1183 74.706 8.67208 75.941 57.3993Z" fill="#FFB392"/>
<path d="M75.9412 57.3989C75.9412 58.8355 75.8543 60.2521 75.685 61.644C57.0921 72.7581 24.8614 72.7577 6.26912 61.644C1.59177 13.1099 74.7104 8.67967 75.9412 57.3989Z" fill="#FFDBB3"/>
<path d="M59.906 48.7595C58.2875 35.6094 40.8777 48.7595 40.8777 48.7595C21.2312 33.4439 14.5087 51.9599 31.5615 68.4869C34.1454 71.1635 36.7041 73.3619 38.4848 74.8019C39.8748 75.9266 41.8768 75.9266 43.2667 74.8019C50.2711 69.1106 61.0852 58.4697 59.906 48.7595Z" fill="#EE3F6C"/>
<path d="M40.8661 61.3233C33.8698 61.3233 27.49 59.0477 22.6643 55.3086C25.1412 62.6715 32.8989 70.3138 38.4853 74.8026C39.8752 75.9272 41.8772 75.9272 43.2672 74.8026C48.8624 70.3015 56.6182 62.6647 59.0945 55.2881C54.2656 59.0395 47.8751 61.3233 40.8661 61.3233Z" fill="#CE3272"/>
<path d="M62.0276 48.4984C59.7629 34.8547 46.2978 42.5628 40.8789 46.134C19.136 31.0037 12.7523 51.385 27.9619 67.7336C30.5829 70.7976 34.9284 74.7236 37.1404 76.464C43.0633 80.5437 46.8696 74.2486 51.7185 69.9828C57.115 64.3204 62.9377 56.6615 62.0276 48.4984ZM59.0948 55.2876C57.2987 60.3533 53.8507 64.6491 50.1793 68.4967C46.5427 71.6143 42.4357 77.8545 38.4851 74.8011C33.8694 71.1187 27.3838 64.7921 24.3089 58.9794C22.6064 55.8964 21.3985 52.184 21.8465 48.7591C23.4645 35.61 40.8791 48.7591 40.8791 48.7591C44.5529 45.2197 64.3558 35.2517 59.0948 55.2876Z" fill="#CE3272"/>
<path d="M8.01728 59.1807C7.95482 68.7403 12.1075 78.1004 18.785 84.4218C-17.2892 52.8736 29.7194 0.111233 65.178 32.1624C43.8096 13.4007 7.05481 30.3211 8.01728 59.1807Z" fill="#FFF3B6"/>
<g opacity="0.57">
<path d="M75.9412 57.3989C76.0032 96.9042 19.4658 105.454 7.66089 68.0339C26.0206 107.074 85.5304 84.1693 72.732 42.7437C74.7919 47.2004 75.9412 52.165 75.9412 57.3989Z" fill="#DB8686"/>
</g>
<g filter="url(#filter0_d_233_35)">
<rect x="81" width="158" height="27" rx="10" fill="#FFDBB3"/>
<path d="M89.0635 10.5005H88.1685V10.0054H94.5859V10.5005H93.4434L95.2017 15.7056L96.1538 12.5063L95.4238 10.5005H95.0049V10.0054H100.946V10.5005H99.8037L101.549 15.6738L102.939 10.894C102.952 10.856 102.958 10.8221 102.958 10.7925C102.958 10.7375 102.929 10.693 102.87 10.6592C102.815 10.6211 102.734 10.5915 102.628 10.5703C102.527 10.5449 102.404 10.528 102.26 10.5195C102.121 10.5068 101.966 10.5005 101.797 10.5005V10.0054H104.818V10.5005C104.442 10.5005 104.162 10.5301 103.98 10.5894C103.803 10.6444 103.691 10.7459 103.644 10.894L101.245 19H98.5151L96.5156 13.4902L94.8843 19H92.1611L89.0635 10.5005ZM108.17 11.2939C107.924 11.2939 107.688 11.2707 107.459 11.2241C107.23 11.1733 107.029 11.0951 106.856 10.9893C106.682 10.8792 106.543 10.7396 106.437 10.5703C106.331 10.401 106.278 10.1937 106.278 9.94824C106.278 9.7028 106.331 9.49544 106.437 9.32617C106.543 9.15267 106.682 9.01302 106.856 8.90723C107.029 8.7972 107.23 8.71891 107.459 8.67236C107.688 8.62158 107.924 8.59619 108.17 8.59619C108.411 8.59619 108.646 8.62158 108.875 8.67236C109.103 8.71891 109.304 8.7972 109.478 8.90723C109.651 9.01302 109.791 9.15055 109.896 9.31982C110.002 9.4891 110.055 9.69645 110.055 9.94189C110.055 10.1873 110.002 10.3968 109.896 10.5703C109.791 10.7396 109.651 10.8792 109.478 10.9893C109.304 11.0951 109.103 11.1733 108.875 11.2241C108.646 11.2707 108.411 11.2939 108.17 11.2939ZM105.237 18.543H106.348V12.3921H105.237V11.9351H110.125V18.543H111.236V19H105.237V18.543ZM112.353 16.2324H112.823C113.005 16.554 113.257 16.863 113.578 17.1592C113.9 17.4512 114.262 17.7114 114.664 17.9399C115.07 18.1642 115.499 18.3441 115.952 18.4795C116.405 18.6149 116.856 18.6826 117.304 18.6826C117.49 18.6826 117.67 18.6742 117.844 18.6572C118.017 18.6361 118.17 18.6001 118.301 18.5493C118.432 18.4943 118.536 18.4224 118.612 18.3335C118.692 18.2446 118.732 18.1304 118.732 17.9907C118.732 17.8468 118.667 17.7284 118.536 17.6353C118.409 17.5379 118.235 17.4575 118.015 17.394C117.795 17.3306 117.541 17.2777 117.253 17.2354C116.97 17.193 116.674 17.1507 116.365 17.1084C115.806 17.0365 115.284 16.9412 114.797 16.8228C114.31 16.7043 113.887 16.5413 113.527 16.334C113.168 16.1266 112.884 15.8643 112.677 15.5469C112.474 15.2295 112.372 14.8359 112.372 14.3662C112.372 13.9346 112.467 13.5537 112.658 13.2236C112.852 12.8893 113.121 12.61 113.464 12.3857C113.807 12.1572 114.213 11.9858 114.683 11.8716C115.152 11.7531 115.664 11.6938 116.219 11.6938C116.481 11.6938 116.746 11.7192 117.012 11.77C117.283 11.8208 117.543 11.8885 117.793 11.9731C118.047 12.0535 118.286 12.1488 118.51 12.2588C118.739 12.3646 118.944 12.4725 119.126 12.5825L119.977 11.77H120.503V14.271H120.053C119.879 13.979 119.659 13.7082 119.393 13.4585C119.13 13.2088 118.832 12.993 118.498 12.811C118.163 12.6291 117.801 12.4873 117.412 12.3857C117.023 12.2799 116.617 12.2271 116.193 12.2271C115.986 12.2271 115.796 12.2376 115.622 12.2588C115.449 12.2799 115.298 12.3138 115.171 12.3604C115.044 12.4069 114.945 12.4683 114.873 12.5444C114.805 12.6206 114.771 12.7116 114.771 12.8174C114.771 12.9613 114.824 13.0798 114.93 13.1729C115.036 13.266 115.193 13.3485 115.4 13.4204C115.611 13.4881 115.872 13.5495 116.181 13.6045C116.49 13.6595 116.849 13.7188 117.26 13.7822C117.78 13.8669 118.265 13.9705 118.713 14.0933C119.162 14.216 119.549 14.3831 119.875 14.5947C120.205 14.8063 120.463 15.075 120.649 15.4009C120.84 15.7267 120.935 16.1372 120.935 16.6323C120.935 17.0343 120.857 17.3983 120.7 17.7241C120.548 18.0457 120.319 18.3187 120.015 18.543C119.714 18.7673 119.342 18.9386 118.897 19.0571C118.453 19.1799 117.943 19.2412 117.368 19.2412C117.097 19.2412 116.805 19.2137 116.492 19.1587C116.179 19.1079 115.868 19.0339 115.559 18.9365C115.254 18.835 114.964 18.7144 114.689 18.5747C114.414 18.4308 114.181 18.27 113.991 18.0923L112.88 19.146H112.353V16.2324ZM121.982 18.543H123.093V9.85938H121.982V9.40234H126.87V12.7476C127.006 12.5825 127.168 12.4344 127.359 12.3032C127.554 12.172 127.767 12.062 128 11.9731C128.233 11.88 128.48 11.8102 128.743 11.7637C129.009 11.7171 129.282 11.6938 129.562 11.6938C130.137 11.6938 130.611 11.77 130.983 11.9224C131.36 12.0705 131.656 12.2842 131.872 12.5635C132.088 12.8385 132.238 13.175 132.323 13.5728C132.407 13.9663 132.45 14.4064 132.45 14.8931V18.543H133.561V19H128.038V18.543H128.673V14.8931C128.673 14.4572 128.66 14.1017 128.635 13.8267C128.609 13.5474 128.565 13.3294 128.501 13.1729C128.438 13.012 128.353 12.902 128.248 12.8428C128.142 12.7793 128.008 12.7476 127.848 12.7476C127.687 12.7476 127.545 12.7814 127.422 12.8491C127.3 12.9168 127.196 13.012 127.111 13.1348C127.031 13.2575 126.97 13.4035 126.927 13.5728C126.889 13.742 126.87 13.9261 126.87 14.125V18.543H127.499V19H121.982V18.543ZM134.341 15.4009C134.341 14.8338 134.458 14.3218 134.69 13.8647C134.923 13.4077 135.245 13.0184 135.655 12.6968C136.07 12.3752 136.559 12.1276 137.122 11.9541C137.689 11.7806 138.302 11.6938 138.962 11.6938C139.47 11.6938 139.929 11.7446 140.34 11.8462C140.755 11.9478 141.121 12.0874 141.438 12.2651C141.76 12.4386 142.035 12.646 142.263 12.8872C142.496 13.1284 142.686 13.3887 142.834 13.668C142.987 13.9473 143.099 14.2414 143.171 14.5503C143.243 14.855 143.279 15.1618 143.279 15.4707H138.188C138.188 16.1182 138.215 16.645 138.271 17.0513C138.33 17.4575 138.421 17.777 138.543 18.0098C138.67 18.2383 138.831 18.3949 139.026 18.4795C139.225 18.5641 139.464 18.6064 139.743 18.6064C140.099 18.6064 140.433 18.562 140.746 18.4731C141.059 18.3843 141.339 18.2594 141.584 18.0986C141.834 17.9336 142.041 17.7368 142.206 17.5083C142.371 17.2756 142.483 17.0153 142.542 16.7275H143.139C143.097 17.1211 142.976 17.4744 142.777 17.7876C142.578 18.0965 142.314 18.3589 141.984 18.5747C141.658 18.7905 141.273 18.9556 140.829 19.0698C140.389 19.1841 139.906 19.2412 139.381 19.2412C138.556 19.2412 137.828 19.1566 137.198 18.9873C136.571 18.8138 136.047 18.5641 135.624 18.2383C135.2 17.9082 134.881 17.5062 134.665 17.0322C134.449 16.554 134.341 16.0103 134.341 15.4009ZM139.972 14.8296C139.959 14.3006 139.934 13.8605 139.896 13.5093C139.857 13.158 139.802 12.8766 139.73 12.665C139.659 12.4535 139.57 12.3053 139.464 12.2207C139.358 12.1318 139.231 12.0874 139.083 12.0874C138.935 12.0874 138.806 12.1318 138.696 12.2207C138.59 12.3053 138.501 12.4535 138.429 12.665C138.357 12.8766 138.302 13.158 138.264 13.5093C138.226 13.8605 138.203 14.3006 138.194 14.8296H139.972ZM144.637 16.2324H145.107C145.289 16.554 145.541 16.863 145.862 17.1592C146.184 17.4512 146.546 17.7114 146.948 17.9399C147.354 18.1642 147.784 18.3441 148.236 18.4795C148.689 18.6149 149.14 18.6826 149.588 18.6826C149.775 18.6826 149.954 18.6742 150.128 18.6572C150.301 18.6361 150.454 18.6001 150.585 18.5493C150.716 18.4943 150.82 18.4224 150.896 18.3335C150.976 18.2446 151.017 18.1304 151.017 17.9907C151.017 17.8468 150.951 17.7284 150.82 17.6353C150.693 17.5379 150.519 17.4575 150.299 17.394C150.079 17.3306 149.825 17.2777 149.538 17.2354C149.254 17.193 148.958 17.1507 148.649 17.1084C148.09 17.0365 147.568 16.9412 147.081 16.8228C146.594 16.7043 146.171 16.5413 145.812 16.334C145.452 16.1266 145.168 15.8643 144.961 15.5469C144.758 15.2295 144.656 14.8359 144.656 14.3662C144.656 13.9346 144.751 13.5537 144.942 13.2236C145.137 12.8893 145.405 12.61 145.748 12.3857C146.091 12.1572 146.497 11.9858 146.967 11.8716C147.437 11.7531 147.949 11.6938 148.503 11.6938C148.765 11.6938 149.03 11.7192 149.296 11.77C149.567 11.8208 149.827 11.8885 150.077 11.9731C150.331 12.0535 150.57 12.1488 150.794 12.2588C151.023 12.3646 151.228 12.4725 151.41 12.5825L152.261 11.77H152.788V14.271H152.337C152.163 13.979 151.943 13.7082 151.677 13.4585C151.414 13.2088 151.116 12.993 150.782 12.811C150.447 12.6291 150.086 12.4873 149.696 12.3857C149.307 12.2799 148.901 12.2271 148.478 12.2271C148.27 12.2271 148.08 12.2376 147.906 12.2588C147.733 12.2799 147.583 12.3138 147.456 12.3604C147.329 12.4069 147.229 12.4683 147.157 12.5444C147.09 12.6206 147.056 12.7116 147.056 12.8174C147.056 12.9613 147.109 13.0798 147.214 13.1729C147.32 13.266 147.477 13.3485 147.684 13.4204C147.896 13.4881 148.156 13.5495 148.465 13.6045C148.774 13.6595 149.133 13.7188 149.544 13.7822C150.064 13.8669 150.549 13.9705 150.998 14.0933C151.446 14.216 151.833 14.3831 152.159 14.5947C152.489 14.8063 152.747 15.075 152.934 15.4009C153.124 15.7267 153.219 16.1372 153.219 16.6323C153.219 17.0343 153.141 17.3983 152.984 17.7241C152.832 18.0457 152.604 18.3187 152.299 18.543C151.998 18.7673 151.626 18.9386 151.182 19.0571C150.737 19.1799 150.227 19.2412 149.652 19.2412C149.381 19.2412 149.089 19.2137 148.776 19.1587C148.463 19.1079 148.152 19.0339 147.843 18.9365C147.538 18.835 147.248 18.7144 146.973 18.5747C146.698 18.4308 146.465 18.27 146.275 18.0923L145.164 19.146H144.637V16.2324ZM158.97 20.4155C158.97 20.2124 159.074 20.0135 159.281 19.8188C159.493 19.6242 159.84 19.4422 160.322 19.2729C159.654 18.9175 159.319 18.3949 159.319 17.7051C159.319 17.502 159.351 17.3052 159.415 17.1147C159.478 16.9201 159.575 16.7381 159.707 16.5688C159.842 16.3996 160.011 16.2493 160.214 16.1182C160.422 15.987 160.665 15.8812 160.944 15.8008C160.483 15.6019 160.134 15.348 159.897 15.0391C159.66 14.7259 159.542 14.3683 159.542 13.9663C159.542 13.6659 159.622 13.3781 159.783 13.103C159.948 12.828 160.195 12.5868 160.525 12.3794C160.855 12.1678 161.272 12.0007 161.776 11.8779C162.279 11.7552 162.872 11.6938 163.553 11.6938C163.909 11.6938 164.239 11.7108 164.543 11.7446C164.852 11.7785 165.14 11.8271 165.407 11.8906C165.542 11.6579 165.705 11.459 165.896 11.2939C166.086 11.1289 166.293 10.9935 166.518 10.8877C166.746 10.7819 166.987 10.7036 167.241 10.6528C167.495 10.6021 167.753 10.5767 168.016 10.5767C168.198 10.5767 168.367 10.6042 168.523 10.6592C168.68 10.71 168.815 10.7798 168.93 10.8687C169.048 10.9575 169.141 11.0612 169.209 11.1797C169.277 11.2982 169.311 11.4251 169.311 11.5605C169.311 11.696 169.277 11.8229 169.209 11.9414C169.141 12.0599 169.048 12.1636 168.93 12.2524C168.815 12.3413 168.68 12.4132 168.523 12.4683C168.367 12.519 168.198 12.5444 168.016 12.5444C167.838 12.5444 167.669 12.519 167.508 12.4683C167.351 12.4132 167.214 12.3413 167.095 12.2524C166.977 12.1636 166.884 12.0599 166.816 11.9414C166.748 11.8229 166.714 11.696 166.714 11.5605C166.714 11.4505 166.74 11.3405 166.791 11.2305C166.609 11.3066 166.435 11.4103 166.27 11.5415C166.109 11.6727 165.972 11.8335 165.857 12.0239C166.416 12.2144 166.839 12.4767 167.127 12.811C167.419 13.1411 167.565 13.5262 167.565 13.9663C167.565 14.3091 167.476 14.6201 167.298 14.8994C167.121 15.1787 166.86 15.4178 166.518 15.6167C166.179 15.8156 165.76 15.9701 165.261 16.0801C164.761 16.1859 164.192 16.2388 163.553 16.2388C162.749 16.2388 162.062 16.1562 161.49 15.9912C161.249 16.0378 161.08 16.1034 160.982 16.188C160.889 16.2726 160.843 16.3594 160.843 16.4482C160.843 16.5075 160.864 16.5667 160.906 16.626C160.949 16.6852 161.029 16.7381 161.147 16.7847C161.27 16.8312 161.437 16.8714 161.649 16.9053C161.861 16.9349 162.138 16.9497 162.48 16.9497H165.032C165.498 16.9497 165.927 16.9899 166.321 17.0703C166.714 17.1465 167.053 17.2756 167.336 17.4575C167.624 17.6353 167.848 17.8743 168.009 18.1748C168.17 18.4753 168.25 18.8477 168.25 19.292C168.25 19.6729 168.164 20.0156 167.99 20.3203C167.821 20.6292 167.542 20.8916 167.152 21.1074C166.767 21.3232 166.262 21.4883 165.635 21.6025C165.009 21.7168 164.243 21.7739 163.337 21.7739C162.55 21.7739 161.88 21.738 161.325 21.666C160.775 21.5941 160.324 21.4967 159.973 21.374C159.626 21.2513 159.372 21.1074 159.211 20.9424C159.051 20.7773 158.97 20.6017 158.97 20.4155ZM163.553 15.8452C163.714 15.8452 163.847 15.8114 163.953 15.7437C164.063 15.6717 164.15 15.5617 164.213 15.4136C164.277 15.2612 164.321 15.0666 164.347 14.8296C164.372 14.5926 164.385 14.3049 164.385 13.9663C164.385 13.6278 164.372 13.34 164.347 13.103C164.321 12.866 164.277 12.6735 164.213 12.5254C164.15 12.373 164.063 12.263 163.953 12.1953C163.847 12.1234 163.714 12.0874 163.553 12.0874C163.392 12.0874 163.257 12.1234 163.147 12.1953C163.041 12.263 162.957 12.373 162.893 12.5254C162.83 12.6735 162.783 12.866 162.753 13.103C162.728 13.34 162.715 13.6278 162.715 13.9663C162.715 14.3049 162.728 14.5926 162.753 14.8296C162.783 15.0666 162.83 15.2612 162.893 15.4136C162.957 15.5617 163.041 15.6717 163.147 15.7437C163.257 15.8114 163.392 15.8452 163.553 15.8452ZM159.986 20.3521C159.986 20.4155 159.999 20.4832 160.024 20.5552C160.054 20.6271 160.109 20.6991 160.189 20.771C160.274 20.8429 160.39 20.9106 160.538 20.9741C160.69 21.0376 160.891 21.0947 161.141 21.1455C161.391 21.1963 161.695 21.2365 162.055 21.2661C162.415 21.2957 162.844 21.3105 163.344 21.3105C163.94 21.3105 164.469 21.2852 164.931 21.2344C165.392 21.1836 165.779 21.1138 166.092 21.0249C166.41 20.9403 166.649 20.8366 166.81 20.7139C166.975 20.5954 167.057 20.4663 167.057 20.3267C167.057 20.1235 166.907 19.9754 166.606 19.8823C166.306 19.7935 165.872 19.749 165.305 19.749H162.785C162.404 19.749 162.055 19.7279 161.738 19.6855C161.42 19.6432 161.131 19.5819 160.868 19.5015C160.542 19.6369 160.314 19.7744 160.183 19.9141C160.051 20.0579 159.986 20.2039 159.986 20.3521ZM169.539 18.543H170.65V12.3921H169.539V11.9351H174.427V12.7476C174.562 12.5825 174.723 12.4365 174.909 12.3096C175.095 12.1784 175.301 12.0684 175.525 11.9795C175.753 11.8864 175.997 11.8166 176.255 11.77C176.517 11.7192 176.788 11.6938 177.067 11.6938C177.359 11.6938 177.622 11.7298 177.854 11.8018C178.087 11.8737 178.286 11.9731 178.451 12.1001C178.616 12.2228 178.741 12.3709 178.826 12.5444C178.915 12.7137 178.959 12.8978 178.959 13.0967C178.959 13.2871 178.91 13.467 178.813 13.6362C178.72 13.8055 178.589 13.9536 178.419 14.0806C178.254 14.2075 178.06 14.3091 177.835 14.3853C177.611 14.4572 177.372 14.4932 177.118 14.4932C176.864 14.4932 176.625 14.4572 176.401 14.3853C176.177 14.3091 175.98 14.2075 175.811 14.0806C175.646 13.9536 175.514 13.8055 175.417 13.6362C175.32 13.467 175.271 13.2871 175.271 13.0967C175.271 12.9993 175.284 12.9041 175.309 12.811C175.339 12.7137 175.377 12.6227 175.423 12.5381C175.334 12.5804 175.231 12.646 175.112 12.7349C174.998 12.8195 174.89 12.9253 174.789 13.0522C174.687 13.1792 174.6 13.3273 174.528 13.4966C174.461 13.6616 174.427 13.8415 174.427 14.0361V18.543H175.658V19H169.539V18.543ZM179.917 17.3369C179.917 17.0111 179.979 16.7318 180.102 16.499C180.224 16.262 180.398 16.0632 180.622 15.9023C180.846 15.7373 181.115 15.6061 181.428 15.5088C181.741 15.4072 182.088 15.3289 182.469 15.2739C182.854 15.2189 183.267 15.1829 183.707 15.166C184.147 15.1449 184.604 15.1343 185.078 15.1343V14.7788C185.078 14.2371 185.04 13.8034 184.964 13.4775C184.892 13.1517 184.78 12.902 184.627 12.7285C184.479 12.555 184.295 12.4429 184.075 12.3921C183.855 12.3371 183.599 12.3096 183.307 12.3096C183.151 12.3096 182.983 12.3223 182.806 12.3477C182.632 12.373 182.478 12.4027 182.342 12.4365C182.537 12.4577 182.717 12.5063 182.882 12.5825C183.047 12.6587 183.189 12.7539 183.307 12.8682C183.426 12.9824 183.517 13.1094 183.58 13.249C183.648 13.3887 183.682 13.5304 183.682 13.6743C183.682 13.8521 183.637 14.0192 183.548 14.1758C183.459 14.3324 183.337 14.4699 183.18 14.5884C183.024 14.7026 182.842 14.7936 182.634 14.8613C182.427 14.929 182.205 14.9629 181.968 14.9629C181.731 14.9629 181.509 14.929 181.301 14.8613C181.098 14.7936 180.918 14.7026 180.762 14.5884C180.609 14.4699 180.489 14.3324 180.4 14.1758C180.311 14.0192 180.267 13.8521 180.267 13.6743C180.267 13.4373 180.33 13.2236 180.457 13.0332C180.588 12.8428 180.764 12.6756 180.984 12.5317C181.208 12.3836 181.471 12.2567 181.771 12.1509C182.076 12.0451 182.402 11.9583 182.749 11.8906C183.096 11.8229 183.455 11.7743 183.828 11.7446C184.204 11.7108 184.579 11.6938 184.951 11.6938C185.611 11.6938 186.185 11.7404 186.671 11.8335C187.162 11.9224 187.569 12.0832 187.89 12.3159C188.216 12.5444 188.459 12.8597 188.62 13.2617C188.781 13.6595 188.861 14.1652 188.861 14.7788V17.4385C188.861 17.7559 188.893 18.0013 188.957 18.1748C189.024 18.3441 189.147 18.4287 189.325 18.4287C189.414 18.4287 189.486 18.4012 189.541 18.3462C189.6 18.2869 189.644 18.2108 189.674 18.1177C189.708 18.0246 189.731 17.9167 189.744 17.7939C189.756 17.6712 189.763 17.5464 189.763 17.4194V16.791H190.328V17.4194C190.328 17.758 190.283 18.0436 190.194 18.2764C190.11 18.5091 189.959 18.6974 189.744 18.8413C189.532 18.9852 189.246 19.0868 188.887 19.146C188.531 19.2095 188.083 19.2412 187.541 19.2412C187.266 19.2412 187.008 19.2264 186.767 19.1968C186.53 19.1672 186.312 19.1164 186.113 19.0444C185.918 18.9725 185.749 18.8773 185.605 18.7588C185.461 18.6403 185.347 18.4922 185.262 18.3145C185.135 18.5091 184.966 18.6678 184.754 18.7905C184.543 18.909 184.314 19.0021 184.069 19.0698C183.823 19.1375 183.576 19.182 183.326 19.2031C183.076 19.2285 182.848 19.2412 182.641 19.2412C182.146 19.2412 181.724 19.1883 181.377 19.0825C181.03 18.981 180.749 18.8434 180.533 18.6699C180.317 18.4964 180.161 18.2954 180.063 18.0669C179.966 17.8341 179.917 17.5908 179.917 17.3369ZM183.58 17.2671C183.58 17.5802 183.637 17.8341 183.751 18.0288C183.866 18.2192 184.054 18.3145 184.316 18.3145C184.536 18.3145 184.718 18.2362 184.862 18.0796C185.006 17.9188 185.078 17.7051 185.078 17.4385V15.7183C184.773 15.7183 184.524 15.7458 184.329 15.8008C184.134 15.8558 183.98 15.9447 183.866 16.0674C183.756 16.1859 183.68 16.3446 183.637 16.5435C183.599 16.7424 183.58 16.9836 183.58 17.2671ZM191.286 18.543H192.397V12.3921H191.286V11.9351H196.174V12.7476C196.309 12.5825 196.472 12.4344 196.663 12.3032C196.857 12.172 197.071 12.062 197.304 11.9731C197.536 11.88 197.784 11.8102 198.046 11.7637C198.313 11.7171 198.586 11.6938 198.865 11.6938C199.441 11.6938 199.915 11.77 200.287 11.9224C200.664 12.0705 200.96 12.2842 201.176 12.5635C201.392 12.8385 201.542 13.175 201.626 13.5728C201.711 13.9663 201.753 14.4064 201.753 14.8931V18.543H202.864V19H197.342V18.543H197.977V14.8931C197.977 14.4572 197.964 14.1017 197.938 13.8267C197.913 13.5474 197.869 13.3294 197.805 13.1729C197.742 13.012 197.657 12.902 197.551 12.8428C197.445 12.7793 197.312 12.7476 197.151 12.7476C196.991 12.7476 196.849 12.7814 196.726 12.8491C196.603 12.9168 196.5 13.012 196.415 13.1348C196.335 13.2575 196.273 13.4035 196.231 13.5728C196.193 13.742 196.174 13.9261 196.174 14.125V18.543H196.802V19H191.286V18.543ZM204.337 12.3921H203.226V11.9351H204.337C204.764 11.9351 205.147 11.8631 205.486 11.7192C205.829 11.5711 206.118 11.3807 206.355 11.1479C206.597 10.911 206.781 10.6465 206.908 10.3545C207.035 10.0625 207.098 9.77051 207.098 9.47852H208.114V11.9351H210.158V12.3921H208.114V16.3022C208.114 16.755 208.137 17.1253 208.184 17.4131C208.234 17.6966 208.304 17.9188 208.393 18.0796C208.486 18.2404 208.594 18.3504 208.717 18.4097C208.844 18.4647 208.983 18.4922 209.136 18.4922C209.284 18.4922 209.428 18.4604 209.567 18.397C209.707 18.3293 209.83 18.2235 209.936 18.0796C210.041 17.9315 210.126 17.741 210.189 17.5083C210.253 17.2713 210.285 16.9814 210.285 16.6387C210.285 16.5583 210.283 16.4757 210.278 16.3911C210.274 16.3022 210.268 16.2113 210.259 16.1182H210.792C210.805 16.3298 210.812 16.5223 210.812 16.6958C210.812 17.2248 210.737 17.6564 210.589 17.9907C210.445 18.3208 210.238 18.5789 209.967 18.7651C209.696 18.9513 209.366 19.0783 208.977 19.146C208.592 19.2137 208.158 19.2476 207.676 19.2476C207.134 19.2476 206.656 19.1947 206.241 19.0889C205.826 18.9831 205.477 18.8159 205.194 18.5874C204.91 18.3547 204.697 18.0563 204.553 17.6924C204.409 17.3285 204.337 16.8862 204.337 16.3657V12.3921ZM211.503 15.4009C211.503 14.8338 211.62 14.3218 211.853 13.8647C212.085 13.4077 212.407 13.0184 212.817 12.6968C213.232 12.3752 213.721 12.1276 214.284 11.9541C214.851 11.7806 215.464 11.6938 216.125 11.6938C216.632 11.6938 217.091 11.7446 217.502 11.8462C217.917 11.9478 218.283 12.0874 218.6 12.2651C218.922 12.4386 219.197 12.646 219.425 12.8872C219.658 13.1284 219.848 13.3887 219.997 13.668C220.149 13.9473 220.261 14.2414 220.333 14.5503C220.405 14.855 220.441 15.1618 220.441 15.4707H215.35C215.35 16.1182 215.378 16.645 215.433 17.0513C215.492 17.4575 215.583 17.777 215.706 18.0098C215.833 18.2383 215.993 18.3949 216.188 18.4795C216.387 18.5641 216.626 18.6064 216.905 18.6064C217.261 18.6064 217.595 18.562 217.908 18.4731C218.221 18.3843 218.501 18.2594 218.746 18.0986C218.996 17.9336 219.203 17.7368 219.368 17.5083C219.533 17.2756 219.645 17.0153 219.705 16.7275H220.301C220.259 17.1211 220.138 17.4744 219.939 17.7876C219.741 18.0965 219.476 18.3589 219.146 18.5747C218.82 18.7905 218.435 18.9556 217.991 19.0698C217.551 19.1841 217.068 19.2412 216.543 19.2412C215.718 19.2412 214.99 19.1566 214.36 18.9873C213.734 18.8138 213.209 18.5641 212.786 18.2383C212.362 17.9082 212.043 17.5062 211.827 17.0322C211.611 16.554 211.503 16.0103 211.503 15.4009ZM217.134 14.8296C217.121 14.3006 217.096 13.8605 217.058 13.5093C217.02 13.158 216.965 12.8766 216.893 12.665C216.821 12.4535 216.732 12.3053 216.626 12.2207C216.52 12.1318 216.393 12.0874 216.245 12.0874C216.097 12.0874 215.968 12.1318 215.858 12.2207C215.752 12.3053 215.663 12.4535 215.591 12.665C215.519 12.8766 215.464 13.158 215.426 13.5093C215.388 13.8605 215.365 14.3006 215.356 14.8296H217.134ZM221.583 15.4707C221.583 14.9671 221.664 14.4868 221.825 14.0298C221.99 13.5728 222.237 13.1729 222.567 12.8301C222.902 12.4831 223.321 12.208 223.824 12.0049C224.328 11.7975 224.92 11.6938 225.602 11.6938C226.067 11.6938 226.461 11.7531 226.782 11.8716C227.104 11.9858 227.37 12.1318 227.582 12.3096V9.85938H226.478V9.40234H231.365V18.543H232.476V19H227.582V18.4922C227.409 18.7249 227.165 18.9069 226.852 19.0381C226.539 19.1735 226.122 19.2412 225.602 19.2412C224.92 19.2412 224.328 19.1396 223.824 18.9365C223.321 18.7334 222.902 18.4583 222.567 18.1113C222.237 17.7643 221.99 17.3644 221.825 16.9116C221.664 16.4546 221.583 15.9743 221.583 15.4707ZM226.566 18.5112C226.723 18.5112 226.867 18.4795 226.998 18.416C227.129 18.3483 227.241 18.2425 227.334 18.0986C227.432 17.9505 227.508 17.7622 227.563 17.5337C227.618 17.3052 227.646 17.0259 227.646 16.6958V13.9282C227.646 13.7632 227.622 13.5897 227.576 13.4077C227.529 13.2257 227.457 13.0586 227.36 12.9062C227.263 12.7539 227.14 12.6291 226.992 12.5317C226.848 12.4302 226.679 12.3794 226.484 12.3794C226.306 12.3794 226.154 12.4344 226.027 12.5444C225.9 12.6502 225.796 12.8258 225.716 13.0713C225.635 13.3167 225.576 13.6362 225.538 14.0298C225.5 14.4191 225.481 14.8994 225.481 15.4707C225.481 16.0462 225.498 16.5286 225.532 16.918C225.57 17.3073 225.631 17.6204 225.716 17.8574C225.8 18.0902 225.913 18.2573 226.052 18.3589C226.192 18.4604 226.363 18.5112 226.566 18.5112Z" fill="#CE3272"/>
</g>
<defs>
<filter id="filter0_d_233_35" x="77" y="0" width="166" height="35" filterUnits="userSpaceOnUse" color-interpolation-filters="sRGB">
<feFlood flood-opacity="0" result="BackgroundImageFix"/>
<feColorMatrix in="SourceAlpha" type="matrix" values="0 0 0 0 0 0 0 0 0 0 0 0 0 0 0 0 0 0 127 0" result="hardAlpha"/>
<feOffset dy="4"/>
<feGaussianBlur stdDeviation="2"/>
<feComposite in2="hardAlpha" operator="out"/>
<feColorMatrix type="matrix" values="0 0 0 0 0 0 0 0 0 0 0 0 0 0 0 0 0 0 0.25 0"/>
<feBlend mode="normal" in2="BackgroundImageFix" result="effect1_dropShadow_233_35"/>
<feBlend mode="normal" in="SourceGraphic" in2="effect1_dropShadow_233_35" result="shape"/>
</filter>
</defs>
</svg>
