<svg width="72" height="57" viewBox="0 0 72 57" fill="none" xmlns="http://www.w3.org/2000/svg">
<path d="M68.7411 21.3022L3.91561 21.424C2.02621 21.424 0.512406 22.9873 0.572766 24.8757C0.587286 25.3312 0.600245 25.879 0.585005 26.574L0.100804 48.669C0.0542442 50.7949 -0.0592765 52.6959 0.0386436 54.0452C0.121564 55.1868 1.08241 56.0653 2.22697 56.0653H69.1812C70.5393 56.0653 71.6765 55.0262 71.7858 53.6726C71.872 52.6058 71.872 51.2194 71.872 49.4851V37.491C71.872 28.6176 72.9689 21.3022 68.7411 21.3022ZM8.51509 25.9549C7.70653 25.9549 7.05097 25.2993 7.05097 24.4908C7.05097 23.6821 7.70653 23.0265 8.51509 23.0265C9.32377 23.0265 9.97933 23.6821 9.97933 24.4908C9.97933 25.2994 9.32377 25.9549 8.51509 25.9549ZM62.5282 25.9549C61.7195 25.9549 61.0641 25.2993 61.0641 24.4908C61.0641 23.6821 61.7196 23.0265 62.5282 23.0265C63.3369 23.0265 63.9924 23.6821 63.9924 24.4908C63.9924 25.2994 63.3369 25.9549 62.5282 25.9549Z" fill="#8D735C"/>
<g opacity="0.65">
<g opacity="0.76">
<path d="M15.5767 29.9492C14.2765 30.0086 13.1423 30.0987 12.2942 30.2301C12.2942 30.2301 13.5309 30.0887 15.5767 29.9492Z" fill="#7A5F49"/>
<path d="M12.2999 30.2828L12.2859 30.178C13.0836 30.0544 14.1899 29.9597 15.5741 29.8965L15.5801 30.0021C13.5592 30.1398 12.3124 30.2813 12.2999 30.2828Z" fill="#7A5F49"/>
</g>
<g opacity="0.76">
<path d="M32.9099 30.138C26.1584 29.4301 19.4308 29.6865 15.5767 29.9493C22.1241 29.6505 32.9099 30.138 32.9099 30.138Z" fill="#7A5F49"/>
<path d="M32.9076 30.1907C32.7997 30.1859 22.0493 29.7067 15.579 30.0021L15.573 29.8966C19.0897 29.6569 26.0189 29.3624 32.9154 30.0855L32.9076 30.1907ZM20.6633 29.8004C24.4877 29.8004 28.5028 29.9201 30.8536 30.0044C26.6812 29.6816 22.6223 29.6953 19.4522 29.8047C19.8521 29.8017 20.257 29.8004 20.6633 29.8004Z" fill="#7A5F49"/>
</g>
<g opacity="0.76">
<path d="M2.92825 32.2802C5.87305 32.4649 8.77609 32.3302 11.6804 32.3185C8.14225 32.2624 2.3238 32.1517 2.32104 32.1157C2.32896 32.2183 2.66089 32.2636 2.92825 32.2802Z" fill="#7A5F49"/>
<path d="M6.45139 32.4296C5.28199 32.4296 4.10216 32.407 2.9252 32.3332C2.28188 32.2928 2.27227 32.1672 2.26855 32.1199L2.32135 32.1158L2.33648 32.0659C2.50796 32.1006 7.89488 32.2057 11.6815 32.2658L11.6809 32.3716C10.8736 32.3748 10.0526 32.3878 9.25856 32.4002C8.33444 32.4149 7.39615 32.4296 6.45139 32.4296ZM2.56244 32.184C2.64704 32.2013 2.76644 32.2174 2.9318 32.2277C4.682 32.3375 6.44048 32.3339 8.16056 32.311C7.28 32.2948 6.42764 32.2782 5.67404 32.2626C3.76963 32.2232 2.9318 32.2046 2.56244 32.184Z" fill="#7A5F49"/>
</g>
<g opacity="0.76">
<path d="M11.6807 32.3187C12.9919 32.3395 13.9905 32.3528 14.2632 32.3519C13.4015 32.3221 12.5411 32.3152 11.6807 32.3187Z" fill="#7A5F49"/>
<path d="M14.2392 32.4049C13.9495 32.4049 13.0226 32.3928 11.6797 32.3716L11.6803 32.2659C12.6734 32.2621 13.4948 32.2726 14.2648 32.2992L14.263 32.4048C14.2558 32.4049 14.2478 32.4049 14.2392 32.4049Z" fill="#7A5F49"/>
</g>
<g opacity="0.76">
<path d="M6.20742 30.791C5.88054 30.7409 5.55354 30.6909 5.22666 30.6409L5.14038 30.7586C5.49474 30.7983 5.85162 30.8091 6.20742 30.791Z" fill="#7A5F49"/>
<path d="M5.87375 30.8523C5.62679 30.8523 5.37935 30.8385 5.13455 30.8111L5.04395 30.8009L5.20307 30.5837L6.72839 30.8173L6.21011 30.8438C6.09839 30.8494 5.98607 30.8523 5.87375 30.8523ZM5.23739 30.7156C5.32403 30.7241 5.41102 30.7309 5.49802 30.7359L5.25035 30.698L5.23739 30.7156Z" fill="#7A5F49"/>
</g>
<g opacity="0.76">
<path d="M47.0676 30.803C52.7117 30.4804 62.0068 30.9286 62.0068 30.9286C56.1897 30.2453 50.3903 30.5261 47.0676 30.803Z" fill="#7A5F49"/>
<path d="M62.0041 30.9813C61.9112 30.9769 52.6476 30.5372 47.0704 30.8558L47.063 30.7505C50.0954 30.4976 56.0695 30.1781 62.0128 30.8761L62.0041 30.9813ZM52.0546 30.6343C55.1637 30.6343 58.3315 30.7314 60.2346 30.8024C56.6394 30.4947 53.1411 30.5232 50.4086 30.6443C50.9503 30.6373 51.5015 30.6343 52.0546 30.6343Z" fill="#7A5F49"/>
</g>
<g opacity="0.76">
<path d="M47.0675 30.803C45.9467 30.8671 44.9689 30.9614 44.2375 31.0958C44.2375 31.0958 45.3039 30.95 47.0675 30.803Z" fill="#7A5F49"/>
<path d="M44.2447 31.1483L44.228 31.0439C44.9165 30.9173 45.8708 30.8185 47.0646 30.7502L47.072 30.8556C45.3301 31.0009 44.2554 31.1467 44.2447 31.1483Z" fill="#7A5F49"/>
</g>
<g opacity="0.76">
<path d="M38.3967 31.7163C37.0542 31.695 35.7116 31.6737 34.3691 31.6524C31.6577 31.6095 28.9463 31.5665 26.2349 31.5234C30.6345 31.645 35.0343 31.7667 39.434 31.8882C40.3167 31.9126 41.3771 31.9838 42.2329 31.8304C41.4152 31.565 39.389 31.732 38.3967 31.7163Z" fill="#7A5F49"/>
<path d="M40.8933 31.9789C40.5433 31.9789 40.1923 31.9667 39.8601 31.955C39.7143 31.9499 39.5712 31.9449 39.4327 31.9411L26.2334 31.5762L26.2357 31.4705L38.3977 31.6633C38.6732 31.6675 39.0349 31.6578 39.4176 31.6472C40.4128 31.6197 41.651 31.5858 42.2493 31.7802L42.4498 31.8453L42.2422 31.8825C41.8267 31.9571 41.3608 31.9789 40.8933 31.9789ZM35.2029 31.7185L39.4356 31.8355C39.5744 31.8393 39.7177 31.8444 39.8637 31.8494C40.542 31.8731 41.2996 31.8995 41.9598 31.8181C41.321 31.7007 40.2793 31.7293 39.4204 31.7529C39.0363 31.7636 38.6738 31.7736 38.396 31.7691L35.2029 31.7185Z" fill="#7A5F49"/>
</g>
<g opacity="0.76">
<path d="M45.057 29.678C43.176 29.6858 41.2895 29.5958 39.4092 29.5464C39.7128 29.7227 40.1058 29.7523 40.4783 29.7701C41.9988 29.8423 43.5444 29.8287 45.057 29.678Z" fill="#7A5F49"/>
<path d="M42.2039 29.8646C41.6421 29.8646 41.0655 29.8506 40.4757 29.8225C40.0764 29.8035 39.6923 29.7716 39.3827 29.5918L39.2036 29.4878L39.4106 29.4932C39.9599 29.5076 40.5097 29.5256 41.0598 29.5435C42.3707 29.5862 43.7262 29.63 45.0569 29.6248L45.0624 29.7303C44.1649 29.8198 43.2083 29.8646 42.2039 29.8646ZM39.6787 29.6064C39.92 29.6834 40.1961 29.7034 40.4807 29.717C41.622 29.7712 42.7141 29.7728 43.7426 29.7219C42.8408 29.7074 41.9383 29.6781 41.0561 29.6493C40.5967 29.6343 40.1375 29.6193 39.6787 29.6064Z" fill="#7A5F49"/>
</g>
<g opacity="0.76">
<path d="M67.0774 29.9511C67.3328 29.9401 67.588 29.9285 67.8422 29.9146C67.5884 29.9146 67.3331 29.9294 67.0774 29.9511Z" fill="#7A5F49"/>
<path d="M67.0797 30.0039L67.073 29.8984C67.3684 29.8733 67.6129 29.8616 67.8423 29.8616L67.8452 29.9672C67.5908 29.9812 67.3354 29.9928 67.0797 30.0039Z" fill="#7A5F49"/>
</g>
<g opacity="0.76">
<path d="M64.1936 30.1313C65.144 30.2181 66.1155 30.0329 67.0774 29.9512C66.1144 29.9929 65.1462 30.0253 64.1936 30.1313Z" fill="#7A5F49"/>
<path d="M64.7139 30.2065C64.538 30.2065 64.3629 30.1998 64.1887 30.1838L63.6687 30.1363L64.1876 30.0786C65.0337 29.9845 65.9042 29.9478 66.7462 29.9122L67.075 29.8982L67.0817 30.0037C66.818 30.0261 66.5487 30.0568 66.2883 30.0866C65.7707 30.1459 65.2397 30.2065 64.7139 30.2065Z" fill="#7A5F49"/>
</g>
<g opacity="0.76">
<path d="M60.9397 32.4262C61.2941 32.4659 61.6509 32.4767 62.0067 32.4585C61.6799 32.4084 61.3529 32.3584 61.026 32.3083L60.9397 32.4262Z" fill="#7A5F49"/>
<path d="M61.6725 32.52C61.4256 32.52 61.1783 32.5062 60.9336 32.4789L60.843 32.4687L61.0021 32.2515L62.5281 32.4849L62.0093 32.5114C61.8973 32.5171 61.7849 32.52 61.6725 32.52ZM61.0366 32.3833C61.1232 32.3917 61.2101 32.3986 61.2972 32.4035L61.0495 32.3656L61.0366 32.3833Z" fill="#7A5F49"/>
</g>
<g opacity="0.76">
<path d="M64.2353 23.2109C64.2284 23.2177 64.2219 23.2253 64.2147 23.2318C64.1594 23.2826 64.1021 23.3309 64.0442 23.3782C66.6259 23.4542 68.4315 23.5358 68.4315 23.5358C67.0228 23.3882 65.6159 23.2833 64.2353 23.2109Z" fill="#7A5F49"/>
<path d="M60.303 23.0854C56.6274 23.0405 53.3655 23.1924 51.0984 23.3471C53.8548 23.2213 57.3624 23.2349 60.5002 23.2927C60.4312 23.2269 60.3652 23.158 60.303 23.0854Z" fill="#7A5F49"/>
<path d="M60.4454 23.24C59.0627 23.2148 57.6106 23.1981 56.1848 23.1981C55.7778 23.1981 55.3737 23.1994 54.9732 23.2023C56.5731 23.1471 58.3997 23.1166 60.3527 23.1411C60.3214 23.1064 60.2909 23.0708 60.261 23.0345C56.4824 22.9904 53.1851 23.1516 51.0947 23.2942L51.1007 23.3997C53.8605 23.2737 57.3986 23.2887 60.5578 23.3476C60.5192 23.3129 60.4818 23.2768 60.4454 23.24Z" fill="#7A5F49"/>
<path d="M64.2828 23.1628C64.2603 23.186 64.2382 23.2104 64.2148 23.2318C64.2033 23.2424 64.1912 23.2524 64.1796 23.2628C64.9054 23.2999 65.638 23.3451 66.3755 23.4022C65.7312 23.3792 64.9613 23.3534 64.1051 23.3282C64.064 23.3632 64.022 23.3972 63.9792 23.4302C66.5615 23.5054 68.3852 23.5867 68.4292 23.5886L68.437 23.4832C67.0434 23.3372 65.6505 23.2346 64.2828 23.1628Z" fill="#7A5F49"/>
</g>
<g opacity="0.76">
<path d="M62.2939 27.383C59.274 27.3877 56.2453 27.3341 53.2268 27.3047C53.7142 27.4096 54.3451 27.4272 54.943 27.4378C57.3841 27.4808 59.8656 27.4728 62.2939 27.383Z" fill="#7A5F49"/>
<path d="M57.7133 27.5156C56.8126 27.5156 55.8881 27.5073 54.9421 27.4907C54.3094 27.4795 53.7012 27.4609 53.2156 27.3564L52.7063 27.2468L53.2272 27.2519C54.1103 27.2605 54.9943 27.2712 55.8787 27.2819C57.9825 27.3073 60.1575 27.3336 62.2938 27.3302L62.2959 27.4358C60.858 27.489 59.3242 27.5156 57.7133 27.5156ZM54.3492 27.3693C54.5427 27.377 54.7422 27.3813 54.9442 27.3848C55.9199 27.402 56.8734 27.4097 57.8009 27.4098C57.1553 27.4027 56.5133 27.395 55.8778 27.3873C55.368 27.3813 54.8584 27.3752 54.3492 27.3693Z" fill="#7A5F49"/>
</g>
</g>
<g opacity="0.65">
<g opacity="0.76">
<path d="M54.5869 36.8996C55.8872 36.8402 57.0212 36.7501 57.8694 36.6187C57.8694 36.6187 56.6327 36.76 54.5869 36.8996Z" fill="#7A5F49"/>
<path d="M54.5893 36.9524L54.5833 36.8468C56.6041 36.709 57.8511 36.5675 57.8635 36.5662L57.8775 36.6709C57.0794 36.7945 55.9731 36.8893 54.5893 36.9524Z" fill="#7A5F49"/>
</g>
<g opacity="0.76">
<path d="M37.2537 36.7109C44.0052 37.4188 50.7328 37.1625 54.587 36.8996C48.0396 37.1985 37.2537 36.7109 37.2537 36.7109Z" fill="#7A5F49"/>
<path d="M46.6984 37.2202C43.7844 37.2202 40.5128 37.1059 37.2483 36.7636L37.2561 36.6582C37.364 36.6631 48.1143 37.1423 54.5847 36.8468L54.5907 36.9524C52.7386 37.0787 49.94 37.2202 46.6984 37.2202ZM39.3099 36.8447C43.4819 37.1675 47.5405 37.1538 50.7106 37.0445C46.5476 37.0747 41.9103 36.9378 39.3099 36.8447Z" fill="#7A5F49"/>
</g>
<g opacity="0.76">
<path d="M67.2351 34.5685C64.2903 34.3839 61.3873 34.5186 58.4829 34.5303C62.0211 34.5863 67.8396 34.6971 67.8423 34.7331C67.8344 34.6305 67.5025 34.5853 67.2351 34.5685Z" fill="#7A5F49"/>
<path d="M67.8273 34.7828C67.6557 34.748 62.2688 34.6429 58.4822 34.5829L58.4828 34.4772C59.2899 34.474 60.1108 34.461 60.9049 34.4485C62.9725 34.416 65.1103 34.3822 67.2386 34.5157C67.8818 34.556 67.8915 34.6816 67.8951 34.7288L67.8424 34.7329L67.8273 34.7828ZM62.0033 34.5378C62.8835 34.554 63.7358 34.5706 64.4896 34.5862C66.3938 34.6255 67.2316 34.6441 67.6011 34.6648C67.5165 34.6476 67.3972 34.6315 67.2319 34.6211C65.4817 34.5115 63.7237 34.515 62.0033 34.5378Z" fill="#7A5F49"/>
</g>
<g opacity="0.76">
<path d="M58.4829 34.5302C57.1717 34.5094 56.173 34.4961 55.9004 34.4969C56.7621 34.5267 57.6226 34.5336 58.4829 34.5302Z" fill="#7A5F49"/>
<path d="M58.0917 34.5838C57.2703 34.5838 56.5654 34.5728 55.8987 34.5497L55.9004 34.4441C56.1611 34.4433 57.1006 34.4555 58.4838 34.4774L58.4832 34.5831C58.3497 34.5835 58.2192 34.5838 58.0917 34.5838Z" fill="#7A5F49"/>
</g>
<g opacity="0.76">
<path d="M63.9563 36.0578C64.2832 36.1079 64.6102 36.1579 64.9371 36.208L65.0233 36.0901C64.6689 36.0505 64.312 36.0397 63.9563 36.0578Z" fill="#7A5F49"/>
<path d="M64.9605 36.265L63.4348 36.0316L63.9535 36.0051C64.3108 35.9869 64.6729 35.9979 65.029 36.0376L65.1196 36.0478L64.9605 36.265ZM64.6655 36.1129L64.9132 36.1509L64.9261 36.1331C64.8395 36.1247 64.7527 36.118 64.6655 36.1129Z" fill="#7A5F49"/>
</g>
<g opacity="0.76">
<path d="M23.0961 36.0461C17.4521 36.3687 8.15698 35.9207 8.15698 35.9207C13.9742 36.6039 19.7735 36.323 23.0961 36.0461Z" fill="#7A5F49"/>
<path d="M15.9484 36.396C13.5253 36.396 10.8353 36.2884 8.15088 35.9732L8.15964 35.8679C8.25252 35.8724 17.5165 36.3123 23.0933 35.9933L23.1007 36.0987C21.438 36.2373 18.89 36.396 15.9484 36.396ZM9.9294 36.0468C13.5245 36.3544 17.022 36.326 19.7544 36.205C16.1671 36.2504 12.1708 36.1305 9.9294 36.0468Z" fill="#7A5F49"/>
</g>
<g opacity="0.76">
<path d="M23.0959 36.0457C24.2167 35.9817 25.1945 35.8873 25.9259 35.7529C25.9259 35.7529 24.8596 35.8989 23.0959 36.0457Z" fill="#7A5F49"/>
<path d="M23.0992 36.0986L23.0918 35.9932C24.8336 35.8482 25.9083 35.7021 25.919 35.7007L25.9357 35.8051C25.2471 35.9316 24.2928 36.0304 23.0992 36.0986Z" fill="#7A5F49"/>
</g>
<g opacity="0.76">
<path d="M31.7667 35.1329C33.1093 35.1541 34.4518 35.1755 35.7944 35.1967C38.5058 35.2397 41.2172 35.2826 43.9286 35.3257C39.5288 35.2042 35.1291 35.0825 30.7293 34.9609C29.8466 34.9366 28.7863 34.8654 27.9304 35.0188C28.7483 35.2842 30.7745 35.1172 31.7667 35.1329Z" fill="#7A5F49"/>
<path d="M43.9278 35.3785L31.7659 35.1856C31.4911 35.1812 31.1292 35.1912 30.7464 35.2017C29.7512 35.2292 28.5127 35.2632 27.9141 35.0688L27.7136 35.0036L27.9212 34.9664C28.6482 34.8362 29.5278 34.8669 30.3033 34.8939C30.4493 34.899 30.5922 34.904 30.7309 34.9078L43.9301 35.2726L43.9278 35.3785ZM31.6226 35.0788C31.6731 35.0788 31.7215 35.0792 31.7676 35.0799L34.9613 35.1306L30.7279 35.0136C30.5891 35.0097 30.4458 35.0047 30.2996 34.9996C29.6214 34.976 28.8637 34.9495 28.2037 35.031C28.8428 35.1484 29.8847 35.1198 30.7435 35.0961C31.0637 35.0872 31.3689 35.0788 31.6226 35.0788Z" fill="#7A5F49"/>
</g>
<g opacity="0.76">
<path d="M25.1067 37.171C26.9877 37.1632 28.8742 37.2532 30.7545 37.3027C30.4509 37.1264 30.058 37.0967 29.6854 37.079C28.165 37.0067 26.6194 37.0203 25.1067 37.171Z" fill="#7A5F49"/>
<path d="M30.96 37.3609L30.753 37.3555C30.2029 37.341 29.6523 37.3231 29.1015 37.3051C27.7915 37.2625 26.4372 37.2183 25.1068 37.2238L25.1013 37.1184C26.4997 36.9789 28.043 36.948 29.6877 37.0262C30.0871 37.0452 30.4712 37.0771 30.7808 37.2568L30.96 37.3609ZM26.421 37.1269C27.3219 37.1414 28.2236 37.1708 29.105 37.1995C29.5652 37.2145 30.0252 37.2295 30.4849 37.2424C30.2434 37.1654 29.9673 37.1454 29.6828 37.1318C28.5412 37.0776 27.4492 37.076 26.421 37.1269Z" fill="#7A5F49"/>
</g>
<g opacity="0.76">
<path d="M3.08617 36.8982C2.83069 36.9092 2.57557 36.9209 2.32129 36.9348C2.57521 36.9347 2.83033 36.9199 3.08617 36.8982Z" fill="#7A5F49"/>
<path d="M2.32124 36.9874L2.31836 36.8818C2.57276 36.8678 2.82812 36.8563 3.08384 36.8452L3.09056 36.9507C2.79584 36.9758 2.55152 36.9874 2.32124 36.9874Z" fill="#7A5F49"/>
</g>
<g opacity="0.76">
<path d="M5.96978 36.7179C5.01938 36.6312 4.04786 36.8163 3.08594 36.898C4.04882 36.8563 5.01722 36.8238 5.96978 36.7179Z" fill="#7A5F49"/>
<path d="M3.08826 36.9508L3.08154 36.8453C3.3453 36.8229 3.61482 36.7921 3.87546 36.7624C4.56606 36.6834 5.27994 36.6018 5.9745 36.6653L6.49422 36.7128L5.97558 36.7705C5.13006 36.8646 4.25982 36.9013 3.41838 36.9369L3.08826 36.9508Z" fill="#7A5F49"/>
</g>
<g opacity="0.76">
<path d="M9.22402 34.4225C8.86966 34.3828 8.51278 34.372 8.15698 34.3901C8.48386 34.4401 8.81086 34.4902 9.13774 34.5402L9.22402 34.4225Z" fill="#7A5F49"/>
<path d="M9.16131 34.5974L7.63599 34.3639L8.15427 34.3373C8.51187 34.3192 8.87379 34.3301 9.22995 34.37L9.32067 34.3802L9.16131 34.5974ZM8.86671 34.4455L9.11403 34.4833L9.12699 34.4656C9.04047 34.4571 8.95359 34.4504 8.86671 34.4455Z" fill="#7A5F49"/>
</g>
</g>
<g opacity="0.65">
<g opacity="0.76">
<path d="M31.104 43.8091C29.8037 43.8685 28.6697 43.9586 27.8215 44.09C27.8215 44.09 29.0583 43.9486 31.104 43.8091Z" fill="#7A5F49"/>
<path d="M27.8275 44.1424L27.8135 44.0376C28.6117 43.914 29.7181 43.8193 31.1017 43.7561L31.1077 43.8617C29.0869 43.9996 27.84 44.1409 27.8275 44.1424Z" fill="#7A5F49"/>
</g>
<g opacity="0.76">
<path d="M48.437 43.9979C41.6855 43.29 34.9579 43.5463 31.1038 43.8092C37.6512 43.5103 48.437 43.9979 48.437 43.9979Z" fill="#7A5F49"/>
<path d="M48.4348 44.0507C48.3269 44.0459 37.5764 43.5667 31.1063 43.862L31.1003 43.7564C34.6174 43.5167 41.5469 43.2223 48.4427 43.9453L48.4348 44.0507ZM36.1905 43.6602C40.0154 43.6602 44.0306 43.7799 46.3811 43.8642C42.2091 43.5413 38.1505 43.5549 34.9804 43.6644C35.3803 43.6615 35.7839 43.6602 36.1905 43.6602Z" fill="#7A5F49"/>
</g>
<g opacity="0.76">
<path d="M18.4556 46.1401C21.4004 46.3248 24.3034 46.19 27.2078 46.1784C23.6696 46.1223 17.8511 46.0116 17.8484 45.9756C17.8563 46.0781 18.1882 46.1233 18.4556 46.1401Z" fill="#7A5F49"/>
<path d="M21.9795 46.2893C20.8098 46.2893 19.6297 46.2666 18.4524 46.1928C17.8091 46.1525 17.7995 46.0269 17.7959 45.9797L17.8486 45.9756L17.8637 45.9255C18.0353 45.9603 23.4222 46.0655 27.2088 46.1255L27.2082 46.2312C26.4012 46.2344 25.5802 46.2474 24.7861 46.2599C23.8623 46.2745 22.9242 46.2893 21.9795 46.2893ZM18.0898 46.0436C18.1744 46.0608 18.2937 46.0769 18.459 46.0873C20.2092 46.197 21.9676 46.1935 23.6875 46.1707C22.8073 46.1545 21.9551 46.1379 21.2013 46.1223C19.2971 46.083 18.4594 46.0644 18.0898 46.0436Z" fill="#7A5F49"/>
</g>
<g opacity="0.76">
<path d="M27.2078 46.1786C28.519 46.1993 29.5176 46.2126 29.7903 46.2119C28.9286 46.182 28.0682 46.1751 27.2078 46.1786Z" fill="#7A5F49"/>
<path d="M29.765 46.2646C29.4742 46.2646 28.5483 46.2525 27.207 46.2313L27.2076 46.1256C28.2002 46.1216 29.0219 46.1322 29.7921 46.1589L29.7904 46.2645C29.7825 46.2646 29.7741 46.2646 29.765 46.2646Z" fill="#7A5F49"/>
</g>
<g opacity="0.76">
<path d="M21.7348 44.6509C21.4079 44.6008 21.0809 44.5508 20.754 44.5007L20.6677 44.6186C21.0221 44.6582 21.379 44.669 21.7348 44.6509Z" fill="#7A5F49"/>
<path d="M21.4006 44.7122C21.1538 44.7122 20.9064 44.6984 20.6619 44.671L20.5713 44.6608L20.7304 44.4436L22.2562 44.677L21.7376 44.7035C21.6255 44.7093 21.5131 44.7122 21.4006 44.7122ZM20.7647 44.5755C20.8514 44.5839 20.9383 44.5907 21.0254 44.5956L20.7777 44.5577L20.7647 44.5755Z" fill="#7A5F49"/>
</g>
<g opacity="0.76">
<path d="M55.6929 39.6951C61.337 39.3725 70.632 39.8207 70.632 39.8207C64.8149 39.1374 59.0156 39.4182 55.6929 39.6951Z" fill="#7A5F49"/>
<path d="M70.6296 39.8735C70.5368 39.869 61.273 39.4292 55.6959 39.748L55.6885 39.6426C58.7208 39.3898 64.695 39.0701 70.6383 39.7682L70.6296 39.8735ZM60.6801 39.5264C63.7892 39.5264 66.957 39.6234 68.86 39.6946C65.2646 39.3869 61.7665 39.4153 59.034 39.5364C59.5758 39.5294 60.1269 39.5264 60.6801 39.5264Z" fill="#7A5F49"/>
</g>
<g opacity="0.76">
<path d="M62.5949 44.6626C61.4741 44.7267 60.4963 44.821 59.7649 44.9554C59.7649 44.9554 60.8312 44.8096 62.5949 44.6626Z" fill="#7A5F49"/>
<path d="M59.772 45.0079L59.7554 44.9035C60.4441 44.7769 61.3984 44.678 62.5919 44.6099L62.5994 44.7152C60.8576 44.8605 59.7828 45.0065 59.772 45.0079Z" fill="#7A5F49"/>
</g>
<g opacity="0.76">
<path d="M53.9242 45.5759C52.5817 45.5547 51.2392 45.5333 49.8967 45.5121C47.1853 45.4691 44.4739 45.4261 41.7625 45.3831C46.1621 45.5046 50.5619 45.6263 54.9616 45.7479C55.8443 45.7722 56.9047 45.8434 57.7605 45.69C56.9427 45.4246 54.9165 45.5916 53.9242 45.5759Z" fill="#7A5F49"/>
<path d="M56.421 45.8384C56.0709 45.8384 55.7199 45.8262 55.3877 45.8145C55.2418 45.8095 55.0987 45.8044 54.9601 45.8006L41.761 45.4358L41.7633 45.3301L53.9251 45.5229C54.1996 45.5271 54.5618 45.5173 54.9447 45.5068C55.9398 45.4794 57.1783 45.4454 57.7769 45.6398L57.9774 45.705L57.7698 45.7422C57.3541 45.8166 56.8885 45.8384 56.421 45.8384ZM50.7298 45.578L54.9631 45.695C55.102 45.6988 55.2453 45.7039 55.3914 45.7089C56.0697 45.7326 56.8273 45.7591 57.4873 45.6776C56.8483 45.5602 55.8066 45.5889 54.9475 45.6124C54.5638 45.623 54.2014 45.633 53.9235 45.6286L50.7298 45.578Z" fill="#7A5F49"/>
</g>
<g opacity="0.76">
<path d="M63.5608 43.5374C60.6885 43.5452 57.8078 43.4552 54.9368 43.4058C55.4003 43.5819 56.0003 43.6117 56.5691 43.6293C58.891 43.7017 61.2512 43.6881 63.5608 43.5374Z" fill="#7A5F49"/>
<path d="M59.204 43.7243C58.347 43.7243 57.4674 43.7103 56.5674 43.6823C55.9633 43.6635 55.3827 43.6321 54.9179 43.4553L54.6353 43.3479L54.9375 43.3531C55.7773 43.3676 56.618 43.3855 57.4591 43.4035C59.46 43.4461 61.5284 43.4903 63.5605 43.4847L63.564 43.5903C62.1959 43.6796 60.7367 43.7243 59.204 43.7243ZM55.34 43.4659C55.7119 43.5429 56.1349 43.5631 56.5707 43.5766C58.3147 43.631 59.9834 43.6324 61.5547 43.5815C60.1793 43.567 58.8026 43.5376 57.4568 43.5089C56.751 43.4939 56.0453 43.4789 55.34 43.4659Z" fill="#7A5F49"/>
</g>
<g opacity="0.76">
<path d="M50.9395 25.2067C51.8899 25.2935 52.8614 25.1083 53.8233 25.0266C52.8603 25.0684 51.8919 25.1008 50.9395 25.2067Z" fill="#7A5F49"/>
<path d="M51.46 25.2819C51.2841 25.2819 51.1089 25.2752 50.9348 25.2592L50.415 25.2117L50.9337 25.154C51.7797 25.0599 52.6503 25.0232 53.4923 24.9876L53.8211 24.9736L53.8278 25.0791C53.5641 25.1016 53.2947 25.1323 53.0342 25.1622C52.5166 25.2213 51.9857 25.2819 51.46 25.2819Z" fill="#7A5F49"/>
</g>
<g opacity="0.76">
<path d="M47.6855 27.5018C48.0399 27.5415 48.3968 27.5523 48.7526 27.5342C48.4257 27.4841 48.0987 27.4341 47.7718 27.384L47.6855 27.5018Z" fill="#7A5F49"/>
<path d="M48.4184 27.5955C48.1717 27.5955 47.9244 27.5818 47.6797 27.5543L47.5891 27.5441L47.7481 27.3269L49.2736 27.5603L48.7553 27.5868C48.6433 27.5926 48.5309 27.5955 48.4184 27.5955ZM47.7824 27.4588C47.8692 27.4672 47.9561 27.474 48.0432 27.4791L47.7955 27.4411L47.7824 27.4588Z" fill="#7A5F49"/>
</g>
</g>
<g opacity="0.65">
<g opacity="0.76">
<path d="M68.4731 43.5461C69.7735 43.4867 70.9075 43.3965 71.7556 43.2651C71.7556 43.2651 70.5189 43.4065 68.4731 43.5461Z" fill="#7A5F49"/>
<path d="M68.4755 43.5992L68.4695 43.4936C70.4904 43.3557 71.7373 43.2143 71.7497 43.2129L71.7637 43.3176C70.9655 43.4412 69.8592 43.5359 68.4755 43.5992Z" fill="#7A5F49"/>
</g>
<g opacity="0.76">
<path d="M52.781 50.6597C59.5326 51.3675 66.2601 51.1112 70.1143 50.8483C63.567 51.1472 52.781 50.6597 52.781 50.6597Z" fill="#7A5F49"/>
<path d="M62.226 51.1689C59.312 51.1689 56.0404 51.0547 52.7756 50.7123L52.7834 50.6069C52.8913 50.6119 63.6419 51.091 70.112 50.7956L70.118 50.9011C68.2661 51.0274 65.4674 51.1689 62.226 51.1689ZM54.8372 50.7933C59.01 51.1162 63.069 51.1024 66.2395 50.9931C62.0749 51.023 57.438 50.8865 54.8372 50.7933Z" fill="#7A5F49"/>
</g>
<g opacity="0.76">
<path d="M10.0608 25.6453C23.3767 25.7046 40.8528 25.7957 40.8622 25.8277C40.8322 25.7252 39.5719 25.6801 38.5568 25.6633C28.994 25.5054 19.5473 25.581 10.1143 25.6134C10.0968 25.6244 10.0787 25.6347 10.0608 25.6453Z" fill="#7A5F49"/>
<path d="M7.09179 25.6218C6.50451 25.623 5.91711 25.6242 5.32983 25.6248C5.90643 25.6272 6.49935 25.6297 7.10535 25.6324C7.10091 25.6289 7.09635 25.6254 7.09179 25.6218Z" fill="#7A5F49"/>
<path d="M7.02363 25.5693C6.45795 25.5705 5.89275 25.5715 5.32971 25.5721L5.32959 25.6778C5.93487 25.6803 6.55035 25.683 7.17411 25.6856C7.12407 25.6469 7.07391 25.6081 7.02363 25.5693Z" fill="#7A5F49"/>
<path d="M38.5579 25.6103C30.4852 25.477 22.3725 25.5107 14.5268 25.5432C13.0996 25.5491 11.6492 25.5551 10.1925 25.5601C10.1202 25.611 10.0448 25.6569 9.96655 25.6975C23.9643 25.7596 40.6033 25.8485 40.8528 25.8792L40.8622 25.8275L40.9129 25.8126C40.8962 25.7553 40.8649 25.6483 38.5579 25.6103ZM39.884 25.7579C39.2527 25.7513 38.3365 25.7439 37.1953 25.7357C35.0386 25.7202 31.9885 25.7019 28.1296 25.6809C25.2685 25.6653 22.0344 25.6488 18.6931 25.6325C25.227 25.6096 31.9053 25.6061 38.5562 25.7159C39.1443 25.7256 39.6004 25.7407 39.9445 25.7585C39.9248 25.7584 39.9045 25.7581 39.884 25.7579Z" fill="#7A5F49"/>
</g>
<g opacity="0.76">
<path d="M68.3689 45.6008C67.0577 45.58 66.059 45.5667 65.7864 45.5674C66.6481 45.5973 67.5086 45.6043 68.3689 45.6008Z" fill="#7A5F49"/>
<path d="M67.9737 45.6544C67.1541 45.6544 66.4504 45.6434 65.7844 45.6202L65.7862 45.5146C66.0453 45.516 66.9863 45.526 68.3697 45.5479L68.3691 45.6536C68.2342 45.6541 68.1025 45.6544 67.9737 45.6544Z" fill="#7A5F49"/>
</g>
<g opacity="0.76">
<path d="M39.783 40.8254C41.024 40.8754 42.2652 40.9255 43.5063 40.9755L43.8339 40.8578C42.4886 40.8181 41.1336 40.8073 39.783 40.8254Z" fill="#7A5F49"/>
<path d="M43.5144 41.0285L39.7808 40.878L39.7822 40.7724C41.1302 40.7543 42.4937 40.7652 43.8354 40.8047L44.1142 40.813L43.5144 41.0285ZM42.4504 40.8799L43.4981 40.9222L43.5525 40.9026C43.1864 40.8929 42.8188 40.8853 42.4504 40.8799Z" fill="#7A5F49"/>
</g>
<g opacity="0.76">
<path d="M38.6235 49.9948C32.9794 50.3175 23.6843 49.8694 23.6843 49.8694C29.5016 50.5527 35.3008 50.2718 38.6235 49.9948Z" fill="#7A5F49"/>
<path d="M31.4757 50.3448C29.0527 50.3448 26.3624 50.2371 23.6782 49.9219L23.687 49.8167C23.7799 49.8212 33.0436 50.2611 38.6206 49.9422L38.6281 50.0475C36.9651 50.186 34.4175 50.3448 31.4757 50.3448ZM25.4566 49.9954C29.0513 50.303 32.5489 50.2746 35.2816 50.1536C31.6942 50.1987 27.698 50.0791 25.4566 49.9954Z" fill="#7A5F49"/>
</g>
<g opacity="0.76">
<path d="M38.6235 49.9949C39.7443 49.9309 40.7221 49.8365 41.4535 49.7021C41.4535 49.7021 40.3872 49.8481 38.6235 49.9949Z" fill="#7A5F49"/>
<path d="M38.6266 50.0476L38.6191 49.9422C40.3609 49.797 41.4357 49.6511 41.4465 49.6497L41.4631 49.7541C40.7747 49.8805 39.8203 49.9793 38.6266 50.0476Z" fill="#7A5F49"/>
</g>
<g opacity="0.76">
<path d="M47.2939 49.0816C48.6365 49.1028 49.9791 49.1242 51.3216 49.1454C54.033 49.1884 56.7444 49.2314 59.4558 49.2744C55.0561 49.1528 50.6563 49.0312 46.2566 48.9096C45.3739 48.8853 44.3136 48.8141 43.4578 48.9675C44.2756 49.2329 46.3018 49.0658 47.2939 49.0816Z" fill="#7A5F49"/>
<path d="M59.4553 49.3272L47.2934 49.1344C47.0179 49.1299 46.6562 49.1399 46.2735 49.1505C45.2782 49.1779 44.04 49.2119 43.4417 49.0175L43.2412 48.9523L43.4488 48.9151C44.1756 48.7849 45.0551 48.8157 45.831 48.8427C45.9768 48.8478 46.1199 48.8527 46.2585 48.8566L59.4578 49.2215L59.4553 49.3272ZM47.2949 49.0287L50.4881 49.0793L46.2554 48.9623C46.1165 48.9585 45.9732 48.9534 45.8272 48.9484C45.1488 48.9247 44.3912 48.8983 43.7312 48.9797C44.3701 49.0971 45.4118 49.0685 46.2705 49.0449C46.6546 49.0343 47.0174 49.0245 47.2949 49.0287Z" fill="#7A5F49"/>
</g>
<g opacity="0.76">
<path d="M40.6338 51.12C42.5148 51.1122 44.4013 51.2022 46.2816 51.2516C45.978 51.0753 45.585 51.0457 45.2125 51.0281C43.692 50.9557 42.1464 50.9693 40.6338 51.12Z" fill="#7A5F49"/>
<path d="M46.4873 51.3098L46.2803 51.3044C45.7305 51.29 45.1801 51.272 44.6295 51.2541C43.3193 51.2114 41.9649 51.1679 40.6342 51.1729L40.6287 51.0674C42.0274 50.9279 43.5706 50.897 45.2151 50.9751C45.6144 50.9942 45.9985 51.0261 46.3081 51.2059L46.4873 51.3098ZM41.9484 51.0759C42.8496 51.0903 43.7512 51.1197 44.6329 51.1485C45.0929 51.1635 45.5526 51.1785 46.012 51.1913C45.7708 51.1144 45.4947 51.0943 45.2101 51.0807C44.0689 51.0265 42.9769 51.0249 41.9484 51.0759Z" fill="#7A5F49"/>
</g>
<g opacity="0.76">
<path d="M18.6135 50.8467C18.358 50.8577 18.1029 50.8694 17.8486 50.8833C18.1026 50.8833 18.3577 50.8684 18.6135 50.8467Z" fill="#7A5F49"/>
<path d="M17.8486 50.9361L17.8457 50.8305C18.1001 50.8165 18.3555 50.805 18.6112 50.7939L18.6179 50.8994C18.3225 50.9245 18.078 50.9361 17.8486 50.9361Z" fill="#7A5F49"/>
</g>
<g opacity="0.76">
<path d="M21.4974 50.6667C20.547 50.5799 19.5754 50.7651 18.6135 50.8468C19.5766 50.805 20.5449 50.7725 21.4974 50.6667Z" fill="#7A5F49"/>
<path d="M18.6159 50.8996L18.6091 50.7941C18.8729 50.7717 19.1422 50.7409 19.4027 50.7111C20.0934 50.6321 20.8076 50.5506 21.5022 50.614L22.022 50.6615L21.5033 50.7192C20.6572 50.8133 19.7867 50.85 18.9446 50.8857L18.6159 50.8996Z" fill="#7A5F49"/>
</g>
<g opacity="0.76">
<path d="M24.7514 48.3714C24.397 48.3317 24.0401 48.3209 23.6843 48.3392C24.0112 48.3892 24.3382 48.4392 24.6651 48.4893L24.7514 48.3714Z" fill="#7A5F49"/>
<path d="M24.6886 48.5463L23.1631 48.3129L23.6815 48.2864C24.0388 48.2682 24.4008 48.2791 24.7572 48.3189L24.8478 48.3291L24.6886 48.5463ZM24.3936 48.3943L24.6414 48.4322L24.6543 48.4144C24.5676 48.406 24.4807 48.3993 24.3936 48.3943Z" fill="#7A5F49"/>
</g>
</g>
<g opacity="0.65">
<path d="M29.4072 41.0818C17.4222 41.0172 7.81934 40.896 7.81934 40.896C15.1527 41.1217 22.4758 41.2337 29.4012 41.2734C29.4033 41.2096 29.4052 41.1456 29.4072 41.0818Z" fill="#7A5F49"/>
<path d="M29.4527 41.3265L29.4012 41.3261C21.8028 41.2826 14.5411 41.1556 7.81787 40.9487L7.82015 40.843C7.91627 40.8442 17.56 40.9651 29.4077 41.0288L29.4619 41.0291L29.4527 41.3265ZM14.7116 41.0231C19.4029 41.125 24.3018 41.191 29.3502 41.2202L29.3528 41.1343C23.7017 41.1038 18.5555 41.0603 14.7116 41.0231Z" fill="#7A5F49"/>
</g>
<g opacity="0.65">
<path d="M0.201455 44.9517C0.201215 45.0203 0.199653 45.0888 0.196533 45.1572C3.51369 45.2057 6.46774 45.0355 8.4973 44.8665C6.06454 45.0055 2.95402 45.0013 0.201455 44.9517Z" fill="#7A5F49"/>
<path d="M1.34471 45.2184C0.967433 45.2184 0.584035 45.2157 0.195715 45.2101L0.141113 45.2092L0.143633 45.1548C0.146753 45.0871 0.148194 45.0193 0.148434 44.9514L0.148676 44.8978L0.202314 44.8988C3.63312 44.9607 6.42264 44.932 8.4942 44.8137L8.50163 44.9191C6.80135 45.0608 4.25507 45.2184 1.34471 45.2184ZM0.251394 45.1052C2.02799 45.1298 3.69815 45.0914 5.15891 45.0261C3.71243 45.0446 2.0736 45.0379 0.253676 45.0055C0.253196 45.0387 0.252474 45.072 0.251394 45.1052Z" fill="#7A5F49"/>
</g>
<g opacity="0.65">
<path d="M10.5076 45.9913C12.3886 45.9835 14.2751 46.0735 16.1554 46.123C15.8518 45.9467 15.4588 45.9171 15.0863 45.8993C13.5659 45.8271 12.0202 45.8406 10.5076 45.9913Z" fill="#7A5F49"/>
<path d="M16.361 46.1813L16.154 46.1759C15.604 46.1614 15.0537 46.1435 14.503 46.1256C13.1927 46.0829 11.8389 46.0395 10.5077 46.0444L10.5022 45.9389C11.9009 45.7995 13.4439 45.7685 15.0887 45.8468C15.4721 45.865 15.8722 45.8978 16.1818 46.0774L16.361 46.1813ZM11.8221 45.9473C12.7232 45.9617 13.6248 45.9911 14.5064 46.0199C14.9664 46.0349 15.4263 46.0498 15.8858 46.0628C15.6443 45.9857 15.3682 45.9657 15.0838 45.9521C13.9425 45.8979 12.8506 45.8963 11.8221 45.9473Z" fill="#7A5F49"/>
</g>
<g opacity="0.65">
<path d="M13.3314 48.9938C10.1565 48.9071 6.91161 49.0921 3.69849 49.1739C6.91509 49.1323 10.1496 49.0998 13.3314 48.9938Z" fill="#7A5F49"/>
<path d="M3.69931 49.2269L3.69727 49.1211C4.58119 49.0987 5.4825 49.0679 6.35419 49.0381C8.65303 48.9594 11.0297 48.8784 13.333 48.941L13.3334 49.0466C10.5143 49.1405 7.61023 49.1773 4.80175 49.2127L3.69931 49.2269Z" fill="#7A5F49"/>
</g>
<g opacity="0.65">
<path d="M27.8217 53.7982C20.9073 53.7585 13.9431 53.7477 7.00098 53.7658C13.3802 53.8159 19.759 53.8659 26.1382 53.916L27.8217 53.7982Z" fill="#7A5F49"/>
<path d="M26.1419 53.9686L7.00049 53.8186L7.00085 53.7128C13.9209 53.6947 20.926 53.7056 27.8219 53.7452L27.8253 53.8508L26.1419 53.9686ZM20.7027 53.8205L26.1386 53.8631L26.4201 53.8434C24.5207 53.8336 22.6127 53.8259 20.7027 53.8205Z" fill="#7A5F49"/>
</g>
<path opacity="0.05" d="M3.91561 21.4242C2.02621 21.4242 0.512406 22.9875 0.572766 24.8759C0.587286 25.3314 0.600245 25.8792 0.585005 26.5742L0.100804 48.6692C0.0542442 50.7951 -0.0592765 52.6961 0.0386436 54.0454C0.121564 55.187 1.08241 56.0655 2.22697 56.0655H35.7918L36.2572 21.3635L3.91561 21.4242ZM8.51509 25.955C7.70653 25.955 7.05097 25.2994 7.05097 24.4908C7.05097 23.6822 7.70653 23.0266 8.51509 23.0266C9.32377 23.0266 9.97933 23.6822 9.97933 24.4908C9.97933 25.2995 9.32377 25.955 8.51509 25.955Z" fill="#232222"/>
<path d="M8.0686 0V23.8735C8.0686 24.3398 8.3284 24.7178 8.64904 24.7178C8.96956 24.7178 9.22948 24.3398 9.22948 23.8735V0H8.0686Z" fill="#4E4E4E"/>
<path d="M62.0488 0.00341797V23.8737C62.0488 24.34 62.3086 24.718 62.6294 24.718C62.95 24.718 63.21 24.34 63.21 23.8737V0.00341797H62.0488Z" fill="#4E4E4E"/>
<path d="M7.53125 34.7695H6.98047V34.4648H10.9297V34.7695H10.2266L11.3086 37.9727L11.8945 36.0039L11.4453 34.7695H11.1875V34.4648H14.8438V34.7695H14.1406L15.2148 37.9531L16.0703 35.0117C16.0781 34.9883 16.082 34.9674 16.082 34.9492C16.082 34.9154 16.0638 34.888 16.0273 34.8672C15.9935 34.8438 15.944 34.8255 15.8789 34.8125C15.8164 34.7969 15.7409 34.7865 15.6523 34.7812C15.5664 34.7734 15.4714 34.7695 15.3672 34.7695V34.4648H17.2266V34.7695C16.9948 34.7695 16.8229 34.7878 16.7109 34.8242C16.6016 34.8581 16.5326 34.9206 16.5039 35.0117L15.0273 40H13.3477L12.1172 36.6094L11.1133 40H9.4375L7.53125 34.7695ZM17.5195 37.7852C17.5195 37.4362 17.5911 37.1211 17.7344 36.8398C17.8776 36.5586 18.0755 36.319 18.3281 36.1211C18.5833 35.9232 18.8841 35.7708 19.2305 35.6641C19.5794 35.5573 19.957 35.5039 20.3633 35.5039C20.6758 35.5039 20.9583 35.5352 21.2109 35.5977C21.4661 35.6602 21.6914 35.7461 21.8867 35.8555C22.0846 35.9622 22.2539 36.0898 22.3945 36.2383C22.5378 36.3867 22.6549 36.5469 22.7461 36.7188C22.8398 36.8906 22.9089 37.0716 22.9531 37.2617C22.9974 37.4492 23.0195 37.638 23.0195 37.8281H19.8867C19.8867 38.2266 19.9036 38.5508 19.9375 38.8008C19.974 39.0508 20.0299 39.2474 20.1055 39.3906C20.1836 39.5312 20.2826 39.6276 20.4023 39.6797C20.5247 39.7318 20.6719 39.7578 20.8438 39.7578C21.0625 39.7578 21.2682 39.7305 21.4609 39.6758C21.6536 39.6211 21.8255 39.5443 21.9766 39.4453C22.1302 39.3438 22.2578 39.2227 22.3594 39.082C22.4609 38.9388 22.5299 38.7786 22.5664 38.6016H22.9336C22.9076 38.8438 22.8333 39.0612 22.7109 39.2539C22.5885 39.444 22.4258 39.6055 22.2227 39.7383C22.0221 39.8711 21.7852 39.9727 21.5117 40.043C21.2409 40.1133 20.944 40.1484 20.6211 40.1484C20.1133 40.1484 19.6654 40.0964 19.2773 39.9922C18.8919 39.8854 18.569 39.7318 18.3086 39.5312C18.0482 39.3281 17.8516 39.0807 17.7188 38.7891C17.5859 38.4948 17.5195 38.1602 17.5195 37.7852ZM20.9844 37.4336C20.9766 37.1081 20.9609 36.8372 20.9375 36.6211C20.9141 36.4049 20.8802 36.2318 20.8359 36.1016C20.7917 35.9714 20.737 35.8802 20.6719 35.8281C20.6068 35.7734 20.5286 35.7461 20.4375 35.7461C20.3464 35.7461 20.2669 35.7734 20.1992 35.8281C20.1341 35.8802 20.0794 35.9714 20.0352 36.1016C19.9909 36.2318 19.957 36.4049 19.9336 36.6211C19.9102 36.8372 19.8958 37.1081 19.8906 37.4336H20.9844ZM23.6875 39.7188H24.3711V34.375H23.6875V34.0938H26.6953V39.7188H27.3789V40H23.6875V39.7188ZM27.8984 39.7188H28.582V34.375H27.8984V34.0938H30.9062V39.7188H31.5898V40H27.8984V39.7188ZM32.6836 34.375H31.9961V34.0938H35.0078V35.8828C35.1406 35.7734 35.3047 35.6836 35.5 35.6133C35.6979 35.5404 35.9414 35.5039 36.2305 35.5039C36.6497 35.5039 37.0143 35.5677 37.3242 35.6953C37.6341 35.8203 37.8906 35.9896 38.0938 36.2031C38.2969 36.4141 38.4479 36.6602 38.5469 36.9414C38.6484 37.2227 38.6992 37.5182 38.6992 37.8281C38.6992 38.1458 38.6445 38.4453 38.5352 38.7266C38.4284 39.0078 38.2643 39.2539 38.043 39.4648C37.8242 39.6758 37.5482 39.8424 37.2148 39.9648C36.8815 40.0872 36.4883 40.1484 36.0352 40.1484C35.7539 40.1484 35.5039 40.125 35.2852 40.0781C35.069 40.0312 34.8763 39.9701 34.707 39.8945C34.5404 39.819 34.3958 39.7344 34.2734 39.6406C34.151 39.5443 34.0469 39.4492 33.9609 39.3555L32.6836 40.1484V34.375ZM34.9688 38.582C34.9688 38.7852 34.9857 38.9609 35.0195 39.1094C35.0534 39.2578 35.099 39.3815 35.1562 39.4805C35.2161 39.5794 35.2865 39.6536 35.3672 39.7031C35.4505 39.75 35.5417 39.7734 35.6406 39.7734C35.7656 39.7734 35.8698 39.7383 35.9531 39.668C36.0365 39.5977 36.1042 39.4857 36.1562 39.332C36.2083 39.1784 36.2448 38.9779 36.2656 38.7305C36.2891 38.4831 36.3008 38.1823 36.3008 37.8281C36.3008 37.4766 36.2891 37.181 36.2656 36.9414C36.2448 36.6992 36.2096 36.5026 36.1602 36.3516C36.1107 36.2005 36.0469 36.0924 35.9688 36.0273C35.8932 35.9596 35.7995 35.9258 35.6875 35.9258C35.5677 35.9258 35.4622 35.957 35.3711 36.0195C35.2826 36.0794 35.2083 36.1562 35.1484 36.25C35.0885 36.3438 35.043 36.4466 35.0117 36.5586C34.9831 36.6706 34.9688 36.7773 34.9688 36.8789V38.582ZM39.3945 37.7852C39.3945 37.4362 39.4661 37.1211 39.6094 36.8398C39.7526 36.5586 39.9505 36.319 40.2031 36.1211C40.4583 35.9232 40.7591 35.7708 41.1055 35.6641C41.4544 35.5573 41.832 35.5039 42.2383 35.5039C42.5508 35.5039 42.8333 35.5352 43.0859 35.5977C43.3411 35.6602 43.5664 35.7461 43.7617 35.8555C43.9596 35.9622 44.1289 36.0898 44.2695 36.2383C44.4128 36.3867 44.5299 36.5469 44.6211 36.7188C44.7148 36.8906 44.7839 37.0716 44.8281 37.2617C44.8724 37.4492 44.8945 37.638 44.8945 37.8281H41.7617C41.7617 38.2266 41.7786 38.5508 41.8125 38.8008C41.849 39.0508 41.9049 39.2474 41.9805 39.3906C42.0586 39.5312 42.1576 39.6276 42.2773 39.6797C42.3997 39.7318 42.5469 39.7578 42.7188 39.7578C42.9375 39.7578 43.1432 39.7305 43.3359 39.6758C43.5286 39.6211 43.7005 39.5443 43.8516 39.4453C44.0052 39.3438 44.1328 39.2227 44.2344 39.082C44.3359 38.9388 44.4049 38.7786 44.4414 38.6016H44.8086C44.7826 38.8438 44.7083 39.0612 44.5859 39.2539C44.4635 39.444 44.3008 39.6055 44.0977 39.7383C43.8971 39.8711 43.6602 39.9727 43.3867 40.043C43.1159 40.1133 42.819 40.1484 42.4961 40.1484C41.9883 40.1484 41.5404 40.0964 41.1523 39.9922C40.7669 39.8854 40.444 39.7318 40.1836 39.5312C39.9232 39.3281 39.7266 39.0807 39.5938 38.7891C39.4609 38.4948 39.3945 38.1602 39.3945 37.7852ZM42.8594 37.4336C42.8516 37.1081 42.8359 36.8372 42.8125 36.6211C42.7891 36.4049 42.7552 36.2318 42.7109 36.1016C42.6667 35.9714 42.612 35.8802 42.5469 35.8281C42.4818 35.7734 42.4036 35.7461 42.3125 35.7461C42.2214 35.7461 42.1419 35.7734 42.0742 35.8281C42.0091 35.8802 41.9544 35.9714 41.9102 36.1016C41.8659 36.2318 41.832 36.4049 41.8086 36.6211C41.7852 36.8372 41.7708 37.1081 41.7656 37.4336H42.8594ZM47.3672 35.2578C47.2161 35.2578 47.0703 35.2435 46.9297 35.2148C46.7891 35.1836 46.6654 35.1354 46.5586 35.0703C46.4518 35.0026 46.3659 34.9167 46.3008 34.8125C46.2357 34.7083 46.2031 34.5807 46.2031 34.4297C46.2031 34.2786 46.2357 34.151 46.3008 34.0469C46.3659 33.9401 46.4518 33.8542 46.5586 33.7891C46.6654 33.7214 46.7891 33.6732 46.9297 33.6445C47.0703 33.6133 47.2161 33.5977 47.3672 33.5977C47.5156 33.5977 47.6602 33.6133 47.8008 33.6445C47.9414 33.6732 48.0651 33.7214 48.1719 33.7891C48.2786 33.8542 48.3646 33.9388 48.4297 34.043C48.4948 34.1471 48.5273 34.2747 48.5273 34.4258C48.5273 34.5768 48.4948 34.7057 48.4297 34.8125C48.3646 34.9167 48.2786 35.0026 48.1719 35.0703C48.0651 35.1354 47.9414 35.1836 47.8008 35.2148C47.6602 35.2435 47.5156 35.2578 47.3672 35.2578ZM45.5625 39.7188H46.2461V35.9336H45.5625V35.6523H48.5703V39.7188H49.2539V40H45.5625V39.7188ZM49.7734 39.7188H50.457V35.9336H49.7734V35.6523H52.7812V36.1523C52.8646 36.0508 52.9648 35.9596 53.082 35.8789C53.2018 35.7982 53.3333 35.7305 53.4766 35.6758C53.6198 35.6185 53.7721 35.5755 53.9336 35.5469C54.0977 35.5182 54.2656 35.5039 54.4375 35.5039C54.7917 35.5039 55.0833 35.5508 55.3125 35.6445C55.5443 35.7357 55.7266 35.8672 55.8594 36.0391C55.9922 36.2083 56.0846 36.4154 56.1367 36.6602C56.1888 36.9023 56.2148 37.1732 56.2148 37.4727V39.7188H56.8984V40H53.5V39.7188H53.8906V37.4727C53.8906 37.2044 53.8828 36.9857 53.8672 36.8164C53.8516 36.6445 53.8242 36.5104 53.7852 36.4141C53.7461 36.3151 53.694 36.2474 53.6289 36.2109C53.5638 36.1719 53.4818 36.1523 53.3828 36.1523C53.2839 36.1523 53.1966 36.1732 53.1211 36.2148C53.0456 36.2565 52.9818 36.3151 52.9297 36.3906C52.8802 36.4661 52.8424 36.556 52.8164 36.6602C52.793 36.7643 52.7812 36.8776 52.7812 37V39.7188H53.168V40H49.7734V39.7188ZM57.2852 40.8711C57.2852 40.7461 57.349 40.6237 57.4766 40.5039C57.6068 40.3841 57.8203 40.2721 58.1172 40.168C57.7057 39.9492 57.5 39.6276 57.5 39.2031C57.5 39.0781 57.5195 38.957 57.5586 38.8398C57.5977 38.7201 57.6576 38.6081 57.7383 38.5039C57.8216 38.3997 57.9258 38.3073 58.0508 38.2266C58.1784 38.1458 58.3281 38.0807 58.5 38.0312C58.2161 37.9089 58.0013 37.7526 57.8555 37.5625C57.7096 37.3698 57.6367 37.1497 57.6367 36.9023C57.6367 36.7174 57.6862 36.5404 57.7852 36.3711C57.8867 36.2018 58.0391 36.0534 58.2422 35.9258C58.4453 35.7956 58.7018 35.6927 59.0117 35.6172C59.3216 35.5417 59.6862 35.5039 60.1055 35.5039C60.3242 35.5039 60.5273 35.5143 60.7148 35.5352C60.9049 35.556 61.082 35.5859 61.2461 35.625C61.3294 35.4818 61.4297 35.3594 61.5469 35.2578C61.6641 35.1562 61.7917 35.0729 61.9297 35.0078C62.0703 34.9427 62.2188 34.8945 62.375 34.8633C62.5312 34.832 62.6901 34.8164 62.8516 34.8164C62.9635 34.8164 63.0677 34.8333 63.1641 34.8672C63.2604 34.8984 63.3438 34.9414 63.4141 34.9961C63.487 35.0508 63.5443 35.1146 63.5859 35.1875C63.6276 35.2604 63.6484 35.3385 63.6484 35.4219C63.6484 35.5052 63.6276 35.5833 63.5859 35.6562C63.5443 35.7292 63.487 35.793 63.4141 35.8477C63.3438 35.9023 63.2604 35.9466 63.1641 35.9805C63.0677 36.0117 62.9635 36.0273 62.8516 36.0273C62.7422 36.0273 62.638 36.0117 62.5391 35.9805C62.4427 35.9466 62.3581 35.9023 62.2852 35.8477C62.2122 35.793 62.1549 35.7292 62.1133 35.6562C62.0716 35.5833 62.0508 35.5052 62.0508 35.4219C62.0508 35.3542 62.0664 35.2865 62.0977 35.2188C61.9857 35.2656 61.8789 35.3294 61.7773 35.4102C61.6784 35.4909 61.5938 35.5898 61.5234 35.707C61.8672 35.8242 62.1276 35.9857 62.3047 36.1914C62.4844 36.3945 62.5742 36.6315 62.5742 36.9023C62.5742 37.1133 62.5195 37.3047 62.4102 37.4766C62.3008 37.6484 62.1406 37.7956 61.9297 37.918C61.7214 38.0404 61.4635 38.1354 61.1562 38.2031C60.849 38.2682 60.4987 38.3008 60.1055 38.3008C59.6107 38.3008 59.1875 38.25 58.8359 38.1484C58.6875 38.1771 58.5833 38.2174 58.5234 38.2695C58.4661 38.3216 58.4375 38.375 58.4375 38.4297C58.4375 38.4661 58.4505 38.5026 58.4766 38.5391C58.5026 38.5755 58.5521 38.6081 58.625 38.6367C58.7005 38.6654 58.8034 38.6901 58.9336 38.7109C59.0638 38.7292 59.2344 38.7383 59.4453 38.7383H61.0156C61.3021 38.7383 61.5664 38.763 61.8086 38.8125C62.0508 38.8594 62.2591 38.9388 62.4336 39.0508C62.6107 39.1602 62.7487 39.3073 62.8477 39.4922C62.9466 39.6771 62.9961 39.9062 62.9961 40.1797C62.9961 40.4141 62.9427 40.625 62.8359 40.8125C62.7318 41.0026 62.5599 41.1641 62.3203 41.2969C62.0833 41.4297 61.7721 41.5312 61.3867 41.6016C61.0013 41.6719 60.5299 41.707 59.9727 41.707C59.4883 41.707 59.0755 41.6849 58.7344 41.6406C58.3958 41.5964 58.1185 41.5365 57.9023 41.4609C57.6888 41.3854 57.5326 41.2969 57.4336 41.1953C57.3346 41.0938 57.2852 40.9857 57.2852 40.8711ZM60.1055 38.0586C60.2044 38.0586 60.2865 38.0378 60.3516 37.9961C60.4193 37.9518 60.4727 37.8841 60.5117 37.793C60.5508 37.6992 60.5781 37.5794 60.5938 37.4336C60.6094 37.2878 60.6172 37.1107 60.6172 36.9023C60.6172 36.694 60.6094 36.5169 60.5938 36.3711C60.5781 36.2253 60.5508 36.1068 60.5117 36.0156C60.4727 35.9219 60.4193 35.8542 60.3516 35.8125C60.2865 35.7682 60.2044 35.7461 60.1055 35.7461C60.0065 35.7461 59.9232 35.7682 59.8555 35.8125C59.7904 35.8542 59.7383 35.9219 59.6992 36.0156C59.6602 36.1068 59.6315 36.2253 59.6133 36.3711C59.5977 36.5169 59.5898 36.694 59.5898 36.9023C59.5898 37.1107 59.5977 37.2878 59.6133 37.4336C59.6315 37.5794 59.6602 37.6992 59.6992 37.793C59.7383 37.8841 59.7904 37.9518 59.8555 37.9961C59.9232 38.0378 60.0065 38.0586 60.1055 38.0586ZM57.9102 40.832C57.9102 40.8711 57.918 40.9128 57.9336 40.957C57.9518 41.0013 57.9857 41.0456 58.0352 41.0898C58.0872 41.1341 58.1589 41.1758 58.25 41.2148C58.3438 41.2539 58.4674 41.2891 58.6211 41.3203C58.7747 41.3516 58.9622 41.3763 59.1836 41.3945C59.4049 41.4128 59.6693 41.4219 59.9766 41.4219C60.3438 41.4219 60.6693 41.4062 60.9531 41.375C61.237 41.3438 61.4753 41.3008 61.668 41.2461C61.8633 41.194 62.0104 41.1302 62.1094 41.0547C62.2109 40.9818 62.2617 40.9023 62.2617 40.8164C62.2617 40.6914 62.1693 40.6003 61.9844 40.543C61.7995 40.4883 61.5326 40.4609 61.1836 40.4609H59.6328C59.3984 40.4609 59.1836 40.4479 58.9883 40.4219C58.793 40.3958 58.6146 40.3581 58.4531 40.3086C58.2526 40.3919 58.112 40.4766 58.0312 40.5625C57.9505 40.651 57.9102 40.7409 57.9102 40.832Z" fill="white"/>
</svg>
