<svg width="173" height="67" viewBox="0 0 173 67" fill="none" xmlns="http://www.w3.org/2000/svg">
<path d="M165.169 0.655273L9.40833 0.887722C4.86852 0.887722 1.2312 3.87113 1.37623 7.47518C1.41112 8.34453 1.44225 9.38999 1.40564 10.7162L0.24221 52.884C0.130337 56.9413 -0.142428 60.5694 0.0928518 63.1445C0.29209 65.3231 2.60078 66.9997 5.3509 66.9997H166.227C169.49 66.9997 172.223 65.0167 172.485 62.4334C172.692 60.3974 172.692 57.7516 172.692 54.4416V31.5511C172.692 14.6164 175.328 0.655273 165.169 0.655273ZM20.4599 9.53473C18.5171 9.53473 16.9419 8.28361 16.9419 6.74049C16.9419 5.19714 18.5171 3.94602 20.4599 3.94602C22.4029 3.94602 23.9781 5.19714 23.9781 6.74049C23.9781 8.28383 22.4029 9.53473 20.4599 9.53473ZM150.241 9.53473C148.298 9.53473 146.723 8.28361 146.723 6.74049C146.723 5.19714 148.298 3.94602 150.241 3.94602C152.184 3.94602 153.76 5.19714 153.76 6.74049C153.76 8.28383 152.184 9.53473 150.241 9.53473Z" fill="#8D735C"/>
<g opacity="0.65">
<g opacity="0.76">
<path d="M37.4271 17.1602C34.303 17.2735 31.578 17.4455 29.54 17.6963C29.54 17.6963 32.5116 17.4263 37.4271 17.1602Z" fill="#7A5F49"/>
<path d="M29.5542 17.7963L29.5205 17.5964C31.4373 17.3605 34.0955 17.1798 37.4214 17.0591L37.4358 17.2606C32.58 17.5235 29.5842 17.7935 29.5542 17.7963Z" fill="#7A5F49"/>
</g>
<g opacity="0.76">
<path d="M79.0757 17.5201C62.8533 16.1691 46.6884 16.6585 37.4277 17.1601C53.1598 16.5898 79.0757 17.5201 79.0757 17.5201Z" fill="#7A5F49"/>
<path d="M79.0697 17.6201C78.8104 17.6109 52.9795 16.6962 37.4329 17.2601L37.4185 17.0588C45.8684 16.6012 62.5176 16.0392 79.0884 17.4192L79.0697 17.6201ZM49.6493 16.8751C58.8385 16.8751 68.4858 17.1037 74.1343 17.2644C64.1089 16.6484 54.3563 16.6745 46.7394 16.8833C47.7001 16.8776 48.673 16.8751 49.6493 16.8751Z" fill="#7A5F49"/>
</g>
<g opacity="0.76">
<path d="M7.03612 21.6084C14.1118 21.9609 21.0872 21.7037 28.0657 21.6815C19.5642 21.5743 5.58378 21.3631 5.57715 21.2944C5.59618 21.4902 6.39372 21.5766 7.03612 21.6084Z" fill="#7A5F49"/>
<path d="M15.5009 21.8929C12.6911 21.8929 9.85618 21.8496 7.0282 21.7087C5.48245 21.6318 5.45938 21.392 5.45044 21.3018L5.57731 21.294L5.61364 21.1987C6.02567 21.2649 18.9692 21.4655 28.0676 21.5803L28.0662 21.782C26.1265 21.7882 24.1538 21.813 22.2459 21.8368C20.0254 21.8647 17.7709 21.8929 15.5009 21.8929ZM6.15657 21.4241C6.35984 21.4571 6.64674 21.4878 7.04406 21.5075C11.2494 21.717 15.4746 21.7101 19.6076 21.6664C17.4918 21.6355 15.4438 21.6039 13.6331 21.5741C9.0572 21.499 7.04406 21.4635 6.15657 21.4241Z" fill="#7A5F49"/>
</g>
<g opacity="0.76">
<path d="M28.0657 21.6808C31.2163 21.72 33.6158 21.7452 34.2709 21.7436C32.2004 21.6871 30.133 21.6742 28.0657 21.6808Z" fill="#7A5F49"/>
<path d="M34.2138 21.8459C33.5178 21.8459 31.2907 21.8228 28.064 21.7823L28.0654 21.5805C30.4517 21.5734 32.4253 21.5933 34.2755 21.6441L34.2712 21.8457C34.2539 21.8459 34.2346 21.8459 34.2138 21.8459Z" fill="#7A5F49"/>
</g>
<g opacity="0.76">
<path d="M14.9152 18.7655C14.1298 18.67 13.344 18.5745 12.5586 18.479L12.3513 18.7037C13.2028 18.7795 14.0603 18.8001 14.9152 18.7655Z" fill="#7A5F49"/>
<path d="M14.1132 18.8827C13.5198 18.8827 12.9253 18.8563 12.3371 18.8041L12.1194 18.7846L12.5017 18.3701L16.1667 18.8158L14.9214 18.8664C14.653 18.8772 14.3831 18.8827 14.1132 18.8827ZM12.5842 18.6218C12.7924 18.6381 13.0014 18.6509 13.2104 18.6605L12.6153 18.5881L12.5842 18.6218Z" fill="#7A5F49"/>
</g>
<g opacity="0.76">
<path d="M113.093 18.7886C126.654 18.1728 148.988 19.0282 148.988 19.0282C135.011 17.7242 121.076 18.26 113.093 18.7886Z" fill="#7A5F49"/>
<path d="M148.982 19.1292C148.758 19.1207 126.5 18.2816 113.099 18.8896L113.082 18.6886C120.368 18.206 134.722 17.5961 149.003 18.9283L148.982 19.1292ZM125.075 18.4669C132.546 18.4669 140.157 18.6521 144.73 18.7877C136.091 18.2005 127.686 18.2548 121.12 18.4859C122.422 18.4726 123.746 18.4669 125.075 18.4669Z" fill="#7A5F49"/>
</g>
<g opacity="0.76">
<path d="M113.093 18.7886C110.4 18.9109 108.051 19.0909 106.293 19.3474C106.293 19.3474 108.855 19.0691 113.093 18.7886Z" fill="#7A5F49"/>
<path d="M106.31 19.4476L106.27 19.2484C107.924 19.0068 110.217 18.8183 113.085 18.688L113.103 18.8891C108.918 19.1664 106.336 19.4447 106.31 19.4476Z" fill="#7A5F49"/>
</g>
<g opacity="0.76">
<path d="M92.2589 20.5321C89.033 20.4916 85.8072 20.4508 82.5813 20.4102C76.0664 20.3283 69.5515 20.2463 63.0366 20.1641C73.6081 20.3961 84.1798 20.6283 94.7513 20.8603C96.8722 20.9068 99.42 21.0426 101.476 20.7499C99.5117 20.2433 94.6431 20.5621 92.2589 20.5321Z" fill="#7A5F49"/>
<path d="M98.2577 21.0328C97.4167 21.0328 96.5733 21.0095 95.7752 20.9873C95.4249 20.9774 95.0809 20.968 94.7481 20.9607L63.0332 20.2643L63.0387 20.0625L92.2613 20.4305C92.9233 20.4385 93.7923 20.42 94.7118 20.3998C97.1032 20.3474 100.078 20.2826 101.516 20.6536L101.998 20.7779L101.499 20.8489C100.5 20.9912 99.3811 21.0328 98.2577 21.0328ZM84.585 20.5359L94.755 20.7592C95.0886 20.7665 95.4329 20.7761 95.7838 20.7857C97.4135 20.8308 99.234 20.8812 100.82 20.726C99.2854 20.502 96.7823 20.5565 94.7187 20.6016C93.7958 20.622 92.9247 20.641 92.2572 20.6325L84.585 20.5359Z" fill="#7A5F49"/>
</g>
<g opacity="0.76">
<path d="M108.262 16.6423C103.742 16.6572 99.2091 16.4855 94.6912 16.3911C95.4206 16.7275 96.3649 16.7841 97.2599 16.818C100.913 16.9559 104.627 16.93 108.262 16.6423Z" fill="#7A5F49"/>
<path d="M101.406 16.9979C100.056 16.9979 98.671 16.9711 97.2539 16.9175C96.2943 16.8814 95.3714 16.8204 94.6275 16.4774L94.1973 16.2788L94.6946 16.2891C96.0143 16.3166 97.3355 16.3509 98.6572 16.3851C101.807 16.4666 105.064 16.5502 108.261 16.5403L108.275 16.7417C106.118 16.9125 103.82 16.9979 101.406 16.9979ZM95.3388 16.5051C95.9186 16.6521 96.5821 16.6903 97.2657 16.7162C100.008 16.8197 102.632 16.8227 105.103 16.7256C102.937 16.6979 100.768 16.642 98.6483 16.5871C97.5445 16.5584 96.4411 16.5298 95.3388 16.5051Z" fill="#7A5F49"/>
</g>
<g opacity="0.76">
<path d="M161.172 17.1615C161.786 17.1406 162.399 17.1186 163.01 17.0923C162.4 17.0923 161.787 17.1204 161.172 17.1615Z" fill="#7A5F49"/>
<path d="M161.178 17.2638L161.161 17.0625C161.871 17.0146 162.459 16.9922 163.01 16.9922L163.017 17.1937C162.406 17.2205 161.792 17.2427 161.178 17.2638Z" fill="#7A5F49"/>
</g>
<g opacity="0.76">
<path d="M154.242 17.5059C156.526 17.6715 158.86 17.3181 161.172 17.1621C158.858 17.2418 156.531 17.3037 154.242 17.5059Z" fill="#7A5F49"/>
<path d="M155.493 17.6499C155.071 17.6499 154.65 17.637 154.231 17.6066L152.982 17.5159L154.229 17.4057C156.262 17.2262 158.353 17.1561 160.377 17.0883L161.167 17.0615L161.183 17.2628C160.549 17.3057 159.902 17.3643 159.276 17.4211C158.033 17.5342 156.757 17.6499 155.493 17.6499Z" fill="#7A5F49"/>
</g>
<g opacity="0.76">
<path d="M146.424 21.887C147.276 21.9628 148.133 21.9834 148.988 21.9486C148.203 21.8531 147.417 21.7576 146.632 21.6621L146.424 21.887Z" fill="#7A5F49"/>
<path d="M148.185 22.0662C147.592 22.0662 146.998 22.0399 146.41 21.9877L146.192 21.9682L146.574 21.5537L150.241 21.9992L148.994 22.0498C148.725 22.0607 148.455 22.0662 148.185 22.0662ZM146.657 21.8054C146.865 21.8214 147.074 21.8345 147.283 21.8439L146.688 21.7715L146.657 21.8054Z" fill="#7A5F49"/>
</g>
<g opacity="0.76">
<path d="M154.343 4.29883C154.326 4.31165 154.311 4.32631 154.293 4.33868C154.161 4.43555 154.023 4.52785 153.884 4.61808C160.087 4.76305 164.426 4.91878 164.426 4.91878C161.041 4.63709 157.66 4.43693 154.343 4.29883Z" fill="#7A5F49"/>
<path d="M144.894 4.06017C136.062 3.97452 128.225 4.26446 122.777 4.55966C129.4 4.31965 137.828 4.34553 145.368 4.45591C145.202 4.33018 145.043 4.19873 144.894 4.06017Z" fill="#7A5F49"/>
<path d="M145.236 4.354C141.914 4.30591 138.425 4.27408 134.999 4.27408C134.021 4.27408 133.05 4.27659 132.088 4.28209C135.932 4.17674 140.321 4.11857 145.014 4.16529C144.938 4.09911 144.865 4.03109 144.793 3.96193C135.714 3.87765 127.792 4.18545 122.769 4.45752L122.783 4.65882C129.414 4.41836 137.916 4.44698 145.506 4.55943C145.414 4.49324 145.324 4.42431 145.236 4.354Z" fill="#7A5F49"/>
<path d="M154.458 4.20752C154.403 4.25172 154.35 4.29821 154.294 4.33921C154.266 4.35936 154.237 4.37837 154.21 4.39829C155.953 4.46906 157.714 4.5554 159.486 4.66441C157.938 4.62044 156.088 4.5712 154.03 4.5231C153.932 4.58998 153.831 4.65479 153.728 4.71777C159.933 4.86136 164.314 5.01641 164.42 5.02007L164.439 4.819C161.091 4.54028 157.744 4.34447 154.458 4.20752Z" fill="#7A5F49"/>
</g>
<g opacity="0.76">
<path d="M149.678 12.2614C142.421 12.2703 135.144 12.1679 127.891 12.1118C129.063 12.312 130.578 12.3456 132.015 12.3658C137.88 12.448 143.843 12.4327 149.678 12.2614Z" fill="#7A5F49"/>
<path d="M138.672 12.5145C136.508 12.5145 134.286 12.4987 132.013 12.4668C130.493 12.4455 129.032 12.41 127.865 12.2106L126.641 12.0015L127.893 12.0111C130.015 12.0276 132.139 12.048 134.264 12.0683C139.319 12.1169 144.545 12.167 149.678 12.1606L149.683 12.3622C146.228 12.4636 142.542 12.5145 138.672 12.5145ZM130.589 12.2353C131.053 12.2499 131.533 12.2582 132.018 12.2648C134.363 12.2976 136.654 12.3122 138.882 12.3125C137.331 12.299 135.788 12.2843 134.261 12.2696C133.037 12.2582 131.812 12.2465 130.589 12.2353Z" fill="#7A5F49"/>
</g>
</g>
<g opacity="0.65">
<g opacity="0.76">
<path d="M131.159 30.4238C134.284 30.3105 137.009 30.1385 139.046 29.8877C139.046 29.8877 136.075 30.1575 131.159 30.4238Z" fill="#7A5F49"/>
<path d="M131.165 30.5243L131.151 30.3228C136.006 30.0597 139.003 29.7896 139.032 29.7871L139.066 29.9871C137.149 30.2229 134.49 30.4039 131.165 30.5243Z" fill="#7A5F49"/>
</g>
<g opacity="0.76">
<path d="M89.511 30.063C105.733 31.414 121.898 30.9248 131.159 30.423C115.427 30.9935 89.511 30.063 89.511 30.063Z" fill="#7A5F49"/>
<path d="M112.205 31.0354C105.203 31.0354 97.3424 30.8174 89.4985 30.164L89.5173 29.9629C89.7765 29.9723 115.607 30.8868 131.154 30.3229L131.168 30.5244C126.718 30.7654 119.994 31.0354 112.205 31.0354ZM94.4521 30.3188C104.477 30.9348 114.228 30.9087 121.845 30.7001C111.843 30.7578 100.7 30.4965 94.4521 30.3188Z" fill="#7A5F49"/>
</g>
<g opacity="0.76">
<path d="M161.551 25.9749C154.475 25.6224 147.5 25.8796 140.521 25.9018C149.023 26.0088 163.003 26.2202 163.01 26.2889C162.991 26.0931 162.193 26.007 161.551 25.9749Z" fill="#7A5F49"/>
<path d="M162.974 26.384C162.561 26.3175 149.618 26.1169 140.52 26.0024L140.521 25.8007C142.46 25.7945 144.433 25.7697 146.341 25.7459C151.309 25.6839 156.445 25.6193 161.559 25.8742C163.105 25.9511 163.128 26.1907 163.137 26.2809L163.01 26.2887L162.974 26.384ZM148.98 25.9163C151.095 25.9472 153.143 25.9788 154.954 26.0086C159.529 26.0837 161.542 26.1192 162.43 26.1586C162.227 26.1259 161.94 26.0952 161.543 26.0753C157.338 25.8662 153.114 25.8728 148.98 25.9163Z" fill="#7A5F49"/>
</g>
<g opacity="0.76">
<path d="M140.521 25.9015C137.371 25.8622 134.971 25.8371 134.316 25.8384C136.386 25.8949 138.454 25.9078 140.521 25.9015Z" fill="#7A5F49"/>
<path d="M139.581 26.004C137.607 26.004 135.914 25.9829 134.312 25.9389L134.316 25.7374C134.942 25.7358 137.199 25.7591 140.523 25.8008L140.522 26.0026C140.201 26.0033 139.887 26.004 139.581 26.004Z" fill="#7A5F49"/>
</g>
<g opacity="0.76">
<path d="M153.673 28.817C154.458 28.9125 155.244 29.008 156.029 29.1035L156.236 28.8786C155.385 28.8031 154.527 28.7825 153.673 28.817Z" fill="#7A5F49"/>
<path d="M156.085 29.2124L152.419 28.767L153.666 28.7164C154.524 28.6818 155.394 28.7027 156.25 28.7785L156.468 28.7979L156.085 29.2124ZM155.377 28.9223L155.972 28.9947L156.003 28.9608C155.795 28.9447 155.586 28.9319 155.377 28.9223Z" fill="#7A5F49"/>
</g>
<g opacity="0.76">
<path d="M55.4941 28.7945C41.9326 29.4103 19.5986 28.5552 19.5986 28.5552C33.5762 29.8592 47.5105 29.3231 55.4941 28.7945Z" fill="#7A5F49"/>
<path d="M38.3201 29.462C32.4981 29.462 26.0345 29.2566 19.5845 28.655L19.6055 28.4541C19.8287 28.4626 42.088 29.3021 55.4877 28.6934L55.5056 28.8945C51.5105 29.159 45.3883 29.462 38.3201 29.462ZM23.8579 28.7956C32.496 29.3825 40.8998 29.3283 47.4651 29.0974C38.8457 29.184 29.2433 28.9552 23.8579 28.7956Z" fill="#7A5F49"/>
</g>
<g opacity="0.76">
<path d="M55.4941 28.7946C58.1872 28.6723 60.5365 28.4923 62.2939 28.2358C62.2939 28.2358 59.7318 28.5143 55.4941 28.7946Z" fill="#7A5F49"/>
<path d="M55.502 28.8952L55.4841 28.6941C59.6693 28.4172 62.2516 28.1385 62.2773 28.1357L62.3173 28.335C60.6629 28.5764 58.3698 28.7651 55.502 28.8952Z" fill="#7A5F49"/>
</g>
<g opacity="0.76">
<path d="M76.3283 27.0512C79.5542 27.0918 82.7801 27.1325 86.0059 27.1731C92.5208 27.2551 99.0357 27.337 105.551 27.4193C94.9789 27.1873 84.4074 26.955 73.8357 26.7231C71.7147 26.6766 69.167 26.5408 67.1106 26.8334C69.0759 27.34 73.9444 27.0212 76.3283 27.0512Z" fill="#7A5F49"/>
<path d="M105.549 27.5205L76.3263 27.1525C75.666 27.144 74.7964 27.163 73.8766 27.1832C71.4855 27.2356 68.5096 27.3004 67.0714 26.9294L66.5896 26.805L67.0884 26.734C68.8351 26.4856 70.9486 26.5442 72.8121 26.5957C73.1627 26.6053 73.5061 26.615 73.8395 26.6223L105.554 27.3185L105.549 27.5205ZM75.9821 26.9486C76.1034 26.9486 76.2196 26.9493 76.3304 26.9507L84.0041 27.0474L73.8322 26.8241C73.4986 26.8167 73.1544 26.8071 72.8032 26.7975C71.1735 26.7524 69.353 26.7018 67.7671 26.8573C69.3028 27.0815 71.8061 27.0267 73.8697 26.9816C74.639 26.9647 75.3725 26.9486 75.9821 26.9486Z" fill="#7A5F49"/>
</g>
<g opacity="0.76">
<path d="M60.3247 30.9421C64.8443 30.9272 69.3772 31.0989 73.8951 31.1933C73.1656 30.8569 72.2216 30.8003 71.3264 30.7664C67.6732 30.6285 63.9594 30.6544 60.3247 30.9421Z" fill="#7A5F49"/>
<path d="M74.3895 31.3035L73.8921 31.2932C72.5704 31.2655 71.2475 31.2314 69.9241 31.197C66.7764 31.1157 63.5222 31.0314 60.3258 31.042L60.3125 30.8407C63.6724 30.5745 67.3807 30.5155 71.3326 30.6648C72.2922 30.701 73.2151 30.7619 73.959 31.1049L74.3895 31.3035ZM63.4833 30.8569C65.6481 30.8846 67.8146 30.9407 69.9324 30.9955C71.0382 31.0241 72.1434 31.0527 73.248 31.0775C72.6679 30.9304 72.0044 30.8922 71.3208 30.8663C68.5779 30.7628 65.954 30.7598 63.4833 30.8569Z" fill="#7A5F49"/>
</g>
<g opacity="0.76">
<path d="M7.41499 30.4199C6.80113 30.4408 6.18813 30.4628 5.57715 30.4891C6.18726 30.4889 6.80027 30.461 7.41499 30.4199Z" fill="#7A5F49"/>
<path d="M5.57698 30.5907L5.57007 30.3892C6.18134 30.3624 6.79491 30.3404 7.40935 30.3193L7.42549 30.5206C6.71735 30.5685 6.1303 30.5907 5.57698 30.5907Z" fill="#7A5F49"/>
</g>
<g opacity="0.76">
<path d="M14.3443 30.0764C12.0607 29.9108 9.72632 30.2641 7.41504 30.4201C9.72863 30.3404 12.0555 30.2784 14.3443 30.0764Z" fill="#7A5F49"/>
<path d="M7.4202 30.5208L7.40405 30.3195C8.03781 30.2767 8.68541 30.218 9.31167 30.1612C10.971 30.0105 12.6863 29.8548 14.3552 29.976L15.604 30.0667L14.3578 30.1768C12.3262 30.3564 10.2352 30.4264 8.21341 30.4942L7.4202 30.5208Z" fill="#7A5F49"/>
</g>
<g opacity="0.76">
<path d="M22.1627 25.6958C21.3113 25.62 20.4538 25.5993 19.5989 25.6339C20.3843 25.7294 21.17 25.8249 21.9554 25.9204L22.1627 25.6958Z" fill="#7A5F49"/>
<path d="M22.0124 26.0291L18.3474 25.5834L19.5927 25.5328C20.452 25.4982 21.3216 25.5191 22.1773 25.5951L22.3953 25.6145L22.0124 26.0291ZM21.3046 25.7391L21.8988 25.8113L21.93 25.7776C21.7221 25.7614 21.5133 25.7485 21.3046 25.7391Z" fill="#7A5F49"/>
</g>
</g>
<g opacity="0.65">
<g opacity="0.76">
<path d="M74.7364 43.6094C71.6121 43.7227 68.8873 43.8947 66.8494 44.1455C66.8494 44.1455 69.8209 43.8757 74.7364 43.6094Z" fill="#7A5F49"/>
<path d="M66.8633 44.2455L66.8296 44.0456C68.7476 43.8097 71.406 43.629 74.7305 43.5083L74.7449 43.7098C69.8894 43.973 66.8933 44.2428 66.8633 44.2455Z" fill="#7A5F49"/>
</g>
<g opacity="0.76">
<path d="M116.385 43.9699C100.162 42.6189 83.9973 43.1081 74.7366 43.6098C90.4686 43.0394 116.385 43.9699 116.385 43.9699Z" fill="#7A5F49"/>
<path d="M116.378 44.0714C116.119 44.0622 90.288 43.1478 74.742 43.7114L74.7275 43.5098C83.1783 43.0523 99.8284 42.4905 116.397 43.8703L116.378 44.0714ZM86.9581 43.3262C96.1484 43.3262 105.796 43.5547 111.444 43.7155C101.419 43.0992 91.6674 43.1253 84.0505 43.3342C85.0112 43.3287 85.9812 43.3262 86.9581 43.3262Z" fill="#7A5F49"/>
</g>
<g opacity="0.76">
<path d="M44.3457 48.0586C51.4214 48.4111 58.3967 48.1539 65.3753 48.1317C56.8738 48.0247 42.8934 47.8133 42.8867 47.7446C42.9057 47.9402 43.7033 48.0265 44.3457 48.0586Z" fill="#7A5F49"/>
<path d="M52.8119 48.3441C50.0015 48.3441 47.1661 48.3008 44.3372 48.1599C42.7915 48.083 42.7684 47.8434 42.7598 47.7532L42.8864 47.7454L42.9227 47.6499C43.335 47.7163 56.2786 47.9169 65.3769 48.0314L65.3755 48.2332C63.4364 48.2394 61.4637 48.2641 59.5558 48.2879C57.3359 48.3159 55.082 48.3441 52.8119 48.3441ZM43.4659 47.8753C43.6692 47.908 43.9558 47.9387 44.3531 47.9586C48.5584 48.1679 52.7834 48.1613 56.9161 48.1178C54.8011 48.0869 52.7534 48.0553 50.9421 48.0255C46.3668 47.9504 44.354 47.9149 43.4659 47.8753Z" fill="#7A5F49"/>
</g>
<g opacity="0.76">
<path d="M65.375 48.1319C68.5256 48.1712 70.9251 48.1963 71.5802 48.195C69.5097 48.1385 67.4423 48.1253 65.375 48.1319Z" fill="#7A5F49"/>
<path d="M71.5187 48.2963C70.82 48.2963 68.5953 48.2731 65.3726 48.2326L65.374 48.0308C67.7588 48.0233 69.7333 48.0434 71.5838 48.0945L71.5798 48.296C71.5608 48.2963 71.5406 48.2963 71.5187 48.2963Z" fill="#7A5F49"/>
</g>
<g opacity="0.76">
<path d="M52.2238 45.2157C51.4384 45.1202 50.6526 45.0247 49.8672 44.9292L49.6599 45.1541C50.5114 45.2297 51.3689 45.2503 52.2238 45.2157Z" fill="#7A5F49"/>
<path d="M51.4216 45.3328C50.8285 45.3328 50.2343 45.3065 49.6466 45.2543L49.429 45.2348L49.8113 44.8203L53.4774 45.2658L52.2313 45.3164C51.962 45.3273 51.6918 45.3328 51.4216 45.3328ZM49.8937 45.072C50.1019 45.088 50.3107 45.1011 50.52 45.1105L49.9249 45.0381L49.8937 45.072Z" fill="#7A5F49"/>
</g>
<g opacity="0.76">
<path d="M133.818 35.7588C147.379 35.143 169.713 35.9984 169.713 35.9984C155.736 34.6944 141.802 35.2303 133.818 35.7588Z" fill="#7A5F49"/>
<path d="M169.707 36.0985C169.484 36.09 147.226 35.2507 133.825 35.859L133.807 35.6579C141.093 35.1753 155.448 34.5652 169.728 35.8977L169.707 36.0985ZM145.801 35.4362C153.271 35.4362 160.883 35.6212 165.455 35.757C156.816 35.1698 148.411 35.2241 141.846 35.4552C143.147 35.4419 144.472 35.4362 145.801 35.4362Z" fill="#7A5F49"/>
</g>
<g opacity="0.76">
<path d="M150.402 45.2383C147.709 45.3606 145.359 45.5406 143.602 45.7971C143.602 45.7971 146.164 45.5188 150.402 45.2383Z" fill="#7A5F49"/>
<path d="M143.619 45.8973L143.579 45.6981C145.234 45.4565 147.527 45.2678 150.395 45.1377L150.413 45.3388C146.227 45.6161 143.645 45.8946 143.619 45.8973Z" fill="#7A5F49"/>
</g>
<g opacity="0.76">
<path d="M129.567 46.9813C126.342 46.9408 123.116 46.9 119.89 46.8595C113.375 46.7775 106.86 46.6955 100.345 46.6133C110.917 46.8453 121.489 47.0775 132.06 47.3095C134.181 47.356 136.729 47.4918 138.785 47.1991C136.82 46.6925 131.952 47.0113 129.567 46.9813Z" fill="#7A5F49"/>
<path d="M135.567 47.4828C134.726 47.4828 133.883 47.4594 133.085 47.4372C132.734 47.4276 132.39 47.418 132.057 47.4107L100.343 46.7145L100.348 46.5127L129.57 46.8807C130.23 46.8887 131.1 46.87 132.02 46.85C134.411 46.7976 137.387 46.7328 138.825 47.1038L139.307 47.2281L138.808 47.2991C137.809 47.4411 136.691 47.4828 135.567 47.4828ZM121.893 46.9858L132.064 47.2091C132.398 47.2165 132.742 47.2261 133.093 47.2357C134.723 47.2808 136.544 47.3314 138.129 47.1759C136.594 46.9519 134.091 47.0067 132.027 47.0516C131.105 47.0717 130.234 47.0907 129.566 47.0825L121.893 46.9858Z" fill="#7A5F49"/>
</g>
<g opacity="0.76">
<path d="M152.722 43.092C145.821 43.1069 138.899 42.9352 132.001 42.8408C133.115 43.177 134.556 43.2338 135.923 43.2675C141.502 43.4056 147.173 43.3797 152.722 43.092Z" fill="#7A5F49"/>
<path d="M142.254 43.4484C140.195 43.4484 138.081 43.4216 135.919 43.3682C134.467 43.3323 133.072 43.2723 131.955 42.9349L131.276 42.73L132.003 42.7398C134.02 42.7675 136.04 42.8017 138.061 42.836C142.869 42.9173 147.839 43.0018 152.722 42.9911L152.73 43.1926C149.443 43.363 145.937 43.4484 142.254 43.4484ZM132.97 42.9551C133.863 43.1021 134.88 43.1406 135.927 43.1665C140.117 43.2702 144.127 43.273 147.902 43.1759C144.597 43.1482 141.29 43.0921 138.056 43.0373C136.36 43.0087 134.664 42.9801 132.97 42.9551Z" fill="#7A5F49"/>
</g>
<g opacity="0.76">
<path d="M122.397 8.10743C124.681 8.27301 127.015 7.91963 129.326 7.76367C127.012 7.84337 124.685 7.90521 122.397 8.10743Z" fill="#7A5F49"/>
<path d="M123.648 8.25143C123.225 8.25143 122.804 8.23861 122.385 8.20815L121.137 8.11746L122.383 8.0073C124.416 7.82775 126.507 7.75767 128.531 7.68965L129.321 7.66309L129.337 7.86439C128.703 7.90722 128.056 7.96585 127.43 8.02288C126.186 8.13578 124.911 8.25143 123.648 8.25143Z" fill="#7A5F49"/>
</g>
<g opacity="0.76">
<path d="M114.578 12.4874C115.429 12.5632 116.287 12.5838 117.142 12.5492C116.356 12.4537 115.571 12.3582 114.785 12.2627L114.578 12.4874Z" fill="#7A5F49"/>
<path d="M116.339 12.6668C115.746 12.6668 115.152 12.6407 114.564 12.5883L114.346 12.5688L114.728 12.1543L118.394 12.5997L117.148 12.6504C116.879 12.6613 116.609 12.6668 116.339 12.6668ZM114.811 12.406C115.019 12.422 115.228 12.4351 115.437 12.4447L114.842 12.3723L114.811 12.406Z" fill="#7A5F49"/>
</g>
</g>
<g opacity="0.65">
<g opacity="0.76">
<path d="M164.525 43.1089C167.65 42.9955 170.374 42.8235 172.412 42.5728C172.412 42.5728 169.441 42.8425 164.525 43.1089Z" fill="#7A5F49"/>
<path d="M164.531 43.2103L164.516 43.0088C169.372 42.7457 172.368 42.4759 172.398 42.4731L172.432 42.6731C170.514 42.909 167.856 43.0897 164.531 43.2103Z" fill="#7A5F49"/>
</g>
<g opacity="0.76">
<path d="M126.821 56.6851C143.043 58.036 159.208 57.5468 168.469 57.0451C152.737 57.6155 126.821 56.6851 126.821 56.6851Z" fill="#7A5F49"/>
<path d="M149.514 57.657C142.513 57.657 134.652 57.4389 126.807 56.7855L126.826 56.5845C127.085 56.5939 152.917 57.5083 168.463 56.9445L168.477 57.1458C164.027 57.3869 157.303 57.657 149.514 57.657ZM131.761 56.9401C141.787 57.5564 151.54 57.5301 159.158 57.3214C149.151 57.3785 138.01 57.1181 131.761 56.9401Z" fill="#7A5F49"/>
</g>
<g opacity="0.76">
<path d="M24.1738 8.94502C56.169 9.05815 98.1602 9.23197 98.1826 9.29312C98.1106 9.09754 95.0825 9.01143 92.6435 8.97937C69.6662 8.67798 46.9677 8.82226 24.3024 8.88409C24.2603 8.90516 24.2168 8.92486 24.1738 8.94502Z" fill="#7A5F49"/>
<path d="M17.04 8.8999C15.6289 8.90213 14.2175 8.90435 12.8064 8.90547C14.1918 8.90992 15.6165 8.9146 17.0726 8.91949C17.0619 8.91304 17.0509 8.90658 17.04 8.8999Z" fill="#7A5F49"/>
<path d="M16.8761 8.7998C15.5169 8.80209 14.1588 8.80392 12.806 8.80507L12.8057 9.00683C14.26 9.01164 15.7389 9.01668 17.2376 9.02172C17.1174 8.94775 16.9969 8.87378 16.8761 8.7998Z" fill="#7A5F49"/>
<path d="M92.6459 8.87828C73.2491 8.62384 53.756 8.6882 34.9045 8.75026C31.4754 8.76148 27.9903 8.77293 24.4902 8.78255C24.3163 8.87965 24.1353 8.96713 23.9473 9.04477C57.5808 9.16317 97.5605 9.33288 98.16 9.39151L98.1827 9.2928L98.3044 9.2644C98.2643 9.15493 98.1891 8.95088 92.6459 8.87828ZM95.8322 9.15997C94.3153 9.14738 92.1139 9.13318 89.3718 9.1176C84.1899 9.08806 76.8611 9.05302 67.5891 9.01294C60.7144 8.98317 52.9435 8.95179 44.9152 8.92065C60.6146 8.8769 76.6612 8.87026 92.6418 9.07981C94.0549 9.09836 95.1509 9.12722 95.9775 9.16112C95.9303 9.16089 95.8815 9.16043 95.8322 9.15997Z" fill="#7A5F49"/>
</g>
<g opacity="0.76">
<path d="M164.275 47.0294C161.124 46.9902 158.724 46.965 158.069 46.9664C160.14 47.0229 162.207 47.036 164.275 47.0294Z" fill="#7A5F49"/>
<path d="M163.325 47.132C161.356 47.132 159.665 47.111 158.065 47.0668L158.069 46.8652C158.692 46.8678 160.953 46.887 164.277 46.9287L164.275 47.1304C163.951 47.1314 163.635 47.132 163.325 47.132Z" fill="#7A5F49"/>
</g>
<g opacity="0.76">
<path d="M95.5894 37.9157C98.5713 38.0112 101.554 38.1067 104.536 38.2022L105.323 37.9775C102.09 37.9017 98.8345 37.8811 95.5894 37.9157Z" fill="#7A5F49"/>
<path d="M104.555 38.3038L95.5842 38.0166L95.5877 37.815C98.8265 37.7805 102.103 37.8013 105.327 37.8766L105.997 37.8925L104.555 38.3038ZM101.999 38.0202L104.516 38.1009L104.647 38.0635C103.767 38.045 102.884 38.0305 101.999 38.0202Z" fill="#7A5F49"/>
</g>
<g opacity="0.76">
<path d="M92.8037 55.4151C79.2422 56.0309 56.9082 55.1758 56.9082 55.1758C70.8857 56.4798 84.82 55.9437 92.8037 55.4151Z" fill="#7A5F49"/>
<path d="M75.6287 56.0831C69.8067 56.0831 63.3425 55.8777 56.8931 55.276L56.9141 55.0752C57.1373 55.0839 79.396 55.9235 92.7963 55.3147L92.8142 55.5158C88.8185 55.7801 82.6972 56.0831 75.6287 56.0831ZM61.1662 55.4164C69.8035 56.0034 78.2072 55.9491 84.7735 55.7183C76.1537 55.8044 66.5517 55.5761 61.1662 55.4164Z" fill="#7A5F49"/>
</g>
<g opacity="0.76">
<path d="M92.8035 55.4148C95.4965 55.2925 97.8458 55.1125 99.6032 54.856C99.6032 54.856 97.0411 55.1344 92.8035 55.4148Z" fill="#7A5F49"/>
<path d="M92.8108 55.5163L92.793 55.3152C96.9781 55.0381 99.5604 54.7596 99.5864 54.7568L99.6265 54.9561C97.9723 55.1975 95.6792 55.3859 92.8108 55.5163Z" fill="#7A5F49"/>
</g>
<g opacity="0.76">
<path d="M113.637 53.6738C116.863 53.7143 120.089 53.7551 123.315 53.7956C129.829 53.8776 136.344 53.9596 142.859 54.0418C132.288 53.8096 121.716 53.5776 111.145 53.3456C109.024 53.2991 106.476 53.1633 104.419 53.456C106.384 53.9626 111.253 53.6436 113.637 53.6738Z" fill="#7A5F49"/>
<path d="M142.857 54.1411L113.635 53.7731C112.973 53.7646 112.104 53.7836 111.185 53.8038C108.793 53.8562 105.818 53.921 104.38 53.55L103.899 53.4256L104.397 53.3547C106.144 53.1062 108.257 53.1648 110.121 53.2163C110.472 53.2262 110.816 53.2356 111.149 53.2429L142.863 53.9393L142.857 54.1411ZM113.639 53.5713L121.311 53.6679L111.141 53.4447C110.807 53.4373 110.463 53.4277 110.112 53.4181C108.482 53.373 106.662 53.3226 105.076 53.4779C106.611 53.7019 109.114 53.6473 111.177 53.6022C112.1 53.5821 112.972 53.5633 113.639 53.5713Z" fill="#7A5F49"/>
</g>
<g opacity="0.76">
<path d="M97.6348 57.5626C102.154 57.5477 106.687 57.7195 111.205 57.8139C110.476 57.4774 109.531 57.4209 108.636 57.3872C104.983 57.2491 101.269 57.275 97.6348 57.5626Z" fill="#7A5F49"/>
<path d="M111.699 57.9254L111.201 57.9151C109.88 57.8876 108.558 57.8533 107.235 57.8191C104.087 57.7376 100.832 57.6547 97.6349 57.6641L97.6216 57.4628C100.982 57.1967 104.69 57.1376 108.642 57.2867C109.601 57.3231 110.524 57.384 111.268 57.7271L111.699 57.9254ZM100.793 57.479C102.958 57.5065 105.124 57.5626 107.243 57.6176C108.348 57.6462 109.453 57.6749 110.557 57.6994C109.977 57.5526 109.314 57.5141 108.63 57.4882C105.888 57.3847 103.264 57.3817 100.793 57.479Z" fill="#7A5F49"/>
</g>
<g opacity="0.76">
<path d="M44.7246 57.041C44.1107 57.0619 43.4977 57.0839 42.8867 57.1102C43.4968 57.1102 44.1098 57.0821 44.7246 57.041Z" fill="#7A5F49"/>
<path d="M42.8858 57.2113L42.8789 57.0098C43.4902 56.983 44.1037 56.961 44.7182 56.9399L44.7343 57.1412C44.0245 57.1891 43.4371 57.2113 42.8858 57.2113Z" fill="#7A5F49"/>
</g>
<g opacity="0.76">
<path d="M51.6526 56.6975C49.369 56.5319 47.0347 56.8852 44.7234 57.0412C47.0376 56.9615 49.3641 56.8994 51.6526 56.6975Z" fill="#7A5F49"/>
<path d="M44.7293 57.1415L44.7131 56.9402C45.3469 56.8974 45.9939 56.8388 46.6199 56.7818C48.2795 56.6311 49.9957 56.4756 51.6646 56.5965L52.9136 56.6872L51.6672 56.7973C49.6341 56.9769 47.5425 57.0469 45.5193 57.115L44.7293 57.1415Z" fill="#7A5F49"/>
</g>
<g opacity="0.76">
<path d="M59.4718 52.3168C58.6204 52.241 57.7629 52.2204 56.908 52.2552C57.6934 52.3507 58.4791 52.4462 59.2645 52.5417L59.4718 52.3168Z" fill="#7A5F49"/>
<path d="M59.3209 52.6506L55.6553 52.2051L56.9009 52.1545C57.7595 52.1197 58.6291 52.1406 59.4855 52.2166L59.7032 52.236L59.3209 52.6506ZM58.6118 52.3604L59.2073 52.4328L59.2384 52.3989C59.0299 52.3828 58.8212 52.37 58.6118 52.3604Z" fill="#7A5F49"/>
</g>
</g>
<g opacity="0.65">
<path d="M70.659 38.4053C41.8617 38.2821 18.7881 38.0508 18.7881 38.0508C36.4084 38.4816 54.0043 38.6952 70.6445 38.771C70.6494 38.6492 70.6541 38.5271 70.659 38.4053Z" fill="#7A5F49"/>
<path d="M70.7683 38.8724L70.6446 38.8717C52.3873 38.7886 34.9391 38.5463 18.7847 38.1515L18.7901 37.9497C19.0211 37.952 42.1927 38.1826 70.6602 38.3042L70.7905 38.3049L70.7683 38.8724ZM35.3488 38.2935C46.6209 38.4879 58.3919 38.6139 70.5221 38.6695L70.5284 38.5055C56.9499 38.4474 44.5847 38.3645 35.3488 38.2935Z" fill="#7A5F49"/>
</g>
<g opacity="0.65">
<path d="M0.483506 45.7915C0.482929 45.9225 0.479176 46.0533 0.47168 46.1838C8.44208 46.2763 15.54 45.9516 20.4166 45.6289C14.5712 45.8943 7.0973 45.8863 0.483506 45.7915Z" fill="#7A5F49"/>
<path d="M3.23085 46.3001C2.32433 46.3001 1.40311 46.295 0.470064 46.2843L0.338867 46.2827L0.344921 46.1787C0.352418 46.0495 0.35588 45.9201 0.356457 45.7905L0.357038 45.6884L0.48592 45.6902C8.72937 45.8084 15.432 45.7536 20.4095 45.5278L20.4273 45.7289C16.3419 45.9994 10.2238 46.3001 3.23085 46.3001ZM0.603847 46.0841C4.87262 46.1311 8.88564 46.0578 12.3955 45.9332C8.91996 45.9685 4.98219 45.9556 0.609329 45.8938C0.608176 45.9572 0.606442 46.0207 0.603847 46.0841Z" fill="#7A5F49"/>
</g>
<g opacity="0.65">
<path d="M25.2473 47.7746C29.7669 47.7597 34.2998 47.9315 38.8177 48.0258C38.0882 47.6894 37.1439 47.6328 36.249 47.5989C32.5958 47.4611 28.8818 47.4869 25.2473 47.7746Z" fill="#7A5F49"/>
<path d="M39.3117 48.1387L38.8143 48.1284C37.4929 48.1007 36.1706 48.0666 34.8474 48.0325C31.6991 47.9509 28.4461 47.868 25.2476 47.8774L25.2344 47.6761C28.5952 47.41 32.3026 47.3509 36.2548 47.5002C37.176 47.535 38.1373 47.5976 38.8812 47.9404L39.3117 48.1387ZM28.4058 47.6921C30.5708 47.7196 32.7374 47.7757 34.8555 47.8307C35.9609 47.8593 37.0658 47.8877 38.1699 47.9125C37.5897 47.7654 36.9263 47.7272 36.2429 47.7013C33.5006 47.5978 30.8771 47.5948 28.4058 47.6921Z" fill="#7A5F49"/>
</g>
<g opacity="0.65">
<path d="M32.0329 53.5061C24.4044 53.3405 16.6076 53.6936 8.88721 53.8498C16.616 53.7703 24.3877 53.7083 32.0329 53.5061Z" fill="#7A5F49"/>
<path d="M8.88845 53.95L8.88354 53.7482C11.0074 53.7054 13.1731 53.6465 15.2675 53.5897C20.7911 53.4395 26.5019 53.2849 32.0361 53.4044L32.037 53.606C25.2635 53.7851 18.2855 53.8554 11.5374 53.9229L8.88845 53.95Z" fill="#7A5F49"/>
</g>
<g opacity="0.65">
<path d="M66.8496 62.6738C50.2358 62.598 33.5024 62.5774 16.822 62.612C32.1498 62.7075 47.4767 62.8029 62.8045 62.8984L66.8496 62.6738Z" fill="#7A5F49"/>
<path d="M62.8137 62.9989L16.821 62.7126L16.8219 62.5108C33.4492 62.4763 50.281 62.4971 66.8503 62.5727L66.8584 62.7742L62.8137 62.9989ZM49.7444 62.7163L62.8056 62.7976L63.482 62.76C58.9183 62.7412 54.3338 62.7266 49.7444 62.7163Z" fill="#7A5F49"/>
</g>
<path opacity="0.05" d="M9.40833 0.888339C4.86852 0.888339 1.2312 3.87175 1.37623 7.47579C1.41112 8.34514 1.44225 9.39061 1.40564 10.7168L0.24221 52.8847C0.130337 56.9419 -0.142428 60.57 0.0928519 63.1451C0.29209 65.3237 2.60078 67.0004 5.3509 67.0004H85.9998L87.1179 0.772461L9.40833 0.888339ZM20.4599 9.53512C18.5171 9.53512 16.9419 8.28399 16.9419 6.74087C16.9419 5.19753 18.5171 3.94641 20.4599 3.94641C22.4029 3.94641 23.9781 5.19753 23.9781 6.74087C23.9781 8.28422 22.4029 9.53512 20.4599 9.53512Z" fill="#232222"/>
<path d="M22.9579 28.2109H21.7187V27.5254H30.6044V28.2109H29.0224L31.4569 35.418L32.7753 30.9883L31.7645 28.2109H31.1845V27.5254H39.411V28.2109H37.829L40.246 35.374L42.1708 28.7559C42.1884 28.7031 42.1972 28.6562 42.1972 28.6152C42.1972 28.5391 42.1562 28.4775 42.0741 28.4307C41.9979 28.3779 41.8866 28.3369 41.7401 28.3076C41.5995 28.2725 41.4296 28.249 41.2304 28.2373C41.037 28.2197 40.8231 28.2109 40.5888 28.2109V27.5254H44.7724V28.2109C44.2509 28.2109 43.8642 28.252 43.6122 28.334C43.3661 28.4102 43.2108 28.5508 43.1464 28.7559L39.8241 39.9795H36.0448L33.2763 32.3506L31.0175 39.9795H27.247L22.9579 28.2109ZM45.4315 34.9961C45.4315 34.2109 45.5927 33.502 45.9149 32.8691C46.2372 32.2363 46.6825 31.6973 47.2509 31.252C47.8251 30.8066 48.5019 30.4639 49.2812 30.2236C50.0663 29.9834 50.9159 29.8633 51.83 29.8633C52.5331 29.8633 53.1688 29.9336 53.7372 30.0742C54.3114 30.2148 54.8183 30.4082 55.2577 30.6543C55.703 30.8945 56.0839 31.1816 56.4003 31.5156C56.7226 31.8496 56.9862 32.21 57.1913 32.5967C57.4022 32.9834 57.5575 33.3906 57.6571 33.8184C57.7567 34.2402 57.8065 34.665 57.8065 35.0928H50.7577C50.7577 35.9893 50.7958 36.7188 50.872 37.2812C50.954 37.8438 51.08 38.2861 51.2499 38.6084C51.4257 38.9248 51.6483 39.1416 51.9179 39.2588C52.1933 39.376 52.5243 39.4346 52.911 39.4346C53.4032 39.4346 53.8661 39.373 54.2997 39.25C54.7333 39.127 55.12 38.9541 55.4599 38.7314C55.8056 38.5029 56.0927 38.2305 56.3212 37.9141C56.5497 37.5918 56.705 37.2314 56.787 36.833H57.6132C57.5546 37.3779 57.3876 37.8672 57.1122 38.3008C56.8368 38.7285 56.4706 39.0918 56.0136 39.3906C55.5624 39.6895 55.0292 39.918 54.414 40.0762C53.8046 40.2344 53.1366 40.3135 52.4101 40.3135C51.2675 40.3135 50.2597 40.1963 49.3866 39.9619C48.5194 39.7217 47.7929 39.376 47.2069 38.9248C46.621 38.4678 46.1786 37.9111 45.8798 37.2549C45.581 36.5928 45.4315 35.8398 45.4315 34.9961ZM53.2274 34.2051C53.2099 33.4727 53.1747 32.8633 53.122 32.377C53.0692 31.8906 52.9931 31.501 52.8935 31.208C52.7938 30.915 52.6708 30.71 52.5243 30.5928C52.3778 30.4697 52.202 30.4082 51.997 30.4082C51.7919 30.4082 51.6132 30.4697 51.4608 30.5928C51.3144 30.71 51.1913 30.915 51.0917 31.208C50.9921 31.501 50.9159 31.8906 50.8632 32.377C50.8104 32.8633 50.7782 33.4727 50.7665 34.2051H53.2274ZM59.3095 39.3467H60.8476V27.3232H59.3095V26.6904H66.077V39.3467H67.6151V39.9795H59.3095V39.3467ZM68.7841 39.3467H70.3222V27.3232H68.7841V26.6904H75.5517V39.3467H77.0897V39.9795H68.7841V39.3467ZM79.5507 27.3232H78.0038V26.6904H84.7802V30.7158C85.079 30.4697 85.4481 30.2676 85.8876 30.1094C86.3329 29.9453 86.8808 29.8633 87.5312 29.8633C88.4745 29.8633 89.2948 30.0068 89.9921 30.2939C90.6894 30.5752 91.2665 30.9561 91.7235 31.4365C92.1806 31.9111 92.5204 32.4648 92.7431 33.0977C92.9716 33.7305 93.0858 34.3955 93.0858 35.0928C93.0858 35.8076 92.9628 36.4814 92.7167 37.1143C92.4765 37.7471 92.1073 38.3008 91.6093 38.7754C91.1171 39.25 90.496 39.625 89.746 39.9004C88.996 40.1758 88.1112 40.3135 87.0917 40.3135C86.4589 40.3135 85.8964 40.2607 85.4042 40.1553C84.9179 40.0498 84.4843 39.9121 84.1034 39.7422C83.7284 39.5723 83.4032 39.3818 83.1278 39.1709C82.8524 38.9541 82.6181 38.7402 82.4247 38.5293L79.5507 40.3135V27.3232ZM84.6923 36.7891C84.6923 37.2461 84.7304 37.6416 84.8065 37.9756C84.8827 38.3096 84.9853 38.5879 85.1142 38.8105C85.2489 39.0332 85.4071 39.2002 85.5888 39.3115C85.7763 39.417 85.9813 39.4697 86.204 39.4697C86.4853 39.4697 86.7196 39.3906 86.9071 39.2324C87.0946 39.0742 87.247 38.8223 87.3642 38.4766C87.4813 38.1309 87.5634 37.6797 87.6103 37.123C87.663 36.5664 87.6894 35.8896 87.6894 35.0928C87.6894 34.3018 87.663 33.6367 87.6103 33.0977C87.5634 32.5527 87.4843 32.1104 87.3729 31.7705C87.2616 31.4307 87.1181 31.1875 86.9423 31.041C86.7724 30.8887 86.5614 30.8125 86.3095 30.8125C86.0399 30.8125 85.8026 30.8828 85.5976 31.0234C85.3983 31.1582 85.2313 31.3311 85.0966 31.542C84.9618 31.7529 84.8593 31.9844 84.789 32.2363C84.7245 32.4883 84.6923 32.7285 84.6923 32.957V36.7891ZM94.6503 34.9961C94.6503 34.2109 94.8114 33.502 95.1337 32.8691C95.456 32.2363 95.9013 31.6973 96.4696 31.252C97.0438 30.8066 97.7206 30.4639 98.4999 30.2236C99.2851 29.9834 100.135 29.8633 101.049 29.8633C101.752 29.8633 102.388 29.9336 102.956 30.0742C103.53 30.2148 104.037 30.4082 104.476 30.6543C104.922 30.8945 105.303 31.1816 105.619 31.5156C105.941 31.8496 106.205 32.21 106.41 32.5967C106.621 32.9834 106.776 33.3906 106.876 33.8184C106.975 34.2402 107.025 34.665 107.025 35.0928H99.9765C99.9765 35.9893 100.015 36.7188 100.091 37.2812C100.173 37.8438 100.299 38.2861 100.469 38.6084C100.644 38.9248 100.867 39.1416 101.137 39.2588C101.412 39.376 101.743 39.4346 102.13 39.4346C102.622 39.4346 103.085 39.373 103.518 39.25C103.952 39.127 104.339 38.9541 104.679 38.7314C105.024 38.5029 105.311 38.2305 105.54 37.9141C105.768 37.5918 105.924 37.2314 106.006 36.833H106.832C106.773 37.3779 106.606 37.8672 106.331 38.3008C106.056 38.7285 105.689 39.0918 105.232 39.3906C104.781 39.6895 104.248 39.918 103.633 40.0762C103.023 40.2344 102.355 40.3135 101.629 40.3135C100.486 40.3135 99.4784 40.1963 98.6054 39.9619C97.7382 39.7217 97.0116 39.376 96.4257 38.9248C95.8397 38.4678 95.3974 37.9111 95.0985 37.2549C94.7997 36.5928 94.6503 35.8398 94.6503 34.9961ZM102.446 34.2051C102.429 33.4727 102.393 32.8633 102.341 32.377C102.288 31.8906 102.212 31.501 102.112 31.208C102.013 30.915 101.89 30.71 101.743 30.5928C101.597 30.4697 101.421 30.4082 101.216 30.4082C101.011 30.4082 100.832 30.4697 100.68 30.5928C100.533 30.71 100.41 30.915 100.31 31.208C100.211 31.501 100.135 31.8906 100.082 32.377C100.029 32.8633 99.997 33.4727 99.9853 34.2051H102.446ZM112.589 29.3096C112.249 29.3096 111.921 29.2773 111.604 29.2129C111.288 29.1426 111.01 29.0342 110.769 28.8877C110.529 28.7354 110.336 28.542 110.189 28.3076C110.043 28.0732 109.97 27.7861 109.97 27.4463C109.97 27.1064 110.043 26.8193 110.189 26.585C110.336 26.3447 110.529 26.1514 110.769 26.0049C111.01 25.8525 111.288 25.7441 111.604 25.6797C111.921 25.6094 112.249 25.5742 112.589 25.5742C112.923 25.5742 113.248 25.6094 113.564 25.6797C113.881 25.7441 114.159 25.8525 114.399 26.0049C114.64 26.1514 114.833 26.3418 114.979 26.5762C115.126 26.8105 115.199 27.0977 115.199 27.4375C115.199 27.7773 115.126 28.0674 114.979 28.3076C114.833 28.542 114.64 28.7354 114.399 28.8877C114.159 29.0342 113.881 29.1426 113.564 29.2129C113.248 29.2773 112.923 29.3096 112.589 29.3096ZM108.528 39.3467H110.066V30.8301H108.528V30.1973H115.296V39.3467H116.834V39.9795H108.528V39.3467ZM118.003 39.3467H119.541V30.8301H118.003V30.1973H124.77V31.3223C124.958 31.0938 125.183 30.8887 125.447 30.707C125.717 30.5254 126.013 30.373 126.335 30.25C126.657 30.1211 127 30.0244 127.363 29.96C127.732 29.8955 128.11 29.8633 128.497 29.8633C129.294 29.8633 129.95 29.9688 130.466 30.1797C130.987 30.3848 131.397 30.6807 131.696 31.0674C131.995 31.4482 132.203 31.9141 132.32 32.4648C132.437 33.0098 132.496 33.6191 132.496 34.293V39.3467H134.034V39.9795H126.388V39.3467H127.267V34.293C127.267 33.6895 127.249 33.1973 127.214 32.8164C127.179 32.4297 127.117 32.1279 127.029 31.9111C126.941 31.6885 126.824 31.5361 126.678 31.4541C126.531 31.3662 126.347 31.3223 126.124 31.3223C125.901 31.3223 125.705 31.3691 125.535 31.4629C125.365 31.5566 125.222 31.6885 125.104 31.8584C124.993 32.0283 124.908 32.2305 124.85 32.4648C124.797 32.6992 124.77 32.9541 124.77 33.2295V39.3467H125.641V39.9795H118.003V39.3467ZM134.904 41.9395C134.904 41.6582 135.048 41.3828 135.335 41.1133C135.628 40.8438 136.108 40.5918 136.776 40.3574C135.85 39.8652 135.388 39.1416 135.388 38.1865C135.388 37.9053 135.432 37.6328 135.519 37.3691C135.607 37.0996 135.742 36.8477 135.924 36.6133C136.111 36.3789 136.346 36.1709 136.627 35.9893C136.914 35.8076 137.251 35.6611 137.638 35.5498C136.999 35.2744 136.516 34.9229 136.187 34.4951C135.859 34.0615 135.695 33.5664 135.695 33.0098C135.695 32.5938 135.807 32.1953 136.029 31.8145C136.258 31.4336 136.6 31.0996 137.058 30.8125C137.515 30.5195 138.092 30.2881 138.789 30.1182C139.486 29.9482 140.307 29.8633 141.25 29.8633C141.742 29.8633 142.199 29.8867 142.621 29.9336C143.049 29.9805 143.447 30.0479 143.816 30.1357C144.004 29.8135 144.229 29.5381 144.493 29.3096C144.757 29.0811 145.044 28.8936 145.354 28.7471C145.671 28.6006 146.005 28.4922 146.356 28.4219C146.708 28.3516 147.065 28.3164 147.429 28.3164C147.681 28.3164 147.915 28.3545 148.132 28.4307C148.349 28.501 148.536 28.5977 148.694 28.7207C148.858 28.8438 148.987 28.9873 149.081 29.1514C149.175 29.3154 149.222 29.4912 149.222 29.6787C149.222 29.8662 149.175 30.042 149.081 30.2061C148.987 30.3701 148.858 30.5137 148.694 30.6367C148.536 30.7598 148.349 30.8594 148.132 30.9355C147.915 31.0059 147.681 31.041 147.429 31.041C147.183 31.041 146.948 31.0059 146.725 30.9355C146.509 30.8594 146.318 30.7598 146.154 30.6367C145.99 30.5137 145.861 30.3701 145.767 30.2061C145.674 30.042 145.627 29.8662 145.627 29.6787C145.627 29.5264 145.662 29.374 145.732 29.2217C145.48 29.3271 145.24 29.4707 145.012 29.6523C144.789 29.834 144.599 30.0566 144.44 30.3203C145.214 30.584 145.8 30.9473 146.198 31.4102C146.602 31.8672 146.805 32.4004 146.805 33.0098C146.805 33.4844 146.682 33.915 146.435 34.3018C146.189 34.6885 145.829 35.0195 145.354 35.2949C144.886 35.5703 144.306 35.7842 143.614 35.9365C142.923 36.083 142.135 36.1562 141.25 36.1562C140.137 36.1562 139.184 36.042 138.393 35.8135C138.059 35.8779 137.825 35.9688 137.69 36.0859C137.561 36.2031 137.497 36.3232 137.497 36.4463C137.497 36.5283 137.526 36.6104 137.585 36.6924C137.643 36.7744 137.755 36.8477 137.919 36.9121C138.089 36.9766 138.32 37.0322 138.613 37.0791C138.906 37.1201 139.29 37.1406 139.765 37.1406H143.298C143.942 37.1406 144.537 37.1963 145.082 37.3076C145.627 37.4131 146.096 37.5918 146.488 37.8438C146.887 38.0898 147.197 38.4209 147.42 38.8369C147.642 39.2529 147.754 39.7686 147.754 40.3838C147.754 40.9111 147.634 41.3857 147.393 41.8076C147.159 42.2354 146.772 42.5986 146.233 42.8975C145.7 43.1963 145 43.4248 144.133 43.583C143.266 43.7412 142.205 43.8203 140.951 43.8203C139.861 43.8203 138.933 43.7705 138.165 43.6709C137.403 43.5713 136.779 43.4365 136.293 43.2666C135.812 43.0967 135.461 42.8975 135.238 42.6689C135.016 42.4404 134.904 42.1973 134.904 41.9395ZM141.25 35.6113C141.473 35.6113 141.657 35.5645 141.804 35.4707C141.956 35.3711 142.076 35.2188 142.164 35.0137C142.252 34.8027 142.313 34.5332 142.349 34.2051C142.384 33.877 142.401 33.4785 142.401 33.0098C142.401 32.541 142.384 32.1426 142.349 31.8145C142.313 31.4863 142.252 31.2197 142.164 31.0146C142.076 30.8037 141.956 30.6514 141.804 30.5576C141.657 30.458 141.473 30.4082 141.25 30.4082C141.027 30.4082 140.84 30.458 140.687 30.5576C140.541 30.6514 140.424 30.8037 140.336 31.0146C140.248 31.2197 140.183 31.4863 140.142 31.8145C140.107 32.1426 140.09 32.541 140.09 33.0098C140.09 33.4785 140.107 33.877 140.142 34.2051C140.183 34.5332 140.248 34.8027 140.336 35.0137C140.424 35.2188 140.541 35.3711 140.687 35.4707C140.84 35.5645 141.027 35.6113 141.25 35.6113ZM136.31 41.8516C136.31 41.9395 136.328 42.0332 136.363 42.1328C136.404 42.2324 136.48 42.332 136.592 42.4316C136.709 42.5312 136.87 42.625 137.075 42.7129C137.286 42.8008 137.564 42.8799 137.91 42.9502C138.256 43.0205 138.678 43.0762 139.176 43.1172C139.674 43.1582 140.268 43.1787 140.96 43.1787C141.786 43.1787 142.518 43.1436 143.157 43.0732C143.796 43.0029 144.332 42.9062 144.766 42.7832C145.205 42.666 145.536 42.5225 145.759 42.3525C145.987 42.1885 146.101 42.0098 146.101 41.8164C146.101 41.5352 145.893 41.3301 145.477 41.2012C145.061 41.0781 144.461 41.0166 143.676 41.0166H140.186C139.659 41.0166 139.176 40.9873 138.736 40.9287C138.297 40.8701 137.895 40.7852 137.532 40.6738C137.081 40.8613 136.765 41.0518 136.583 41.2451C136.401 41.4443 136.31 41.6465 136.31 41.8516Z" fill="white"/>
</svg>
